<svg width="30" height="29" viewBox="0 0 30 29" fill="none" xmlns="http://www.w3.org/2000/svg">
<path fill-rule="evenodd" clip-rule="evenodd" d="M11.5886 1.31802L5.1493 7.75735H1.50028C0.587458 7.75735 -0.113735 8.56583 0.0153576 9.46948L2.21882 24.8937C2.53553 27.1107 4.43417 28.7574 6.6736 28.7574H22.8679C25.1074 28.7574 27.006 27.1107 27.3227 24.8938L29.5262 9.46949C29.6553 8.56584 28.9541 7.75735 28.0413 7.75735H24.3919L17.9526 1.31802C16.1952 -0.439341 13.346 -0.439338 11.5886 1.31802ZM15.8313 3.43934C15.2455 2.85355 14.2957 2.85355 13.71 3.43934L9.39194 7.75735L20.1493 7.75736L15.8313 3.43934ZM10.2708 15.2574C10.2708 14.4289 9.59918 13.7574 8.77075 13.7574C7.94232 13.7574 7.27075 14.4289 7.27075 15.2574V21.2574C7.27075 22.0858 7.94232 22.7574 8.77075 22.7574C9.59918 22.7574 10.2708 22.0858 10.2708 21.2574V15.2574ZM14.7708 13.7574C15.5992 13.7574 16.2708 14.4289 16.2708 15.2574V21.2574C16.2708 22.0858 15.5992 22.7574 14.7708 22.7574C13.9423 22.7574 13.2708 22.0858 13.2708 21.2574V15.2574C13.2708 14.4289 13.9423 13.7574 14.7708 13.7574ZM22.2708 15.2574C22.2708 14.4289 21.5992 13.7574 20.7708 13.7574C19.9423 13.7574 19.2708 14.4289 19.2708 15.2574V21.2574C19.2708 22.0858 19.9423 22.7574 20.7708 22.7574C21.5992 22.7574 22.2708 22.0858 22.2708 21.2574V15.2574Z" fill="currentColor"/>
</svg>
