<svg width="43" height="35" viewBox="0 0 43 35" fill="none" xmlns="http://www.w3.org/2000/svg">
<path d="M17.6841 0.0131238C21.4895 -0.116644 25.2257 0.708126 28.4261 2.83585C32.1056 5.28234 34.4896 9.72585 35.2719 13.9944C35.349 14.4258 35.41 14.8599 35.4551 15.2959C35.5613 16.331 35.5814 17.1798 36.3457 17.9911C37.7058 19.4342 39.0722 20.8661 40.3648 22.3717C41.1573 23.2947 42.0644 24.0664 42.2915 25.3219C42.7117 27.6435 40.9187 29.5924 38.7156 30.008C37.1013 30.3091 35.5507 29.3766 34.3314 28.4204C33.9603 28.1292 33.5715 27.7541 33.1903 27.4907L33.1643 27.473C32.3567 27.8852 31.5803 28.2308 30.7569 28.67C28.7943 29.7176 26.909 30.9035 25.1155 32.2184C24.6463 32.5586 24.2036 32.9405 23.7252 33.2666C22.8453 33.8659 21.7274 34.2573 20.6632 34.3118C16.4677 34.5268 12.9788 30.7125 10.3325 27.9597C10.0019 27.6157 8.79946 26.297 8.48592 26.1296C8.00482 25.8731 7.41949 25.896 6.89043 25.9097C5.04055 25.9575 3.4704 26.0075 1.99208 24.6693C0.811171 23.6003 0.491466 22.5054 0.254413 20.9887C0.144306 20.2722 0.0691742 19.5507 0.0292791 18.8267C-0.213095 14.0023 1.03368 9.38026 4.3537 5.78288C6.81348 3.11758 10.3756 1.31436 13.8839 0.516822C15.1323 0.232271 16.4045 0.0636729 17.6841 0.0131238Z" fill="currentColor"/>
</svg>
