<svg width="31" height="38" viewBox="0 0 31 38" fill="none" xmlns="http://www.w3.org/2000/svg">
<path d="M25.769 0.269394C25.8832 0.358946 25.9717 0.548319 26.0147 0.672377C26.961 3.41398 27.5504 6.64441 27.8821 9.47803C28.6491 16.0342 29.0416 22.631 29.717 29.195C29.9533 31.495 30.3714 33.8866 30.5018 36.1792C30.5228 36.5498 30.6045 36.9224 30.1717 37.152C29.5676 37.4732 27.2292 37.4001 26.3872 37.4301C24.5869 37.4938 22.6195 37.6458 20.8359 37.6367C20.4393 37.6347 20.0861 37.474 19.9593 37.1738C18.7563 30.8694 17.8012 24.5334 16.5568 18.234C16.2167 16.5124 15.9295 15.9985 15.2855 14.3372C15.093 13.8404 14.9147 13.9203 14.8 14.3372C14.5364 15.2956 14.3619 16.2794 14.1639 17.2481C12.888 23.4826 11.9889 29.7644 10.7943 36.0084C10.7314 36.3378 10.677 36.9573 10.5266 37.2362C10.3977 37.4745 10.0498 37.6334 9.72546 37.6384C8.87455 37.6511 7.86961 37.5381 7.00561 37.5118C5.10365 37.4543 3.01621 37.4905 1.13574 37.3488C0.79412 37.3229 0.342471 37.2091 0.137604 36.9811C-0.0368727 36.7868 0.000852082 36.5724 0.00923536 36.3431C0.0783974 34.3829 0.484462 32.239 0.689329 30.2627C1.38566 23.5463 1.82841 16.8048 2.57609 10.0934C2.88365 7.33413 3.38822 4.59458 4.17311 1.89735C4.27213 1.55639 4.46652 0.624315 4.64938 0.381128C4.7919 0.190933 5.08479 0.113705 5.33995 0.0598919C11.7877 -0.0604689 18.2586 0.044282 24.7153 0.00690031C25.0438 0.050033 25.5227 0.0750911 25.7695 0.268983L25.769 0.269394Z" fill="currentColor"/>
</svg>
