<svg width="39" height="40" viewBox="0 0 39 40" fill="none" xmlns="http://www.w3.org/2000/svg">
<path d="M18.9859 0.00732298C19.9384 -0.0253173 21.1453 0.0534548 22.0827 0.197791C23.1967 0.362378 24.2926 0.634249 25.3552 1.00958C25.961 1.2231 26.5998 1.48493 27.1758 1.77508C27.3921 1.88406 27.6921 2.17677 27.9202 2.26824C29.0122 2.70615 30.1068 3.14549 31.1988 3.58248C32.0457 3.9213 32.7352 4.16868 33.5135 4.65837C34.4216 5.23048 35.2128 5.97145 35.8456 6.84165C36.781 8.1297 37.2958 9.81992 37.8927 11.2928C38.3426 12.4034 38.9819 13.635 38.7878 14.8504C38.6971 15.4457 38.4474 16.0051 38.0657 16.4688C37.6831 16.9302 36.2321 17.9741 35.6976 18.3701C34.6707 19.131 33.6219 19.9652 32.5908 20.7106L32.5973 32.6468C32.5979 33.3983 32.6304 34.2499 32.4785 34.98C32.285 35.872 31.851 36.6931 31.2238 37.353C30.7438 37.8602 30.1599 38.2564 29.513 38.5147C28.8603 38.7771 28.1067 38.8979 27.4177 39.0345C24.8642 39.5403 22.4569 39.7207 19.8654 39.7841C17.0601 39.8112 14.2588 39.5654 11.5004 39.0501C10.8521 38.9282 9.97533 38.7735 9.37574 38.5379C8.75427 38.2909 8.18921 37.9193 7.71498 37.4452C7.04921 36.7817 6.58164 35.9436 6.36537 35.0258C6.19625 34.2774 6.23327 33.4416 6.23386 32.6719L6.23206 20.696C5.95481 20.5161 5.584 20.2181 5.31264 20.0132L3.61374 18.7308L2.04254 17.5479C1.73145 17.3137 1.34796 17.0414 1.06512 16.7824C0.414164 16.1832 0.0308243 15.3449 0.00183788 14.4573C-0.00995892 14.1003 0.0350938 13.7438 0.135282 13.4013C0.294511 12.8366 0.82722 11.5702 1.06787 10.9779C1.45324 10.0294 1.93679 8.63316 2.40468 7.76989C2.73125 7.16511 3.13099 6.60344 3.59478 6.09766C4.87192 4.71005 5.922 4.25673 7.61057 3.58528L9.81773 2.70699C10.1775 2.5639 10.5543 2.42061 10.9103 2.27172C11.179 2.14656 11.4185 1.88994 11.6797 1.7611C14.0079 0.612583 16.4093 0.106658 18.9859 0.00732298Z" fill="currentColor"/>
<path d="M19.3097 3.52943C21.1706 3.52717 22.6377 3.80036 24.385 4.40396C23.0811 7.14972 21.6504 9.12452 19.4576 11.2068C19.4501 11.2134 19.4118 11.2257 19.4004 11.2299C19.0749 10.9594 18.6136 10.4797 18.3256 10.1776C16.6807 8.4528 15.4597 6.53706 14.4385 4.39926C16.2636 3.80103 17.3754 3.58148 19.3097 3.52943Z" fill="#F4F4F6"/>
</svg>
