<svg width="24" height="28" viewBox="0 0 24 28" fill="none" xmlns="http://www.w3.org/2000/svg">
<path d="M14.262 0.322911C13.9087 0.643562 11.1602 6.21154 11.1602 6.21154L9.11523 14.632L17.0726 13.8871C17.0726 13.8871 23.6918 1.32161 23.826 1.03102C24.0648 0.503277 24.1924 0.28617 23.2795 0.28617C22.3667 0.282829 14.5925 0.0222999 14.262 0.322911Z" fill="#176CC7"/>
<path d="M0.00397373 0.149296C-0.20216 0.343023 7.67999 14.6721 7.67999 14.6721C7.67999 14.6721 9.00186 14.8458 11.9532 14.8725C14.9045 14.8993 16.367 14.6989 16.367 14.6989C16.367 14.6989 10.2387 0.292922 9.8722 0.149296C9.69224 0.0758137 7.26445 0.0490927 4.89228 0.0223717C2.51684 -0.00768939 0.200291 -0.0377504 0.00397373 0.149296Z" fill="#2E9DF4"/>
<circle cx="11.5723" cy="18.4287" r="8.14286" fill="#ABB7C7" stroke="#8595AA" stroke-width="1.71429"/>
<path d="M8.93638 21.5534V20.3179L11.5882 17.9876C12.2009 17.4251 12.5525 17.0534 12.5625 16.501C12.5525 15.8983 12.1105 15.5166 11.4978 15.5166C10.875 15.5166 10.4632 15.9083 10.4632 16.5713H8.83594C8.83594 15.1048 9.91072 14.1807 11.5078 14.1807C13.1451 14.1807 14.2199 15.0646 14.2199 16.3704C14.2199 17.2041 13.808 17.8972 12.231 19.2733L11.317 20.1171V20.1673H14.3103V21.5534H8.93638Z" fill="white"/>
</svg>
