<svg width="20" height="20" viewBox="0 0 20 20" fill="none" xmlns="http://www.w3.org/2000/svg">
<path fill-rule="evenodd" clip-rule="evenodd" d="M7.16667 17.9583L8.33333 17.0833L9.5 17.9583C9.7963 18.1805 10.2037 18.1805 10.5 17.9583L11.6667 17.0833L12.8333 17.9583C13.1296 18.1805 13.537 18.1805 13.8333 17.9583L15 17.0833L16.1332 18.0276C16.676 18.4799 17.5 18.094 17.5 17.3874V2.61251C17.5 1.90598 16.676 1.52002 16.1332 1.97233L15 2.91665L13.8333 2.04165C13.537 1.81942 13.1296 1.81942 12.8333 2.04165L11.6667 2.91665L10.5 2.04165C10.2037 1.81942 9.7963 1.81942 9.5 2.04165L8.33333 2.91665L7.16667 2.04165C6.87037 1.81942 6.46296 1.81942 6.16667 2.04165L5 2.91665L3.86682 1.97233C3.32405 1.52002 2.5 1.90598 2.5 2.61251V17.3874C2.5 18.094 3.32405 18.4799 3.86682 18.0276L5 17.0833L6.16667 17.9583C6.46296 18.1805 6.87037 18.1805 7.16667 17.9583ZM5.83333 8.33332C5.83333 7.87309 6.20643 7.49999 6.66667 7.49999H13.3333C13.7936 7.49999 14.1667 7.87309 14.1667 8.33332C14.1667 8.79356 13.7936 9.16666 13.3333 9.16666H6.66667C6.20643 9.16666 5.83333 8.79356 5.83333 8.33332ZM6.66667 10.8333C6.20643 10.8333 5.83333 11.2064 5.83333 11.6667C5.83333 12.1269 6.20643 12.5 6.66667 12.5H10C10.4602 12.5 10.8333 12.1269 10.8333 11.6667C10.8333 11.2064 10.4602 10.8333 10 10.8333H6.66667Z" fill="#ADB1BB"/>
</svg>
