<svg preserveAspectRatio="none" width="100%" height="100%" overflow="visible" style="display: block;" viewBox="0 0 299 18" fill="none" xmlns="http://www.w3.org/2000/svg">
<path id="Vector" d="M0 0V18H5.34136C8.78615 16.4878 10.4118 12.6406 14.3694 12.6406C18.898 12.6406 19.7688 16.51 22.8943 18H28.255C31.3805 16.5175 32.2514 12.6406 36.7799 12.6406C41.3084 12.6406 42.1793 16.51 45.3048 18H50.6655C53.791 16.5175 54.6618 12.6406 59.1904 12.6406C63.7189 12.6406 64.5898 16.51 67.7153 18H73.076C76.2015 16.5175 77.0723 12.6406 81.6009 12.6406C86.1294 12.6406 87.0003 16.51 90.1258 18H95.4865C98.6119 16.5175 99.4828 12.6406 104.011 12.6406C108.54 12.6406 109.411 16.51 112.536 18H117.897C121.022 16.5175 121.893 12.6406 126.422 12.6406C130.95 12.6406 131.821 16.51 134.947 18H140.307C143.433 16.5175 144.304 12.6406 148.832 12.6406C153.361 12.6406 154.232 16.51 157.357 18H162.718C165.843 16.5175 166.714 12.6406 171.243 12.6406C175.771 12.6406 176.642 16.51 179.768 18H185.128C188.254 16.5175 189.125 12.6406 193.653 12.6406C198.182 12.6406 199.053 16.51 202.178 18H207.539C210.664 16.5175 211.535 12.6406 216.064 12.6406C220.592 12.6406 221.463 16.51 224.589 18H229.949C233.075 16.5175 233.946 12.6406 238.474 12.6406C243.003 12.6406 243.874 16.51 246.999 18H252.36C255.485 16.5175 256.356 12.6406 260.885 12.6406C265.413 12.6406 266.284 16.51 269.41 18H274.77C277.896 16.5175 278.767 12.6406 283.295 12.6406C287.824 12.6406 288.695 16.51 291.82 18H297.181C297.878 17.6664 298.468 17.2217 299 16.725V0" fill="var(--fill-0, white)"/>
</svg>
