<svg width="17" height="17" viewBox="0 0 17 17" fill="none" xmlns="http://www.w3.org/2000/svg">
<path fill-rule="evenodd" clip-rule="evenodd" d="M8.33333 16.6667C12.9357 16.6667 16.6667 12.9357 16.6667 8.33333C16.6667 3.73096 12.9357 0 8.33333 0C3.73096 0 0 3.73096 0 8.33333C0 12.9357 3.73096 16.6667 8.33333 16.6667ZM8.33334 13.3333C5.46714 13.3333 3.89661 11.7873 3.45788 10.027C3.3431 9.56652 3.72952 9.16667 4.20413 9.16667H12.4626C12.9372 9.16667 13.3236 9.56651 13.2088 10.027C12.7701 11.7873 11.1996 13.3333 8.33334 13.3333ZM5.83333 5.83333C5.83333 6.29357 5.46024 6.66667 5 6.66667C4.53976 6.66667 4.16667 6.29357 4.16667 5.83333C4.16667 5.3731 4.53976 5 5 5C5.46024 5 5.83333 5.3731 5.83333 5.83333ZM11.6667 6.66667C12.1269 6.66667 12.5 6.29357 12.5 5.83333C12.5 5.3731 12.1269 5 11.6667 5C11.2064 5 10.8333 5.3731 10.8333 5.83333C10.8333 6.29357 11.2064 6.66667 11.6667 6.66667Z" fill="#1F7AF9"/>
</svg>
