<svg width="24" height="24" viewBox="56 16 24 24" fill="none" xmlns="http://www.w3.org/2000/svg">

<path d="M33.25 19H22.75C20.68 19 19 20.68 19 22.75V33.25C19 35.32 20.68 37 22.75 37H33.25C35.32 37 37 35.32 37 33.25V22.75C37 20.68 35.32 19 33.25 19ZM24.25 32.5C24.25 32.9125 23.9125 33.25 23.5 33.25C23.0875 33.25 22.75 32.9125 22.75 32.5V28C22.75 27.5875 23.0875 27.25 23.5 27.25C23.9125 27.25 24.25 27.5875 24.25 28V32.5ZM27.25 32.5C27.25 32.9125 26.9125 33.25 26.5 33.25C26.0875 33.25 25.75 32.9125 25.75 32.5V25.75C25.75 25.3375 26.0875 25 26.5 25C26.9125 25 27.25 25.3375 27.25 25.75V32.5ZM30.25 32.5C30.25 32.9125 29.9125 33.25 29.5 33.25C29.0875 33.25 28.75 32.9125 28.75 32.5V23.5C28.75 23.0875 29.0875 22.75 29.5 22.75C29.9125 22.75 30.25 23.0875 30.25 23.5V32.5ZM33.25 32.5C33.25 32.9125 32.9125 33.25 32.5 33.25C32.0875 33.25 31.75 32.9125 31.75 32.5V30.25C31.75 29.8375 32.0875 29.5 32.5 29.5C32.9125 29.5 33.25 29.8375 33.25 30.25V32.5Z" fill="currentColor"/>
<path d="M67.25 25.75V32.5C67.25 32.9125 66.9125 33.25 66.5 33.25C66.0875 33.25 65.75 32.9125 65.75 32.5V25.75C65.75 25.3375 66.0875 25 66.5 25C66.9125 25 67.25 25.3375 67.25 25.75ZM77 22.75V33.25C77 35.32 75.32 37 73.25 37H62.75C60.68 37 59 35.32 59 33.25V22.75C59 20.68 60.68 19 62.75 19H73.25C75.32 19 77 20.68 77 22.75ZM75.5 22.75C75.5 21.5125 74.4875 20.5 73.25 20.5H62.75C61.5125 20.5 60.5 21.5125 60.5 22.75V33.25C60.5 34.4875 61.5125 35.5 62.75 35.5H73.25C74.4875 35.5 75.5 34.4875 75.5 33.25V22.75ZM63.5 27.25C63.0875 27.25 62.75 27.5875 62.75 28V32.5C62.75 32.9125 63.0875 33.25 63.5 33.25C63.9125 33.25 64.25 32.9125 64.25 32.5V28C64.25 27.5875 63.9125 27.25 63.5 27.25ZM69.5 22.75C69.0875 22.75 68.75 23.0875 68.75 23.5V32.5C68.75 32.9125 69.0875 33.25 69.5 33.25C69.9125 33.25 70.25 32.9125 70.25 32.5V23.5C70.25 23.0875 69.9125 22.75 69.5 22.75ZM72.5 29.5C72.0875 29.5 71.75 29.8375 71.75 30.25V32.5C71.75 32.9125 72.0875 33.25 72.5 33.25C72.9125 33.25 73.25 32.9125 73.25 32.5V30.25C73.25 29.8375 72.9125 29.5 72.5 29.5Z" fill="currentColor"/>
</svg>
