<svg width="24" height="24" color="#6F767E" viewBox="56 16 24 24" fill="none" xmlns="http://www.w3.org/2000/svg">

<path fill-rule="evenodd" clip-rule="evenodd" d="M28 38C33.5228 38 38 33.5228 38 28C38 22.4772 33.5228 18 28 18C22.4772 18 18 22.4772 18 28C18 33.5228 22.4772 38 28 38ZM28 23C28.5523 23 29 23.4477 29 24V27H32C32.5523 27 33 27.4477 33 28C33 28.5523 32.5523 29 32 29H29L29 32C29 32.5523 28.5523 33 28 33C27.4477 33 27 32.5523 27 32V29H24C23.4477 29 23 28.5523 23 28C23 27.4477 23.4477 27 24 27H27V24C27 23.4477 27.4477 23 28 23Z" fill="currentColor"/>
<path fill-rule="evenodd" clip-rule="evenodd" d="M68 36C72.4183 36 76 32.4183 76 28C76 23.5817 72.4183 20 68 20C63.5817 20 60 23.5817 60 28C60 32.4183 63.5817 36 68 36ZM68 38C73.5228 38 78 33.5228 78 28C78 22.4772 73.5228 18 68 18C62.4772 18 58 22.4772 58 28C58 33.5228 62.4772 38 68 38Z" fill="currentColor"/>
<path d="M69 24C69 23.4477 68.5523 23 68 23C67.4477 23 67 23.4477 67 24V27H64C63.4477 27 63 27.4477 63 28C63 28.5523 63.4477 29 64 29H67V32C67 32.5523 67.4477 33 68 33C68.5523 33 69 32.5523 69 32L69 29H72C72.5523 29 73 28.5523 73 28C73 27.4477 72.5523 27 72 27H69V24Z" fill="currentColor"/>
</svg>
