<svg width="24" height="24" color="#6F767E" viewBox="56 16 24 24" fill="none" xmlns="http://www.w3.org/2000/svg">

<path fill-rule="evenodd" clip-rule="evenodd" d="M27.9999 37.0002C32.4181 37.0002 35.9999 33.4185 35.9999 29.0002C35.9999 24.5819 32.4181 21.0002 27.9999 21.0002C23.5816 21.0002 19.9999 24.5819 19.9999 29.0002C19.9999 33.4185 23.5816 37.0002 27.9999 37.0002ZM28.9999 25.0002C28.9999 24.4479 28.5521 24.0002 27.9999 24.0002C27.4476 24.0002 26.9999 24.4479 26.9999 25.0002V28.586C26.9999 29.1164 27.2106 29.6251 27.5857 30.0002L29.2928 31.7073C29.6833 32.0978 30.3164 32.0978 30.707 31.7073C31.0975 31.3168 31.0975 30.6836 30.707 30.2931L28.9999 28.586V25.0002Z" fill="currentColor"/>
<path d="M23.4659 20.0852C23.216 19.5937 22.612 19.3942 22.1453 19.6876C20.7526 20.5632 19.5738 21.7402 18.6962 23.1316C18.402 23.5979 18.6006 24.2021 19.0917 24.4528C19.5827 24.7034 20.1795 24.5047 20.483 24.0445C21.1569 23.0223 22.0323 22.1482 23.0555 21.4758C23.5162 21.1731 23.7158 20.5766 23.4659 20.0852Z" fill="currentColor"/>
<path d="M32.5338 20.0852C32.7837 19.5937 33.3877 19.3942 33.8544 19.6876C35.2471 20.5632 36.4259 21.7402 37.3036 23.1316C37.5977 23.5979 37.3991 24.2021 36.908 24.4528C36.417 24.7034 35.8202 24.5047 35.5168 24.0445C34.8429 23.0223 33.9674 22.1482 32.9442 21.4758C32.4835 21.1731 32.2839 20.5766 32.5338 20.0852Z" fill="currentColor"/>
<path fill-rule="evenodd" clip-rule="evenodd" d="M67.9999 35.0002C71.3136 35.0002 73.9999 32.3139 73.9999 29.0002C73.9999 25.6865 71.3136 23.0002 67.9999 23.0002C64.6862 23.0002 61.9999 25.6865 61.9999 29.0002C61.9999 32.3139 64.6862 35.0002 67.9999 35.0002ZM67.9999 37.0002C72.4181 37.0002 75.9999 33.4185 75.9999 29.0002C75.9999 24.5819 72.4181 21.0002 67.9999 21.0002C63.5816 21.0002 59.9999 24.5819 59.9999 29.0002C59.9999 33.4185 63.5816 37.0002 67.9999 37.0002Z" fill="currentColor"/>
<path d="M63.4659 20.0852C63.216 19.5937 62.612 19.3942 62.1453 19.6876C60.7526 20.5632 59.5738 21.7402 58.6962 23.1316C58.402 23.5979 58.6006 24.2021 59.0917 24.4528C59.5827 24.7034 60.1795 24.5047 60.483 24.0445C61.1569 23.0223 62.0323 22.1482 63.0555 21.4758C63.5162 21.1731 63.7158 20.5766 63.4659 20.0852Z" fill="currentColor"/>
<path d="M72.5338 20.0852C72.7837 19.5937 73.3877 19.3942 73.8544 19.6876C75.2471 20.5632 76.4259 21.7402 77.3036 23.1316C77.5977 23.5979 77.3991 24.2021 76.908 24.4528C76.417 24.7034 75.8202 24.5047 75.5168 24.0445C74.8429 23.0223 73.9674 22.1482 72.9442 21.4758C72.4835 21.1731 72.2839 20.5766 72.5338 20.0852Z" fill="currentColor"/>
<path fill-rule="evenodd" clip-rule="evenodd" d="M67.9999 24.0002C68.5521 24.0002 68.9999 24.4479 68.9999 25.0002V28.586L70.707 30.2931C71.0975 30.6836 71.0975 31.3168 70.707 31.7073C70.3164 32.0978 69.6833 32.0978 69.2928 31.7073L67.5857 30.0002C67.2106 29.6251 66.9999 29.1164 66.9999 28.586V25.0002C66.9999 24.4479 67.4476 24.0002 67.9999 24.0002Z" fill="currentColor"/>
</svg>
