<svg width="24" height="24" color="#6F767E" viewBox="56 16 24 24" fill="none" xmlns="http://www.w3.org/2000/svg">

<path fill-rule="evenodd" clip-rule="evenodd" d="M19 22C19 21.4477 19.4477 21 20 21H36C36.5523 21 37 21.4477 37 22C37 22.5523 36.5523 23 36 23H20C19.4477 23 19 22.5523 19 22Z" fill="currentColor"/>
<path fill-rule="evenodd" clip-rule="evenodd" d="M22 26C22 25.4477 22.4477 25 23 25H33C33.5523 25 34 25.4477 34 26C34 26.5523 33.5523 27 33 27H23C22.4477 27 22 26.5523 22 26Z" fill="currentColor"/>
<path fill-rule="evenodd" clip-rule="evenodd" d="M19 30C19 29.4477 19.4477 29 20 29H36C36.5523 29 37 29.4477 37 30C37 30.5523 36.5523 31 36 31H20C19.4477 31 19 30.5523 19 30Z" fill="currentColor"/>
<path fill-rule="evenodd" clip-rule="evenodd" d="M22 34C22 33.4477 22.4477 33 23 33H33C33.5523 33 34 33.4477 34 34C34 34.5523 33.5523 35 33 35H23C22.4477 35 22 34.5523 22 34Z" fill="currentColor"/>
<path fill-rule="evenodd" clip-rule="evenodd" d="M59 22C59 21.4477 59.4477 21 60 21H76C76.5523 21 77 21.4477 77 22C77 22.5523 76.5523 23 76 23H60C59.4477 23 59 22.5523 59 22Z" fill="currentColor"/>
<path fill-rule="evenodd" clip-rule="evenodd" d="M62 26C62 25.4477 62.4477 25 63 25H73C73.5523 25 74 25.4477 74 26C74 26.5523 73.5523 27 73 27H63C62.4477 27 62 26.5523 62 26Z" fill="currentColor"/>
<path fill-rule="evenodd" clip-rule="evenodd" d="M59 30C59 29.4477 59.4477 29 60 29H76C76.5523 29 77 29.4477 77 30C77 30.5523 76.5523 31 76 31H60C59.4477 31 59 30.5523 59 30Z" fill="currentColor"/>
<path fill-rule="evenodd" clip-rule="evenodd" d="M62 34C62 33.4477 62.4477 33 63 33H73C73.5523 33 74 33.4477 74 34C74 34.5523 73.5523 35 73 35H63C62.4477 35 62 34.5523 62 34Z" fill="currentColor"/>
</svg>
