<svg width="24" height="24" color="#6F767E" viewBox="56 16 24 24" fill="none" xmlns="http://www.w3.org/2000/svg">

<path fill-rule="evenodd" clip-rule="evenodd" d="M18 23.7016C18 23.2474 18.1546 22.8068 18.4383 22.4522L21.0993 19.1259C21.6686 18.4143 22.5305 18 23.4419 18H32.5581C33.4695 18 34.3314 18.4143 34.9007 19.1259L37.5617 22.4522C37.8454 22.8068 38 23.2474 38 23.7016V35C38 36.6569 36.6569 38 35 38H21C19.3431 38 18 36.6569 18 35V23.7016ZM23.4419 20H32.5581C32.8619 20 33.1492 20.1381 33.339 20.3753L35.1138 22.5938C35.2448 22.7575 35.1282 23 34.9186 23H21.0814C20.8718 23 20.7552 22.7575 20.8862 22.5938L22.661 20.3753C22.8508 20.1381 23.1381 20 23.4419 20ZM29.002 26.9996C29.002 26.4473 28.5542 25.9996 28.002 25.9996C27.4497 25.9996 27.002 26.4473 27.002 26.9996V32.0859L26.2071 31.291C25.8166 30.9005 25.1834 30.9005 24.7929 31.291C24.4024 31.6816 24.4024 32.3147 24.7929 32.7053L26.5877 34.5C27.3687 35.2811 28.635 35.2811 29.4161 34.5L31.2071 32.7091C31.5976 32.3185 31.5976 31.6854 31.2071 31.2948C30.8166 30.9043 30.1834 30.9043 29.7929 31.2948L29.002 32.0858V26.9996Z" fill="currentColor"/>
<path d="M69.0019 26.9996C69.0019 26.4473 68.5542 25.9996 68.0019 25.9996C67.4496 25.9996 67.0019 26.4473 67.0019 26.9996V31.0858L66.2071 30.291C65.8166 29.9005 65.1834 29.9005 64.7929 30.291C64.4024 30.6816 64.4024 31.3147 64.7929 31.7053L66.5877 33.5C67.3687 34.2811 68.6351 34.2811 69.4161 33.5L71.2071 31.7091C71.5976 31.3185 71.5976 30.6854 71.2071 30.2948C70.8166 29.9043 70.1834 29.9043 69.7929 30.2948L69.0019 31.0858V26.9996Z" fill="currentColor"/>
<path fill-rule="evenodd" clip-rule="evenodd" d="M58.0147 22.8285C58.0784 22.2217 58.3482 21.6518 58.7836 21.2164L61.1213 18.8787C61.6839 18.3161 62.447 18 63.2426 18H72.7574C73.553 18 74.3161 18.3161 74.8787 18.8787L77.2164 21.2164C77.6518 21.6518 77.9216 22.2217 77.9853 22.8285C77.995 22.8842 78 22.9415 78 23V35C78 36.6569 76.6569 38 75 38H61C59.3431 38 58 36.6569 58 35V23C58 22.9415 58.005 22.8842 58.0147 22.8285ZM63.2426 20H72.7574C73.0226 20 73.2769 20.1054 73.4645 20.2929L75.1716 22H60.8284L62.5355 20.2929C62.7231 20.1054 62.9774 20 63.2426 20ZM60 24V35C60 35.5523 60.4477 36 61 36H75C75.5523 36 76 35.5523 76 35V24H60Z" fill="currentColor"/>
</svg>
