<svg width="24" height="24" color="#6F767E" viewBox="56 16 24 24" fill="none" xmlns="http://www.w3.org/2000/svg">

<path d="M22.2071 26.707C21.8166 27.0975 21.1834 27.0975 20.7929 26.707C20.4024 26.3164 20.4024 25.6833 20.7929 25.2927L26.5858 19.4998C27.3668 18.7188 28.6332 18.7188 29.4142 19.4998L35.2071 25.2927C35.5976 25.6833 35.5976 26.3164 35.2071 26.707C34.8166 27.0975 34.1834 27.0975 33.7929 26.707L29 21.9141V35.9998C29 36.5521 28.5523 36.9998 28 36.9998C27.4477 36.9998 27 36.5521 27 35.9998V21.9141L22.2071 26.707Z" fill="currentColor"/>
<path d="M62.2071 26.707C61.8166 27.0975 61.1834 27.0975 60.7929 26.707C60.4024 26.3164 60.4024 25.6833 60.7929 25.2927L66.5858 19.4998C67.3668 18.7188 68.6332 18.7188 69.4142 19.4998L75.2071 25.2927C75.5976 25.6833 75.5976 26.3164 75.2071 26.707C74.8166 27.0975 74.1834 27.0975 73.7929 26.707L69 21.9141V35.9998C69 36.5521 68.5523 36.9998 68 36.9998C67.4477 36.9998 67 36.5521 67 35.9998V21.9141L62.2071 26.707Z" fill="currentColor"/>
</svg>
