<svg width="24" height="24" viewBox="56 16 24 24" fill="none" xmlns="http://www.w3.org/2000/svg">

<path d="M26.707 33.7929C27.0975 34.1834 27.0975 34.8166 26.707 35.2071C26.3164 35.5976 25.6833 35.5976 25.2927 35.2071L19.4998 29.4142C18.7188 28.6332 18.7188 27.3668 19.4998 26.5858L25.2927 20.7929C25.6833 20.4024 26.3164 20.4024 26.707 20.7929C27.0975 21.1834 27.0975 21.8166 26.707 22.2071L21.9141 27H35.9998C36.5521 27 36.9998 27.4477 36.9998 28C36.9998 28.5523 36.5521 29 35.9998 29H21.9141L26.707 33.7929Z" fill="currentColor"/>
<path d="M66.707 33.7929C67.0975 34.1834 67.0975 34.8166 66.707 35.2071C66.3164 35.5976 65.6833 35.5976 65.2927 35.2071L59.4998 29.4142C58.7188 28.6332 58.7188 27.3668 59.4998 26.5858L65.2927 20.7929C65.6833 20.4024 66.3164 20.4024 66.707 20.7929C67.0975 21.1834 67.0975 21.8166 66.707 22.2071L61.9141 27H75.9998C76.5521 27 76.9998 27.4477 76.9998 28C76.9998 28.5523 76.5521 29 75.9998 29H61.9141L66.707 33.7929Z" fill="currentColor"/>
</svg>
