<svg width="24" height="24" color="#6F767E" viewBox="56 16 24 24" fill="none" xmlns="http://www.w3.org/2000/svg">

<path d="M29 20C29 19.4477 28.5523 19 28 19C27.4477 19 27 19.4477 27 20V34.0858L22.2071 29.2929C21.8166 28.9024 21.1834 28.9024 20.7929 29.2929C20.4024 29.6834 20.4024 30.3166 20.7929 30.7071L26.5858 36.5C27.3668 37.281 28.6332 37.281 29.4142 36.5L35.2071 30.7071C35.5976 30.3166 35.5976 29.6834 35.2071 29.2929C34.8166 28.9024 34.1834 28.9024 33.7929 29.2929L29 34.0858V20Z" fill="currentColor"/>
<path d="M69 20C69 19.4477 68.5523 19 68 19C67.4477 19 67 19.4477 67 20V34.0858L62.2071 29.2929C61.8166 28.9024 61.1834 28.9024 60.7929 29.2929C60.4024 29.6834 60.4024 30.3166 60.7929 30.7071L66.5858 36.5C67.3668 37.281 68.6332 37.281 69.4142 36.5L75.2071 30.7071C75.5976 30.3166 75.5976 29.6834 75.2071 29.2929C74.8166 28.9024 74.1834 28.9024 73.7929 29.2929L69 34.0858V20Z" fill="currentColor"/>
</svg>
