<svg width="24" height="24" viewBox="56 16 24 24" fill="none" xmlns="http://www.w3.org/2000/svg">

<path fill-rule="evenodd" clip-rule="evenodd" d="M28 20C23.5817 20 20 23.5817 20 28C20 32.4183 23.5817 36 28 36C29.279 36 30.4852 35.7006 31.555 35.169C32.0495 34.9232 32.6497 35.1249 32.8955 35.6194C33.1413 36.114 32.9396 36.7142 32.445 36.96C31.1049 37.626 29.5947 38 28 38C22.4772 38 18 33.5228 18 28C18 22.4772 22.4772 18 28 18C33.5228 18 38 22.4772 38 28V29C38 30.409 37.6473 31.5353 36.987 32.3277C36.3167 33.132 35.4033 33.5 34.5 33.5C33.2731 33.5 32.0324 32.8089 31.4101 31.6567C30.5168 32.4901 29.318 33 28 33C25.2386 33 23 30.7614 23 28C23 25.2386 25.2386 23 28 23C29.1256 23 30.1643 23.3719 31 23.9996C31.0002 23.4475 31.4478 23 32 23C32.5523 23 33 23.4477 33 24V30C33 30.8839 33.7362 31.5 34.5 31.5C34.8467 31.5 35.1833 31.368 35.4505 31.0473C35.7277 30.7147 36 30.091 36 29V28C36 23.5817 32.4183 20 28 20ZM31 28C31 26.3431 29.6569 25 28 25C26.3431 25 25 26.3431 25 28C25 29.6569 26.3431 31 28 31C29.6569 31 31 29.6569 31 28Z" fill="currentColor"/>
<path fill-rule="evenodd" clip-rule="evenodd" d="M68 20C63.5817 20 60 23.5817 60 28C60 32.4183 63.5817 36 68 36C69.279 36 70.4852 35.7006 71.555 35.169C72.0495 34.9232 72.6497 35.1249 72.8955 35.6194C73.1413 36.114 72.9396 36.7142 72.445 36.96C71.1049 37.626 69.5947 38 68 38C62.4772 38 58 33.5228 58 28C58 22.4772 62.4772 18 68 18C73.5228 18 78 22.4772 78 28V29C78 30.409 77.6473 31.5353 76.987 32.3277C76.3167 33.132 75.4033 33.5 74.5 33.5C73.2731 33.5 72.0324 32.8089 71.4101 31.6567C70.5168 32.4901 69.318 33 68 33C65.2386 33 63 30.7614 63 28C63 25.2386 65.2386 23 68 23C69.1256 23 70.1643 23.3719 71 23.9996C71.0002 23.4475 71.4478 23 72 23C72.5523 23 73 23.4477 73 24V30C73 30.8839 73.7362 31.5 74.5 31.5C74.8467 31.5 75.1833 31.368 75.4505 31.0473C75.7277 30.7147 76 30.091 76 29V28C76 23.5817 72.4183 20 68 20ZM71 28C71 26.3431 69.6569 25 68 25C66.3431 25 65 26.3431 65 28C65 29.6569 66.3431 31 68 31C69.6569 31 71 29.6569 71 28Z" fill="currentColor"/>
</svg>
