<svg width="24" height="24" color="#6F767E" viewBox="56 16 24 24" fill="none" xmlns="http://www.w3.org/2000/svg">

<path fill-rule="evenodd" clip-rule="evenodd" d="M25.8781 18.7073L21.5852 23.0002H19.1525C18.544 23.0002 18.0765 23.5392 18.1626 24.1416L19.6316 34.4244C19.8427 35.9024 21.1085 37.0002 22.6014 37.0002H33.3976C34.8906 37.0002 36.1563 35.9024 36.3675 34.4244L37.8365 24.1416C37.9225 23.5392 37.4551 23.0002 36.8465 23.0002H34.4136L30.1207 18.7073C28.9492 17.5357 27.0497 17.5357 25.8781 18.7073ZM28.7065 20.1215C28.316 19.731 27.6828 19.731 27.2923 20.1215L24.4136 23.0002L31.5852 23.0002L28.7065 20.1215ZM24.9995 28.0002C24.9995 27.4479 24.5518 27.0002 23.9995 27.0002C23.4472 27.0002 22.9995 27.4479 22.9995 28.0002V32.0002C22.9995 32.5525 23.4472 33.0002 23.9995 33.0002C24.5518 33.0002 24.9995 32.5525 24.9995 32.0002V28.0002ZM27.9995 27.0002C28.5518 27.0002 28.9995 27.4479 28.9995 28.0002V32.0002C28.9995 32.5525 28.5518 33.0002 27.9995 33.0002C27.4472 33.0002 26.9995 32.5525 26.9995 32.0002V28.0002C26.9995 27.4479 27.4472 27.0002 27.9995 27.0002ZM32.9995 28.0002C32.9995 27.4479 32.5518 27.0002 31.9995 27.0002C31.4472 27.0002 30.9995 27.4479 30.9995 28.0002V32.0002C30.9995 32.5525 31.4472 33.0002 31.9995 33.0002C32.5518 33.0002 32.9995 32.5525 32.9995 32.0002V28.0002Z" fill="currentColor"/>
<path fill-rule="evenodd" clip-rule="evenodd" d="M61.5853 23.0002L65.8782 18.7073C67.0498 17.5357 68.9493 17.5357 70.1209 18.7073L74.4138 23.0002H76.8465C77.4551 23.0002 77.9225 23.5392 77.8365 24.1416L76.3675 34.4244C76.1563 35.9024 74.8906 37.0002 73.3976 37.0002H62.6014C61.1085 37.0002 59.8427 35.9024 59.6316 34.4244L58.1626 24.1416C58.0765 23.5392 58.544 23.0002 59.1525 23.0002H61.5853ZM67.2924 20.1215C67.683 19.731 68.3161 19.731 68.7066 20.1215L71.5853 23.0002L64.4138 23.0002L67.2924 20.1215ZM60.3055 25.0002L61.6115 34.1416C61.6818 34.6343 62.1038 35.0002 62.6014 35.0002H73.3976C73.8953 35.0002 74.3172 34.6343 74.3876 34.1416L75.6935 25.0002H60.3055Z" fill="currentColor"/>
<path fill-rule="evenodd" clip-rule="evenodd" d="M63.9995 27.0002C64.5518 27.0002 64.9995 27.4479 64.9995 28.0002V32.0002C64.9995 32.5525 64.5518 33.0002 63.9995 33.0002C63.4472 33.0002 62.9995 32.5525 62.9995 32.0002V28.0002C62.9995 27.4479 63.4472 27.0002 63.9995 27.0002Z" fill="currentColor"/>
<path fill-rule="evenodd" clip-rule="evenodd" d="M67.9995 27.0002C68.5518 27.0002 68.9995 27.4479 68.9995 28.0002V32.0002C68.9995 32.5525 68.5518 33.0002 67.9995 33.0002C67.4472 33.0002 66.9995 32.5525 66.9995 32.0002V28.0002C66.9995 27.4479 67.4472 27.0002 67.9995 27.0002Z" fill="currentColor"/>
<path fill-rule="evenodd" clip-rule="evenodd" d="M71.9995 27.0002C72.5518 27.0002 72.9995 27.4479 72.9995 28.0002V32.0002C72.9995 32.5525 72.5518 33.0002 71.9995 33.0002C71.4472 33.0002 70.9995 32.5525 70.9995 32.0002V28.0002C70.9995 27.4479 71.4472 27.0002 71.9995 27.0002Z" fill="currentColor"/>
</svg>
