<svg width="24" height="24" color="#6F767E" viewBox="56 16 24 24" fill="none" xmlns="http://www.w3.org/2000/svg">

<path fill-rule="evenodd" clip-rule="evenodd" d="M21 20C19.3431 20 18 21.3431 18 23V33C18 34.6569 19.3431 36 21 36H24.0263C24.6712 36 25.3119 36.104 25.9237 36.3079L27.6838 36.8946C27.889 36.963 28.111 36.963 28.3162 36.8946L30.0763 36.3079C30.6881 36.104 31.3288 36 31.9737 36H35C36.6569 36 38 34.6569 38 33V23C38 21.3431 36.6569 20 35 20H31C29.9072 20 28.9167 20.4382 28.1948 21.1486C28.0876 21.2541 27.9124 21.2541 27.8052 21.1486C27.0833 20.4382 26.0928 20 25 20H21ZM29 34.5585L29.4438 34.4105C30.2596 34.1386 31.1138 34 31.9737 34H35C35.5523 34 36 33.5523 36 33V23C36 22.4477 35.5523 22 35 22H31C29.8954 22 29 22.8954 29 24V34.5585Z" fill="currentColor"/>
<path fill-rule="evenodd" clip-rule="evenodd" d="M61 22H65C66.1046 22 67 22.8954 67 24V34.5585L66.5562 34.4105C65.7404 34.1386 64.8862 34 64.0263 34H61C60.4477 34 60 33.5523 60 33V23C60 22.4477 60.4477 22 61 22ZM68.3162 36.8946C68.111 36.963 67.889 36.963 67.6838 36.8946L65.9237 36.3079C65.3119 36.104 64.6712 36 64.0263 36H61C59.3431 36 58 34.6569 58 33V23C58 21.3431 59.3431 20 61 20H65C66.1947 20 67.2671 20.5238 68 21.3542C68.7329 20.5238 69.8053 20 71 20H75C76.6569 20 78 21.3431 78 23V33C78 34.6569 76.6569 36 75 36H71.9737C71.3288 36 70.6881 36.104 70.0763 36.3079L68.3162 36.8946ZM71 22H75C75.5523 22 76 22.4477 76 23V33C76 33.5523 75.5523 34 75 34H71.9737C71.1138 34 70.2596 34.1386 69.4438 34.4105L69 34.5585V24C69 22.8954 69.8954 22 71 22Z" fill="currentColor"/>
</svg>
