<svg width="24" height="24" viewBox="56 16 24 24" fill="none" xmlns="http://www.w3.org/2000/svg">

<path d="M23.2426 18H24.3412C24.707 18 24.949 18.38 24.7943 18.7114L23.3753 21.7522C23.2543 22.0113 23.1619 22.2819 23.099 22.5592C23.0427 22.8075 22.8321 23 22.5774 23H18.4459C18.1996 23 18 22.8004 18 22.5541C18 22.1993 18.1409 21.8591 18.3918 21.6082L21.1213 18.8787C21.6839 18.3161 22.447 18 23.2426 18Z" fill="currentColor"/>
<path d="M30.9502 23C30.9187 22.8619 30.8726 22.7271 30.8124 22.5979L28.8013 18.2886C28.7192 18.1125 28.5425 18 28.3482 18H27.6518C27.4575 18 27.2808 18.1125 27.1987 18.2886L25.1876 22.5979C25.1274 22.7271 25.0813 22.8619 25.0498 23C25.0168 23.1451 25 23.294 25 23.4437V27C25 27.5523 25.4477 28 26 28H30C30.5523 28 31 27.5523 31 27V23.4437C31 23.294 30.9832 23.1451 30.9502 23Z" fill="currentColor"/>
<path d="M32.901 22.5592C32.9573 22.8075 33.1679 23 33.4226 23H37.5541C37.8004 23 38 22.8004 38 22.5541C38 22.1993 37.8591 21.8591 37.6082 21.6082L34.8787 18.8787C34.3161 18.3161 33.553 18 32.7574 18H31.6588C31.293 18 31.051 18.38 31.2057 18.7114L32.6247 21.7522C32.7457 22.0113 32.8381 22.2819 32.901 22.5592Z" fill="currentColor"/>
<path d="M19 25H22.5C22.7761 25 23 25.2239 23 25.5V27C23 28.6569 24.3431 30 26 30H30C31.6569 30 33 28.6569 33 27V25.5C33 25.2239 33.2239 25 33.5 25H37C37.5523 25 38 25.4477 38 26V35C38 36.6569 36.6569 38 35 38H21C19.3431 38 18 36.6569 18 35V26C18 25.4477 18.4477 25 19 25Z" fill="currentColor"/>
<path fill-rule="evenodd" clip-rule="evenodd" d="M67.6071 20L66.6737 22H69.3263L68.3929 20H67.6071ZM65.4 20L64.4667 22H60.8284L62.5355 20.2929C62.7231 20.1054 62.9774 20 63.2426 20H65.4ZM58.0147 22.8285C58.0784 22.2217 58.3482 21.6518 58.7836 21.2164L61.1213 18.8787C61.6839 18.3161 62.447 18 63.2426 18H72.7574C73.553 18 74.3161 18.3161 74.8787 18.8787L77.2164 21.2164C77.6518 21.6518 77.9216 22.2217 77.9853 22.8285C77.995 22.8842 78 22.9415 78 23V35C78 36.6569 76.6569 38 75 38H61C59.3431 38 58 36.6569 58 35V23C58 22.9415 58.005 22.8842 58.0147 22.8285ZM60 24V35C60 35.5523 60.4477 36 61 36H75C75.5523 36 76 35.5523 76 35V24H72V27C72 28.6569 70.6569 30 69 30H67C65.3431 30 64 28.6569 64 27V24H60ZM66 24V27C66 27.5523 66.4477 28 67 28H69C69.5523 28 70 27.5523 70 27V24H66ZM75.1716 22L73.4645 20.2929C73.2769 20.1054 73.0226 20 72.7574 20H70.6L71.5333 22H75.1716Z" fill="currentColor"/>
</svg>
