<svg width="24" height="24" viewBox="56 16 24 24" fill="none" xmlns="http://www.w3.org/2000/svg">

<path fill-rule="evenodd" clip-rule="evenodd" d="M24 19C22.3431 19 21 20.3431 21 22V34C21 35.6569 22.3431 37 24 37H32C33.6569 37 35 35.6569 35 34V22C35 20.3431 33.6569 19 32 19H24ZM24 21C23.4477 21 23 21.4477 23 22V23.5C23 24.0523 23.4477 24.5 24 24.5H32C32.5523 24.5 33 24.0523 33 23.5V22C33 21.4477 32.5523 21 32 21H24ZM24 33C23.4477 33 23 33.4477 23 34C23 34.5523 23.4477 35 24 35H28C28.5523 35 29 34.5523 29 34C29 33.4477 28.5523 33 28 33H24ZM24 28C24.5523 28 25 27.5523 25 27C25 26.4477 24.5523 26 24 26C23.4477 26 23 26.4477 23 27C23 27.5523 23.4477 28 24 28ZM25 30.5C25 31.0523 24.5523 31.5 24 31.5C23.4477 31.5 23 31.0523 23 30.5C23 29.9477 23.4477 29.5 24 29.5C24.5523 29.5 25 29.9477 25 30.5ZM28 28C28.5523 28 29 27.5523 29 27C29 26.4477 28.5523 26 28 26C27.4477 26 27 26.4477 27 27C27 27.5523 27.4477 28 28 28ZM29 30.5C29 31.0523 28.5523 31.5 28 31.5C27.4477 31.5 27 31.0523 27 30.5C27 29.9477 27.4477 29.5 28 29.5C28.5523 29.5 29 29.9477 29 30.5ZM32 28C32.5523 28 33 27.5523 33 27C33 26.4477 32.5523 26 32 26C31.4477 26 31 26.4477 31 27C31 27.5523 31.4477 28 32 28ZM33 30.5C33 31.0523 32.5523 31.5 32 31.5C31.4477 31.5 31 31.0523 31 30.5C31 29.9477 31.4477 29.5 32 29.5C32.5523 29.5 33 29.9477 33 30.5ZM32 35C32.5523 35 33 34.5523 33 34C33 33.4477 32.5523 33 32 33C31.4477 33 31 33.4477 31 34C31 34.5523 31.4477 35 32 35Z" fill="currentColor"/>
<path fill-rule="evenodd" clip-rule="evenodd" d="M73 20H63C62.4477 20 62 20.4477 62 21V35C62 35.5523 62.4477 36 63 36H73C73.5523 36 74 35.5523 74 35V21C74 20.4477 73.5523 20 73 20ZM63 18C61.3431 18 60 19.3431 60 21V35C60 36.6569 61.3431 38 63 38H73C74.6569 38 76 36.6569 76 35V21C76 19.3431 74.6569 18 73 18H63Z" fill="currentColor"/>
<path fill-rule="evenodd" clip-rule="evenodd" d="M64 21C63.4477 21 63 21.4477 63 22V24C63 24.5523 63.4477 25 64 25H72C72.5523 25 73 24.5523 73 24V22C73 21.4477 72.5523 21 72 21H64Z" fill="currentColor"/>
<path fill-rule="evenodd" clip-rule="evenodd" d="M64.5 33C63.9477 33 63.5 33.4477 63.5 34C63.5 34.5523 63.9477 35 64.5 35H68C68.5523 35 69 34.5523 69 34C69 33.4477 68.5523 33 68 33H64.5Z" fill="currentColor"/>
<path d="M65.5 27C65.5 27.5523 65.0523 28 64.5 28C63.9477 28 63.5 27.5523 63.5 27C63.5 26.4477 63.9477 26 64.5 26C65.0523 26 65.5 26.4477 65.5 27Z" fill="currentColor"/>
<path d="M65.5 30.5C65.5 31.0523 65.0523 31.5 64.5 31.5C63.9477 31.5 63.5 31.0523 63.5 30.5C63.5 29.9477 63.9477 29.5 64.5 29.5C65.0523 29.5 65.5 29.9477 65.5 30.5Z" fill="currentColor"/>
<path d="M69 27C69 27.5523 68.5523 28 68 28C67.4477 28 67 27.5523 67 27C67 26.4477 67.4477 26 68 26C68.5523 26 69 26.4477 69 27Z" fill="currentColor"/>
<path d="M69 30.5C69 31.0523 68.5523 31.5 68 31.5C67.4477 31.5 67 31.0523 67 30.5C67 29.9477 67.4477 29.5 68 29.5C68.5523 29.5 69 29.9477 69 30.5Z" fill="currentColor"/>
<path d="M72.5 27C72.5 27.5523 72.0523 28 71.5 28C70.9477 28 70.5 27.5523 70.5 27C70.5 26.4477 70.9477 26 71.5 26C72.0523 26 72.5 26.4477 72.5 27Z" fill="currentColor"/>
<path d="M72.5 30.5C72.5 31.0523 72.0523 31.5 71.5 31.5C70.9477 31.5 70.5 31.0523 70.5 30.5C70.5 29.9477 70.9477 29.5 71.5 29.5C72.0523 29.5 72.5 29.9477 72.5 30.5Z" fill="currentColor"/>
<path d="M72.5 34C72.5 34.5523 72.0523 35 71.5 35C70.9477 35 70.5 34.5523 70.5 34C70.5 33.4477 70.9477 33 71.5 33C72.0523 33 72.5 33.4477 72.5 34Z" fill="currentColor"/>
</svg>
