<svg width="24" height="24" viewBox="56 16 24 24" fill="none" xmlns="http://www.w3.org/2000/svg">

<path d="M19 22C19 20.3431 20.3431 19 22 19H24C25.6569 19 27 20.3431 27 22V24C27 25.6569 25.6569 27 24 27H22C20.3431 27 19 25.6569 19 24V22Z" fill="currentColor"/>
<path d="M19 32C19 30.3431 20.3431 29 22 29H24C25.6569 29 27 30.3431 27 32V34C27 35.6569 25.6569 37 24 37H22C20.3431 37 19 35.6569 19 34V32Z" fill="currentColor"/>
<path d="M29 22C29 20.3431 30.3431 19 32 19H34C35.6569 19 37 20.3431 37 22V24C37 25.6569 35.6569 27 34 27H32C30.3431 27 29 25.6569 29 24V22Z" fill="currentColor"/>
<path d="M29 32C29 30.3431 30.3431 29 32 29H34C35.6569 29 37 30.3431 37 32V34C37 35.6569 35.6569 37 34 37H32C30.3431 37 29 35.6569 29 34V32Z" fill="currentColor"/>
<path fill-rule="evenodd" clip-rule="evenodd" d="M64 21H62C61.4477 21 61 21.4477 61 22V24C61 24.5523 61.4477 25 62 25H64C64.5523 25 65 24.5523 65 24V22C65 21.4477 64.5523 21 64 21ZM62 19C60.3431 19 59 20.3431 59 22V24C59 25.6569 60.3431 27 62 27H64C65.6569 27 67 25.6569 67 24V22C67 20.3431 65.6569 19 64 19H62Z" fill="currentColor"/>
<path fill-rule="evenodd" clip-rule="evenodd" d="M64 31H62C61.4477 31 61 31.4477 61 32V34C61 34.5523 61.4477 35 62 35H64C64.5523 35 65 34.5523 65 34V32C65 31.4477 64.5523 31 64 31ZM62 29C60.3431 29 59 30.3431 59 32V34C59 35.6569 60.3431 37 62 37H64C65.6569 37 67 35.6569 67 34V32C67 30.3431 65.6569 29 64 29H62Z" fill="currentColor"/>
<path fill-rule="evenodd" clip-rule="evenodd" d="M74 21H72C71.4477 21 71 21.4477 71 22V24C71 24.5523 71.4477 25 72 25H74C74.5523 25 75 24.5523 75 24V22C75 21.4477 74.5523 21 74 21ZM72 19C70.3431 19 69 20.3431 69 22V24C69 25.6569 70.3431 27 72 27H74C75.6569 27 77 25.6569 77 24V22C77 20.3431 75.6569 19 74 19H72Z" fill="currentColor"/>
<path fill-rule="evenodd" clip-rule="evenodd" d="M74 31H72C71.4477 31 71 31.4477 71 32V34C71 34.5523 71.4477 35 72 35H74C74.5523 35 75 34.5523 75 34V32C75 31.4477 74.5523 31 74 31ZM72 29C70.3431 29 69 30.3431 69 32V34C69 35.6569 70.3431 37 72 37H74C75.6569 37 77 35.6569 77 34V32C77 30.3431 75.6569 29 74 29H72Z" fill="currentColor"/>
</svg>
