<svg width="24" height="24" viewBox="56 16 24 24" fill="none" xmlns="http://www.w3.org/2000/svg">

<path fill-rule="evenodd" clip-rule="evenodd" d="M22 19C20.3431 19 19 20.3431 19 22V34C19 35.6569 20.3431 37 22 37H34C35.6569 37 37 35.6569 37 34V22C37 20.3431 35.6569 19 34 19H22ZM32.7071 25.7071C33.0976 25.3166 33.0976 24.6834 32.7071 24.2929C32.3166 23.9024 31.6834 23.9024 31.2929 24.2929L26 29.5858L24.2071 27.7929C23.8166 27.4024 23.1834 27.4024 22.7929 27.7929C22.4024 28.1834 22.4024 28.8166 22.7929 29.2071L24.5858 31C25.3668 31.7811 26.6332 31.781 27.4142 31L32.7071 25.7071Z" fill="currentColor"/>
<path fill-rule="evenodd" clip-rule="evenodd" d="M74 21H62C61.4477 21 61 21.4477 61 22V34C61 34.5523 61.4477 35 62 35H74C74.5523 35 75 34.5523 75 34V22C75 21.4477 74.5523 21 74 21ZM62 19C60.3431 19 59 20.3431 59 22V34C59 35.6569 60.3431 37 62 37H74C75.6569 37 77 35.6569 77 34V22C77 20.3431 75.6569 19 74 19H62Z" fill="currentColor"/>
<path fill-rule="evenodd" clip-rule="evenodd" d="M72.7071 24.2929C73.0976 24.6834 73.0976 25.3166 72.7071 25.7071L67.4142 31C66.6332 31.781 65.3668 31.7811 64.5858 31L62.7929 29.2071C62.4024 28.8166 62.4024 28.1834 62.7929 27.7929C63.1834 27.4024 63.8166 27.4024 64.2071 27.7929L66 29.5858L71.2929 24.2929C71.6834 23.9024 72.3166 23.9024 72.7071 24.2929Z" fill="currentColor"/>
</svg>
