<svg width="24" height="24" color="#6F767E" viewBox="56 16 24 24" fill="none" xmlns="http://www.w3.org/2000/svg">

<path d="M28 38C33.5228 38 38 33.5228 38 28C38 26.342 37.5965 24.7782 36.8823 23.4015C36.7327 23.1131 36.348 23.0662 36.1183 23.2959L28.4142 31C27.6332 31.781 26.3668 31.7811 25.5858 31L22.7929 28.2071C22.4024 27.8166 22.4024 27.1834 22.7929 26.7929C23.1834 26.4024 23.8166 26.4024 24.2071 26.7929L27 29.5858L35.0214 21.5701C35.211 21.3805 35.2183 21.0741 35.0276 20.8857C33.2215 19.1015 30.7394 18 28 18C22.4772 18 18 22.4772 18 28C18 33.5228 22.4772 38 28 38Z" fill="currentColor"/>
<path fill-rule="evenodd" clip-rule="evenodd" d="M78 28C78 33.5228 73.5228 38 68 38C62.4772 38 58 33.5228 58 28C58 22.4772 62.4772 18 68 18C73.5228 18 78 22.4772 78 28ZM76 28C76 32.4183 72.4183 36 68 36C63.5817 36 60 32.4183 60 28C60 23.5817 63.5817 20 68 20C70.3582 20 72.478 21.0203 73.9422 22.6436L67 29.5858L64.2071 26.7929C63.8166 26.4024 63.1834 26.4024 62.7929 26.7929C62.4024 27.1834 62.4024 27.8166 62.7929 28.2071L65.5858 31C66.3668 31.7811 67.6332 31.781 68.4142 31L75.1015 24.3128C75.6755 25.4162 76 26.6702 76 28Z" fill="currentColor"/>
</svg>
