<svg width="24" height="24" color="#6F767E" viewBox="56 16 24 24" fill="none" xmlns="http://www.w3.org/2000/svg">

<path fill-rule="evenodd" clip-rule="evenodd" d="M20.7929 27.7929C21.1834 27.4024 21.8166 27.4024 22.2071 27.7929L28 33.5858L33.7929 27.7929C34.1834 27.4024 34.8166 27.4024 35.2071 27.7929C35.5976 28.1834 35.5976 28.8166 35.2071 29.2071L29.4142 35C28.6332 35.7811 27.3668 35.781 26.5858 35L20.7929 29.2071C20.4024 28.8166 20.4024 28.1834 20.7929 27.7929Z" fill="currentColor"/>
<path fill-rule="evenodd" clip-rule="evenodd" d="M20.7929 21.5429C21.1834 21.1524 21.8166 21.1524 22.2071 21.5429L28 27.3358L33.7929 21.5429C34.1834 21.1524 34.8166 21.1524 35.2071 21.5429C35.5976 21.9334 35.5976 22.5666 35.2071 22.9571L29.4142 28.75C28.6332 29.5311 27.3668 29.531 26.5858 28.75L20.7929 22.9571C20.4024 22.5666 20.4024 21.9334 20.7929 21.5429Z" fill="currentColor"/>
<path fill-rule="evenodd" clip-rule="evenodd" d="M60.7929 27.7929C61.1834 27.4024 61.8166 27.4024 62.2071 27.7929L68 33.5858L73.7929 27.7929C74.1834 27.4024 74.8166 27.4024 75.2071 27.7929C75.5976 28.1834 75.5976 28.8166 75.2071 29.2071L69.4142 35C68.6332 35.7811 67.3668 35.781 66.5858 35L60.7929 29.2071C60.4024 28.8166 60.4024 28.1834 60.7929 27.7929Z" fill="currentColor"/>
<path fill-rule="evenodd" clip-rule="evenodd" d="M60.7929 21.5429C61.1834 21.1524 61.8166 21.1524 62.2071 21.5429L68 27.3358L73.7929 21.5429C74.1834 21.1524 74.8166 21.1524 75.2071 21.5429C75.5976 21.9334 75.5976 22.5666 75.2071 22.9571L69.4142 28.75C68.6332 29.5311 67.3668 29.531 66.5858 28.75L60.7929 22.9571C60.4024 22.5666 60.4024 21.9334 60.7929 21.5429Z" fill="currentColor"/>
</svg>
