<svg width="24" height="24" viewBox="56 16 24 24" fill="none" xmlns="http://www.w3.org/2000/svg">

<path fill-rule="evenodd" clip-rule="evenodd" d="M28.207 35.2071C28.5975 34.8166 28.5975 34.1834 28.207 33.7929L22.4141 28L28.207 22.2071C28.5975 21.8166 28.5975 21.1834 28.207 20.7929C27.8164 20.4024 27.1833 20.4024 26.7927 20.7929L20.9998 26.5858C20.2188 27.3668 20.2188 28.6332 20.9998 29.4142L26.7927 35.2071C27.1833 35.5976 27.8164 35.5976 28.207 35.2071Z" fill="currentColor"/>
<path fill-rule="evenodd" clip-rule="evenodd" d="M34.457 35.2071C34.8475 34.8166 34.8475 34.1834 34.457 33.7929L28.6641 28L34.457 22.2071C34.8475 21.8166 34.8475 21.1834 34.457 20.7929C34.0664 20.4024 33.4333 20.4024 33.0427 20.7929L27.2498 26.5858C26.4688 27.3668 26.4688 28.6332 27.2498 29.4142L33.0427 35.2071C33.4333 35.5976 34.0664 35.5976 34.457 35.2071Z" fill="currentColor"/>
<path fill-rule="evenodd" clip-rule="evenodd" d="M68.207 35.2071C68.5975 34.8166 68.5975 34.1834 68.207 33.7929L62.4141 28L68.207 22.2071C68.5975 21.8166 68.5975 21.1834 68.207 20.7929C67.8164 20.4024 67.1833 20.4024 66.7927 20.7929L60.9998 26.5858C60.2188 27.3668 60.2188 28.6332 60.9998 29.4142L66.7927 35.2071C67.1833 35.5976 67.8164 35.5976 68.207 35.2071Z" fill="currentColor"/>
<path fill-rule="evenodd" clip-rule="evenodd" d="M74.457 35.2071C74.8475 34.8166 74.8475 34.1834 74.457 33.7929L68.6641 28L74.457 22.2071C74.8475 21.8166 74.8475 21.1834 74.457 20.7929C74.0664 20.4024 73.4333 20.4024 73.0427 20.7929L67.2498 26.5858C66.4688 27.3668 66.4688 28.6332 67.2498 29.4142L73.0427 35.2071C73.4333 35.5976 74.0664 35.5976 74.457 35.2071Z" fill="currentColor"/>
</svg>
