<svg width="24" height="24" color="#6F767E" viewBox="56 16 24 24" fill="none" xmlns="http://www.w3.org/2000/svg">

<path fill-rule="evenodd" clip-rule="evenodd" d="M20.7929 31.457C21.1834 31.8475 21.8166 31.8475 22.2071 31.457L28 25.6641L33.7929 31.457C34.1834 31.8475 34.8166 31.8475 35.2071 31.457C35.5976 31.0664 35.5976 30.4333 35.2071 30.0427L29.4142 24.2498C28.6332 23.4688 27.3668 23.4688 26.5858 24.2498L20.7929 30.0427C20.4024 30.4333 20.4024 31.0664 20.7929 31.457Z" fill="currentColor"/>
<path fill-rule="evenodd" clip-rule="evenodd" d="M60.7929 31.457C61.1834 31.8475 61.8166 31.8475 62.2071 31.457L68 25.6641L73.7929 31.457C74.1834 31.8475 74.8166 31.8475 75.2071 31.457C75.5976 31.0664 75.5976 30.4333 75.2071 30.0427L69.4142 24.2498C68.6332 23.4688 67.3668 23.4688 66.5858 24.2498L60.7929 30.0427C60.4024 30.4333 60.4024 31.0664 60.7929 31.457Z" fill="currentColor"/>
</svg>
