<svg width="24" height="24" viewBox="56 16 24 24" fill="none" xmlns="http://www.w3.org/2000/svg">

<path fill-rule="evenodd" clip-rule="evenodd" d="M20.7929 24.5429C21.1834 24.1524 21.8166 24.1524 22.2071 24.5429L28 30.3358L33.7929 24.5429C34.1834 24.1524 34.8166 24.1524 35.2071 24.5429C35.5976 24.9334 35.5976 25.5666 35.2071 25.9571L29.4142 31.75C28.6332 32.5311 27.3668 32.531 26.5858 31.75L20.7929 25.9571C20.4024 25.5666 20.4024 24.9334 20.7929 24.5429Z" fill="currentColor"/>
<path fill-rule="evenodd" clip-rule="evenodd" d="M60.7929 24.5429C61.1834 24.1524 61.8166 24.1524 62.2071 24.5429L68 30.3358L73.7929 24.5429C74.1834 24.1524 74.8166 24.1524 75.2071 24.5429C75.5976 24.9334 75.5976 25.5666 75.2071 25.9571L69.4142 31.75C68.6332 32.5311 67.3668 32.531 66.5858 31.75L60.7929 25.9571C60.4024 25.5666 60.4024 24.9334 60.7929 24.5429Z" fill="currentColor"/>
</svg>
