<svg width="24" height="24" color="#6F767E" viewBox="56 16 24 24" fill="none" xmlns="http://www.w3.org/2000/svg">

<path fill-rule="evenodd" clip-rule="evenodd" d="M28 17C29.1046 17 30 17.8954 30 19H34C35.6569 19 37 20.3431 37 22V35C37 36.6569 35.6569 38 34 38H22C20.3431 38 19 36.6569 19 35V22C19 20.3431 20.3431 19 22 19H26C26 17.8954 26.8954 17 28 17ZM23 27C23 26.4477 23.4477 26 24 26H32C32.5523 26 33 26.4477 33 27C33 27.5523 32.5523 28 32 28H24C23.4477 28 23 27.5523 23 27ZM24 30C23.4477 30 23 30.4477 23 31C23 31.5523 23.4477 32 24 32H28C28.5523 32 29 31.5523 29 31C29 30.4477 28.5523 30 28 30H24Z" fill="currentColor"/>
<path fill-rule="evenodd" clip-rule="evenodd" d="M68 17C69.1046 17 70 17.8954 70 19H74C75.6569 19 77 20.3431 77 22V35C77 36.6569 75.6569 38 74 38H62C60.3431 38 59 36.6569 59 35V22C59 20.3431 60.3431 19 62 19H66C66 17.8954 66.8954 17 68 17ZM64 21H62C61.4477 21 61 21.4477 61 22V35C61 35.5523 61.4477 36 62 36H74C74.5523 36 75 35.5523 75 35V22C75 21.4477 74.5523 21 74 21H72V22C72 22.5523 71.5523 23 71 23H65C64.4477 23 64 22.5523 64 22V21Z" fill="currentColor"/>
<path fill-rule="evenodd" clip-rule="evenodd" d="M63 27C63 26.4477 63.4477 26 64 26H72C72.5523 26 73 26.4477 73 27C73 27.5523 72.5523 28 72 28H64C63.4477 28 63 27.5523 63 27Z" fill="currentColor"/>
<path fill-rule="evenodd" clip-rule="evenodd" d="M63 31C63 30.4477 63.4477 30 64 30H68C68.5523 30 69 30.4477 69 31C69 31.5523 68.5523 32 68 32H64C63.4477 32 63 31.5523 63 31Z" fill="currentColor"/>
</svg>
