<svg width="24" height="24" viewBox="56 16 24 24" fill="none" xmlns="http://www.w3.org/2000/svg">

<path d="M22.7072 21.2929C22.3167 20.9024 21.6835 20.9024 21.293 21.2929C20.9025 21.6834 20.9025 22.3166 21.293 22.7071L26.5858 28L21.2929 33.2929C20.9024 33.6834 20.9024 34.3166 21.2929 34.7071C21.6834 35.0976 22.3166 35.0976 22.7071 34.7071L28 29.4142L33.293 34.7071C33.6835 35.0976 34.3167 35.0976 34.7072 34.7071C35.0977 34.3166 35.0977 33.6834 34.7072 33.2929L29.4143 28L34.7071 22.7071C35.0976 22.3166 35.0976 21.6834 34.7071 21.2929C34.3166 20.9024 33.6834 20.9024 33.2929 21.2929L28 26.5857L22.7072 21.2929Z" fill="currentColor"/>
<path d="M62.7071 21.2929C62.3166 20.9024 61.6834 20.9024 61.2929 21.2929C60.9024 21.6834 60.9024 22.3166 61.2929 22.7071L66.5858 28L61.2929 33.2929C60.9024 33.6834 60.9024 34.3166 61.2929 34.7071C61.6834 35.0976 62.3166 35.0976 62.7071 34.7071L68 29.4142L73.2929 34.7071C73.6834 35.0976 74.3166 35.0976 74.7071 34.7071C75.0976 34.3166 75.0976 33.6834 74.7071 33.2929L69.4142 28L74.7071 22.7071C75.0977 22.3166 75.0977 21.6834 74.7071 21.2929C74.3166 20.9024 73.6834 20.9024 73.2929 21.2929L68 26.5858L62.7071 21.2929Z" fill="currentColor"/>
</svg>
