<svg width="24" height="24" color="#6F767E" viewBox="56 16 24 24" fill="none" xmlns="http://www.w3.org/2000/svg">

<path fill-rule="evenodd" clip-rule="evenodd" d="M18 29C18 23.4772 22.4772 19 28 19C33.5228 19 38 23.4772 38 29C38 31.1807 37.302 33.1984 36.1172 34.8418C35.7785 35.3115 35.2187 35.5561 34.6395 35.5561H21.3605C20.7813 35.5561 20.2215 35.3115 19.8828 34.8418C18.698 33.1984 18 31.1807 18 29ZM32.7071 24.2929C33.0976 24.6834 33.0976 25.3166 32.7071 25.7071L29.9323 28.482C29.9764 28.6472 30 28.8208 30 29C30 30.1046 29.1046 31 28 31C26.8954 31 26 30.1046 26 29C26 27.8954 26.8954 27 28 27C28.1792 27 28.3528 27.0236 28.518 27.0677L31.2929 24.2929C31.6834 23.9024 32.3166 23.9024 32.7071 24.2929Z" fill="currentColor"/>
<path fill-rule="evenodd" clip-rule="evenodd" d="M68 21C63.5817 21 60 24.5817 60 29C60 31.2122 60.8966 33.2131 62.3486 34.6623C62.7395 35.0525 62.7401 35.6856 62.35 36.0765C61.9598 36.4674 61.3267 36.468 60.9358 36.0779C59.1232 34.2688 58 31.7646 58 29C58 23.4772 62.4772 19 68 19C73.5228 19 78 23.4772 78 29C78 31.7611 76.8796 34.2625 75.0711 36.0711C74.6805 36.4616 74.0474 36.4616 73.6569 36.0711C73.2663 35.6805 73.2663 35.0474 73.6569 34.6569C75.1057 33.208 76 31.2094 76 29C76 24.5817 72.4183 21 68 21Z" fill="currentColor"/>
<path fill-rule="evenodd" clip-rule="evenodd" d="M72.7071 25.7071C73.0976 25.3166 73.0976 24.6834 72.7071 24.2929C72.3166 23.9024 71.6834 23.9024 71.2929 24.2929L69.2934 26.2924C68.9018 26.105 68.4631 26 68 26C66.3431 26 65 27.3431 65 29C65 30.6569 66.3431 32 68 32C69.6569 32 71 30.6569 71 29C71 28.5369 70.895 28.0982 70.7076 27.7066L72.7071 25.7071ZM67 29C67 28.4477 67.4477 28 68 28C68.5523 28 69 28.4477 69 29C69 29.5523 68.5523 30 68 30C67.4477 30 67 29.5523 67 29Z" fill="currentColor"/>
</svg>
