<svg width="24" height="24" color="#6F767E" viewBox="56 16 24 24" fill="none" xmlns="http://www.w3.org/2000/svg">

<path d="M28 17C28.5523 17 29 17.4477 29 18V19H31C33.2091 19 35 20.7909 35 23V24C35 24.5523 34.5523 25 34 25C33.4477 25 33 24.5523 33 24V23C33 21.8954 32.1046 21 31 21H25C23.8954 21 23 21.8954 23 23V23.117C23 24.4083 23.8263 25.5547 25.0513 25.963L31.5811 28.1396C33.6228 28.8202 35 30.7309 35 32.883V33C35 35.2091 33.2091 37 31 37H29V38C29 38.5523 28.5523 39 28 39C27.4477 39 27 38.5523 27 38V37H25C22.7909 37 21 35.2091 21 33V32C21 31.4477 21.4477 31 22 31C22.5523 31 23 31.4477 23 32V33C23 34.1046 23.8954 35 25 35H31C32.1046 35 33 34.1046 33 33V32.883C33 31.5917 32.1737 30.4453 30.9487 30.037L24.4189 27.8604C22.3772 27.1798 21 25.2691 21 23.117V23C21 20.7909 22.7909 19 25 19H27V18C27 17.4477 27.4477 17 28 17Z" fill="currentColor"/>
<path d="M68 17C68.5523 17 69 17.4477 69 18V19H71C73.2091 19 75 20.7909 75 23V24C75 24.5523 74.5523 25 74 25C73.4477 25 73 24.5523 73 24V23C73 21.8954 72.1046 21 71 21H65C63.8954 21 63 21.8954 63 23V23.117C63 24.4083 63.8263 25.5547 65.0513 25.963L71.5811 28.1396C73.6228 28.8202 75 30.7309 75 32.883V33C75 35.2091 73.2091 37 71 37H69V38C69 38.5523 68.5523 39 68 39C67.4477 39 67 38.5523 67 38V37H65C62.7909 37 61 35.2091 61 33V32C61 31.4477 61.4477 31 62 31C62.5523 31 63 31.4477 63 32V33C63 34.1046 63.8954 35 65 35H71C72.1046 35 73 34.1046 73 33V32.883C73 31.5917 72.1737 30.4453 70.9487 30.037L64.4189 27.8604C62.3772 27.1798 61 25.2691 61 23.117V23C61 20.7909 62.7909 19 65 19H67V18C67 17.4477 67.4477 17 68 17Z" fill="currentColor"/>
</svg>
