<svg width="24" height="24" viewBox="56 16 24 24" fill="none" xmlns="http://www.w3.org/2000/svg">

<path d="M27 20.9999C27 20.4476 26.5509 19.9941 26.002 20.0554C24.5751 20.2146 23.2017 20.7136 21.9999 21.5166C20.5198 22.5056 19.3663 23.9112 18.6851 25.5557C18.0039 27.2002 17.8257 29.0098 18.1729 30.7557C18.5202 32.5015 19.3774 34.1052 20.636 35.3638C21.8947 36.6225 23.4984 37.4797 25.2442 37.8269C26.99 38.1742 28.7996 37.996 30.4442 37.3148C32.0887 36.6336 33.4943 35.48 34.4832 34C35.2863 32.7981 35.7853 31.4248 35.9445 29.9978C36.0057 29.4489 35.5523 28.9999 35 28.9999H31.0079C30.4556 28.9999 30.0234 29.4595 29.8432 29.9816C29.7596 30.2238 29.6449 30.4556 29.501 30.671C29.1705 31.1656 28.7007 31.5511 28.1511 31.7788C27.6015 32.0065 26.9967 32.066 26.4132 31.95C25.8297 31.8339 25.2938 31.5474 24.8731 31.1268C24.4524 30.7061 24.166 30.1701 24.0499 29.5867C23.9338 29.0032 23.9934 28.3984 24.2211 27.8488C24.4487 27.2992 24.8343 26.8294 25.3289 26.4989C25.5443 26.355 25.7761 26.2403 26.0183 26.1567C26.5404 25.9764 27 25.5443 27 24.992V20.9999Z" fill="currentColor"/>
<path d="M37 26.9999C37.5523 26.9999 38.0057 26.5508 37.9445 26.0019C37.8509 25.1626 37.6394 24.339 37.3149 23.5557C36.8626 22.4638 36.1997 21.4716 35.364 20.6359C34.5282 19.8002 33.5361 19.1372 32.4442 18.6849C31.6609 18.3605 30.8372 18.149 29.998 18.0554C29.4491 17.9941 29 18.4476 29 18.9999V22.992C29 23.5443 29.4596 23.9764 29.9817 24.1567C30.0387 24.1764 30.0952 24.1978 30.1511 24.2209C30.516 24.3721 30.8476 24.5937 31.1269 24.873C31.4062 25.1523 31.6278 25.4839 31.7789 25.8488C31.8021 25.9047 31.8235 25.9612 31.8432 26.0182C32.0234 26.5402 32.4556 26.9999 33.0079 26.9999H37Z" fill="currentColor"/>
<path fill-rule="evenodd" clip-rule="evenodd" d="M65 22.2917C64.3331 22.4905 63.6959 22.7887 63.111 23.1796C61.9599 23.9487 61.0627 25.042 60.5328 26.3211C60.003 27.6002 59.8644 29.0076 60.1345 30.3655C60.4046 31.7234 61.0713 32.9706 62.0503 33.9496C63.0292 34.9286 64.2765 35.5953 65.6344 35.8654C66.9922 36.1355 68.3997 35.9968 69.6788 35.467C70.9579 34.9372 72.0511 34.04 72.8203 32.8889C73.2111 32.3039 73.5094 31.6668 73.7082 30.9999H71.5912C71.4728 31.2716 71.3301 31.5334 71.1639 31.7821C70.6136 32.6056 69.8315 33.2475 68.9164 33.6266C68.0014 34.0056 66.9944 34.1048 66.023 33.9115C65.0516 33.7183 64.1593 33.2413 63.4589 32.541C62.7585 31.8406 62.2816 30.9483 62.0883 29.9769C61.8951 29.0054 61.9943 27.9985 62.3733 27.0834C62.7523 26.1684 63.3942 25.3862 64.2178 24.836C64.4664 24.6698 64.7283 24.527 65 24.4087V22.2917ZM66.002 20.0554C66.5509 19.9941 67 20.4476 67 20.9999V24.992C67 25.5443 66.5404 25.9764 66.0183 26.1567C65.7761 26.2403 65.5443 26.355 65.3289 26.4989C64.8343 26.8294 64.4487 27.2992 64.2211 27.8488C63.9934 28.3984 63.9338 29.0032 64.0499 29.5867C64.166 30.1701 64.4524 30.7061 64.8731 31.1268C65.2938 31.5474 65.8297 31.8339 66.4132 31.95C66.9967 32.066 67.6015 32.0065 68.1511 31.7788C68.7007 31.5511 69.1705 31.1656 69.501 30.671C69.6449 30.4556 69.7596 30.2238 69.8432 29.9816C70.0234 29.4595 70.4556 28.9999 71.0079 28.9999H75C75.5523 28.9999 76.0057 29.4489 75.9445 29.9978C75.7853 31.4248 75.2863 32.7981 74.4832 34C73.4943 35.48 72.0887 36.6336 70.4442 37.3148C68.7996 37.996 66.99 38.1742 65.2442 37.8269C63.4984 37.4797 61.8947 36.6225 60.636 35.3638C59.3774 34.1052 58.5202 32.5015 58.1729 30.7557C57.8257 29.0098 58.0039 27.2002 58.6851 25.5557C59.3663 23.9112 60.5198 22.5056 61.9999 21.5166C63.2017 20.7136 64.5751 20.2146 66.002 20.0554Z" fill="currentColor"/>
<path fill-rule="evenodd" clip-rule="evenodd" d="M75.7082 24.9999C75.6397 24.77 75.5593 24.5435 75.4672 24.3211C75.1154 23.4718 74.5998 22.7001 73.9498 22.0501C73.2997 21.4001 72.5281 20.8845 71.6788 20.5327C71.4564 20.4406 71.2298 20.3602 71 20.2917V22.4087C71.5747 22.659 72.0975 23.0151 72.5411 23.4587C72.9847 23.9024 73.3409 24.4252 73.5912 24.9999H75.7082ZM77.9445 26.0019C78.0057 26.5508 77.5523 26.9999 77 26.9999H73.0079C72.4556 26.9999 72.0234 26.5402 71.8432 26.0182C71.8235 25.9612 71.8021 25.9047 71.7789 25.8488C71.6278 25.4839 71.4062 25.1523 71.1269 24.873C70.8476 24.5937 70.516 24.3721 70.1511 24.2209C70.0952 24.1978 70.0387 24.1764 69.9817 24.1567C69.4596 23.9764 69 23.5443 69 22.992V18.9999C69 18.4476 69.4491 17.9941 69.998 18.0554C70.8372 18.149 71.6609 18.3605 72.4442 18.6849C73.5361 19.1372 74.5282 19.8002 75.364 20.6359C76.1997 21.4716 76.8626 22.4638 77.3149 23.5557C77.6394 24.339 77.8509 25.1626 77.9445 26.0019Z" fill="currentColor"/>
</svg>
