<svg width="24" height="24" viewBox="56 16 24 24" fill="none" xmlns="http://www.w3.org/2000/svg">
<path fill-rule="evenodd" clip-rule="evenodd" d="M70.5357 19.8076C71.7073 18.6361 73.6067 18.6361 74.7783 19.8076L76.1925 21.2218C77.3641 22.3934 77.3641 24.2929 76.1925 25.4645L65.8 35.857C65.6604 35.9966 65.4826 36.0918 65.289 36.1305L59.9857 37.1911C59.286 37.3311 58.6691 36.7142 58.809 36.0144L59.8697 30.7111C59.9084 30.5175 60.0036 30.3397 60.1432 30.2001L70.5357 19.8076ZM73.3641 21.2218L74.7783 22.6361C75.1688 23.0266 75.1688 23.6598 74.7783 24.0503L73.3641 25.4645L70.5357 22.6361L71.9499 21.2218C72.3404 20.8313 72.9736 20.8313 73.3641 21.2218ZM69.1215 24.0503L61.7715 31.4003L61.0644 34.9358L64.5999 34.2287L71.9499 26.8787L69.1215 24.0503Z" fill="currentColor"/>
</svg>
