<svg width="24" height="24" color="#6F767E" viewBox="56 16 24 24" fill="none" xmlns="http://www.w3.org/2000/svg">

<path fill-rule="evenodd" clip-rule="evenodd" d="M24 19C24 18.4477 23.5523 18 23 18C22.4477 18 22 18.4477 22 19V20H21C19.3431 20 18 21.3431 18 23V35C18 36.6569 19.3431 38 21 38H35C36.6569 38 38 36.6569 38 35V23C38 21.3431 36.6569 20 35 20H34V19C34 18.4477 33.5523 18 33 18C32.4477 18 32 18.4477 32 19V20H24V19ZM32.7071 27.7071C33.0976 27.3166 33.0976 26.6834 32.7071 26.2929C32.3166 25.9024 31.6834 25.9024 31.2929 26.2929L27 30.5858L25.2071 28.7929C24.8166 28.4024 24.1834 28.4024 23.7929 28.7929C23.4024 29.1834 23.4024 29.8166 23.7929 30.2071L26.2929 32.7071C26.6834 33.0976 27.3166 33.0976 27.7071 32.7071L32.7071 27.7071Z" fill="currentColor"/>
<path fill-rule="evenodd" clip-rule="evenodd" d="M63 18C63.5523 18 64 18.4477 64 19V20H72V19C72 18.4477 72.4477 18 73 18C73.5523 18 74 18.4477 74 19V20H75C76.6569 20 78 21.3431 78 23V35C78 36.6569 76.6569 38 75 38H61C59.3431 38 58 36.6569 58 35V23C58 21.3431 59.3431 20 61 20H62V19C62 18.4477 62.4477 18 63 18ZM72 22V23C72 23.5523 72.4477 24 73 24C73.5523 24 74 23.5523 74 23V22H75C75.5523 22 76 22.4477 76 23V35C76 35.5523 75.5523 36 75 36H61C60.4477 36 60 35.5523 60 35V23C60 22.4477 60.4477 22 61 22H62V23C62 23.5523 62.4477 24 63 24C63.5523 24 64 23.5523 64 23V22H72Z" fill="currentColor"/>
<path fill-rule="evenodd" clip-rule="evenodd" d="M72.7071 26.2929C73.0976 26.6834 73.0976 27.3166 72.7071 27.7071L67.7071 32.7071C67.3166 33.0976 66.6834 33.0976 66.2929 32.7071L63.7929 30.2071C63.4024 29.8166 63.4024 29.1834 63.7929 28.7929C64.1834 28.4024 64.8166 28.4024 65.2071 28.7929L67 30.5858L71.2929 26.2929C71.6834 25.9024 72.3166 25.9024 72.7071 26.2929Z" fill="currentColor"/>
</svg>
