<svg width="24" height="24" viewBox="56 16 24 24" fill="none" xmlns="http://www.w3.org/2000/svg">

<path fill-rule="evenodd" clip-rule="evenodd" d="M18 21C18 19.3431 19.3431 18 21 18H23C23.5523 18 24 18.4477 24 19C24 19.5523 23.5523 20 23 20H21C20.4477 20 20 20.4477 20 21V23C20 23.5523 19.5523 24 19 24C18.4477 24 18 23.5523 18 23V21Z" fill="currentColor"/>
<path fill-rule="evenodd" clip-rule="evenodd" d="M18 35C18 36.6569 19.3431 38 21 38H23C23.5523 38 24 37.5523 24 37C24 36.4477 23.5523 36 23 36H21C20.4477 36 20 35.5523 20 35V33C20 32.4477 19.5523 32 19 32C18.4477 32 18 32.4477 18 33V35Z" fill="currentColor"/>
<path fill-rule="evenodd" clip-rule="evenodd" d="M38 35C38 36.6569 36.6569 38 35 38H33C32.4477 38 32 37.5523 32 37C32 36.4477 32.4477 36 33 36H35C35.5523 36 36 35.5523 36 35V33C36 32.4477 36.4477 32 37 32C37.5523 32 38 32.4477 38 33V35Z" fill="currentColor"/>
<path fill-rule="evenodd" clip-rule="evenodd" d="M38 21C38 19.3431 36.6569 18 35 18H33C32.4477 18 32 18.4477 32 19C32 19.5523 32.4477 20 33 20H35C35.5523 20 36 20.4477 36 21V23C36 23.5523 36.4477 24 37 24C37.5523 24 38 23.5523 38 23V21Z" fill="currentColor"/>
<path fill-rule="evenodd" clip-rule="evenodd" d="M58 21C58 19.3431 59.3431 18 61 18H63C63.5523 18 64 18.4477 64 19C64 19.5523 63.5523 20 63 20H61C60.4477 20 60 20.4477 60 21V23C60 23.5523 59.5523 24 59 24C58.4477 24 58 23.5523 58 23V21Z" fill="currentColor"/>
<path fill-rule="evenodd" clip-rule="evenodd" d="M58 35C58 36.6569 59.3431 38 61 38H63C63.5523 38 64 37.5523 64 37C64 36.4477 63.5523 36 63 36H61C60.4477 36 60 35.5523 60 35V33C60 32.4477 59.5523 32 59 32C58.4477 32 58 32.4477 58 33V35Z" fill="currentColor"/>
<path fill-rule="evenodd" clip-rule="evenodd" d="M78 35C78 36.6569 76.6569 38 75 38H73C72.4477 38 72 37.5523 72 37C72 36.4477 72.4477 36 73 36H75C75.5523 36 76 35.5523 76 35V33C76 32.4477 76.4477 32 77 32C77.5523 32 78 32.4477 78 33V35Z" fill="currentColor"/>
<path fill-rule="evenodd" clip-rule="evenodd" d="M78 21C78 19.3431 76.6569 18 75 18H73C72.4477 18 72 18.4477 72 19C72 19.5523 72.4477 20 73 20H75C75.5523 20 76 20.4477 76 21V23C76 23.5523 76.4477 24 77 24C77.5523 24 78 23.5523 78 23V21Z" fill="currentColor"/>
</svg>
