<svg width="24" height="24" color="#6F767E" viewBox="56 16 24 24" fill="none" xmlns="http://www.w3.org/2000/svg">

<path d="M21 19C21 18.4477 20.5523 18 20 18C19.4477 18 19 18.4477 19 19V37C19 37.5523 19.4477 38 20 38C20.5523 38 21 37.5523 21 37V31H26.0263C26.6712 31 27.3119 31.104 27.9237 31.3079L29.0763 31.6921C29.6881 31.896 30.3288 32 30.9737 32H34C35.6569 32 37 30.6569 37 29V23C37 21.3431 35.6569 20 34 20H30.9737C30.3288 20 29.6881 19.896 29.0763 19.6921L27.9237 19.3079C27.3119 19.104 26.6712 19 26.0263 19H21Z" fill="currentColor"/>
<path fill-rule="evenodd" clip-rule="evenodd" d="M61 19C61 18.4477 60.5523 18 60 18C59.4477 18 59 18.4477 59 19V37C59 37.5523 59.4477 38 60 38C60.5523 38 61 37.5523 61 37V31H66.0263C66.6712 31 67.3119 31.104 67.9237 31.3079L69.0763 31.6921C69.6881 31.896 70.3288 32 70.9737 32H74C75.6569 32 77 30.6569 77 29V23C77 21.3431 75.6569 20 74 20H70.9737C70.3288 20 69.6881 19.896 69.0763 19.6921L67.9237 19.3079C67.3119 19.104 66.6712 19 66.0263 19H61ZM61 21V29H66.0263C66.8862 29 67.7404 29.1386 68.5562 29.4105L69.7088 29.7947C70.1166 29.9307 70.5437 30 70.9737 30H74C74.5523 30 75 29.5523 75 29V23C75 22.4477 74.5523 22 74 22H70.9737C70.1138 22 69.2596 21.8614 68.4438 21.5895L67.2912 21.2053C66.8834 21.0693 66.4563 21 66.0263 21H61Z" fill="currentColor"/>
</svg>
