<svg width="24" height="24" viewBox="56 16 24 24" fill="none" xmlns="http://www.w3.org/2000/svg">

<path fill-rule="evenodd" clip-rule="evenodd" d="M18.5 31L18.5 29.2361C18.5 28.2891 19.035 27.4235 19.882 27L25.2236 24.3292C25.393 24.2445 25.5 24.0714 25.5 23.882V20.5C25.5 19.1193 26.6193 18 28 18C29.3807 18 30.5 19.1193 30.5 20.5V23.882C30.5 24.0714 30.607 24.2445 30.7764 24.3292L36.118 27C36.965 27.4235 37.5 28.2891 37.5 29.2361V31C37.5 31.1584 37.4249 31.3075 37.2976 31.4018C37.1703 31.4961 37.0059 31.5245 36.8543 31.4783L30.8228 29.6416C30.6622 29.5927 30.5 29.7129 30.5 29.8808V32.5C30.5 32.6574 30.5741 32.8056 30.7 32.9L31.9 33.8C32.2777 34.0833 32.5 34.5279 32.5 35V37.5C32.5 37.6733 32.4103 37.8342 32.2629 37.9253C32.1155 38.0164 31.9314 38.0247 31.7764 37.9472L28 36.059L24.2236 37.9472C24.0686 38.0247 23.8845 38.0164 23.7371 37.9253C23.5897 37.8342 23.5 37.6733 23.5 37.5V35C23.5 34.5279 23.7223 34.0833 24.1 33.8L25.3 32.9C25.4259 32.8056 25.5 32.6574 25.5 32.5V29.8808C25.5 29.7129 25.3378 29.5927 25.1772 29.6416L19.1457 31.4783C18.9941 31.5245 18.8297 31.4961 18.7024 31.4018C18.5751 31.3075 18.5 31.1584 18.5 31Z" fill="currentColor"/>
<path fill-rule="evenodd" clip-rule="evenodd" d="M60 29.6502L65.7087 27.9118C66.0118 27.8195 66.3407 27.8763 66.5953 28.0649C66.8499 28.2535 67 28.5516 67 28.8684V33C67 33.3148 66.8518 33.6111 66.6 33.8L65 35V35.882L67.5528 34.6056C67.8343 34.4648 68.1657 34.4648 68.4472 34.6056L71 35.882V35L69.4 33.8C69.1482 33.6111 69 33.3148 69 33V28.8684C69 28.5516 69.1501 28.2535 69.4047 28.0649C69.6593 27.8763 69.9882 27.8195 70.2913 27.9118L76 29.6502V29.2361C76 28.8573 75.786 28.511 75.4472 28.3416L69.5528 25.3944C69.214 25.225 69 24.8788 69 24.5V20.5C69 19.9477 68.5523 19.5 68 19.5C67.4477 19.5 67 19.9477 67 20.5V24.5C67 24.8788 66.786 25.225 66.4472 25.3944L60.5528 28.3416C60.214 28.511 60 28.8573 60 29.2361V29.6502ZM58 31L58 29.2361C58 28.0998 58.642 27.061 59.6584 26.5528L65 23.882V20.5C65 18.8431 66.3431 17.5 68 17.5C69.6569 17.5 71 18.8431 71 20.5V23.882L76.3416 26.5528C77.358 27.061 78 28.0998 78 29.2361V31C78 31.3168 77.8499 31.6149 77.5953 31.8035C77.3407 31.9921 77.0118 32.0489 76.7087 31.9566L71 30.2183V32.5L72.2 33.4C72.7036 33.7777 73 34.3705 73 35V37.5C73 37.8466 72.8205 38.1684 72.5257 38.3506C72.2309 38.5329 71.8628 38.5494 71.5528 38.3944L68 36.618L64.4472 38.3944C64.1372 38.5494 63.7691 38.5329 63.4743 38.3506C63.1795 38.1684 63 37.8466 63 37.5V35C63 34.3705 63.2964 33.7777 63.8 33.4L65 32.5V30.2183L59.2913 31.9566C58.9882 32.0489 58.6593 31.9921 58.4047 31.8035C58.1501 31.6149 58 31.3168 58 31Z" fill="currentColor"/>
</svg>
