<svg width="24" height="24" color="#6F767E" viewBox="56 16 24 24" fill="none" xmlns="http://www.w3.org/2000/svg">

<path fill-rule="evenodd" clip-rule="evenodd" d="M22.4998 22H20C18.8954 22 18 22.8954 18 24V25C18 26.1046 18.8954 27 20 27H27V24C27 23.4477 27.4477 23 28 23C28.5523 23 29 23.4477 29 24V27H36C37.1046 27 38 26.1046 38 25V24C38 22.8954 37.1046 22 36 22H33.5002C33.814 21.5822 34 21.0628 34 20.5C34 19.1193 32.8807 18 31.5 18H31.2984C30.4777 18 29.7016 18.3731 29.1889 19.0139L28 20.5L26.8111 19.0139C26.2984 18.3731 25.5223 18 24.7016 18H24.5C23.1193 18 22 19.1193 22 20.5C22 21.0628 22.186 21.5822 22.4998 22ZM25.2494 20.2633L25.8388 21H24.5C24.2239 21 24 20.7761 24 20.5C24 20.2239 24.2239 20 24.5 20H24.7016C24.9147 20 25.1163 20.0969 25.2494 20.2633ZM30.1612 21L30.7506 20.2633C30.8837 20.0969 31.0853 20 31.2984 20H31.5C31.7761 20 32 20.2239 32 20.5C32 20.7761 31.7761 21 31.5 21H30.1612Z" fill="currentColor"/>
<path d="M27 29H20C19.4881 29 19 29.3726 19 29.8845V35C19 36.6568 20.3431 38 22 38H27V29Z" fill="currentColor"/>
<path d="M29 38H34C35.6569 38 37 36.6568 37 35V29.8845C37 29.3726 36.5119 29 36 29H29V38Z" fill="currentColor"/>
<path fill-rule="evenodd" clip-rule="evenodd" d="M68 20.5L66.8111 19.0139C66.2984 18.3731 65.5223 18 64.7016 18H64.5C63.1193 18 62 19.1193 62 20.5C62 20.6712 62.0172 20.8384 62.05 21H61C59.3431 21 58 22.3431 58 24V25C58 25.8885 58.3863 26.6868 59 27.2361V35C59 36.6569 60.3431 38 62 38H74C75.6569 38 77 36.6569 77 35V27.2361C77.6137 26.6868 78 25.8885 78 25V24C78 22.3431 76.6569 21 75 21H73.95C73.9828 20.8384 74 20.6712 74 20.5C74 19.1193 72.8807 18 71.5 18H71.2984C70.4777 18 69.7016 18.3731 69.1889 19.0139L68 20.5ZM70.1612 21H71.5C71.7761 21 72 20.7761 72 20.5C72 20.2239 71.7761 20 71.5 20H71.2984C71.0853 20 70.8837 20.0969 70.7506 20.2633L70.1612 21ZM61 23C60.4477 23 60 23.4477 60 24V25C60 25.5523 60.4477 26 61 26H67V23H61ZM69 23V26H75C75.5523 26 76 25.5523 76 25V24C76 23.4477 75.5523 23 75 23H69ZM64 20.5C64 20.7761 64.2239 21 64.5 21H65.8388L65.2494 20.2633C65.1163 20.0969 64.9147 20 64.7016 20H64.5C64.2239 20 64 20.2239 64 20.5ZM61 28L61 35C61 35.5523 61.4477 36 62 36H67V28H61ZM69 36V28H75V35C75 35.5523 74.5523 36 74 36H69Z" fill="currentColor"/>
</svg>
