<svg width="24" height="24" viewBox="56 16 24 24" fill="none" xmlns="http://www.w3.org/2000/svg">

<path d="M31 28.0002C31 28.529 30.9816 29.0449 30.9466 29.5454C30.9286 29.8032 30.7121 30.0002 30.4536 30.0002H25.5464C25.2879 30.0002 25.0714 29.8032 25.0534 29.5454C25.0184 29.0449 25 28.529 25 28.0002C25 27.4715 25.0184 26.9555 25.0534 26.4551C25.0714 26.1972 25.2879 26.0002 25.5464 26.0002H30.4536C30.7121 26.0002 30.9286 26.1972 30.9466 26.4551C30.9816 26.9555 31 27.4715 31 28.0002Z" fill="currentColor"/>
<path d="M33.461 26.0002C33.1685 26.0002 32.9389 26.2503 32.9565 26.5423C32.9852 27.0193 33 27.5059 33 28.0002C33 28.4945 32.9852 28.9811 32.9565 29.4581C32.9389 29.7502 33.1685 30.0002 33.461 30.0002H37.3913C37.6291 30.0002 37.8353 29.8329 37.873 29.5981C37.9566 29.0778 38 28.5441 38 28.0002C38 27.4563 37.9566 26.9226 37.873 26.4023C37.8353 26.1675 37.6291 26.0002 37.3913 26.0002H33.461Z" fill="currentColor"/>
<path d="M36.8354 23.3124C37.0046 23.6307 36.7643 24.0002 36.4038 24.0002H33.0782C32.8358 24.0002 32.6289 23.826 32.5816 23.5882C32.2683 22.0159 31.7927 20.6357 31.2014 19.5503C30.9695 19.1246 31.3569 18.565 31.8051 18.7496C33.9658 19.6393 35.7463 21.264 36.8354 23.3124Z" fill="currentColor"/>
<path d="M30.4955 23.4052C30.5678 23.712 30.3308 24.0002 30.0156 24.0002H25.9844C25.6692 24.0002 25.4322 23.712 25.5045 23.4052C25.7145 22.5133 25.9809 21.7192 26.2852 21.0496C27.129 19.1933 27.8858 19.0002 28 19.0002C28.1142 19.0002 28.871 19.1933 29.7148 21.0496C30.0191 21.7192 30.2855 22.5133 30.4955 23.4052Z" fill="currentColor"/>
<path d="M22.9218 24.0002C23.1642 24.0002 23.3711 23.826 23.4184 23.5882C23.7317 22.0159 24.2073 20.6357 24.7986 19.5503C25.0305 19.1246 24.6431 18.565 24.1949 18.7496C22.0342 19.6393 20.2537 21.264 19.1646 23.3124C18.9954 23.6307 19.2357 24.0002 19.5962 24.0002H22.9218Z" fill="currentColor"/>
<path d="M18.6087 26.0002C18.3709 26.0002 18.1647 26.1675 18.127 26.4023C18.0434 26.9226 18 27.4563 18 28.0002C18 28.5441 18.0434 29.0778 18.127 29.5981C18.1647 29.8329 18.3709 30.0002 18.6087 30.0002H22.539C22.8315 30.0002 23.0611 29.7502 23.0435 29.4581C23.0148 28.9811 23 28.4945 23 28.0002C23 27.5059 23.0148 27.0193 23.0435 26.5423C23.0611 26.2503 22.8315 26.0002 22.539 26.0002H18.6087Z" fill="currentColor"/>
<path d="M26.2852 34.9508C25.9809 34.2812 25.7145 33.4872 25.5045 32.5952C25.4322 32.2885 25.6692 32.0002 25.9844 32.0002H30.0156C30.3308 32.0002 30.5678 32.2885 30.4955 32.5952C30.2855 33.4872 30.0191 34.2812 29.7148 34.9508C28.871 36.8071 28.1142 37.0002 28 37.0002C27.8858 37.0002 27.129 36.8071 26.2852 34.9508Z" fill="currentColor"/>
<path d="M23.4184 32.4122C23.3711 32.1744 23.1642 32.0002 22.9218 32.0002H19.5962C19.2357 32.0002 18.9954 32.3698 19.1646 32.6881C20.2537 34.7364 22.0342 36.3611 24.1949 37.2508C24.6431 37.4354 25.0305 36.8758 24.7986 36.4501C24.2073 35.3647 23.7317 33.9845 23.4184 32.4122Z" fill="currentColor"/>
<path d="M36.8354 32.6881C37.0046 32.3698 36.7643 32.0002 36.4038 32.0002H33.0782C32.8358 32.0002 32.6289 32.1744 32.5816 32.4122C32.2683 33.9845 31.7927 35.3647 31.2014 36.4501C30.9695 36.8758 31.3569 37.4354 31.8051 37.2508C33.9658 36.3611 35.7463 34.7364 36.8354 32.6881Z" fill="currentColor"/>
<path fill-rule="evenodd" clip-rule="evenodd" d="M68 18C62.4772 18 58 22.4772 58 28C58 33.5228 62.4772 38 68 38C73.5228 38 78 33.5228 78 28C78 22.4772 73.5228 18 68 18ZM60.252 26C60.0875 26.6392 60 27.3094 60 28C60 28.6906 60.0875 29.3608 60.252 30H63.0943C63.0323 29.3521 63 28.6829 63 28C63 27.3171 63.0323 26.6479 63.0943 26H60.252ZM61.0703 24H63.3932C63.6051 22.9765 63.8976 22.0402 64.2578 21.2299C64.318 21.0943 64.3806 20.9612 64.4456 20.831C63.0329 21.5328 61.8571 22.6398 61.0703 24ZM65.1045 26C65.0365 26.6376 65 27.3072 65 28C65 28.6928 65.0365 29.3624 65.1045 30H70.8955C70.9635 29.3624 71 28.6928 71 28C71 27.3072 70.9635 26.6376 70.8955 26H65.1045ZM70.5584 24H65.4416C65.6153 23.2676 65.8338 22.6083 66.0854 22.0422C66.4134 21.3042 66.778 20.7689 67.1324 20.4317C67.4816 20.0993 67.7731 20 68 20C68.2269 20 68.5184 20.0993 68.8676 20.4317C69.222 20.7689 69.5866 21.3042 69.9146 22.0422C70.1662 22.6083 70.3847 23.2676 70.5584 24ZM72.9057 26C72.9677 26.6479 73 27.3171 73 28C73 28.6829 72.9677 29.3521 72.9057 30H75.748C75.9125 29.3608 76 28.6906 76 28C76 27.3094 75.9125 26.6392 75.748 26H72.9057ZM74.9297 24H72.6068C72.3949 22.9765 72.1024 22.0402 71.7422 21.2299C71.682 21.0943 71.6194 20.9612 71.5544 20.831C72.9671 21.5328 74.1429 22.6398 74.9297 24ZM64.4456 35.169C63.0329 34.4672 61.8571 33.3602 61.0703 32H63.3932C63.6051 33.0235 63.8976 33.9598 64.2578 34.7701C64.318 34.9057 64.3806 35.0388 64.4456 35.169ZM66.0854 33.9578C65.8338 33.3917 65.6153 32.7324 65.4416 32H70.5584C70.3847 32.7324 70.1662 33.3917 69.9146 33.9578C69.5866 34.6958 69.222 35.2311 68.8676 35.5683C68.5184 35.9007 68.2269 36 68 36C67.7731 36 67.4816 35.9007 67.1324 35.5683C66.778 35.2311 66.4134 34.6958 66.0854 33.9578ZM71.7422 34.7701C72.1024 33.9598 72.3949 33.0235 72.6068 32H74.9297C74.1429 33.3602 72.9671 34.4672 71.5544 35.169C71.6194 35.0388 71.682 34.9057 71.7422 34.7701Z" fill="currentColor"/>
</svg>
