<svg width="24" height="24" viewBox="56 16 24 24" fill="none" xmlns="http://www.w3.org/2000/svg">

<path fill-rule="evenodd" clip-rule="evenodd" d="M32 22C31.4477 22 31 22.4477 31 23C31 23.5523 31.4477 24 32 24H34.5858L29 29.5858L26.4142 27C25.6332 26.2189 24.3668 26.219 23.5858 27L18.2929 32.2929C17.9024 32.6834 17.9024 33.3166 18.2929 33.7071C18.6834 34.0976 19.3166 34.0976 19.7071 33.7071L25 28.4142L27.5858 31C28.3668 31.781 29.6332 31.781 30.4142 31L36 25.4142V28C36 28.5523 36.4477 29 37 29C37.5523 29 38 28.5523 38 28V23C38 22.4477 37.5523 22 37 22H32Z" fill="currentColor"/>
<path fill-rule="evenodd" clip-rule="evenodd" d="M72 22C71.4477 22 71 22.4477 71 23C71 23.5523 71.4477 24 72 24H74.5858L69 29.5858L66.4142 27C65.6332 26.2189 64.3668 26.219 63.5858 27L58.2929 32.2929C57.9024 32.6834 57.9024 33.3166 58.2929 33.7071C58.6834 34.0976 59.3166 34.0976 59.7071 33.7071L65 28.4142L67.5858 31C68.3668 31.781 69.6332 31.781 70.4142 31L76 25.4142V28C76 28.5523 76.4477 29 77 29C77.5523 29 78 28.5523 78 28V23C78 22.4477 77.5523 22 77 22H72Z" fill="currentColor"/>
</svg>
