<svg width="24" height="24" color="#6F767E" viewBox="56 16 24 24" fill="none" xmlns="http://www.w3.org/2000/svg">

<path fill-rule="evenodd" clip-rule="evenodd" d="M19 18C19.5523 18 20 18.4477 20 19V35C20 35.5523 20.4477 36 21 36H37C37.5523 36 38 36.4477 38 37C38 37.5523 37.5523 38 37 38H21C19.3431 38 18 36.6569 18 35V19C18 18.4477 18.4477 18 19 18Z" fill="currentColor"/>
<path d="M33 22.5C32.4477 22.5 32 22.9477 32 23.5C32 24.0523 32.4477 24.5 33 24.5H34.5858L30.5 28.5858L27.9142 26C27.1332 25.219 25.8668 25.2189 25.0858 26L22.2929 28.7929C21.9024 29.1834 21.9024 29.8166 22.2929 30.2071C22.6834 30.5976 23.3166 30.5976 23.7071 30.2071L26.5 27.4142L29.0858 30C29.8668 30.781 31.1332 30.781 31.9142 30L36 25.9142V27.5C36 28.0523 36.4477 28.5 37 28.5C37.5523 28.5 38 28.0523 38 27.5V23.5C38 22.9477 37.5523 22.5 37 22.5H33Z" fill="currentColor"/>
<path fill-rule="evenodd" clip-rule="evenodd" d="M59 18C59.5523 18 60 18.4477 60 19V35C60 35.5523 60.4477 36 61 36H77C77.5523 36 78 36.4477 78 37C78 37.5523 77.5523 38 77 38H61C59.3431 38 58 36.6569 58 35V19C58 18.4477 58.4477 18 59 18Z" fill="currentColor"/>
<path d="M73 22.5C72.4477 22.5 72 22.9477 72 23.5C72 24.0523 72.4477 24.5 73 24.5H74.5858L70.5 28.5858L67.9142 26C67.1332 25.219 65.8668 25.2189 65.0858 26L62.2929 28.7929C61.9024 29.1834 61.9024 29.8166 62.2929 30.2071C62.6834 30.5976 63.3166 30.5976 63.7071 30.2071L66.5 27.4142L69.0858 30C69.8668 30.781 71.1332 30.781 71.9142 30L76 25.9142V27.5C76 28.0523 76.4477 28.5 77 28.5C77.5523 28.5 78 28.0523 78 27.5V23.5C78 22.9477 77.5523 22.5 77 22.5H73Z" fill="currentColor"/>
</svg>
