<svg width="24" height="24" color="#6F767E" viewBox="56 16 24 24" fill="none" xmlns="http://www.w3.org/2000/svg">

<path fill-rule="evenodd" clip-rule="evenodd" d="M38 28C38 33.5228 33.5228 38 28 38C22.4772 38 18 33.5228 18 28C18 22.4772 22.4772 18 28 18C33.5228 18 38 22.4772 38 28ZM29 34C29 34.5523 28.5523 35 28 35C27.4477 35 27 34.5523 27 34C27 33.4477 27.4477 33 28 33C28.5523 33 29 33.4477 29 34ZM26.1135 25.3332C26.3886 24.5551 27.1307 24 28 24C29.1045 24 30 24.8954 30 26C30 27.1046 29.1045 28 28 28C27.4477 28 27 28.4477 27 29V30.5C27 31.0523 27.4477 31.5 28 31.5C28.5523 31.5 29 31.0523 29 30.5V29.874C30.7252 29.4299 32 27.8638 32 26C32 23.7909 30.2091 22 28 22C26.2568 22 24.7765 23.1145 24.2278 24.6668C24.0438 25.1875 24.3167 25.7588 24.8374 25.9428C25.3582 26.1269 25.9295 25.854 26.1135 25.3332Z" fill="currentColor"/>
<path fill-rule="evenodd" clip-rule="evenodd" d="M68 36C72.4183 36 76 32.4183 76 28C76 23.5817 72.4183 20 68 20C63.5817 20 60 23.5817 60 28C60 32.4183 63.5817 36 68 36ZM68 38C73.5228 38 78 33.5228 78 28C78 22.4772 73.5228 18 68 18C62.4772 18 58 22.4772 58 28C58 33.5228 62.4772 38 68 38Z" fill="currentColor"/>
<path d="M69 34C69 34.5523 68.5523 35 68 35C67.4477 35 67 34.5523 67 34C67 33.4477 67.4477 33 68 33C68.5523 33 69 33.4477 69 34Z" fill="currentColor"/>
<path fill-rule="evenodd" clip-rule="evenodd" d="M68 24C67.1307 24 66.3886 24.5551 66.1135 25.3332C65.9295 25.854 65.3582 26.1269 64.8375 25.9428C64.3167 25.7588 64.0438 25.1875 64.2279 24.6668C64.7765 23.1145 66.2568 22 68 22C70.2091 22 72 23.7909 72 26C72 27.8638 70.7252 29.4299 69 29.874V31C69 31.5523 68.5523 32 68 32C67.4477 32 67 31.5523 67 31V29C67 28.4477 67.4477 28 68 28C69.1046 28 70 27.1046 70 26C70 24.8954 69.1046 24 68 24Z" fill="currentColor"/>
</svg>
