<svg width="24" height="24" viewBox="56 16 24 24" fill="none" xmlns="http://www.w3.org/2000/svg">

<path d="M36 28C36 23.5817 32.4183 20 28 20C25.4829 20 23.2712 21.1635 21.8178 22.9932L23.4971 22.9883C24.0494 22.9867 24.4984 23.4331 24.5 23.9854C24.5016 24.5376 24.0552 24.9867 23.5029 24.9883L20.0601 24.9984C20.0217 25.0007 19.983 25.0008 19.9443 24.9987L19.5029 25C19.2372 25.0008 18.9821 24.8958 18.7939 24.7081C18.6058 24.5205 18.5 24.2657 18.5 24L18.5 20C18.5 19.4477 18.9477 19 19.5 19C20.0523 19 20.5 19.4477 20.5 20L20.5 21.4495C22.3125 19.3404 24.977 18 28 18C33.5228 18 38 22.4772 38 28C38 33.5228 33.5228 38 28 38C24.0641 38 20.7359 35.7278 19.1045 32.445C18.8587 31.9505 19.0604 31.3503 19.555 31.1045C20.0495 30.8587 20.6497 31.0604 20.8955 31.555C22.2095 34.1991 24.8685 36 28 36C32.4183 36 36 32.4183 36 28Z" fill="currentColor"/>
<path fill-rule="evenodd" clip-rule="evenodd" d="M28 23C28.5523 23 29 23.4477 29 24V27.5858L30.7071 29.2929C31.0976 29.6834 31.0976 30.3166 30.7071 30.7071C30.3166 31.0976 29.6834 31.0976 29.2929 30.7071L27.5858 29C27.2107 28.6249 27 28.1162 27 27.5858V24C27 23.4477 27.4477 23 28 23Z" fill="currentColor"/>
<path d="M76 28C76 23.5817 72.4183 20 68 20C65.4829 20 63.2712 21.1635 61.8178 22.9932L63.4971 22.9883C64.0494 22.9867 64.4984 23.4331 64.5 23.9854C64.5016 24.5376 64.0552 24.9867 63.5029 24.9883L60.0601 24.9984C60.0217 25.0007 59.983 25.0008 59.9443 24.9987L59.5029 25C59.2372 25.0008 58.9821 24.8958 58.7939 24.7081C58.6058 24.5205 58.5 24.2657 58.5 24L58.5 20C58.5 19.4477 58.9477 19 59.5 19C60.0523 19 60.5 19.4477 60.5 20L60.5 21.4495C62.3125 19.3404 64.977 18 68 18C73.5228 18 78 22.4772 78 28C78 33.5228 73.5228 38 68 38C64.0641 38 60.7359 35.7278 59.1045 32.445C58.8587 31.9505 59.0604 31.3503 59.555 31.1045C60.0495 30.8587 60.6497 31.0604 60.8955 31.555C62.2095 34.1991 64.8685 36 68 36C72.4183 36 76 32.4183 76 28Z" fill="currentColor"/>
<path fill-rule="evenodd" clip-rule="evenodd" d="M68 23C68.5523 23 69 23.4477 69 24V27.5858L70.7071 29.2929C71.0976 29.6834 71.0976 30.3166 70.7071 30.7071C70.3166 31.0976 69.6834 31.0976 69.2929 30.7071L67.5858 29C67.2107 28.6249 67 28.1162 67 27.5858V24C67 23.4477 67.4477 23 68 23Z" fill="currentColor"/>
</svg>
