<svg width="24" height="24" viewBox="56 16 24 24" fill="none" xmlns="http://www.w3.org/2000/svg">
<path fill-rule="evenodd" clip-rule="evenodd" d="M72 26C73.1046 26 74 25.1046 74 24C74 22.8954 73.1046 22 72 22C70.8954 22 70 22.8954 70 24C70 25.1046 70.8954 26 72 26Z" fill="currentColor"/>
<path fill-rule="evenodd" clip-rule="evenodd" d="M58 21C58 19.3431 59.3431 18 61 18H75C76.6569 18 78 19.3431 78 21V35C78 36.6569 76.6569 38 75 38H61C59.3431 38 58 36.6569 58 35V21ZM61 20H75C75.5523 20 76 20.4477 76 21V35C76 35.2279 75.9238 35.438 75.7954 35.6061C75.7648 35.5653 75.7316 35.5254 75.6959 35.4864L66.569 25.5299C65.3418 24.191 63.2157 24.2412 62.0529 25.6365L60 28.1V21C60 20.4477 60.4477 20 61 20ZM60 31.2241V35C60 35.5523 60.4477 36 61 36H73.4535L65.0947 26.8813C64.6856 26.435 63.9769 26.4518 63.5894 26.9169L60 31.2241Z" fill="currentColor"/>
</svg>
