<svg width="24" height="24" viewBox="56 16 24 24" fill="none" xmlns="http://www.w3.org/2000/svg">

<path fill-rule="evenodd" clip-rule="evenodd" d="M38 34C38 35.6569 36.6569 37 35 37H21C19.3431 37 18 35.6569 18 34V29.1468C18 29.0976 18.0036 29.0485 18.0108 29C18.0179 28.9525 18.0283 28.9055 18.0422 28.8594L20.3586 21.138C20.7393 19.869 21.9073 19 23.2321 19H32.7679C34.0927 19 35.2607 19.869 35.6414 21.138L37.9578 28.8594C37.9717 28.9055 37.9821 28.9525 37.9892 29C37.9964 29.0485 38 29.0976 38 29.1468V34ZM32.7679 21H23.2321C22.7905 21 22.4012 21.2897 22.2743 21.7127L20.2812 28.3563C20.1849 28.6771 20.4251 29 20.7601 29H24.382C24.7607 29 25.107 29.214 25.2764 29.5528L25.7208 30.4417C25.8902 30.7805 26.2365 30.9945 26.6153 30.9945H29.3847C29.7635 30.9945 30.1098 30.7805 30.2792 30.4417L30.7236 29.5528C30.893 29.214 31.2393 29 31.618 29H35.2399C35.5749 29 35.8151 28.6771 35.7188 28.3563L33.7257 21.7127C33.5988 21.2897 33.2095 21 32.7679 21Z" fill="currentColor"/>
<path fill-rule="evenodd" clip-rule="evenodd" d="M78 29.1468C78 29.0976 77.9964 29.0485 77.9892 29C77.9821 28.9525 77.9717 28.9055 77.9578 28.8594L75.6414 21.138C75.2607 19.869 74.0927 19 72.7679 19H63.2321C61.9073 19 60.7393 19.869 60.3586 21.138L58.0422 28.8594C58.0283 28.9055 58.0179 28.9525 58.0108 29C58.0036 29.0485 58 29.0976 58 29.1468V34C58 35.6569 59.3431 37 61 37H75C76.6569 37 78 35.6569 78 34V29.1468ZM72.7679 21H63.2321C62.7905 21 62.4012 21.2897 62.2743 21.7127L60.0881 29H64.382C64.7607 29 65.107 29.214 65.2764 29.5528L65.9972 30.9945C65.9989 30.9979 66.0024 31 66.0062 31H69.9938C69.9976 31 70.0011 30.9979 70.0028 30.9945L70.7236 29.5528C70.893 29.214 71.2393 29 71.618 29H75.9119L73.7257 21.7127C73.5988 21.2897 73.2095 21 72.7679 21ZM76 31H72.2361L71.7916 31.8889C71.4511 32.5698 70.7552 33 69.9938 33H66.0062C65.2449 33 64.5489 32.5699 64.2084 31.8889L63.7639 31H60V34C60 34.5523 60.4477 35 61 35H75C75.5523 35 76 34.5523 76 34V31Z" fill="currentColor"/>
</svg>
