<svg width="24" height="24" viewBox="56 16 24 24" fill="none" xmlns="http://www.w3.org/2000/svg">

<path d="M36.7803 36.7805C36.4878 37.0738 36.0131 37.0745 35.7198 36.7813L19.2203 20.281C18.9271 19.9885 18.9263 19.5138 19.2196 19.2205C19.5121 18.9272 19.9876 18.9265 20.2808 19.2198L28.7507 27.7046V23.5008C28.7507 22.6721 29.422 22.0008 30.2507 22.0008C31.0795 22.0008 31.7508 22.6721 31.7508 23.5008V30.6994L33.2508 32.1965V20.5C33.2508 19.6713 33.922 19 34.7508 19C35.5796 19 36.2508 19.6713 36.2508 20.5V35.1913L36.7796 35.72C37.0728 36.0125 37.0728 36.4873 36.7803 36.7805ZM21.2498 31.7502C20.4211 31.7502 19.7498 32.4215 19.7498 33.2502V35.5003C19.7498 36.329 20.4211 37.0003 21.2498 37.0003C22.0786 37.0003 22.7499 36.329 22.7499 35.5003V33.2502C22.7499 32.4215 22.0786 31.7502 21.2498 31.7502ZM25.7499 37.0003C26.5787 37.0003 27.2499 36.329 27.2499 35.5003V30.4459L24.2499 27.4511V35.4995C24.2499 36.3283 24.9212 37.0003 25.7499 37.0003ZM30.25 37.0003C31.0788 37.0003 31.75 36.329 31.75 35.5003V34.9385L28.75 31.9437V35.5003C28.75 36.329 29.4212 37.0003 30.25 37.0003Z" fill="currentColor"/>
<path d="M76.7803 36.7805C76.4878 37.0738 76.0131 37.0745 75.7198 36.7813L59.2203 20.281C58.9271 19.9885 58.9263 19.5138 59.2196 19.2205C59.5121 18.9272 59.9876 18.9265 60.2808 19.2198L68.7507 27.7046V23.5008C68.7507 22.6721 69.422 22.0008 70.2507 22.0008C71.0795 22.0008 71.7508 22.6721 71.7508 23.5008V30.6994L73.2508 32.1965V20.5C73.2508 19.6713 73.922 19 74.7508 19C75.5796 19 76.2508 19.6713 76.2508 20.5V35.1913L76.7796 35.72C77.0728 36.0125 77.0728 36.4873 76.7803 36.7805ZM61.2498 31.7502C60.4211 31.7502 59.7498 32.4215 59.7498 33.2502V35.5003C59.7498 36.329 60.4211 37.0003 61.2498 37.0003C62.0786 37.0003 62.7499 36.329 62.7499 35.5003V33.2502C62.7499 32.4215 62.0786 31.7502 61.2498 31.7502ZM65.7499 37.0003C66.5787 37.0003 67.2499 36.329 67.2499 35.5003V30.4459L64.2499 27.4511V35.4995C64.2499 36.3283 64.9212 37.0003 65.7499 37.0003ZM70.25 37.0003C71.0788 37.0003 71.75 36.329 71.75 35.5003V34.9385L68.75 31.9437V35.5003C68.75 36.329 69.4212 37.0003 70.25 37.0003Z" fill="currentColor"/>
</svg>
