<svg width="24" height="24" viewBox="56 16 24 24" fill="none" xmlns="http://www.w3.org/2000/svg">

<path d="M25 23C25 21.8954 25.8954 21 27 21H29C30.1046 21 31 21.8954 31 23V34C31 34.5523 30.5523 35 30 35H26C25.4477 35 25 34.5523 25 34V23Z" fill="currentColor"/>
<path d="M33 29C33 28.4477 33.4477 28 34 28H36C37.1046 28 38 28.8954 38 30V34C38 34.5523 37.5523 35 37 35H34C33.4477 35 33 34.5523 33 34V29Z" fill="currentColor"/>
<path d="M18 28C18 26.8954 18.8954 26 20 26H22C22.5523 26 23 26.4477 23 27V34C23 34.5523 22.5523 35 22 35H19C18.4477 35 18 34.5523 18 34V28Z" fill="currentColor"/>
<path fill-rule="evenodd" clip-rule="evenodd" d="M72 28V24C72 22.3431 70.6569 21 69 21H67C65.3431 21 64 22.3431 64 24V26H61C59.3431 26 58 27.3431 58 29V34C58 34.5523 58.4477 35 59 35H77C77.5523 35 78 34.5523 78 34V31C78 29.3431 76.6569 28 75 28H72ZM69 23H67C66.4477 23 66 23.4477 66 24V33H70V24C70 23.4477 69.5523 23 69 23ZM72 30V33H76V31C76 30.4477 75.5523 30 75 30H72ZM61 28H64V33H60V29C60 28.4477 60.4477 28 61 28Z" fill="currentColor"/>
</svg>
