<svg width="24" height="24" viewBox="56 16 24 24" fill="none" xmlns="http://www.w3.org/2000/svg">
<path fill-rule="evenodd" clip-rule="evenodd" d="M58 28C58 25.2386 60.2386 23 63 23H66C66.5523 23 67 23.4477 67 24C67 24.5523 66.5523 25 66 25H63C61.3431 25 60 26.3431 60 28C60 29.6569 61.3431 31 63 31H66C66.5523 31 67 31.4477 67 32C67 32.5523 66.5523 33 66 33H63C60.2386 33 58 30.7614 58 28Z" fill="currentColor"/>
<path fill-rule="evenodd" clip-rule="evenodd" d="M69 24C69 23.4477 69.4477 23 70 23H73C75.7614 23 78 25.2386 78 28C78 30.7614 75.7614 33 73 33H70C69.4477 33 69 32.5523 69 32C69 31.4477 69.4477 31 70 31H73C74.6569 31 76 29.6569 76 28C76 26.3431 74.6569 25 73 25H70C69.4477 25 69 24.5523 69 24Z" fill="currentColor"/>
<path fill-rule="evenodd" clip-rule="evenodd" d="M64 28C64 27.4477 64.4477 27 65 27H71C71.5523 27 72 27.4477 72 28C72 28.5523 71.5523 29 71 29H65C64.4477 29 64 28.5523 64 28Z" fill="currentColor"/>
</svg>
