<svg width="24" height="24" viewBox="56 16 24 24" fill="none" xmlns="http://www.w3.org/2000/svg">

<path fill-rule="evenodd" clip-rule="evenodd" d="M26 27.9003C26 29.0049 26.8954 29.9003 28 29.9003C29.1046 29.9003 30 29.0049 30 27.9003C30 26.7958 29.1046 25.9003 28 25.9003C26.8954 25.9003 26 26.7958 26 27.9003Z" fill="currentColor"/>
<path fill-rule="evenodd" clip-rule="evenodd" d="M32 27.9003C32 26.7563 31.617 25.7046 30.9718 24.8625C30.6359 24.4241 30.719 23.7964 31.1574 23.4605C31.5958 23.1246 32.2234 23.2077 32.5594 23.6461C33.4627 24.8251 34 26.3013 34 27.9003C34 29.5667 33.4164 31.0996 32.4434 32.3017C32.0959 32.731 31.4662 32.7973 31.0369 32.4498C30.6077 32.1023 30.5413 31.4726 30.8888 31.0434C31.5842 30.1843 32 29.0922 32 27.9003Z" fill="currentColor"/>
<path fill-rule="evenodd" clip-rule="evenodd" d="M24 27.9003C24 26.7548 24.384 25.7019 25.0308 24.8592C25.367 24.4211 25.2845 23.7933 24.8463 23.4571C24.4082 23.1208 23.7805 23.2033 23.4442 23.6415C22.5387 24.8212 22 26.2992 22 27.9003C22 29.5654 22.5827 31.0972 23.5544 32.2989C23.9016 32.7284 24.5313 32.795 24.9607 32.4477C25.3902 32.1005 25.4568 31.4708 25.1096 31.0414C24.4152 30.1826 24 29.0913 24 27.9003Z" fill="currentColor"/>
<path fill-rule="evenodd" clip-rule="evenodd" d="M36 27.9003C36 25.6683 35.1888 23.6282 33.8438 22.0551C33.4849 21.6354 33.5342 21.0041 33.954 20.6452C34.3738 20.2863 35.005 20.3357 35.3639 20.7554C37.0069 22.6771 38 25.174 38 27.9003C38 30.6893 36.9607 33.2381 35.2497 35.1766C34.8843 35.5907 34.2523 35.6301 33.8383 35.2646C33.4242 34.8991 33.3848 34.2672 33.7503 33.8531C35.1511 32.266 36 30.1835 36 27.9003Z" fill="currentColor"/>
<path fill-rule="evenodd" clip-rule="evenodd" d="M20 27.9003C20 25.6684 20.8111 23.6285 22.1559 22.0554C22.5148 21.6357 22.4655 21.0044 22.0457 20.6455C21.6259 20.2867 20.9946 20.336 20.6358 20.7558C18.993 22.6774 18 25.1742 18 27.9003C18 30.6856 19.0365 33.2312 20.7433 35.1688C21.1084 35.5832 21.7403 35.6232 22.1547 35.2581C22.5692 34.893 22.6092 34.2611 22.2441 33.8467C20.8466 32.2604 20 30.1804 20 27.9003Z" fill="currentColor"/>
<path fill-rule="evenodd" clip-rule="evenodd" d="M66 27.9003C66 29.0049 66.8954 29.9003 68 29.9003C69.1046 29.9003 70 29.0049 70 27.9003C70 26.7958 69.1046 25.9003 68 25.9003C66.8954 25.9003 66 26.7958 66 27.9003Z" fill="currentColor"/>
<path fill-rule="evenodd" clip-rule="evenodd" d="M72 27.9003C72 26.7563 71.617 25.7046 70.9718 24.8625C70.6359 24.4241 70.719 23.7964 71.1574 23.4605C71.5958 23.1246 72.2234 23.2077 72.5594 23.6461C73.4627 24.8251 74 26.3013 74 27.9003C74 29.5667 73.4164 31.0996 72.4434 32.3017C72.0959 32.731 71.4662 32.7973 71.0369 32.4498C70.6077 32.1023 70.5413 31.4726 70.8888 31.0434C71.5842 30.1843 72 29.0922 72 27.9003Z" fill="currentColor"/>
<path fill-rule="evenodd" clip-rule="evenodd" d="M64 27.9003C64 26.7548 64.384 25.7019 65.0308 24.8592C65.367 24.4211 65.2845 23.7933 64.8463 23.4571C64.4082 23.1208 63.7805 23.2033 63.4442 23.6415C62.5387 24.8212 62 26.2992 62 27.9003C62 29.5654 62.5827 31.0972 63.5544 32.2989C63.9016 32.7284 64.5313 32.795 64.9607 32.4477C65.3902 32.1005 65.4568 31.4708 65.1096 31.0414C64.4152 30.1826 64 29.0913 64 27.9003Z" fill="currentColor"/>
<path fill-rule="evenodd" clip-rule="evenodd" d="M76 27.9003C76 25.6683 75.1888 23.6282 73.8438 22.0551C73.4849 21.6354 73.5342 21.0041 73.954 20.6452C74.3738 20.2863 75.005 20.3357 75.3639 20.7554C77.0069 22.6771 78 25.174 78 27.9003C78 30.6893 76.9607 33.2381 75.2497 35.1766C74.8843 35.5907 74.2523 35.6301 73.8383 35.2646C73.4242 34.8991 73.3848 34.2672 73.7503 33.8531C75.1511 32.266 76 30.1835 76 27.9003Z" fill="currentColor"/>
<path fill-rule="evenodd" clip-rule="evenodd" d="M60 27.9003C60 25.6684 60.8111 23.6285 62.1559 22.0554C62.5148 21.6357 62.4655 21.0044 62.0457 20.6455C61.6259 20.2867 60.9946 20.336 60.6358 20.7558C58.993 22.6774 58 25.1742 58 27.9003C58 30.6856 59.0365 33.2312 60.7433 35.1688C61.1084 35.5832 61.7403 35.6232 62.1547 35.2581C62.5692 34.893 62.6092 34.2611 62.2441 33.8467C60.8466 32.2604 60 30.1804 60 27.9003Z" fill="currentColor"/>
</svg>
