<svg width="24" height="24" viewBox="56 16 24 24" fill="none" xmlns="http://www.w3.org/2000/svg">
<path fill-rule="evenodd" clip-rule="evenodd" d="M68 18C68.5523 18 69 18.4477 69 19V21C69 21.5523 68.5523 22 68 22C67.4477 22 67 21.5523 67 21V19C67 18.4477 67.4477 18 68 18Z" fill="currentColor"/>
<path fill-rule="evenodd" clip-rule="evenodd" d="M68 34C68.5523 34 69 34.4477 69 35V37C69 37.5523 68.5523 38 68 38C67.4477 38 67 37.5523 67 37V35C67 34.4477 67.4477 34 68 34Z" fill="currentColor"/>
<path fill-rule="evenodd" clip-rule="evenodd" d="M60.9289 20.9289C61.3195 20.5384 61.9526 20.5384 62.3432 20.9289L63.7574 22.3431C64.1479 22.7337 64.1479 23.3668 63.7574 23.7574C63.3668 24.1479 62.7337 24.1479 62.3432 23.7574L60.9289 22.3431C60.5384 21.9526 60.5384 21.3195 60.9289 20.9289Z" fill="currentColor"/>
<path fill-rule="evenodd" clip-rule="evenodd" d="M72.2426 32.2426C72.6332 31.8521 73.2663 31.8521 73.6569 32.2426L75.0711 33.6569C75.4616 34.0474 75.4616 34.6805 75.0711 35.0711C74.6806 35.4616 74.0474 35.4616 73.6569 35.0711L72.2426 33.6569C71.8521 33.2663 71.8521 32.6332 72.2426 32.2426Z" fill="currentColor"/>
<path fill-rule="evenodd" clip-rule="evenodd" d="M58 28C58 27.4477 58.4477 27 59 27H61C61.5523 27 62 27.4477 62 28C62 28.5523 61.5523 29 61 29H59C58.4477 29 58 28.5523 58 28Z" fill="currentColor"/>
<path fill-rule="evenodd" clip-rule="evenodd" d="M74 28C74 27.4477 74.4477 27 75 27H77C77.5523 27 78 27.4477 78 28C78 28.5523 77.5523 29 77 29H75C74.4477 29 74 28.5523 74 28Z" fill="currentColor"/>
<path fill-rule="evenodd" clip-rule="evenodd" d="M60.9289 35.0711C60.5384 34.6805 60.5384 34.0474 60.9289 33.6569L62.3432 32.2426C62.7337 31.8521 63.3668 31.8521 63.7574 32.2426C64.1479 32.6332 64.1479 33.2663 63.7574 33.6569L62.3432 35.0711C61.9526 35.4616 61.3195 35.4616 60.9289 35.0711Z" fill="currentColor"/>
<path fill-rule="evenodd" clip-rule="evenodd" d="M72.2426 23.7574C71.8521 23.3668 71.8521 22.7337 72.2426 22.3431L73.6569 20.9289C74.0474 20.5384 74.6805 20.5384 75.0711 20.9289C75.4616 21.3195 75.4616 21.9526 75.0711 22.3431L73.6569 23.7574C73.2663 24.1479 72.6332 24.1479 72.2426 23.7574Z" fill="currentColor"/>
</svg>
