<svg width="24" height="24" color="#6F767E" viewBox="56 16 24 24" fill="none" xmlns="http://www.w3.org/2000/svg">

<path d="M37 28C37 32.9706 32.9706 37 28 37C23.0294 37 19 32.9706 19 28C19 23.0294 23.0294 19 28 19C32.9706 19 37 23.0294 37 28Z" fill="currentColor"/>
<path fill-rule="evenodd" clip-rule="evenodd" d="M68 37C72.9706 37 77 32.9706 77 28C77 23.0294 72.9706 19 68 19C63.0294 19 59 23.0294 59 28C59 32.9706 63.0294 37 68 37ZM68 32C70.2091 32 72 30.2091 72 28C72 25.7909 70.2091 24 68 24C65.7909 24 64 25.7909 64 28C64 30.2091 65.7909 32 68 32Z" fill="currentColor"/>
</svg>
