<svg width="24" height="24" color="#6F767E" viewBox="56 16 24 24" fill="none" xmlns="http://www.w3.org/2000/svg">

<path d="M18.4576 21.4067C18.325 21.6179 18.4115 21.8882 18.6236 22.0195L27.4735 27.498C27.796 27.6977 28.2037 27.6977 28.5262 27.498L37.3764 22.0194C37.5884 21.8881 37.675 21.6178 37.5423 21.4066C37.0117 20.5617 36.0714 20 35 20H21C19.9285 20 18.9883 20.5617 18.4576 21.4067Z" fill="currentColor"/>
<path d="M38 24.8831C38 24.4914 37.5699 24.2518 37.2368 24.458L29.579 29.1986C28.6114 29.7975 27.3883 29.7975 26.4208 29.1986L18.7632 24.4581C18.4301 24.2519 18 24.4915 18 24.8833V33C18 34.6569 19.3431 36 21 36H35C36.6569 36 38 34.6569 38 33V24.8831Z" fill="currentColor"/>
<path fill-rule="evenodd" clip-rule="evenodd" d="M61 22H75C75.3862 22 75.7213 22.219 75.8879 22.5395L68.5547 27.4283C68.2188 27.6523 67.7812 27.6523 67.4453 27.4283L60.1121 22.5395C60.2787 22.219 60.6138 22 61 22ZM60 24.8685V33C60 33.5523 60.4477 34 61 34H75C75.5523 34 76 33.5523 76 33V24.8685L69.6641 29.0924C68.6564 29.7642 67.3436 29.7642 66.3359 29.0924L60 24.8685ZM58 23C58 21.3431 59.3431 20 61 20H75C76.6569 20 78 21.3431 78 23V33C78 34.6569 76.6569 36 75 36H61C59.3431 36 58 34.6569 58 33V23Z" fill="currentColor"/>
</svg>
