<svg width="24" height="24" viewBox="56 16 24 24" fill="none" xmlns="http://www.w3.org/2000/svg">

<path fill-rule="evenodd" clip-rule="evenodd" d="M18 22C18 20.3431 19.3431 19 21 19H35C36.6569 19 38 20.3431 38 22V32C38 33.6569 36.6569 35 35 35H24.3621C24.1281 35 23.9016 35.082 23.7219 35.2318L21.2804 37.2664C19.9777 38.3519 18 37.4256 18 35.7299V22ZM23 25C23 24.4477 23.4477 24 24 24H32C32.5523 24 33 24.4477 33 25C33 25.5523 32.5523 26 32 26H24C23.4477 26 23 25.5523 23 25ZM24 28C23.4477 28 23 28.4477 23 29C23 29.5523 23.4477 30 24 30H28C28.5523 30 29 29.5523 29 29C29 28.4477 28.5523 28 28 28H24Z" fill="currentColor"/>
<path fill-rule="evenodd" clip-rule="evenodd" d="M63 25C63 24.4477 63.4477 24 64 24H72C72.5523 24 73 24.4477 73 25C73 25.5523 72.5523 26 72 26H64C63.4477 26 63 25.5523 63 25Z" fill="currentColor"/>
<path fill-rule="evenodd" clip-rule="evenodd" d="M63 29C63 28.4477 63.4477 28 64 28H68C68.5523 28 69 28.4477 69 29C69 29.5523 68.5523 30 68 30H64C63.4477 30 63 29.5523 63 29Z" fill="currentColor"/>
<path fill-rule="evenodd" clip-rule="evenodd" d="M62.7196 33.4636C63.0791 33.164 63.5321 33 64 33H75C75.5523 33 76 32.5523 76 32V22C76 21.4477 75.5523 21 75 21H61C60.4477 21 60 21.4477 60 22V35.7299L62.7196 33.4636ZM64 35H75C76.6569 35 78 33.6569 78 32V22C78 20.3431 76.6569 19 75 19H61C59.3431 19 58 20.3431 58 22V35.7299C58 37.4256 59.9777 38.3519 61.2804 37.2664L64 35Z" fill="currentColor"/>
</svg>
