<svg width="24" height="24" viewBox="56 16 24 24" fill="none" xmlns="http://www.w3.org/2000/svg">

<path fill-rule="evenodd" clip-rule="evenodd" d="M22 21C22 19.3431 23.3431 18 25 18H35C36.6569 18 38 19.3431 38 21V31C38 32.6569 36.6569 34 35 34H34V35C34 36.6569 32.6569 38 31 38H21C19.3431 38 18 36.6569 18 35V25C18 23.3431 19.3431 22 21 22H22V21ZM33.2682 23.0365C32.9322 22.9433 32.557 23.0287 32.2929 23.2929L29 26.5858L27.7071 25.2929C27.3166 24.9024 26.6834 24.9024 26.2929 25.2929C25.9024 25.6834 25.9024 26.3166 26.2929 26.7071L28.2929 28.7071C28.6834 29.0976 29.3166 29.0976 29.7071 28.7071L33.7071 24.7071C33.8047 24.6095 33.878 24.4967 33.9268 24.3763C33.9286 24.3718 33.9304 24.3673 33.9322 24.3627C34.0714 24.0044 33.9963 23.5821 33.7071 23.2929C33.5807 23.1665 33.429 23.081 33.2682 23.0365ZM32 34H25C23.3431 34 22 32.6569 22 31V24H21C20.4477 24 20 24.4477 20 25V35C20 35.5523 20.4477 36 21 36H31C31.5523 36 32 35.5523 32 35V34Z" fill="currentColor"/>
<path d="M62 22H61C59.3431 22 58 23.3431 58 25V35C58 36.6569 59.3431 38 61 38H71C72.6569 38 74 36.6569 74 35V34H72V35C72 35.5523 71.5523 36 71 36H61C60.4477 36 60 35.5523 60 35V25C60 24.4477 60.4477 24 61 24H62V22Z" fill="currentColor"/>
<path fill-rule="evenodd" clip-rule="evenodd" d="M75 20H65C64.4477 20 64 20.4477 64 21V31C64 31.5523 64.4477 32 65 32H75C75.5523 32 76 31.5523 76 31V21C76 20.4477 75.5523 20 75 20ZM65 18C63.3431 18 62 19.3431 62 21V31C62 32.6569 63.3431 34 65 34H75C76.6569 34 78 32.6569 78 31V21C78 19.3431 76.6569 18 75 18H65Z" fill="currentColor"/>
<path fill-rule="evenodd" clip-rule="evenodd" d="M73.7071 23.2929C74.0976 23.6834 74.0976 24.3166 73.7071 24.7071L69.7071 28.7071C69.3166 29.0976 68.6834 29.0976 68.2929 28.7071L66.2929 26.7071C65.9024 26.3166 65.9024 25.6834 66.2929 25.2929C66.6834 24.9024 67.3166 24.9024 67.7071 25.2929L69 26.5858L72.2929 23.2929C72.6834 22.9024 73.3166 22.9024 73.7071 23.2929Z" fill="currentColor"/>
</svg>
