<svg width="24" height="24" color="#6F767E" viewBox="56 16 24 24" fill="none" xmlns="http://www.w3.org/2000/svg">

<path fill-rule="evenodd" clip-rule="evenodd" d="M19 26C18.4477 26 18 26.4477 18 27V33C18 34.6569 19.3431 36 21 36H35C36.6569 36 38 34.6569 38 33V27C38 26.4477 37.5523 26 37 26H19ZM21 30C20.4477 30 20 30.4477 20 31C20 31.5523 20.4477 32 21 32H27C27.5523 32 28 31.5523 28 31C28 30.4477 27.5523 30 27 30H21Z" fill="currentColor"/>
<path d="M18 23C18 21.3431 19.3431 20 21 20H35C36.6569 20 38 21.3431 38 23C38 23.5523 37.5523 24 37 24H19C18.4477 24 18 23.5523 18 23Z" fill="currentColor"/>
<path fill-rule="evenodd" clip-rule="evenodd" d="M58 23C58 21.3431 59.3431 20 61 20H75C76.6569 20 78 21.3431 78 23V33C78 34.6569 76.6569 36 75 36H61C59.3431 36 58 34.6569 58 33V23ZM61 22H75C75.5523 22 76 22.4477 76 23V24H60V23C60 22.4477 60.4477 22 61 22ZM60 26V33C60 33.5523 60.4477 34 61 34H75C75.5523 34 76 33.5523 76 33V26H60Z" fill="currentColor"/>
<path fill-rule="evenodd" clip-rule="evenodd" d="M62 31C62 30.4477 62.4477 30 63 30H69C69.5523 30 70 30.4477 70 31C70 31.5523 69.5523 32 69 32H63C62.4477 32 62 31.5523 62 31Z" fill="currentColor"/>
</svg>
