<svg width="24" height="24" color="#6F767E" viewBox="56 16 24 24" fill="none" xmlns="http://www.w3.org/2000/svg">

<path fill-rule="evenodd" clip-rule="evenodd" d="M23 25.0001C24.1046 25.0001 25 24.1046 25 23.0001C25 21.8955 24.1046 21.0001 23 21.0001C21.8954 21.0001 21 21.8955 21 23.0001C21 24.1046 21.8954 25.0001 23 25.0001ZM23 27.0001C25.2091 27.0001 27 25.2092 27 23.0001C27 20.7909 25.2091 19.0001 23 19.0001C20.7909 19.0001 19 20.7909 19 23.0001C19 25.2092 20.7909 27.0001 23 27.0001Z" fill="currentColor"/>
<path fill-rule="evenodd" clip-rule="evenodd" d="M33 35.0001C34.1046 35.0001 35 34.1046 35 33.0001C35 31.8955 34.1046 31.0001 33 31.0001C31.8954 31.0001 31 31.8955 31 33.0001C31 34.1046 31.8954 35.0001 33 35.0001ZM33 37.0001C35.2091 37.0001 37 35.2092 37 33.0001C37 30.7909 35.2091 29.0001 33 29.0001C30.7909 29.0001 29 30.7909 29 33.0001C29 35.2092 30.7909 37.0001 33 37.0001Z" fill="currentColor"/>
<path fill-rule="evenodd" clip-rule="evenodd" d="M34.6 19.2001C35.0418 19.5314 35.1314 20.1582 34.8 20.6001L22.8 36.6001C22.4686 37.0419 21.8418 37.1314 21.4 36.8001C20.9582 36.4687 20.8686 35.8419 21.2 35.4001L33.2 19.4001C33.5314 18.9582 34.1582 18.8687 34.6 19.2001Z" fill="currentColor"/>
<path fill-rule="evenodd" clip-rule="evenodd" d="M63 25.0001C64.1046 25.0001 65 24.1046 65 23.0001C65 21.8955 64.1046 21.0001 63 21.0001C61.8954 21.0001 61 21.8955 61 23.0001C61 24.1046 61.8954 25.0001 63 25.0001ZM63 27.0001C65.2091 27.0001 67 25.2092 67 23.0001C67 20.7909 65.2091 19.0001 63 19.0001C60.7909 19.0001 59 20.7909 59 23.0001C59 25.2092 60.7909 27.0001 63 27.0001Z" fill="currentColor"/>
<path fill-rule="evenodd" clip-rule="evenodd" d="M73 35.0001C74.1046 35.0001 75 34.1046 75 33.0001C75 31.8955 74.1046 31.0001 73 31.0001C71.8954 31.0001 71 31.8955 71 33.0001C71 34.1046 71.8954 35.0001 73 35.0001ZM73 37.0001C75.2091 37.0001 77 35.2092 77 33.0001C77 30.7909 75.2091 29.0001 73 29.0001C70.7909 29.0001 69 30.7909 69 33.0001C69 35.2092 70.7909 37.0001 73 37.0001Z" fill="currentColor"/>
<path fill-rule="evenodd" clip-rule="evenodd" d="M74.6 19.2001C75.0418 19.5314 75.1314 20.1582 74.8 20.6001L62.8 36.6001C62.4686 37.0419 61.8418 37.1314 61.4 36.8001C60.9582 36.4687 60.8686 35.8419 61.2 35.4001L73.2 19.4001C73.5314 18.9582 74.1582 18.8687 74.6 19.2001Z" fill="currentColor"/>
</svg>
