<svg width="24" height="24" color="#6F767E" viewBox="56 16 24 24" fill="none" xmlns="http://www.w3.org/2000/svg">

<path fill-rule="evenodd" clip-rule="evenodd" d="M25 18C23.3431 18 22 19.3431 22 21V22H21C19.3431 22 18 23.3431 18 25V35C18 36.6569 19.3431 38 21 38H31C32.6569 38 34 36.6569 34 35V34H35C36.6569 34 38 32.6569 38 31V21C38 19.3431 36.6569 18 35 18H25ZM32 34H25.0001C23.3432 34 22 32.6569 22 31V24H21C20.4477 24 20 24.4477 20 25V35C20 35.5523 20.4477 36 21 36H31C31.5523 36 32 35.5523 32 35V34ZM33.5 24C34.3284 24 35 23.3284 35 22.5C35 21.6716 34.3284 21 33.5 21C32.6716 21 32 21.6716 32 22.5C32 23.3284 32.6716 24 33.5 24ZM35.481 31.877C35.6931 31.7604 35.6787 31.4785 35.5154 31.2999C34.4834 30.1717 30.8537 26.204 28.9326 24.1082C27.9099 22.9925 26.1381 23.0344 25.1692 24.1971L24.2319 25.3219C24.0821 25.5016 24.0001 25.7281 24.0001 25.9621V31C24.0001 31.5523 24.4478 32 25.0001 32H35.0001C35.1744 32 35.3383 31.9554 35.481 31.877Z" fill="currentColor"/>
<path d="M62 22H61C59.3431 22 58 23.3431 58 25V35C58 36.6569 59.3431 38 61 38H71C72.6569 38 74 36.6569 74 35V34H72V35C72 35.5523 71.5523 36 71 36H61C60.4477 36 60 35.5523 60 35V25C60 24.4477 60.4477 24 61 24H62V22Z" fill="currentColor"/>
<path fill-rule="evenodd" clip-rule="evenodd" d="M62 21C62 19.3431 63.3431 18 65 18H75C76.6569 18 78 19.3431 78 21V31C78 32.6569 76.6569 34 75 34H65C63.3431 34 62 32.6569 62 31V21ZM65 20H75C75.5523 20 76 20.4477 76 21V31C76 31.2279 75.9238 31.438 75.7954 31.6061C75.7648 31.5654 75.7316 31.5254 75.6959 31.4864L69.319 24.5299C68.0918 23.191 65.9657 23.2412 64.8029 24.6365L64 25.6V21C64 20.4477 64.4477 20 65 20ZM64 28.7241V31C64 31.5523 64.4477 32 65 32H73.4535L67.8447 25.8813C67.4356 25.435 66.7269 25.4518 66.3394 25.9169L64 28.7241Z" fill="currentColor"/>
<path d="M74 23.5C74 24.3284 73.3284 25 72.5 25C71.6716 25 71 24.3284 71 23.5C71 22.6716 71.6716 22 72.5 22C73.3284 22 74 22.6716 74 23.5Z" fill="currentColor"/>
</svg>
