<svg width="24" height="24" color="#6F767E" viewBox="56 16 24 24" fill="none" xmlns="http://www.w3.org/2000/svg">

<path d="M26 22C24.4178 22 22.871 22.4692 21.5554 23.3482C20.2398 24.2273 19.2145 25.4767 18.609 26.9385C18.0035 28.4003 17.845 30.0089 18.1537 31.5607C18.4624 33.1126 19.2243 34.538 20.3431 35.6569C21.462 36.7757 22.8874 37.5376 24.4393 37.8463C25.9911 38.155 27.5997 37.9965 29.0615 37.391C30.5233 36.7855 31.7727 35.7602 32.6518 34.4446C33.5308 33.129 34 31.5823 34 30C34 29.4477 33.5523 29 33 29H28C27.4477 29 27 28.5523 27 28V23C27 22.4477 26.5523 22 26 22Z" fill="currentColor"/>
<path d="M30 18C29.7348 18 29.4804 18.1054 29.2929 18.2929C29.1054 18.4804 29 18.7348 29 19V26C29 26.2652 29.1054 26.5196 29.2929 26.7071C29.4804 26.8946 29.7348 27 30 27L37 27C37.2652 27 37.5196 26.8946 37.7071 26.7071C37.8946 26.5196 38 26.2652 38 26C38 23.8783 37.1571 21.8434 35.6569 20.3431C34.1566 18.8429 32.1217 18 30 18Z" fill="currentColor"/>
<path fill-rule="evenodd" clip-rule="evenodd" d="M65 24.0839C64.1692 24.2244 63.3734 24.5389 62.6666 25.0112C61.6799 25.6705 60.9109 26.6075 60.4567 27.7039C60.0026 28.8003 59.8838 30.0067 60.1153 31.1705C60.3468 32.3344 60.9182 33.4035 61.7574 34.2426C62.5965 35.0818 63.6656 35.6532 64.8295 35.8847C65.9933 36.1162 67.1997 35.9974 68.2961 35.5433C69.3925 35.0892 70.3295 34.3201 70.9888 33.3334C71.4611 32.6266 71.7757 31.8308 71.9161 31H66C65.7348 31 65.4804 30.8946 65.2929 30.7071C65.1054 30.5196 65 30.2652 65 30V24.0839ZM61.5554 23.3482C62.871 22.4692 64.4178 22 66 22C66.5523 22 67 22.4477 67 23V29H73C73.5523 29 74 29.4477 74 30C74 31.5823 73.5308 33.129 72.6518 34.4446C71.7727 35.7602 70.5233 36.7855 69.0615 37.391C67.5997 37.9965 65.9911 38.155 64.4393 37.8463C62.8874 37.5376 61.462 36.7757 60.3431 35.6569C59.2243 34.538 58.4624 33.1126 58.1537 31.5607C57.845 30.0089 58.0035 28.4003 58.609 26.9385C59.2145 25.4767 60.2398 24.2273 61.5554 23.3482Z" fill="currentColor"/>
<path fill-rule="evenodd" clip-rule="evenodd" d="M69.2929 18.2929C69.4804 18.1054 69.7348 18 70 18C72.1217 18 74.1566 18.8429 75.6569 20.3431C77.1571 21.8434 78 23.8783 78 26C78 26.5523 77.5523 27 77 27L70 27C69.7348 27 69.4804 26.8946 69.2929 26.7071C69.1054 26.5196 69 26.2652 69 26V19C69 18.7348 69.1054 18.4804 69.2929 18.2929ZM71 20.0839V25L75.9161 25C75.7098 23.7797 75.1293 22.644 74.2426 21.7574C73.356 20.8707 72.2203 20.2902 71 20.0839Z" fill="currentColor"/>
</svg>
