<svg width="24" height="24" color="#6F767E" viewBox="56 16 24 24" fill="none" xmlns="http://www.w3.org/2000/svg">

<path d="M34 30.6759V31C34 31.5523 33.5523 32 33 32H29V37C29 37.5523 28.5523 38 28 38C27.4477 38 27 37.5523 27 37V32H23C22.4477 32 22 31.5523 22 31V30.6759C22 29.0042 22.8355 27.443 24.2265 26.5157L24.5547 26.2969C24.8329 26.1114 25 25.7992 25 25.4648V23.8508C25 23.6237 24.9227 23.4034 24.7809 23.2261L23.2191 21.2739C23.0773 21.0966 23 20.8763 23 20.6492V19C23 18.4477 23.4477 18 24 18H32C32.5523 18 33 18.4477 33 19V20.6492C33 20.8763 32.9227 21.0966 32.7809 21.2739L31.2191 23.2261C31.0773 23.4034 31 23.6237 31 23.8508V25.4648C31 25.7992 31.1671 26.1114 31.4453 26.2969L31.7735 26.5157C33.1645 27.443 34 29.0042 34 30.6759Z" fill="currentColor"/>
<path fill-rule="evenodd" clip-rule="evenodd" d="M69 32H73C73.5523 32 74 31.5523 74 31V30.6759C74 29.0042 73.1645 27.443 71.7735 26.5157L71.4453 26.2969C71.1671 26.1114 71 25.7992 71 25.4648V23.8508C71 23.6237 71.0773 23.4034 71.2191 23.2261L72.7809 21.2739C72.9227 21.0966 73 20.8763 73 20.6492V19C73 18.4477 72.5523 18 72 18H64C63.4477 18 63 18.4477 63 19V20.6492C63 20.8763 63.0773 21.0966 63.2191 21.2739L64.7809 23.2261C64.9227 23.4034 65 23.6237 65 23.8508V25.4648C65 25.7992 64.8329 26.1114 64.5547 26.2969L64.2265 26.5157C62.8355 27.443 62 29.0042 62 30.6759V31C62 31.5523 62.4477 32 63 32H67V37C67 37.5523 67.4477 38 68 38C68.5523 38 69 37.5523 69 37V32ZM70.6641 28.1798C71.3073 28.6086 71.7525 29.2632 71.9229 30H64.0771C64.2475 29.2632 64.6927 28.6086 65.3359 28.1798L65.6641 27.961C66.4987 27.4046 67 26.4679 67 25.4648V23.8508C67 23.1696 66.7682 22.5086 66.3426 21.9767L65 20.2984V20H71V20.2984L69.6574 21.9767C69.2318 22.5086 69 23.1696 69 23.8508V25.4648C69 26.4679 69.5013 27.4046 70.3359 27.961L70.6641 28.1798Z" fill="currentColor"/>
</svg>
