<svg width="24" height="24" viewBox="56 16 24 24" fill="none" xmlns="http://www.w3.org/2000/svg">

<path fill-rule="evenodd" clip-rule="evenodd" d="M26.0544 18.3446C27.1756 17.389 28.8248 17.389 29.9461 18.3446L31.2175 19.4281C31.3777 19.5646 31.5768 19.6471 31.7866 19.6638L33.4518 19.7967C34.9204 19.9139 36.0865 21.08 36.2037 22.5486L36.3366 24.2138C36.3533 24.4236 36.4358 24.6227 36.5723 24.7829L37.6558 26.0544C38.6114 27.1756 38.6114 28.8248 37.6558 29.9461L36.5723 31.2175C36.4358 31.3777 36.3533 31.5768 36.3366 31.7866L36.2037 33.4518C36.0865 34.9204 34.9204 36.0865 33.4518 36.2037L31.7866 36.3366C31.5768 36.3533 31.3777 36.4358 31.2175 36.5723L29.9461 37.6558C28.8248 38.6114 27.1756 38.6114 26.0544 37.6558L24.7829 36.5723C24.6227 36.4358 24.4236 36.3533 24.2138 36.3366L22.5486 36.2037C21.08 36.0865 19.9139 34.9204 19.7967 33.4518L19.6638 31.7866C19.6471 31.5768 19.5646 31.3777 19.4281 31.2175L18.3446 29.9461C17.389 28.8248 17.389 27.1756 18.3446 26.0544L19.4281 24.7829C19.5646 24.6227 19.6471 24.4236 19.6638 24.2138L19.7967 22.5486C19.9139 21.08 21.08 19.9139 22.5486 19.7967L24.2138 19.6638C24.4236 19.6471 24.6227 19.5646 24.7829 19.4281L26.0544 18.3446ZM24.5002 26.0002C25.3287 26.0002 26.0002 25.3286 26.0002 24.5002C26.0002 23.6718 25.3287 23.0002 24.5002 23.0002C23.6718 23.0002 23.0002 23.6718 23.0002 24.5002C23.0002 25.3286 23.6718 26.0002 24.5002 26.0002ZM33.0002 31.5002C33.0002 32.3286 32.3287 33.0002 31.5002 33.0002C30.6718 33.0002 30.0002 32.3286 30.0002 31.5002C30.0002 30.6718 30.6718 30.0002 31.5002 30.0002C32.3287 30.0002 33.0002 30.6718 33.0002 31.5002ZM32.1019 24.6404C32.4555 24.2161 32.3981 23.5856 31.9739 23.232C31.5496 22.8784 30.919 22.9357 30.5655 23.36L23.8988 31.36C23.5452 31.7843 23.6026 32.4149 24.0268 32.7684C24.4511 33.122 25.0817 33.0647 25.4352 32.6404L32.1019 24.6404Z" fill="currentColor"/>
<path fill-rule="evenodd" clip-rule="evenodd" d="M66.0544 18.3446C67.1756 17.389 68.8248 17.389 69.9461 18.3446L71.2175 19.4281C71.3777 19.5646 71.5768 19.6471 71.7866 19.6638L73.4518 19.7967C74.9204 19.9139 76.0865 21.08 76.2037 22.5486L76.3366 24.2138C76.3533 24.4236 76.4358 24.6227 76.5723 24.7829L77.6558 26.0544C78.6114 27.1756 78.6114 28.8248 77.6558 29.9461L76.5723 31.2175C76.4358 31.3777 76.3533 31.5768 76.3366 31.7866L76.2037 33.4518C76.0865 34.9204 74.9204 36.0865 73.4518 36.2037L71.7866 36.3366C71.5768 36.3533 71.3777 36.4358 71.2175 36.5723L69.9461 37.6558C68.8248 38.6114 67.1756 38.6114 66.0544 37.6558L64.7829 36.5723C64.6227 36.4358 64.4236 36.3533 64.2138 36.3366L62.5486 36.2037C61.08 36.0865 59.9139 34.9204 59.7967 33.4518L59.6638 31.7866C59.6471 31.5768 59.5646 31.3777 59.4281 31.2175L58.3446 29.9461C57.389 28.8248 57.389 27.1756 58.3446 26.0544L59.4281 24.7829C59.5646 24.6227 59.6471 24.4236 59.6638 24.2138L59.7967 22.5486C59.9139 21.08 61.08 19.9139 62.5486 19.7967L64.2138 19.6638C64.4236 19.6471 64.6227 19.5646 64.7829 19.4281L66.0544 18.3446ZM68.6488 19.8668C68.2751 19.5483 67.7253 19.5483 67.3516 19.8668L66.0801 20.9504C65.5996 21.3598 65.0022 21.6073 64.3729 21.6575L62.7077 21.7904C62.2182 21.8295 61.8295 22.2182 61.7904 22.7077L61.6575 24.3729C61.6073 25.0022 61.3598 25.5996 60.9504 26.0801L59.8668 27.3516C59.5483 27.7253 59.5483 28.2751 59.8668 28.6488L60.9504 29.9203C61.3598 30.4008 61.6073 30.9982 61.6575 31.6275L61.7904 33.2927C61.8295 33.7822 62.2182 34.171 62.7077 34.21L64.3729 34.3429C65.0022 34.3931 65.5996 34.6406 66.0801 35.0501L67.3516 36.1336C67.7253 36.4521 68.2751 36.4521 68.6488 36.1336L69.9203 35.0501C70.4008 34.6406 70.9982 34.3931 71.6275 34.3429L73.2927 34.21C73.7822 34.171 74.171 33.7822 74.21 33.2927L74.3429 31.6275C74.3931 30.9982 74.6406 30.4008 75.0501 29.9203L76.1336 28.6488C76.4521 28.2751 76.4521 27.7253 76.1336 27.3516L75.0501 26.0801C74.6406 25.5996 74.3931 25.0022 74.3429 24.3729L74.21 22.7077C74.171 22.2182 73.7822 21.8295 73.2927 21.7904L71.6275 21.6575C70.9982 21.6073 70.4008 21.3598 69.9203 20.9504L68.6488 19.8668Z" fill="currentColor"/>
<path d="M67.0002 25.5002C67.0002 26.3286 66.3286 27.0002 65.5002 27.0002C64.6718 27.0002 64.0002 26.3286 64.0002 25.5002C64.0002 24.6718 64.6718 24.0002 65.5002 24.0002C66.3286 24.0002 67.0002 24.6718 67.0002 25.5002Z" fill="currentColor"/>
<path d="M72.0002 30.5002C72.0002 31.3286 71.3286 32.0002 70.5002 32.0002C69.6718 32.0002 69.0002 31.3286 69.0002 30.5002C69.0002 29.6718 69.6718 29.0002 70.5002 29.0002C71.3286 29.0002 72.0002 29.6718 72.0002 30.5002Z" fill="currentColor"/>
<path fill-rule="evenodd" clip-rule="evenodd" d="M71.1404 24.232C71.5647 24.5855 71.622 25.2161 71.2684 25.6404L66.2684 31.6404C65.9149 32.0647 65.2843 32.122 64.86 31.7684C64.4357 31.4149 64.3784 30.7843 64.732 30.36L69.732 24.36C70.0855 23.9357 70.7161 23.8784 71.1404 24.232Z" fill="currentColor"/>
</svg>
