<svg width="24" height="24" color="#6F767E" viewBox="56 16 24 24" fill="none" xmlns="http://www.w3.org/2000/svg">

<path fill-rule="evenodd" clip-rule="evenodd" d="M24.6 37.5502L26 36.5002L27.4 37.5502C27.7556 37.8168 28.2444 37.8168 28.6 37.5502L30 36.5002L31.4 37.5502C31.7556 37.8168 32.2444 37.8168 32.6 37.5502L34 36.5002L35.3598 37.6334C36.0111 38.1761 37 37.713 37 36.8651V19.1352C37 18.2874 36.0111 17.8242 35.3598 18.367L34 19.5002L32.6 18.4502C32.2444 18.1835 31.7556 18.1835 31.4 18.4502L30 19.5002L28.6 18.4502C28.2444 18.1835 27.7556 18.1835 27.4 18.4502L26 19.5002L24.6 18.4502C24.2444 18.1835 23.7556 18.1835 23.4 18.4502L22 19.5002L20.6402 18.367C19.9889 17.8242 19 18.2874 19 19.1352V36.8651C19 37.713 19.9889 38.1761 20.6402 37.6334L22 36.5002L23.4 37.5502C23.7556 37.8168 24.2444 37.8168 24.6 37.5502ZM23 26.0002C23 25.4479 23.4477 25.0002 24 25.0002H32C32.5523 25.0002 33 25.4479 33 26.0002C33 26.5525 32.5523 27.0002 32 27.0002H24C23.4477 27.0002 23 26.5525 23 26.0002ZM24 29.0002C23.4477 29.0002 23 29.4479 23 30.0002C23 30.5525 23.4477 31.0002 24 31.0002H28C28.5523 31.0002 29 30.5525 29 30.0002C29 29.4479 28.5523 29.0002 28 29.0002H24Z" fill="currentColor"/>
<path fill-rule="evenodd" clip-rule="evenodd" d="M61 34.7679C61.6838 34.3728 62.551 34.4134 63.2 34.9002L64 35.5002L64.8 34.9002C65.5111 34.3668 66.4889 34.3668 67.2 34.9002L68 35.5002L68.8 34.9002C69.5111 34.3668 70.4889 34.3668 71.2 34.9002L72 35.5002L72.8 34.9002C73.449 34.4134 74.3162 34.3728 75 34.7679V21.2324C74.3162 21.6276 73.449 21.5869 72.8 21.1002L72 20.5002L71.2 21.1002C70.4889 21.6335 69.5111 21.6335 68.8 21.1002L68 20.5002L67.2 21.1002C66.4889 21.6335 65.5111 21.6335 64.8 21.1002L64 20.5002L63.2 21.1002C62.551 21.5869 61.6838 21.6276 61 21.2324V34.7679ZM66 19.5002L64.6 18.4502C64.2444 18.1835 63.7556 18.1835 63.4 18.4502L62 19.5002L60.6402 18.367C59.9889 17.8242 59 18.2874 59 19.1352V36.8651C59 37.713 59.9889 38.1761 60.6402 37.6334L62 36.5002L63.4 37.5502C63.7556 37.8168 64.2444 37.8168 64.6 37.5502L66 36.5002L67.4 37.5502C67.7556 37.8168 68.2444 37.8168 68.6 37.5502L70 36.5002L71.4 37.5502C71.7556 37.8168 72.2444 37.8168 72.6 37.5502L74 36.5002L75.3598 37.6334C76.0111 38.1761 77 37.713 77 36.8651V19.1352C77 18.2874 76.0111 17.8242 75.3598 18.367L74 19.5002L72.6 18.4502C72.2444 18.1835 71.7556 18.1835 71.4 18.4502L70 19.5002L68.6 18.4502C68.2444 18.1835 67.7556 18.1835 67.4 18.4502L66 19.5002Z" fill="currentColor"/>
<path fill-rule="evenodd" clip-rule="evenodd" d="M63 26.0002C63 25.4479 63.4477 25.0002 64 25.0002H72C72.5523 25.0002 73 25.4479 73 26.0002C73 26.5525 72.5523 27.0002 72 27.0002H64C63.4477 27.0002 63 26.5525 63 26.0002Z" fill="currentColor"/>
<path fill-rule="evenodd" clip-rule="evenodd" d="M63 30.0002C63 29.4479 63.4477 29.0002 64 29.0002H68C68.5523 29.0002 69 29.4479 69 30.0002C69 30.5525 68.5523 31.0002 68 31.0002H64C63.4477 31.0002 63 30.5525 63 30.0002Z" fill="currentColor"/>
</svg>
