<svg width="24" height="24" color="#6F767E" viewBox="56 16 24 24" fill="none" xmlns="http://www.w3.org/2000/svg">

<path d="M32.2071 18.7929C31.8166 18.4024 31.1834 18.4024 30.7929 18.7929C30.4024 19.1834 30.4024 19.8166 30.7929 20.2071L31.5819 20.9962H26C22.134 20.9962 19 24.1302 19 27.9962V28.9962C19 29.5484 19.4477 29.9962 20 29.9962C20.5523 29.9962 21 29.5484 21 28.9962V27.9962C21 25.2347 23.2386 22.9962 26 22.9962H31.5866L30.7929 23.7899C30.4024 24.1805 30.4024 24.8136 30.7929 25.2041C31.1834 25.5947 31.8166 25.5947 32.2071 25.2041L34.352 23.0592C34.9378 22.4734 34.9378 21.5236 34.352 20.9379L32.2071 18.7929Z" fill="currentColor"/>
<path d="M29.9985 34.9999C33.8645 34.9999 36.9985 31.8659 36.9985 27.9999V26.9999C36.9985 26.4477 36.5508 25.9999 35.9985 25.9999C35.4463 25.9999 34.9985 26.4477 34.9985 26.9999V27.9999C34.9985 30.7614 32.76 32.9999 29.9985 32.9999H24.4118L25.2056 32.2061C25.5962 31.8156 25.5962 31.1824 25.2056 30.7919C24.8151 30.4014 24.1819 30.4014 23.7914 30.7919L21.6465 32.9369C21.0607 33.5227 21.0607 34.4724 21.6465 35.0582L23.7914 37.2031C24.1819 37.5937 24.8151 37.5937 25.2056 37.2031C25.5962 36.8126 25.5962 36.1795 25.2056 35.7889L24.4167 34.9999H29.9985Z" fill="currentColor"/>
<path d="M72.2071 18.7929C71.8166 18.4024 71.1834 18.4024 70.7929 18.7929C70.4024 19.1834 70.4024 19.8166 70.7929 20.2071L71.5819 20.9962H66C62.134 20.9962 59 24.1302 59 27.9962V28.9962C59 29.5484 59.4477 29.9962 60 29.9962C60.5523 29.9962 61 29.5484 61 28.9962V27.9962C61 25.2347 63.2386 22.9962 66 22.9962H71.5866L70.7929 23.7899C70.4024 24.1805 70.4024 24.8136 70.7929 25.2041C71.1834 25.5947 71.8166 25.5947 72.2071 25.2041L74.352 23.0592C74.9378 22.4734 74.9378 21.5236 74.352 20.9379L72.2071 18.7929Z" fill="currentColor"/>
<path d="M69.9985 34.9999C73.8645 34.9999 76.9985 31.8659 76.9985 27.9999V26.9999C76.9985 26.4477 76.5508 25.9999 75.9985 25.9999C75.4462 25.9999 74.9985 26.4477 74.9985 26.9999V27.9999C74.9985 30.7614 72.7599 32.9999 69.9985 32.9999H64.4118L65.2056 32.2061C65.5961 31.8156 65.5961 31.1824 65.2056 30.7919C64.815 30.4014 64.1819 30.4014 63.7914 30.7919L61.6464 32.9369C61.0607 33.5227 61.0607 34.4724 61.6464 35.0582L63.7914 37.2031C64.1819 37.5937 64.8151 37.5937 65.2056 37.2031C65.5961 36.8126 65.5961 36.1795 65.2056 35.7889L64.4166 34.9999H69.9985Z" fill="currentColor"/>
</svg>
