<svg width="24" height="24" viewBox="56 16 24 24" fill="none" xmlns="http://www.w3.org/2000/svg">

<path d="M32 19H24C21.7944 19 20 20.6823 20 22.75V33.25C20 35.3177 21.7944 37 24 37H32C34.2056 37 36 35.3177 36 33.25V22.75C36 20.6823 34.2056 19 32 19ZM26.4 33.25C26.4 33.664 26.0416 34 25.6 34H24C23.5584 34 23.2 33.664 23.2 33.25V31.75C23.2 31.336 23.5584 31 24 31H25.6C26.0416 31 26.4 31.336 26.4 31.75V33.25ZM26.4 28.75C26.4 29.164 26.0416 29.5 25.6 29.5H24C23.5584 29.5 23.2 29.164 23.2 28.75V27.25C23.2 26.836 23.5584 26.5 24 26.5H25.6C26.0416 26.5 26.4 26.836 26.4 27.25V28.75ZM26.4 24.25C26.4 24.664 26.0416 25 25.6 25H24C23.5584 25 23.2 24.664 23.2 24.25V22.75C23.2 22.336 23.5584 22 24 22H25.6C26.0416 22 26.4 22.336 26.4 22.75V24.25ZM32 33.25H28.8C27.7536 33.2455 27.7544 31.7545 28.8 31.75H32C33.0464 31.7545 33.0456 33.2455 32 33.25ZM32 28.75H28.8C27.7536 28.7455 27.7544 27.2545 28.8 27.25H32C33.0464 27.2545 33.0456 28.7455 32 28.75ZM32 24.25H28.8C27.7536 24.2455 27.7544 22.7545 28.8 22.75H32C33.0464 22.7545 33.0456 24.2455 32 24.25Z" fill="currentColor"/>
<path d="M72 37H64C61.7944 37 60 35.3177 60 33.25V22.75C60 20.6823 61.7944 19 64 19H72C74.2056 19 76 20.6823 76 22.75V33.25C76 35.3177 74.2056 37 72 37ZM64 20.5C62.6768 20.5 61.6 21.5095 61.6 22.75V33.25C61.6 34.4905 62.6768 35.5 64 35.5H72C73.3232 35.5 74.4 34.4905 74.4 33.25V22.75C74.4 21.5095 73.3232 20.5 72 20.5H64ZM72.8 23.5C72.8 23.086 72.4416 22.75 72 22.75H68.8C68.3584 22.75 68 23.086 68 23.5C68 23.914 68.3584 24.25 68.8 24.25H72C72.4416 24.25 72.8 23.914 72.8 23.5ZM72.8 28C72.8 27.586 72.4416 27.25 72 27.25H68.8C68.3584 27.25 68 27.586 68 28C68 28.414 68.3584 28.75 68.8 28.75H72C72.4416 28.75 72.8 28.414 72.8 28ZM72.8 32.5C72.8 32.086 72.4416 31.75 72 31.75H68.8C68.3584 31.75 68 32.086 68 32.5C68 32.914 68.3584 33.25 68.8 33.25H72C72.4416 33.25 72.8 32.914 72.8 32.5ZM66.4 24.25V22.75C66.4 22.336 66.0416 22 65.6 22H64C63.5584 22 63.2 22.336 63.2 22.75V24.25C63.2 24.664 63.5584 25 64 25H65.6C66.0416 25 66.4 24.664 66.4 24.25ZM66.4 28.75V27.25C66.4 26.836 66.0416 26.5 65.6 26.5H64C63.5584 26.5 63.2 26.836 63.2 27.25V28.75C63.2 29.164 63.5584 29.5 64 29.5H65.6C66.0416 29.5 66.4 29.164 66.4 28.75ZM66.4 33.25V31.75C66.4 31.336 66.0416 31 65.6 31H64C63.5584 31 63.2 31.336 63.2 31.75V33.25C63.2 33.664 63.5584 34 64 34H65.6C66.0416 34 66.4 33.664 66.4 33.25Z" fill="currentColor"/>
</svg>
