<svg width="24" height="24" viewBox="56 16 24 24" fill="none" xmlns="http://www.w3.org/2000/svg">

<path fill-rule="evenodd" clip-rule="evenodd" d="M34.3637 18.8074C33.1922 17.6358 31.2927 17.6358 30.1211 18.8074L18.8074 30.1211C17.6358 31.2927 17.6358 33.1922 18.8074 34.3637L21.6358 37.1922C22.8074 38.3637 24.7069 38.3637 25.8785 37.1922L37.1922 25.8785C38.3637 24.7069 38.3637 22.8074 37.1922 21.6358L34.3637 18.8074ZM30.8281 20.9288C30.6329 20.7335 30.3163 20.7335 30.121 20.9288L29.4139 21.6359C29.2187 21.8311 29.2187 22.1477 29.4139 22.343L30.8281 23.7571C31.2186 24.1477 31.8518 24.1477 32.2423 23.7571C32.6328 23.3666 32.6328 22.7335 32.2423 22.3429L30.8281 20.9288ZM27.9997 23.7572C27.8045 23.5619 27.4879 23.5619 27.2926 23.7572L26.5855 24.4643C26.3902 24.6596 26.3902 24.9762 26.5855 25.1714L27.2925 25.8785C27.6831 26.269 28.3162 26.269 28.7068 25.8785C29.0973 25.4879 29.0973 24.8548 28.7068 24.4643L27.9997 23.7572ZM25.1713 26.5856C24.976 26.3904 24.6594 26.3904 24.4642 26.5856L23.7571 27.2927C23.5618 27.488 23.5618 27.8046 23.7571 27.9998L25.1713 29.4141C25.5618 29.8046 26.195 29.8046 26.5855 29.4141C26.976 29.0235 26.976 28.3904 26.5855 27.9998L25.1713 26.5856ZM21.6358 29.414C21.8311 29.2187 22.1476 29.2187 22.3429 29.414L23.05 30.1211C23.4405 30.5116 23.4405 31.1448 23.05 31.5353C22.6595 31.9258 22.0263 31.9258 21.6358 31.5353L20.9287 30.8282C20.7334 30.633 20.7334 30.3164 20.9287 30.1211L21.6358 29.414Z" fill="currentColor"/>
<path fill-rule="evenodd" clip-rule="evenodd" d="M74.3637 18.8074C73.1922 17.6358 71.2927 17.6358 70.1211 18.8074L58.8074 30.1211C57.6358 31.2927 57.6358 33.1922 58.8074 34.3637L61.6358 37.1922C62.8074 38.3637 64.7069 38.3637 65.8785 37.1922L77.1922 25.8785C78.3637 24.7069 78.3637 22.8074 77.1922 21.6358L74.3637 18.8074ZM72.9495 20.2216C72.559 19.8311 71.9258 19.8311 71.5353 20.2216L70.8282 20.9287L72.2424 22.343C72.6329 22.7335 72.6329 23.3667 72.2424 23.7572C71.8519 24.1477 71.2187 24.1477 70.8282 23.7572L69.414 22.343L67.9998 23.7571L68.7069 24.4643C69.0975 24.8548 69.0975 25.4879 68.7069 25.8785C68.3164 26.269 67.6833 26.269 67.2927 25.8785L66.5856 25.1713L65.1713 26.5856L66.5856 27.9998C66.9761 28.3904 66.9761 29.0235 66.5856 29.4141C66.1951 29.8046 65.5619 29.8046 65.1714 29.4141L63.7571 27.9998L62.3429 29.414L63.0501 30.1211C63.4406 30.5116 63.4406 31.1448 63.0501 31.5353C62.6596 31.9258 62.0264 31.9258 61.6359 31.5353L60.9287 30.8282L60.2216 31.5353C59.8311 31.9258 59.8311 32.559 60.2216 32.9495L63.05 35.778C63.4406 36.1685 64.0737 36.1685 64.4642 35.778L75.778 24.4642C76.1685 24.0737 76.1685 23.4406 75.778 23.05L72.9495 20.2216Z" fill="currentColor"/>
</svg>
