<svg width="24" height="24" color="#6F767E" viewBox="56 16 24 24" fill="none" xmlns="http://www.w3.org/2000/svg">

<path d="M22.296 18.906C19.9101 17.8048 17.3618 20.0857 18.1928 22.5786L19.4542 26.3197C19.5914 26.7263 19.9727 27.0002 20.4018 27.0002H29C29.5523 27.0002 30 27.4479 30 28.0002C30 28.5524 29.5523 29.0002 29 29.0002H20.4018C19.9727 29.0002 19.5914 29.274 19.4542 29.6806L18.1928 33.4217C17.3618 35.9147 19.9101 38.1955 22.296 37.0943L36.0983 30.7241C38.422 29.6516 38.422 26.3488 36.0983 25.2763L22.296 18.906Z" fill="currentColor"/>
<path fill-rule="evenodd" clip-rule="evenodd" d="M58.1928 22.5786C57.3618 20.0857 59.9101 17.8048 62.296 18.906L76.0983 25.2763C78.422 26.3488 78.422 29.6516 76.0983 30.7241L62.296 37.0943C59.9101 38.1955 57.3618 35.9147 58.1928 33.4217L59.6838 28.9489C59.889 28.3331 59.889 27.6673 59.6838 27.0515L58.1928 22.5786ZM61.4579 20.7219L75.2601 27.0922C76.0347 27.4497 76.0347 28.5506 75.2601 28.9081L61.4579 35.2784C60.6626 35.6454 59.8132 34.8852 60.0902 34.0542L61.5811 29.5813C61.6449 29.3901 61.6967 29.1961 61.7367 29.0002H70C70.5523 29.0002 71 28.5524 71 28.0002C71 27.4479 70.5523 27.0002 70 27.0002H61.7367C61.6967 26.8043 61.6449 26.6102 61.5811 26.4191L60.0902 21.9461C59.8132 21.1152 60.6626 20.3549 61.4579 20.7219Z" fill="currentColor"/>
</svg>
