<svg width="24" height="24" viewBox="56 16 24 24" fill="none" xmlns="http://www.w3.org/2000/svg">

<path fill-rule="evenodd" clip-rule="evenodd" d="M25.0944 19.5302C24.9121 20.0769 24.4962 20.5067 23.9926 20.7871C23.9143 20.8307 23.8368 20.8755 23.7601 20.9216C23.2654 21.2186 22.6845 21.3644 22.1192 21.2487L20.9175 21.0028C20.0741 20.8302 19.2149 21.2167 18.7845 21.9622L18.1635 23.0378C17.7331 23.7833 17.828 24.7206 18.3991 25.3647L19.2142 26.2838C19.5961 26.7145 19.7611 27.2889 19.752 27.8644C19.7506 27.9548 19.7506 28.0452 19.752 28.1355C19.7611 28.7111 19.5961 29.2854 19.2142 29.7161L18.3991 30.6352C17.828 31.2793 17.7331 32.2167 18.1635 32.9622L18.7845 34.0378C19.2149 34.7833 20.0741 35.1697 20.9175 34.9971L22.1192 34.7512C22.6845 34.6356 23.2653 34.7814 23.76 35.0784C23.8368 35.1244 23.9143 35.1693 23.9926 35.2129C24.4962 35.4933 24.9121 35.9231 25.0944 36.4698L25.4819 37.6325C25.7542 38.4491 26.5184 39 27.3793 39H28.6213C29.4821 39 30.2464 38.4491 30.5186 37.6325L30.9062 36.4698C31.0884 35.9231 31.5044 35.4933 32.0079 35.2129C32.0862 35.1693 32.1638 35.1244 32.2405 35.0784C32.7352 34.7814 33.3161 34.6356 33.8814 34.7512L35.083 34.9971C35.9264 35.1697 36.7856 34.7833 37.216 34.0378L37.837 32.9622C38.2675 32.2167 38.1725 31.2793 37.6014 30.6352L36.7864 29.7162C36.4045 29.2855 36.2394 28.7111 36.2486 28.1356C36.25 28.0452 36.25 27.9548 36.2486 27.8644C36.2394 27.2888 36.4045 26.7144 36.7864 26.2838L37.6014 25.3647C38.1725 24.7206 38.2675 23.7833 37.837 23.0378L37.216 21.9622C36.7856 21.2167 35.9264 20.8302 35.083 21.0028L33.8813 21.2487C33.316 21.3644 32.7352 21.2186 32.2405 20.9216C32.1638 20.8755 32.0862 20.8307 32.0079 20.7871C31.5044 20.5067 31.0884 20.0769 30.9062 19.5302L30.5186 18.3675C30.2464 17.5509 29.4821 17 28.6213 17H27.3793C26.5184 17 25.7542 17.5509 25.4819 18.3675L25.0944 19.5302ZM31.0003 28C31.0003 29.6569 29.6572 31 28.0003 31C26.3435 31 25.0003 29.6569 25.0003 28C25.0003 26.3431 26.3435 25 28.0003 25C29.6572 25 31.0003 26.3431 31.0003 28Z" fill="currentColor"/>
<path fill-rule="evenodd" clip-rule="evenodd" d="M68.0003 30C69.1048 30 70.0003 29.1046 70.0003 28C70.0003 26.8954 69.1048 26 68.0003 26C66.8957 26 66.0003 26.8954 66.0003 28C66.0003 29.1046 66.8957 30 68.0003 30ZM72.0003 28C72.0003 30.2091 70.2094 32 68.0003 32C65.7911 32 64.0003 30.2091 64.0003 28C64.0003 25.7909 65.7911 24 68.0003 24C70.2094 24 72.0003 25.7909 72.0003 28Z" fill="currentColor"/>
<path fill-rule="evenodd" clip-rule="evenodd" d="M67.3793 19L66.9917 20.1627C66.6168 21.2876 65.7993 22.0702 64.9656 22.5345C64.9063 22.5675 64.8476 22.6014 64.7895 22.6363C63.9695 23.1286 62.8814 23.4461 61.7183 23.2081L60.5165 22.9622L60.9175 21.0028L62.1192 21.2487C62.6845 21.3644 63.2654 21.2186 63.7601 20.9216C63.8368 20.8755 63.9143 20.8307 63.9926 20.7871C64.4962 20.5067 64.9121 20.0769 65.0944 19.5302L65.4819 18.3675C65.7542 17.5509 66.5184 17 67.3793 17H68.6213C69.4821 17 70.2464 17.5509 70.5186 18.3675L70.9062 19.5302C71.0884 20.0769 71.5044 20.5067 72.0079 20.7871C72.0862 20.8307 72.1638 20.8755 72.2405 20.9216C72.7352 21.2186 73.316 21.3644 73.8813 21.2487L75.083 21.0028C75.9264 20.8302 76.7856 21.2167 77.216 21.9622L77.837 23.0378C78.2675 23.7833 78.1725 24.7206 77.6014 25.3647L76.7864 26.2838C76.4045 26.7144 76.2394 27.2888 76.2486 27.8644C76.25 27.9548 76.25 28.0452 76.2486 28.1356C76.2394 28.7111 76.4045 29.2855 76.7864 29.7162L77.6014 30.6352C78.1725 31.2793 78.2675 32.2167 77.837 32.9622L77.216 34.0378C76.7856 34.7833 75.9264 35.1697 75.083 34.9971L73.8814 34.7512C73.3161 34.6356 72.7352 34.7814 72.2405 35.0784C72.1638 35.1244 72.0862 35.1693 72.0079 35.2129C71.5044 35.4933 71.0884 35.9231 70.9062 36.4698L70.5186 37.6325C70.2464 38.4491 69.4821 39 68.6213 39H67.3793C66.5184 39 65.7542 38.4491 65.4819 37.6325L65.0944 36.4698C64.9121 35.9231 64.4962 35.4933 63.9926 35.2129C63.9143 35.1693 63.8368 35.1244 63.76 35.0784C63.2653 34.7814 62.6845 34.6356 62.1192 34.7512L60.9175 34.9971C60.0741 35.1697 59.2149 34.7833 58.7845 34.0378L58.1635 32.9622C57.7331 32.2167 57.828 31.2793 58.3991 30.6352L59.8955 31.9622L60.5165 33.0378L61.7182 32.7918C62.8813 32.5538 63.9694 32.8714 64.7894 33.3636C64.8476 33.3985 64.9063 33.4325 64.9656 33.4655C65.7993 33.9298 66.6168 34.7124 66.9917 35.8373L67.3793 37L68.6213 37L69.0088 35.8373C69.3838 34.7124 70.2012 33.9298 71.0349 33.4655C71.0943 33.4325 71.153 33.3985 71.2111 33.3636C72.0311 32.8714 73.1193 32.5538 74.2823 32.7919L75.484 33.0378L76.105 31.9622L75.29 31.0431C74.5052 30.1581 74.2336 29.0606 74.2488 28.1039C74.2499 28.0346 74.2499 27.9653 74.2488 27.8961C74.2336 26.9394 74.5052 25.8418 75.29 24.9568L76.105 24.0378L75.484 22.9622L74.2823 23.2081C73.1192 23.4461 72.0311 23.1286 71.2111 22.6363C71.153 22.6014 71.0942 22.5675 71.035 22.5345C70.2012 22.0702 69.3838 21.2876 69.0088 20.1627L68.6213 19L67.3793 19ZM58.3991 30.6352L59.8955 31.9622L60.7106 31.0431C61.4953 30.1581 61.7669 29.0605 61.7518 28.1039C61.7507 28.0346 61.7507 27.9653 61.7518 27.8961C61.7669 26.9394 61.4953 25.8419 60.7106 24.9569L59.8955 24.0378L60.5165 22.9622L60.9175 21.0028C60.0741 20.8302 59.2149 21.2167 58.7845 21.9622L58.1635 23.0378C57.7331 23.7833 57.828 24.7206 58.3991 25.3647L59.2142 26.2838C59.5961 26.7145 59.7611 27.2889 59.752 27.8644C59.7506 27.9548 59.7506 28.0452 59.752 28.1355C59.7611 28.7111 59.5961 29.2854 59.2142 29.7161L58.3991 30.6352Z" fill="currentColor"/>
</svg>
