<svg width="24" height="24" color="#6F767E" viewBox="56 16 24 24" fill="none" xmlns="http://www.w3.org/2000/svg">

<path fill-rule="evenodd" clip-rule="evenodd" d="M28.0005 18C25.7913 18 24.0005 19.7909 24.0005 22H22.6489C21.1359 22 19.8597 23.1266 19.672 24.6279L18.422 34.6279C18.1982 36.4185 19.5944 38 21.3989 38H34.6022C36.4067 38 37.8028 36.4185 37.579 34.6279L36.329 24.6279C36.1414 23.1266 34.8652 22 33.3522 22H32.0005C32.0005 19.7909 30.2096 18 28.0005 18ZM30.0005 22C30.0005 20.8954 29.1051 20 28.0005 20C26.8959 20 26.0005 20.8954 26.0005 22H30.0005Z" fill="currentColor"/>
<path fill-rule="evenodd" clip-rule="evenodd" d="M67.9996 18C65.7904 18 63.9996 19.7909 63.9996 22H62.6479C61.1349 22 59.8587 23.1266 59.6711 24.6279L58.4211 34.6279C58.1972 36.4185 59.5934 38 61.3979 38H74.6012C76.4057 38 77.8019 36.4185 77.578 34.6279L76.328 24.6279C76.1404 23.1266 74.8642 22 73.3512 22H71.9996C71.9996 19.7909 70.2087 18 67.9996 18ZM69.9996 24V25C69.9996 25.5523 70.4473 26 70.9996 26C71.5519 26 71.9996 25.5523 71.9996 25V24H73.3512C73.8555 24 74.2809 24.3755 74.3435 24.876L75.5935 34.876C75.6681 35.4728 75.2027 36 74.6012 36H61.3979C60.7964 36 60.331 35.4728 60.4056 34.876L61.6556 24.876C61.7182 24.3755 62.1436 24 62.6479 24H63.9996V25C63.9996 25.5523 64.4473 26 64.9996 26C65.5519 26 65.9996 25.5523 65.9996 25V24H69.9996ZM69.9996 22C69.9996 20.8954 69.1041 20 67.9996 20C66.895 20 65.9996 20.8954 65.9996 22H69.9996Z" fill="currentColor"/>
</svg>
