<svg width="24" height="24" viewBox="56 16 24 24" fill="none" xmlns="http://www.w3.org/2000/svg">

<path d="M23 21C23 20.4477 22.5523 20 22 20C21.4477 20 21 20.4477 21 21V33.0858L19.7071 31.7929C19.3166 31.4024 18.6834 31.4024 18.2929 31.7929C17.9024 32.1834 17.9024 32.8166 18.2929 33.2071L20.5858 35.5C21.3668 36.281 22.6332 36.281 23.4142 35.5L25.7071 33.2071C26.0976 32.8166 26.0976 32.1834 25.7071 31.7929C25.3166 31.4024 24.6834 31.4024 24.2929 31.7929L23 33.0858V21Z" fill="currentColor"/>
<path fill-rule="evenodd" clip-rule="evenodd" d="M28 23C28 22.4477 28.4477 22 29 22H37C37.5523 22 38 22.4477 38 23C38 23.5523 37.5523 24 37 24H29C28.4477 24 28 23.5523 28 23Z" fill="currentColor"/>
<path fill-rule="evenodd" clip-rule="evenodd" d="M28 28C28 28.5523 28.4477 29 29 29H34C34.5523 29 35 28.5523 35 28C35 27.4477 34.5523 27 34 27H29C28.4477 27 28 27.4477 28 28Z" fill="currentColor"/>
<path fill-rule="evenodd" clip-rule="evenodd" d="M28 33C28 33.5523 28.4477 34 29 34H31C31.5523 34 32 33.5523 32 33C32 32.4477 31.5523 32 31 32H29C28.4477 32 28 32.4477 28 33Z" fill="currentColor"/>
<path d="M63 21C63 20.4477 62.5523 20 62 20C61.4477 20 61 20.4477 61 21V33.0858L59.7071 31.7929C59.3166 31.4024 58.6834 31.4024 58.2929 31.7929C57.9024 32.1834 57.9024 32.8166 58.2929 33.2071L60.5858 35.5C61.3668 36.281 62.6332 36.281 63.4142 35.5L65.7071 33.2071C66.0976 32.8166 66.0976 32.1834 65.7071 31.7929C65.3166 31.4024 64.6834 31.4024 64.2929 31.7929L63 33.0858V21Z" fill="currentColor"/>
<path fill-rule="evenodd" clip-rule="evenodd" d="M68 23C68 22.4477 68.4477 22 69 22H77C77.5523 22 78 22.4477 78 23C78 23.5523 77.5523 24 77 24H69C68.4477 24 68 23.5523 68 23Z" fill="currentColor"/>
<path fill-rule="evenodd" clip-rule="evenodd" d="M68 28C68 28.5523 68.4477 29 69 29H74C74.5523 29 75 28.5523 75 28C75 27.4477 74.5523 27 74 27H69C68.4477 27 68 27.4477 68 28Z" fill="currentColor"/>
<path fill-rule="evenodd" clip-rule="evenodd" d="M68 33C68 33.5523 68.4477 34 69 34H71C71.5523 34 72 33.5523 72 33C72 32.4477 71.5523 32 71 32H69C68.4477 32 68 32.4477 68 33Z" fill="currentColor"/>
</svg>
