<svg width="24" height="24" viewBox="56 16 24 24" fill="none" xmlns="http://www.w3.org/2000/svg">

<path fill-rule="evenodd" clip-rule="evenodd" d="M24.5176 18.0002H31.4814C31.4941 17.9999 31.5069 17.9999 31.5195 18.0002H33.4473C34.6846 18.0002 35.7949 18.7597 36.2433 19.9128L38.0313 24.5104C38.4657 25.6274 37.9884 26.8524 36.9995 27.4123V35.0002C36.9995 36.657 35.6564 38.0002 33.9995 38.0002H21.9995C20.3427 38.0002 18.9995 36.657 18.9995 35.0002V27.4123C18.0106 26.8524 17.5334 25.6274 17.9678 24.5104L19.7557 19.9128C20.2041 18.7597 21.3145 18.0002 22.5517 18.0002H24.4794C24.4921 17.9999 24.5048 17.9999 24.5176 18.0002ZM33.8484 25.1893C33.8637 25.1964 33.8788 25.2038 33.8939 25.2113L34.5955 25.5621C35.0064 25.7675 35.4772 25.8192 35.9228 25.7078C36.1299 25.656 36.2446 25.4343 36.1673 25.2353L34.3793 20.6377C34.2298 20.2534 33.8597 20.0002 33.4473 20.0002H32.7365L33.8484 25.1893ZM30.6911 20.0002L31.8297 25.314L31.6137 25.4004C30.8985 25.6865 30.1006 25.6865 29.3853 25.4004L28.9995 25.2461V20.0002H30.6911ZM25.3079 20.0002H26.9995V25.2461L26.6137 25.4004C25.8985 25.6865 25.1006 25.6865 24.3853 25.4004L24.1692 25.314L25.3079 20.0002ZM23.2625 20.0002L22.1505 25.1893C22.1353 25.1965 22.1202 25.2038 22.1051 25.2113L21.4035 25.5621C20.9927 25.7675 20.5219 25.8192 20.0762 25.7078C19.8691 25.656 19.7544 25.4343 19.8318 25.2353L21.6197 20.6377C21.7692 20.2534 22.1393 20.0002 22.5517 20.0002H23.2625ZM26.9995 30.0002C25.8949 30.0002 24.9995 30.8956 24.9995 32.0002V35.5002C24.9995 35.7763 25.2234 36.0002 25.4995 36.0002H30.4995C30.7757 36.0002 30.9995 35.7763 30.9995 35.5002V32.0002C30.9995 30.8956 30.1041 30.0002 28.9995 30.0002H26.9995Z" fill="currentColor"/>
<path fill-rule="evenodd" clip-rule="evenodd" d="M64.5176 18.0002C64.5049 17.9999 64.4922 17.9999 64.4795 18.0002H62.5517C61.3145 18.0002 60.2041 18.7597 59.7557 19.9128L57.9678 24.5104C57.5334 25.6274 58.0106 26.8524 58.9995 27.4123V35.0002C58.9995 36.657 60.3427 38.0002 61.9995 38.0002H73.9995C75.6564 38.0002 76.9995 36.657 76.9995 35.0002V27.4123C77.9884 26.8524 78.4657 25.6274 78.0313 24.5104L76.2433 19.9128C75.7949 18.7597 74.6846 18.0002 73.4473 18.0002H71.5196C71.5069 17.9999 71.4942 17.9999 71.4814 18.0002H64.5176ZM74.9995 27.7386C74.551 27.6861 74.1114 27.5561 73.7011 27.351L73 27.0004L72.9989 27.0004L72.3565 27.2574C71.1644 27.7342 69.8346 27.7342 68.6426 27.2574L67.9995 27.0002L67.3565 27.2574C66.1644 27.7342 64.8346 27.7342 63.6426 27.2574L63.0001 27.0004L62.9991 27.0004L62.2979 27.351C61.8877 27.5561 61.448 27.6861 60.9995 27.7386V35.0002C60.9995 35.5524 61.4472 36.0002 61.9995 36.0002H63.9995V33.0002C63.9995 31.3433 65.3427 30.0002 66.9995 30.0002H68.9995C70.6564 30.0002 71.9995 31.3433 71.9995 33.0002V36.0002H73.9995C74.5518 36.0002 74.9995 35.5524 74.9995 35.0002V27.7386ZM73.8939 25.2113C73.8789 25.2038 73.8637 25.1964 73.8485 25.1893L72.7365 20.0002H73.4473C73.8597 20.0002 74.2298 20.2534 74.3793 20.6377L76.1673 25.2353C76.2446 25.4343 76.1299 25.656 75.9228 25.7078C75.4772 25.8192 75.0064 25.7675 74.5955 25.5621L73.8939 25.2113ZM71.8298 25.314L70.6911 20.0002H68.9995V25.2461L69.3853 25.4004C70.1006 25.6865 70.8985 25.6865 71.6137 25.4004L71.8298 25.314ZM66.9995 20.0002H65.308L64.1693 25.314L64.3853 25.4004C65.1006 25.6865 65.8985 25.6865 66.6137 25.4004L66.9995 25.2461V20.0002ZM62.1506 25.1893L63.2626 20.0002H62.5517C62.1393 20.0002 61.7692 20.2534 61.6197 20.6377L59.8318 25.2353C59.7544 25.4343 59.8691 25.656 60.0762 25.7078C60.5219 25.8192 60.9927 25.7675 61.4035 25.5621L62.1051 25.2113C62.1202 25.2038 62.1354 25.1964 62.1506 25.1893ZM69.9995 33.0002V36.0002H65.9995V33.0002C65.9995 32.4479 66.4472 32.0002 66.9995 32.0002H68.9995C69.5518 32.0002 69.9995 32.4479 69.9995 33.0002Z" fill="currentColor"/>
</svg>
