<svg width="24" height="24" color="#6F767E" viewBox="56 16 24 24" fill="none" xmlns="http://www.w3.org/2000/svg">

<path fill-rule="evenodd" clip-rule="evenodd" d="M36.6813 29.2435C37.3006 28.6243 37.6184 27.7653 37.5512 26.8921L37.1471 21.6393C37.0336 20.164 35.8614 18.9917 34.3861 18.8782L29.1333 18.4742C28.2601 18.407 27.4011 18.7248 26.7818 19.344L19.2722 26.8536C18.1007 28.0252 18.1007 29.9247 19.2722 31.0963L24.9291 36.7531C26.1007 37.9247 28.0002 37.9247 29.1717 36.7531L36.6813 29.2435ZM30.5861 23.3181C30.0003 23.9039 30.0003 24.8537 30.5861 25.4394C31.1719 26.0252 32.1216 26.0252 32.7074 25.4394C33.2932 24.8537 33.2932 23.9039 32.7074 23.3181C32.1216 22.7323 31.1719 22.7323 30.5861 23.3181ZM26.3435 32.5105L23.5151 29.6821C23.1246 29.2916 23.1246 28.6584 23.5151 28.2679C23.9056 27.8773 24.5388 27.8773 24.9293 28.2679L27.7577 31.0963C28.1483 31.4868 28.1483 32.12 27.7577 32.5105C27.3672 32.901 26.734 32.901 26.3435 32.5105Z" fill="currentColor"/>
<path fill-rule="evenodd" clip-rule="evenodd" d="M60.6864 28.2678L68.1961 20.7582C68.4025 20.5518 68.6888 20.4459 68.9799 20.4683L74.2327 20.8723C74.7244 20.9102 75.1152 21.3009 75.153 21.7927L75.5571 27.0455C75.5795 27.3366 75.4735 27.6229 75.2671 27.8293L67.7575 35.3389C67.367 35.7294 66.7338 35.7294 66.3433 35.3389L60.6864 29.6821C60.2959 29.2915 60.2959 28.6584 60.6864 28.2678ZM77.5512 26.8921C77.6184 27.7653 77.3006 28.6243 76.6813 29.2435L69.1717 36.7531C68.0002 37.9247 66.1007 37.9247 64.9291 36.7531L59.2722 31.0963C58.1007 29.9247 58.1007 28.0252 59.2722 26.8536L66.7818 19.344C67.4011 18.7248 68.2601 18.407 69.1333 18.4742L74.3861 18.8782C75.8614 18.9917 77.0336 20.164 77.1471 21.6393L77.5512 26.8921Z" fill="currentColor"/>
<path d="M70.5859 23.3181C70.0002 23.9039 70.0002 24.8536 70.5859 25.4394C71.1717 26.0252 72.1215 26.0252 72.7073 25.4394C73.293 24.8536 73.293 23.9039 72.7073 23.3181C72.1215 22.7323 71.1717 22.7323 70.5859 23.3181Z" fill="currentColor"/>
<path fill-rule="evenodd" clip-rule="evenodd" d="M63.5149 29.6821L66.3433 32.5105C66.7338 32.901 67.367 32.901 67.7575 32.5105C68.148 32.12 68.148 31.4868 67.7575 31.0963L64.9291 28.2678C64.5386 27.8773 63.9054 27.8773 63.5149 28.2678C63.1244 28.6584 63.1244 29.2915 63.5149 29.6821Z" fill="currentColor"/>
</svg>
