<svg width="24" height="24" viewBox="56 16 24 24" fill="none" xmlns="http://www.w3.org/2000/svg">

<path d="M24 28C24 29.1046 23.1046 30 22 30C20.8954 30 20 29.1046 20 28C20 26.8954 20.8954 26 22 26C23.1046 26 24 26.8954 24 28Z" fill="currentColor"/>
<path d="M30 28C30 29.1046 29.1046 30 28 30C26.8954 30 26 29.1046 26 28C26 26.8954 26.8954 26 28 26C29.1046 26 30 26.8954 30 28Z" fill="currentColor"/>
<path d="M36 28C36 29.1046 35.1046 30 34 30C32.8954 30 32 29.1046 32 28C32 26.8954 32.8954 26 34 26C35.1046 26 36 26.8954 36 28Z" fill="currentColor"/>
<path fill-rule="evenodd" clip-rule="evenodd" d="M61 29C61.5523 29 62 28.5523 62 28C62 27.4477 61.5523 27 61 27C60.4477 27 60 27.4477 60 28C60 28.5523 60.4477 29 61 29ZM61 31C62.6569 31 64 29.6569 64 28C64 26.3431 62.6569 25 61 25C59.3431 25 58 26.3431 58 28C58 29.6569 59.3431 31 61 31Z" fill="currentColor"/>
<path fill-rule="evenodd" clip-rule="evenodd" d="M68 29C68.5523 29 69 28.5523 69 28C69 27.4477 68.5523 27 68 27C67.4477 27 67 27.4477 67 28C67 28.5523 67.4477 29 68 29ZM68 31C69.6569 31 71 29.6569 71 28C71 26.3431 69.6569 25 68 25C66.3431 25 65 26.3431 65 28C65 29.6569 66.3431 31 68 31Z" fill="currentColor"/>
<path fill-rule="evenodd" clip-rule="evenodd" d="M75 29C75.5523 29 76 28.5523 76 28C76 27.4477 75.5523 27 75 27C74.4477 27 74 27.4477 74 28C74 28.5523 74.4477 29 75 29ZM75 31C76.6569 31 78 29.6569 78 28C78 26.3431 76.6569 25 75 25C73.3431 25 72 26.3431 72 28C72 29.6569 73.3431 31 75 31Z" fill="currentColor"/>
</svg>
