<svg width="24" height="24" color="#6F767E" viewBox="56 16 24 24" fill="none" xmlns="http://www.w3.org/2000/svg">

<path fill-rule="evenodd" clip-rule="evenodd" d="M21 20C19.3431 20 18 21.3431 18 23V25C18 25.5523 18.4745 25.9793 18.959 26.2445C19.5793 26.5841 20 27.2429 20 28C20 28.7571 19.5793 29.4159 18.959 29.7555C18.4745 30.0207 18 30.4477 18 31V33C18 34.6569 19.3431 36 21 36H35C36.6569 36 38 34.6569 38 33V31C38 30.4477 37.5255 30.0207 37.041 29.7555C36.4207 29.4159 36 28.7571 36 28C36 27.2429 36.4207 26.5841 37.041 26.2445C37.5255 25.9793 38 25.5523 38 25V23C38 21.3431 36.6569 20 35 20H21ZM28.9445 24.7174C28.6332 23.8218 27.3667 23.8218 27.0554 24.7174L26.8177 25.4011C26.6804 25.7961 26.3117 26.064 25.8935 26.0725L25.1699 26.0873C24.222 26.1066 23.8306 27.3111 24.5861 27.8839L25.1629 28.3212C25.4962 28.5739 25.637 29.0073 25.5159 29.4077L25.3063 30.1005C25.0318 31.008 26.0564 31.7524 26.8346 31.2109L27.4288 30.7975C27.7721 30.5586 28.2278 30.5586 28.5711 30.7975L29.1652 31.2109C29.9435 31.7524 30.9681 31.008 30.6936 30.1005L30.484 29.4077C30.3629 29.0073 30.5037 28.5739 30.837 28.3212L31.4138 27.8839C32.1693 27.3111 31.7779 26.1066 30.83 26.0873L30.1063 26.0725C29.6882 26.064 29.3195 25.7961 29.1822 25.4011L28.9445 24.7174Z" fill="currentColor"/>
<path fill-rule="evenodd" clip-rule="evenodd" d="M61 22C60.4477 22 60 22.4477 60 23V24.5355C61.1915 25.2243 62 26.5164 62 28C62 29.4836 61.1915 30.7757 60 31.4645V33C60 33.5523 60.4477 34 61 34H75C75.5523 34 76 33.5523 76 33V31.4645C74.8085 30.7757 74 29.4836 74 28C74 26.5164 74.8085 25.2243 76 24.5355V23C76 22.4477 75.5523 22 75 22H61ZM61 20C59.3431 20 58 21.3431 58 23V25C58 25.5523 58.4745 25.9793 58.959 26.2445C59.5793 26.5841 60 27.2429 60 28C60 28.7571 59.5793 29.4159 58.959 29.7555C58.4745 30.0207 58 30.4477 58 31V33C58 34.6569 59.3431 36 61 36H75C76.6569 36 78 34.6569 78 33V31C78 30.4477 77.5255 30.0207 77.041 29.7555C76.4207 29.4159 76 28.7571 76 28C76 27.2429 76.4207 26.5841 77.041 26.2445C77.5255 25.9793 78 25.5523 78 25V23C78 21.3431 76.6569 20 75 20H61Z" fill="currentColor"/>
<path fill-rule="evenodd" clip-rule="evenodd" d="M68 27.1887C67.7744 27.4154 67.5137 27.6047 67.2284 27.7493C67.3743 28.0339 67.4738 28.3403 67.5231 28.6564C67.8389 28.6056 68.1611 28.6056 68.4769 28.6564C68.5262 28.3403 68.6257 28.0339 68.7716 27.7493C68.4863 27.6047 68.2256 27.4154 68 27.1887ZM68.9446 24.7174C68.6333 23.8218 67.3667 23.8218 67.0554 24.7174L66.8178 25.4011C66.6805 25.7961 66.3118 26.064 65.8936 26.0725L65.1699 26.0873C64.222 26.1066 63.8306 27.3111 64.5862 27.8839L65.163 28.3212C65.4962 28.5739 65.6371 29.0074 65.516 29.4077L65.3064 30.1005C65.0318 31.008 66.0565 31.7524 66.8347 31.2109L67.4288 30.7975C67.7721 30.5586 68.2279 30.5586 68.5712 30.7975L69.1653 31.2109C69.9435 31.7524 70.9682 31.008 70.6936 30.1005L70.484 29.4077C70.3629 29.0074 70.5038 28.5739 70.837 28.3212L71.4138 27.8839C72.1694 27.3111 71.778 26.1066 70.8301 26.0873L70.1064 26.0725C69.6882 26.064 69.3195 25.7961 69.1822 25.4011L68.9446 24.7174Z" fill="currentColor"/>
</svg>
