<svg width="24" height="24" viewBox="56 16 24 24" fill="none" xmlns="http://www.w3.org/2000/svg">

<path fill-rule="evenodd" clip-rule="evenodd" d="M28 38C33.5228 38 38 33.5228 38 28C38 22.4772 33.5228 18 28 18C22.4772 18 18 22.4772 18 28C18 33.5228 22.4772 38 28 38ZM29 23C29 22.4477 28.5523 22 28 22C27.4477 22 27 22.4477 27 23V27.5858C27 28.1162 27.2107 28.6249 27.5858 29L29.7929 31.2071C30.1834 31.5976 30.8166 31.5976 31.2071 31.2071C31.5976 30.8166 31.5976 30.1834 31.2071 29.7929L29 27.5858V23Z" fill="currentColor"/>
<path fill-rule="evenodd" clip-rule="evenodd" d="M68 36C72.4183 36 76 32.4183 76 28C76 23.5817 72.4183 20 68 20C63.5817 20 60 23.5817 60 28C60 32.4183 63.5817 36 68 36ZM68 38C73.5228 38 78 33.5228 78 28C78 22.4772 73.5228 18 68 18C62.4772 18 58 22.4772 58 28C58 33.5228 62.4772 38 68 38Z" fill="currentColor"/>
<path fill-rule="evenodd" clip-rule="evenodd" d="M68 22C68.5523 22 69 22.4477 69 23V27.5858L71.2071 29.7929C71.5976 30.1834 71.5976 30.8166 71.2071 31.2071C70.8166 31.5976 70.1834 31.5976 69.7929 31.2071L67.5858 29C67.2107 28.6249 67 28.1162 67 27.5858V23C67 22.4477 67.4477 22 68 22Z" fill="currentColor"/>
</svg>
