<svg width="24" height="24" viewBox="56 16 24 24" fill="none" xmlns="http://www.w3.org/2000/svg">

<path d="M32.1505 19.1311C32.8256 19.2744 32.9746 20.0965 32.4866 20.5845L30.8995 22.1716C30.1184 22.9526 30.1184 24.219 30.8995 25C31.6805 25.7811 32.9469 25.7811 33.7279 25L35.315 23.4129C35.803 22.9249 36.6251 23.0739 36.7684 23.749C37.1758 25.6694 36.6337 27.751 35.1421 29.2426C33.2949 31.0899 30.5427 31.4808 28.3125 30.4154L22.4142 36.3137C21.6332 37.0948 20.3668 37.0948 19.5858 36.3137C18.8047 35.5327 18.8047 34.2663 19.5858 33.4853L25.4841 27.587C24.4186 25.3568 24.8096 22.6046 26.6568 20.7574C28.1485 19.2657 30.23 18.7237 32.1505 19.1311Z" fill="currentColor"/>
<path fill-rule="evenodd" clip-rule="evenodd" d="M68.5965 28.8587C69.1013 28.3539 69.837 28.1564 70.5267 28.3406C71.867 28.6986 73.3477 28.3501 74.3929 27.305C75.1094 26.5885 75.4982 25.6664 75.557 24.7267L75.1 25.1837C73.9284 26.3552 72.0289 26.3552 70.8574 25.1837C69.6858 24.0121 69.6858 22.1126 70.8574 20.941L71.3143 20.4841C70.3746 20.5428 69.4525 20.9316 68.736 21.6481C67.6909 22.6933 67.3424 24.174 67.7004 25.5143C67.8846 26.204 67.6871 26.9397 67.1823 27.4445L61.665 32.9618C61.2744 33.3524 61.2744 33.9855 61.665 34.3761C62.0555 34.7666 62.6887 34.7666 63.0792 34.3761L68.5965 28.8587ZM70.0107 30.2729C72.0124 30.8075 74.2367 30.2896 75.8071 28.7192C77.6175 26.9088 78.0291 24.2293 77.042 22.0237C76.7893 21.4593 76.0572 21.3981 75.6199 21.8353L73.6858 23.7694C73.2953 24.16 72.6621 24.16 72.2716 23.7694C71.8811 23.3789 71.8811 22.7458 72.2716 22.3552L74.2057 20.4211C74.643 19.9838 74.5817 19.2517 74.0173 18.9991C71.8117 18.0119 69.1322 18.4235 67.3218 20.2339C65.7514 21.8043 65.2335 24.0286 65.7681 26.0303L60.2508 31.5476C59.0792 32.7192 59.0792 34.6187 60.2508 35.7903C61.4223 36.9618 63.3218 36.9618 64.4934 35.7903L70.0107 30.2729Z" fill="currentColor"/>
</svg>
