<svg width="24" height="24" viewBox="56 16 24 24" fill="none" xmlns="http://www.w3.org/2000/svg">

<path fill-rule="evenodd" clip-rule="evenodd" d="M19 23C19 22.4477 19.4477 22 20 22H36C36.5523 22 37 22.4477 37 23C37 23.5523 36.5523 24 36 24H20C19.4477 24 19 23.5523 19 23Z" fill="currentColor"/>
<path fill-rule="evenodd" clip-rule="evenodd" d="M19 33C19 32.4477 19.4477 32 20 32H36C36.5523 32 37 32.4477 37 33C37 33.5523 36.5523 34 36 34H20C19.4477 34 19 33.5523 19 33Z" fill="currentColor"/>
<path fill-rule="evenodd" clip-rule="evenodd" d="M26 36C27.6569 36 29 34.6569 29 33C29 31.3431 27.6569 30 26 30C24.3431 30 23 31.3431 23 33C23 34.6569 24.3431 36 26 36Z" fill="currentColor"/>
<path fill-rule="evenodd" clip-rule="evenodd" d="M30 26C31.6569 26 33 24.6569 33 23C33 21.3431 31.6569 20 30 20C28.3431 20 27 21.3431 27 23C27 24.6569 28.3431 26 30 26Z" fill="currentColor"/>
<path fill-rule="evenodd" clip-rule="evenodd" d="M62.126 34H60C59.4477 34 59 33.5523 59 33C59 32.4477 59.4477 32 60 32H62.126C62.5701 30.2748 64.1362 29 66 29C67.8638 29 69.4299 30.2748 69.874 32H76C76.5523 32 77 32.4477 77 33C77 33.5523 76.5523 34 76 34H69.874C69.4299 35.7252 67.8638 37 66 37C64.1362 37 62.5701 35.7252 62.126 34ZM64 33C64 31.8954 64.8954 31 66 31C67.1046 31 68 31.8954 68 33C68 34.1046 67.1046 35 66 35C64.8954 35 64 34.1046 64 33Z" fill="currentColor"/>
<path fill-rule="evenodd" clip-rule="evenodd" d="M66.126 24H60C59.4477 24 59 23.5523 59 23C59 22.4477 59.4477 22 60 22H66.126C66.5701 20.2748 68.1362 19 70 19C71.8638 19 73.4299 20.2748 73.874 22H76C76.5523 22 77 22.4477 77 23C77 23.5523 76.5523 24 76 24H73.874C73.4299 25.7252 71.8638 27 70 27C68.1362 27 66.5701 25.7252 66.126 24ZM68 23C68 21.8954 68.8954 21 70 21C71.1046 21 72 21.8954 72 23C72 24.1046 71.1046 25 70 25C68.8954 25 68 24.1046 68 23Z" fill="currentColor"/>
</svg>
