<svg width="24" height="24" viewBox="56 16 24 24" fill="none" xmlns="http://www.w3.org/2000/svg">

<path d="M36.1421 30.7429C35.0573 26.6944 30.896 24.2919 26.8475 25.3767C24.5746 25.9857 22.8507 27.5574 21.9565 29.5497L23.411 29.1554C23.944 29.0109 24.4933 29.3259 24.6378 29.8589C24.7823 30.392 24.4673 30.9412 23.9343 31.0857L20.7639 31.9452C20.7285 31.957 20.6923 31.9668 20.6556 31.9746L20.2499 32.0845C19.9934 32.1541 19.7198 32.1187 19.4895 31.9861C19.2592 31.8536 19.0911 31.6349 19.0223 31.3782L18.0343 27.6909C17.8914 27.1575 18.208 26.6091 18.7414 26.4662C19.2749 26.3232 19.8232 26.6398 19.9662 27.1733L20.2926 28.3916C21.4597 26.0403 23.5724 24.1837 26.3299 23.4448C31.4453 22.0742 36.7033 25.1099 38.0739 30.2253C38.2169 30.7587 37.9003 31.3071 37.3668 31.45C36.8334 31.593 36.285 31.2764 36.1421 30.7429Z" fill="currentColor"/>
<path d="M76.1421 30.7429C75.0573 26.6944 70.896 24.2919 66.8475 25.3767C64.5746 25.9857 62.8507 27.5574 61.9565 29.5497L63.411 29.1554C63.944 29.0109 64.4933 29.3259 64.6378 29.8589C64.7823 30.392 64.4673 30.9412 63.9343 31.0857L60.7639 31.9452C60.7285 31.957 60.6923 31.9668 60.6556 31.9746L60.2499 32.0845C59.9934 32.1541 59.7198 32.1187 59.4895 31.9861C59.2592 31.8536 59.0911 31.6349 59.0223 31.3782L58.0343 27.6909C57.8914 27.1575 58.208 26.6091 58.7414 26.4662C59.2749 26.3232 59.8232 26.6398 59.9662 27.1733L60.2926 28.3916C61.4597 26.0403 63.5724 24.1837 66.3299 23.4448C71.4453 22.0742 76.7033 25.1099 78.0739 30.2253C78.2169 30.7587 77.9003 31.3071 77.3668 31.45C76.8334 31.593 76.285 31.2764 76.1421 30.7429Z" fill="currentColor"/>
</svg>
