<svg width="24" height="24" color="#6F767E" viewBox="56 16 24 24" fill="none" xmlns="http://www.w3.org/2000/svg">

<path fill-rule="evenodd" clip-rule="evenodd" d="M21 18C19.3431 18 18 19.3431 18 21V35C18 36.6569 19.3431 38 21 38H35C36.6569 38 38 36.6569 38 35V25C38 23.6938 37.1652 22.5825 36 22.1707V21C36 19.3431 34.6569 18 33 18H21ZM21 20C20.4477 20 20 20.4477 20 21C20 21.5523 20.4477 22 21 22H34V21C34 20.4477 33.5523 20 33 20H21ZM33 28C31.8954 28 31 28.8954 31 30C31 31.1046 31.8954 32 33 32H35C35.5523 32 36 31.5523 36 31V29C36 28.4477 35.5523 28 35 28H33Z" fill="currentColor"/>
<path fill-rule="evenodd" clip-rule="evenodd" d="M76 22.1707V21C76 19.3431 74.6569 18 73 18H61C59.3431 18 58 19.3431 58 21V35C58 36.6569 59.3431 38 61 38H75C76.6569 38 78 36.6569 78 35V25C78 23.6938 77.1652 22.5825 76 22.1707ZM60 21C60 20.4477 60.4477 20 61 20H73C73.5523 20 74 20.4477 74 21V22H61C60.4477 22 60 21.5523 60 21ZM60 23.8293C60.3128 23.9398 60.6494 24 61 24H75C75.5523 24 76 24.4477 76 25V27H73C71.3431 27 70 28.3431 70 30C70 31.6569 71.3431 33 73 33H76V35C76 35.5523 75.5523 36 75 36H61C60.4477 36 60 35.5523 60 35V23.8293ZM73 29H76V31H73C72.4477 31 72 30.5523 72 30C72 29.4477 72.4477 29 73 29Z" fill="currentColor"/>
</svg>
