<svg width="24" height="24" color="#6F767E" viewBox="56 16 24 24" fill="none" xmlns="http://www.w3.org/2000/svg">

<path fill-rule="evenodd" clip-rule="evenodd" d="M36 27C36 29.125 35.2635 31.078 34.0319 32.6177L36.7071 35.2929C37.0976 35.6834 37.0976 36.3166 36.7071 36.7071C36.3166 37.0976 35.6834 37.0976 35.2929 36.7071L32.6177 34.0319C31.078 35.2635 29.125 36 27 36C22.0294 36 18 31.9706 18 27C18 22.0294 22.0294 18 27 18C31.9706 18 36 22.0294 36 27ZM23 27C23 26.4477 23.4477 26 24 26H30C30.5523 26 31 26.4477 31 27C31 27.5523 30.5523 28 30 28H24C23.4477 28 23 27.5523 23 27Z" fill="currentColor"/>
<path fill-rule="evenodd" clip-rule="evenodd" d="M63 27C63 26.4477 63.4477 26 64 26H70C70.5523 26 71 26.4477 71 27C71 27.5523 70.5523 28 70 28H64C63.4477 28 63 27.5523 63 27Z" fill="currentColor"/>
<path fill-rule="evenodd" clip-rule="evenodd" d="M74.0319 32.6177C75.2635 31.078 76 29.125 76 27C76 22.0294 71.9706 18 67 18C62.0294 18 58 22.0294 58 27C58 31.9706 62.0294 36 67 36C69.125 36 71.078 35.2635 72.6177 34.0319L75.2929 36.7071C75.6834 37.0976 76.3166 37.0976 76.7071 36.7071C77.0976 36.3166 77.0976 35.6834 76.7071 35.2929L74.0319 32.6177ZM74 27C74 30.866 70.866 34 67 34C63.134 34 60 30.866 60 27C60 23.134 63.134 20 67 20C70.866 20 74 23.134 74 27Z" fill="currentColor"/>
</svg>
