<svg xmlns="http://www.w3.org/2000/svg" width="20" height="20" viewBox="0 0 20 20" fill="none">
  <path d="M14.2084 16.8971C13.3919 17.6886 12.5005 17.6303 11.6423 17.2303C10.7341 16.8138 9.90932 16.8304 8.94285 17.2303C7.74309 17.7469 7.10989 17.5969 6.39337 16.8971C2.32753 12.7063 2.92741 6.32422 7.54313 6.09094C8.6679 6.14926 9.45108 6.70748 10.1093 6.75747C11.0924 6.55751 12.0339 5.98262 13.0837 6.05761C14.3417 6.15759 15.2916 6.65749 15.9164 7.5573C13.317 9.11532 13.9335 12.5396 16.3163 13.4978C15.8414 14.7475 15.2249 15.9889 14.2001 16.9054L14.2084 16.8971ZM10.026 6.04095C9.90099 4.18299 11.409 2.64997 13.142 2.5C13.3836 4.64956 11.1924 6.24924 10.026 6.04095Z" fill="white"/>
</svg>
