<svg width="31" height="31" viewBox="0 0 31 31" fill="none" xmlns="http://www.w3.org/2000/svg">
<path d="M15.07 30.0349C23.3543 30.0156 30.0543 23.2842 30.0349 15C30.0156 6.71571 23.2842 0.0156799 15 0.0350221C6.71571 0.0543643 0.01568 6.78576 0.0350222 15.07C0.0543643 23.3543 6.78576 30.0543 15.07 30.0349Z" fill="#2D3037"/>
<path d="M19.0584 19.2118C17.4526 16.7507 14.1575 16.0571 11.6962 17.6614L11.6951 17.6621C11.071 18.0699 10.5565 18.5881 10.166 19.1801L11.8371 20.2825C12.0773 19.9185 12.3961 19.5957 12.7905 19.3379C14.3256 18.3381 16.3802 18.7706 17.3818 20.3057L19.0584 19.2118Z" fill="white"/>
<path d="M11.1271 12.548C12.1046 12.6829 13.0063 11.9999 13.1412 11.0224C13.276 10.0449 12.593 9.14323 11.6155 9.00835C10.6381 8.87347 9.73636 9.55652 9.60149 10.534C9.46661 11.5114 10.1497 12.4131 11.1271 12.548Z" fill="white"/>
<path d="M17.1388 13.6023C18.1163 13.7372 19.018 13.0542 19.1529 12.0767C19.2878 11.0993 18.6047 10.1975 17.6273 10.0627C16.6498 9.9278 15.7481 10.6108 15.6132 11.5883C15.4783 12.5657 16.1614 13.4675 17.1388 13.6023Z" fill="white"/>
</svg>
