<svg width="16" height="16" viewBox="0 0 16 16" fill="none" xmlns="http://www.w3.org/2000/svg">
<path d="M0.997226 15.2185L5.41664 14.3346C5.57797 14.3023 5.72614 14.223 5.84247 14.1067L11.384 8.56517C11.7094 8.23973 11.7094 7.71209 11.384 7.38666L7.84843 3.85113C7.52299 3.52569 6.99535 3.52569 6.66992 3.85113L1.12842 9.39267C1.01209 9.509 0.932794 9.65716 0.900529 9.81849L0.0166459 14.2379C-0.0999736 14.821 0.414125 15.3351 0.997226 15.2185Z" fill="#ADB1BB"/>
<path d="M14.5029 1.91074L13.3244 0.732233C12.3481 -0.244077 10.7652 -0.244078 9.78886 0.732231L8.96778 1.5533C8.64235 1.87874 8.64235 2.40638 8.96778 2.73182L12.5033 6.26735C12.8288 6.59279 13.3564 6.59279 13.6818 6.26735L14.5029 5.44628C15.4792 4.46997 15.4792 2.88706 14.5029 1.91074Z" fill="#ADB1BB"/>
</svg>
