<svg width="32" height="32" viewBox="0 0 32 32" fill="none" xmlns="http://www.w3.org/2000/svg">
<path fill-rule="evenodd" clip-rule="evenodd" d="M0 4.75C0 2.12665 2.12665 0 4.75 0H26.9167C29.54 0 31.6667 2.12665 31.6667 4.75V26.9167C31.6667 29.54 29.54 31.6667 26.9167 31.6667H4.75C2.12665 31.6667 0 29.54 0 26.9167V4.75ZM27.0483 28.4946C27.8123 28.4318 27.7993 27.4649 27.2816 26.8995L13.5677 11.9223C11.6245 9.80244 8.25813 9.88192 6.41713 12.0911L3.53365 15.5513C3.29653 15.8358 3.16667 16.1945 3.16667 16.5649V26.9167C3.16667 27.7911 3.87555 28.5 4.75 28.5H26.9167C26.961 28.5 27.0049 28.4982 27.0483 28.4946ZM23.75 11.0833C25.4989 11.0833 26.9167 9.66557 26.9167 7.91667C26.9167 6.16776 25.4989 4.75 23.75 4.75C22.0011 4.75 20.5833 6.16776 20.5833 7.91667C20.5833 9.66557 22.0011 11.0833 23.75 11.0833Z" fill="#ADB1BB"/>
</svg>
