<svg width="17" height="9" viewBox="0 0 17 9" fill="none" xmlns="http://www.w3.org/2000/svg">
<path fill-rule="evenodd" clip-rule="evenodd" d="M0 4.16667C0 1.86548 1.86548 0 4.16667 0H6.66667C7.1269 0 7.5 0.373096 7.5 0.833333C7.5 1.29357 7.1269 1.66667 6.66667 1.66667H4.16667C2.78595 1.66667 1.66667 2.78595 1.66667 4.16667C1.66667 5.54738 2.78595 6.66667 4.16667 6.66667H6.66667C7.1269 6.66667 7.5 7.03976 7.5 7.5C7.5 7.96024 7.1269 8.33333 6.66667 8.33333H4.16667C1.86548 8.33333 0 6.46785 0 4.16667Z" fill="#ADB1BB"/>
<path fill-rule="evenodd" clip-rule="evenodd" d="M9.16667 0.833333C9.16667 0.373096 9.53976 0 10 0H12.5C14.8012 0 16.6667 1.86548 16.6667 4.16667C16.6667 6.46785 14.8012 8.33333 12.5 8.33333H10C9.53976 8.33333 9.16667 7.96024 9.16667 7.5C9.16667 7.03976 9.53976 6.66667 10 6.66667H12.5C13.8807 6.66667 15 5.54738 15 4.16667C15 2.78595 13.8807 1.66667 12.5 1.66667H10C9.53976 1.66667 9.16667 1.29357 9.16667 0.833333Z" fill="#ADB1BB"/>
<path fill-rule="evenodd" clip-rule="evenodd" d="M4.99999 4.16667C4.99999 3.70643 5.37308 3.33333 5.83332 3.33333H10.8333C11.2936 3.33333 11.6667 3.70643 11.6667 4.16667C11.6667 4.6269 11.2936 5 10.8333 5H5.83332C5.37308 5 4.99999 4.6269 4.99999 4.16667Z" fill="#ADB1BB"/>
</svg>
