<svg width="14" height="14" viewBox="0 0 14 14" fill="none" xmlns="http://www.w3.org/2000/svg">
<path fill-rule="evenodd" clip-rule="evenodd" d="M6.66667 0C7.03486 0 7.33334 0.298477 7.33334 0.666667V2C7.33334 2.36819 7.03486 2.66667 6.66667 2.66667C6.29848 2.66667 6 2.36819 6 2V0.666667C6 0.298477 6.29848 0 6.66667 0Z" fill="#1F7AF9"/>
<path fill-rule="evenodd" clip-rule="evenodd" d="M6.66667 10.6667C7.03486 10.6667 7.33334 10.9651 7.33334 11.3333V12.6667C7.33334 13.0349 7.03486 13.3333 6.66667 13.3333C6.29848 13.3333 6 13.0349 6 12.6667V11.3333C6 10.9651 6.29848 10.6667 6.66667 10.6667Z" fill="#1F7AF9"/>
<path fill-rule="evenodd" clip-rule="evenodd" d="M1.95263 1.95262C2.21298 1.69227 2.63509 1.69227 2.89543 1.95262L3.83824 2.89543C4.09859 3.15578 4.09859 3.57789 3.83824 3.83824C3.57789 4.09859 3.15578 4.09859 2.89543 3.83824L1.95263 2.89543C1.69228 2.63508 1.69228 2.21297 1.95263 1.95262Z" fill="#1F7AF9"/>
<path fill-rule="evenodd" clip-rule="evenodd" d="M9.4951 9.49509C9.75545 9.23474 10.1776 9.23474 10.4379 9.49509L11.3807 10.4379C11.6411 10.6983 11.6411 11.1204 11.3807 11.3807C11.1204 11.6411 10.6983 11.6411 10.4379 11.3807L9.4951 10.4379C9.23475 10.1776 9.23475 9.75544 9.4951 9.49509Z" fill="#1F7AF9"/>
<path fill-rule="evenodd" clip-rule="evenodd" d="M0 6.66666C4.39077e-09 6.29847 0.298477 6 0.666667 6H2C2.36819 6 2.66667 6.29847 2.66667 6.66666C2.66667 7.03485 2.36819 7.33333 2 7.33333H0.666667C0.298477 7.33333 -4.39047e-09 7.03485 0 6.66666Z" fill="#1F7AF9"/>
<path fill-rule="evenodd" clip-rule="evenodd" d="M10.6667 6.66666C10.6667 6.29847 10.9651 6 11.3333 6H12.6667C13.0349 6 13.3333 6.29847 13.3333 6.66666C13.3333 7.03485 13.0349 7.33333 12.6667 7.33333H11.3333C10.9651 7.33333 10.6667 7.03485 10.6667 6.66666Z" fill="#1F7AF9"/>
<path fill-rule="evenodd" clip-rule="evenodd" d="M1.95263 11.3807C1.69228 11.1204 1.69228 10.6983 1.95263 10.4379L2.89543 9.49509C3.15578 9.23474 3.57789 9.23474 3.83824 9.49509C4.09859 9.75544 4.09859 10.1776 3.83824 10.4379L2.89543 11.3807C2.63509 11.6411 2.21298 11.6411 1.95263 11.3807Z" fill="#1F7AF9"/>
<path fill-rule="evenodd" clip-rule="evenodd" d="M9.4951 3.83824C9.23475 3.57789 9.23475 3.15578 9.4951 2.89543L10.4379 1.95262C10.6983 1.69227 11.1204 1.69227 11.3807 1.95262C11.6411 2.21297 11.6411 2.63508 11.3807 2.89543L10.4379 3.83824C10.1776 4.09859 9.75545 4.09859 9.4951 3.83824Z" fill="#1F7AF9"/>
</svg>
