<svg width="24" height="24" viewBox="0 0 24 24" fill="none" xmlns="http://www.w3.org/2000/svg">
<path fill-rule="evenodd" clip-rule="evenodd" d="M19.7822 2.47952C19.6655 1.66386 18.6677 1.3315 18.0851 1.91422L16.7834 3.21624C15.3625 2.44082 13.7327 2.00012 12 2.00012C6.47715 2.00012 2 6.47727 2 12.0001C2 17.523 6.47715 22.0001 12 22.0001C17.5228 22.0001 22 17.523 22 12.0001C22 10.2672 21.5592 8.63732 20.7837 7.21633L22.0857 5.91431C22.6684 5.33162 22.3358 4.33379 21.52 4.21726L19.9999 4.00013L19.7822 2.47952ZM17.2374 8.17692L19.0049 8.42942C19.0586 8.43709 19.1124 8.44033 19.1658 8.43929C19.6997 9.51168 20 10.7208 20 12.0001C20 16.4184 16.4183 20.0001 12 20.0001C7.58172 20.0001 4 16.4184 4 12.0001C4 7.58184 7.58172 4.00012 12 4.00012C13.2793 4.00012 14.4884 4.30038 15.5607 4.83427C15.5597 4.88761 15.5629 4.94136 15.5706 4.99502L15.8231 6.76277L15.4765 7.10937C14.4957 6.41091 13.2958 6.00012 12 6.00012C8.68629 6.00012 6 8.68641 6 12.0001C6 15.3138 8.68629 18.0001 12 18.0001C15.3137 18.0001 18 15.3138 18 12.0001C18 10.7043 17.5892 9.50441 16.8907 8.52359L17.2374 8.17692ZM12 8.00012C12.7418 8.00012 13.4365 8.20205 14.032 8.55394L12.518 10.0679C12.3528 10.0237 12.1792 10.0001 12 10.0001C10.8954 10.0001 10 10.8956 10 12.0001C10 13.1047 10.8954 14.0001 12 14.0001C13.1046 14.0001 14 13.1047 14 12.0001C14 11.821 13.9764 11.6473 13.9323 11.4821L15.4462 9.96815C15.7981 10.5637 16 11.2583 16 12.0001C16 14.2093 14.2091 16.0001 12 16.0001C9.79086 16.0001 8 14.2093 8 12.0001C8 9.79098 9.79086 8.00012 12 8.00012Z" fill="currentColor"/>
</svg>
