<svg width="146" height="106" viewBox="0 0 146 106" fill="none" xmlns="http://www.w3.org/2000/svg">
<path d="M0 40.9392V35.1291C0 32.957 1.60577 31.1194 3.75825 30.8283L70.9997 21.7328C71.7682 21.6288 72.5471 21.6283 73.3157 21.7313L141.249 30.8315C143.404 31.1202 145.012 32.9589 145.012 35.1331V40.9392C145.012 43.3361 143.069 45.2792 140.672 45.2792H4.34C1.94308 45.2792 0 43.3362 0 40.9392Z" fill="#191B1F"/>
<path d="M140.267 42.0195L127.893 99.2943C127.086 103.039 124.056 105.682 120.581 105.682H23.8548C20.3727 105.682 17.3496 103.039 16.543 99.2943L4.16211 42.0195H140.267Z" fill="#191B1F"/>
<path d="M87.0079 0C92.2408 8.97962e-05 97.076 2.79193 99.6925 7.32375L111.497 27.7692C112.545 29.5854 111.923 31.9077 110.107 32.9564C108.291 34.005 105.968 33.3829 104.919 31.5667L93.1152 11.1213C91.8555 8.93928 89.5274 7.59509 87.0079 7.595H58.0789C55.5594 7.59504 53.2314 8.93928 51.9716 11.1213L38.6008 34.2803C37.5522 36.0966 35.2295 36.7191 33.4132 35.6705C31.5969 34.6218 30.9744 32.2991 32.023 30.4828L45.3937 7.32375C48.0102 2.79179 52.8459 3.97459e-05 58.0789 0H87.0079Z" fill="#191B1F"/>
<path d="M68.557 56.8856H61.8278C61.4451 56.8856 61.1348 57.1916 61.1348 57.569V79.2389C61.1348 79.6164 61.4451 79.9223 61.8278 79.9223H68.557C68.9398 79.9223 69.2501 79.6164 69.2501 79.2389V57.569C69.2501 57.1916 68.9398 56.8856 68.557 56.8856Z" fill="white"/>
<path d="M111.938 60.9387L105.407 59.3165C105.036 59.2242 104.659 59.4511 104.567 59.8232L99.2596 81.189C99.1672 81.5612 99.3934 81.9376 99.7649 82.0299L106.296 83.6521C106.667 83.7444 107.043 83.5175 107.136 83.1454L112.443 61.7796C112.535 61.4075 112.309 61.031 111.938 60.9387Z" fill="white"/>
<path d="M65.1704 45.9922C67.5884 45.9922 69.3531 47.768 69.3531 50.0464C69.3531 52.3248 67.5884 54.0392 65.1704 54.0392C62.7523 54.0392 61.0547 52.3304 61.0547 50.0464C61.0547 47.768 62.8194 45.9922 65.1704 45.9922Z" fill="white"/>
<path d="M56.6445 57.6978C59.0346 64.304 55.6058 71.5972 49.0051 73.9984L44.9285 75.4839C44.5711 75.6123 44.3924 76.0032 44.5208 76.3606L47.7374 85.195C47.8658 85.5524 47.6816 85.9433 47.3297 86.0717L40.8965 88.4116C40.5391 88.54 40.1482 88.3557 40.0198 88.0039L27.9296 54.7939C27.8012 54.4365 27.9854 54.0456 28.3373 53.9172L40.1315 49.6229C47.9049 46.7916 53.7406 49.6731 56.6389 57.6978H56.6445ZM46.0062 67.1744C49.2731 65.9849 50.1666 63.9131 48.9101 60.462C47.6201 56.9216 45.6265 55.9499 42.3541 57.1394L38.7298 58.4573C38.3724 58.5857 38.1937 58.9766 38.3221 59.334L41.5052 68.0791C41.6337 68.4364 42.0246 68.6151 42.382 68.4867L46.0062 67.1688V67.1744Z" fill="white"/>
<path d="M82.6199 70.6748L81.1345 80.2575C81.0786 80.6317 80.7268 80.8886 80.3527 80.8271L73.7799 79.8052C73.4057 79.7494 73.1488 79.3976 73.2103 79.0234L78.6271 44.1158C78.6829 43.7416 79.0348 43.4848 79.4089 43.5462L85.9817 44.5681C86.3559 44.624 86.6128 44.9758 86.5513 45.3499L83.9211 62.2928C83.815 62.9852 84.6973 63.3705 85.1329 62.8233L94.0903 51.5374C94.241 51.3475 94.4867 51.247 94.7325 51.2861L101.903 52.3973C102.422 52.4755 102.662 53.0898 102.333 53.503L90.7676 67.8492C90.667 67.972 90.6447 68.1396 90.7061 68.2847L99.2837 88.9579C99.4122 89.2651 99.1553 89.6001 98.8258 89.5443L91.0803 88.3436C90.9351 88.3213 90.8122 88.2264 90.7508 88.0868L83.4353 70.5687C83.2677 70.1722 82.6869 70.2448 82.6199 70.6693V70.6748Z" fill="white"/>
<path d="M111.759 49.5738C114.1 50.1778 115.369 52.332 114.799 54.5414C114.229 56.7508 112.099 57.9673 109.758 57.3633C107.417 56.7593 106.198 54.6794 106.763 52.476C107.333 50.2666 109.481 48.9871 111.759 49.5738Z" fill="white"/>
</svg>
