<svg width="146" height="106" viewBox="0 0 146 106" fill="none" xmlns="http://www.w3.org/2000/svg">
<path d="M0 40.9392V35.1291C0 32.957 1.60577 31.1194 3.75825 30.8283L70.9997 21.7328C71.7682 21.6288 72.5471 21.6283 73.3157 21.7313L141.249 30.8315C143.404 31.1202 145.012 32.9589 145.012 35.1331V40.9392C145.012 43.3361 143.069 45.2792 140.672 45.2792H4.34C1.94308 45.2792 0 43.3362 0 40.9392Z" fill="#191B1F"/>
<path d="M140.267 42.0195L127.893 99.2943C127.086 103.039 124.056 105.682 120.581 105.682H23.8548C20.3727 105.682 17.3496 103.039 16.543 99.2943L4.16211 42.0195H140.267Z" fill="#191B1F"/>
<path d="M87.0079 0C92.2408 8.97962e-05 97.076 2.79193 99.6925 7.32375L111.497 27.7692C112.545 29.5854 111.923 31.9077 110.107 32.9564C108.291 34.005 105.968 33.3829 104.919 31.5667L93.1152 11.1213C91.8555 8.93928 89.5274 7.59509 87.0079 7.595H58.0789C55.5594 7.59504 53.2314 8.93928 51.9716 11.1213L38.6008 34.2803C37.5522 36.0966 35.2295 36.7191 33.4132 35.6705C31.5969 34.6218 30.9744 32.2991 32.023 30.4828L45.3937 7.32375C48.0102 2.79179 52.8459 3.97459e-05 58.0789 0H87.0079Z" fill="#191B1F"/>
</svg>
