<svg width="77" height="56" viewBox="0 0 77 56" fill="none" xmlns="http://www.w3.org/2000/svg">
<path d="M72.9006 23.993H3.94276C1.76523 23.993 0 22.2277 0 20.0502C0 18.0769 1.45878 16.4075 3.41425 16.143L37.078 11.5895C37.8465 11.4855 38.6254 11.485 39.394 11.588L73.4238 16.1466C75.3804 16.4087 76.8412 18.0782 76.8412 20.0523C76.8412 22.2287 75.0769 23.993 72.9006 23.993Z" fill="#40454E"/>
<path d="M74.3281 22.2657L67.771 52.6153C67.3436 54.5995 65.7382 55.9999 63.8965 55.9999H12.6421C10.7969 55.9999 9.19501 54.5995 8.7676 52.6153L2.20703 22.2657H74.3281Z" fill="#40454E"/>
<path d="M46.1053 0C48.8781 4.75825e-05 51.4403 1.47942 52.8268 3.88081L59.0817 14.7147C59.6373 15.6772 59.3077 16.9077 58.3454 17.4634C57.383 18.019 56.1522 17.6894 55.5965 16.727L49.3415 5.89309C48.674 4.73687 47.4403 4.02459 46.1053 4.02455H30.776C29.4409 4.02457 28.2073 4.73687 27.5397 5.89309L20.4547 18.1649C19.899 19.1274 18.6682 19.4572 17.7058 18.9016C16.7433 18.3459 16.4135 17.1151 16.9691 16.1526L24.0542 3.88081C25.4407 1.47935 28.003 2.10611e-05 30.776 0H46.1053Z" fill="#40454E"/>
<path d="M36.3275 30.1432H32.7618C32.559 30.1432 32.3945 30.3053 32.3945 30.5053V41.9881C32.3945 42.1881 32.559 42.3502 32.7618 42.3502H36.3275C36.5303 42.3502 36.6948 42.1881 36.6948 41.9881V30.5053C36.6948 30.3053 36.5303 30.1432 36.3275 30.1432Z" fill="white"/>
<path d="M59.315 32.2908L55.8545 31.4312C55.6576 31.3823 55.4583 31.5025 55.4094 31.6997L52.597 43.0213C52.548 43.2185 52.6679 43.418 52.8648 43.4669L56.3253 44.3265C56.5222 44.3754 56.7215 44.2552 56.7704 44.058L59.5828 32.7364C59.6318 32.5392 59.5119 32.3397 59.315 32.2908Z" fill="white"/>
<path d="M34.5324 24.3711C35.8137 24.3711 36.7488 25.3121 36.7488 26.5194C36.7488 27.7267 35.8137 28.6352 34.5324 28.6352C33.2511 28.6352 32.3516 27.7297 32.3516 26.5194C32.3516 25.3121 33.2866 24.3711 34.5324 24.3711Z" fill="white"/>
<path d="M30.0149 30.5735C31.2814 34.0741 29.4645 37.9387 25.9668 39.2111L23.8066 39.9982C23.6172 40.0663 23.5225 40.2734 23.5906 40.4628L25.2951 45.1441C25.3631 45.3335 25.2655 45.5406 25.079 45.6087L21.6701 46.8485C21.4807 46.9166 21.2736 46.8189 21.2055 46.6325L14.799 29.0348C14.731 28.8454 14.8286 28.6382 15.015 28.5702L21.2647 26.2946C25.3838 24.7944 28.4761 26.3213 30.0119 30.5735H30.0149ZM24.3777 35.5951C26.1088 34.9648 26.5823 33.867 25.9165 32.0382C25.2329 30.1622 24.1765 29.6473 22.4425 30.2776L20.522 30.9759C20.3326 31.044 20.2379 31.2511 20.306 31.4405L21.9927 36.0745C22.0607 36.2638 22.2679 36.3585 22.4573 36.2905L24.3777 35.5921V35.5951Z" fill="white"/>
<path d="M43.7781 37.4501L42.9909 42.5279C42.9613 42.7261 42.7749 42.8623 42.5766 42.8297L39.0938 42.2882C38.8955 42.2586 38.7594 42.0722 38.7919 41.8739L41.6623 23.3766C41.6919 23.1783 41.8783 23.0422 42.0766 23.0748L45.5595 23.6163C45.7577 23.6459 45.8938 23.8323 45.8613 24.0305L44.4675 33.0085C44.4113 33.3754 44.8789 33.5796 45.1097 33.2896L49.8561 27.3092C49.936 27.2086 50.0662 27.1554 50.1964 27.1761L53.9959 27.7649C54.2711 27.8064 54.3984 28.1319 54.2238 28.3508L48.0954 35.9528C48.0422 36.0179 48.0303 36.1066 48.0629 36.1836L52.6081 47.1382C52.6762 47.3009 52.54 47.4785 52.3655 47.4489L48.2611 46.8127C48.1842 46.8008 48.1191 46.7505 48.0866 46.6765L44.2101 37.3938C44.1213 37.1837 43.8136 37.2222 43.7781 37.4471V37.4501Z" fill="white"/>
<path d="M59.2203 26.2686C60.4608 26.5887 61.1332 27.7301 60.8312 28.9009C60.5292 30.0716 59.4003 30.7163 58.1598 30.3962C56.9192 30.0761 56.2738 28.974 56.5731 27.8065C56.8751 26.6357 58.0132 25.9577 59.2203 26.2686Z" fill="white"/>
</svg>
