<svg width="24" height="24" viewBox="16 16 24 24" fill="none" xmlns="http://www.w3.org/2000/svg">

<path d="M29 21C29 20.4477 28.5523 20 28 20C27.4477 20 27 20.4477 27 21V27H21C20.4477 27 20 27.4477 20 28C20 28.5523 20.4477 29 21 29H27V35C27 35.5523 27.4477 36 28 36C28.5523 36 29 35.5523 29 35V29H35C35.5523 29 36 28.5523 36 28C36 27.4477 35.5523 27 35 27H29V21Z" fill="currentColor"/>
<path d="M69 21C69 20.4477 68.5523 20 68 20C67.4477 20 67 20.4477 67 21V27H61C60.4477 27 60 27.4477 60 28C60 28.5523 60.4477 29 61 29H67V35C67 35.5523 67.4477 36 68 36C68.5523 36 69 35.5523 69 35V29H75C75.5523 29 76 28.5523 76 28C76 27.4477 75.5523 27 75 27H69V21Z" fill="currentColor"/>
</svg>
