<svg width="24" height="24" viewBox="16 16 24 24" fill="none" xmlns="http://www.w3.org/2000/svg">

<path fill-rule="evenodd" clip-rule="evenodd" d="M19 22C19 21.4477 19.4477 21 20 21H36C36.5523 21 37 21.4477 37 22C37 22.5523 36.5523 23 36 23H20C19.4477 23 19 22.5523 19 22Z" fill="currentColor"/>
<path fill-rule="evenodd" clip-rule="evenodd" d="M19 26C19 25.4477 19.4477 25 20 25H30C30.5523 25 31 25.4477 31 26C31 26.5523 30.5523 27 30 27H20C19.4477 27 19 26.5523 19 26Z" fill="currentColor"/>
<path fill-rule="evenodd" clip-rule="evenodd" d="M19 30C19 29.4477 19.4477 29 20 29H36C36.5523 29 37 29.4477 37 30C37 30.5523 36.5523 31 36 31H20C19.4477 31 19 30.5523 19 30Z" fill="currentColor"/>
<path fill-rule="evenodd" clip-rule="evenodd" d="M19 34C19 33.4477 19.4477 33 20 33H30C30.5523 33 31 33.4477 31 34C31 34.5523 30.5523 35 30 35H20C19.4477 35 19 34.5523 19 34Z" fill="currentColor"/>
<path fill-rule="evenodd" clip-rule="evenodd" d="M59 22C59 21.4477 59.4477 21 60 21H76C76.5523 21 77 21.4477 77 22C77 22.5523 76.5523 23 76 23H60C59.4477 23 59 22.5523 59 22Z" fill="currentColor"/>
<path fill-rule="evenodd" clip-rule="evenodd" d="M59 26C59 25.4477 59.4477 25 60 25H70C70.5523 25 71 25.4477 71 26C71 26.5523 70.5523 27 70 27H60C59.4477 27 59 26.5523 59 26Z" fill="currentColor"/>
<path fill-rule="evenodd" clip-rule="evenodd" d="M59 30C59 29.4477 59.4477 29 60 29H76C76.5523 29 77 29.4477 77 30C77 30.5523 76.5523 31 76 31H60C59.4477 31 59 30.5523 59 30Z" fill="currentColor"/>
<path fill-rule="evenodd" clip-rule="evenodd" d="M59 34C59 33.4477 59.4477 33 60 33H70C70.5523 33 71 33.4477 71 34C71 34.5523 70.5523 35 70 35H60C59.4477 35 59 34.5523 59 34Z" fill="currentColor"/>
</svg>
