<svg width="24" height="24" viewBox="16 16 24 24" fill="none" xmlns="http://www.w3.org/2000/svg">

<path d="M19.7071 25.207C19.3166 25.5975 18.6834 25.5975 18.2929 25.207C17.9024 24.8164 17.9024 24.1833 18.2929 23.7927L21.5858 20.4998C22.3668 19.7188 23.6332 19.7188 24.4142 20.4998L27.7071 23.7927C28.0976 24.1833 28.0976 24.8164 27.7071 25.207C27.3166 25.5975 26.6834 25.5975 26.2929 25.207L24 22.9141V34.9998C24 35.5521 23.5523 35.9998 23 35.9998C22.4477 35.9998 22 35.5521 22 34.9998V22.9141L19.7071 25.207Z" fill="currentColor"/>
<path d="M34 20.9998C34 20.4476 33.5523 19.9998 33 19.9998C32.4477 19.9998 32 20.4476 32 20.9998V33.0856L29.7071 30.7927C29.3166 30.4022 28.6834 30.4022 28.2929 30.7927C27.9024 31.1833 27.9024 31.8164 28.2929 32.207L31.5858 35.4998C32.3668 36.2809 33.6332 36.2809 34.4142 35.4998L37.7071 32.207C38.0976 31.8164 38.0976 31.1833 37.7071 30.7927C37.3166 30.4022 36.6834 30.4022 36.2929 30.7927L34 33.0856V20.9998Z" fill="currentColor"/>
<path d="M59.7071 25.207C59.3166 25.5975 58.6834 25.5975 58.2929 25.207C57.9024 24.8164 57.9024 24.1833 58.2929 23.7927L61.5858 20.4998C62.3668 19.7188 63.6332 19.7188 64.4142 20.4998L67.7071 23.7927C68.0976 24.1833 68.0976 24.8164 67.7071 25.207C67.3166 25.5975 66.6834 25.5975 66.2929 25.207L64 22.9141V34.9998C64 35.5521 63.5523 35.9998 63 35.9998C62.4477 35.9998 62 35.5521 62 34.9998V22.9141L59.7071 25.207Z" fill="currentColor"/>
<path d="M74 20.9998C74 20.4476 73.5523 19.9998 73 19.9998C72.4477 19.9998 72 20.4476 72 20.9998V33.0856L69.7071 30.7927C69.3166 30.4022 68.6834 30.4022 68.2929 30.7927C67.9024 31.1833 67.9024 31.8164 68.2929 32.207L71.5858 35.4998C72.3668 36.2809 73.6332 36.2809 74.4142 35.4998L77.7071 32.207C78.0976 31.8164 78.0976 31.1833 77.7071 30.7927C77.3166 30.4022 76.6834 30.4022 76.2929 30.7927L74 33.0856V20.9998Z" fill="currentColor"/>
</svg>
