<svg width="24" height="24" viewBox="16 16 24 24" fill="none" xmlns="http://www.w3.org/2000/svg">

<path d="M29.2929 33.7929C28.9024 34.1834 28.9024 34.8166 29.2929 35.2071C29.6834 35.5976 30.3166 35.5976 30.7071 35.2071L36.5 29.4142C37.281 28.6332 37.281 27.3668 36.5 26.5858L30.7071 20.7929C30.3166 20.4024 29.6834 20.4024 29.2929 20.7929C28.9024 21.1834 28.9024 21.8166 29.2929 22.2071L34.0858 27H20C19.4477 27 19 27.4477 19 28C19 28.5523 19.4477 29 20 29H34.0858L29.2929 33.7929Z" fill="currentColor"/>
<path d="M69.2929 33.7929C68.9024 34.1834 68.9024 34.8166 69.2929 35.2071C69.6834 35.5976 70.3166 35.5976 70.7071 35.2071L76.5 29.4142C77.281 28.6332 77.281 27.3668 76.5 26.5858L70.7071 20.7929C70.3166 20.4024 69.6834 20.4024 69.2929 20.7929C68.9024 21.1834 68.9024 21.8166 69.2929 22.2071L74.0858 27H60C59.4477 27 59 27.4477 59 28C59 28.5523 59.4477 29 60 29H74.0858L69.2929 33.7929Z" fill="currentColor"/>
</svg>
