<svg width="24" height="24" color="#6F767E" viewBox="16 16 24 24" fill="none" xmlns="http://www.w3.org/2000/svg">

<path fill-rule="evenodd" clip-rule="evenodd" d="M34.7002 23.6141C33.5286 22.4426 31.6291 22.4426 30.4576 23.6141L24.8007 29.271C24.4102 29.6615 24.4102 30.2947 24.8007 30.6852C25.1912 31.0757 25.8244 31.0757 26.2149 30.6852L31.8718 25.0284C32.2623 24.6378 32.8955 24.6378 33.286 25.0284C33.6765 25.4189 33.6765 26.052 33.286 26.4426L27.6291 32.0994C26.4576 33.271 24.5581 33.271 23.3865 32.0994C22.2149 30.9279 22.2149 29.0284 23.3865 27.8568L29.0433 22.1999C30.996 20.2473 34.1618 20.2473 36.1144 22.1999C38.067 24.1526 38.067 27.3184 36.1144 29.271L30.4576 34.9279C27.7239 37.6615 23.2917 37.6615 20.5581 34.9279C17.8244 32.1942 17.8244 27.762 20.5581 25.0284L26.2149 19.3715C26.6054 18.981 27.2386 18.981 27.6291 19.3715C28.0197 19.762 28.0197 20.3952 27.6291 20.7857L21.9723 26.4426C20.0197 28.3952 20.0197 31.561 21.9723 33.5136C23.9249 35.4663 27.0907 35.4663 29.0433 33.5136L34.7002 27.8568C35.8718 26.6852 35.8718 24.7857 34.7002 23.6141Z" fill="currentColor"/>
<path fill-rule="evenodd" clip-rule="evenodd" d="M74.7002 23.6141C73.5286 22.4426 71.6291 22.4426 70.4576 23.6141L64.8007 29.271C64.4102 29.6615 64.4102 30.2947 64.8007 30.6852C65.1912 31.0757 65.8244 31.0757 66.2149 30.6852L71.8718 25.0284C72.2623 24.6378 72.8955 24.6378 73.286 25.0284C73.6765 25.4189 73.6765 26.052 73.286 26.4426L67.6291 32.0994C66.4576 33.271 64.5581 33.271 63.3865 32.0994C62.2149 30.9279 62.2149 29.0284 63.3865 27.8568L69.0433 22.1999C70.996 20.2473 74.1618 20.2473 76.1144 22.1999C78.067 24.1526 78.067 27.3184 76.1144 29.271L70.4576 34.9279C67.7239 37.6615 63.2917 37.6615 60.5581 34.9279C57.8244 32.1942 57.8244 27.762 60.5581 25.0284L66.2149 19.3715C66.6054 18.981 67.2386 18.981 67.6291 19.3715C68.0197 19.762 68.0197 20.3952 67.6291 20.7857L61.9723 26.4426C60.0197 28.3952 60.0197 31.561 61.9723 33.5136C63.9249 35.4663 67.0907 35.4663 69.0433 33.5136L74.7002 27.8568C75.8718 26.6852 75.8718 24.7857 74.7002 23.6141Z" fill="currentColor"/>
</svg>
