<svg width="24" height="24" color="#6F767E" viewBox="16 16 24 24" fill="none" xmlns="http://www.w3.org/2000/svg">

<path fill-rule="evenodd" clip-rule="evenodd" d="M19 18C19.5523 18 20 18.4477 20 19V35C20 35.5523 20.4477 36 21 36H37C37.5523 36 38 36.4477 38 37C38 37.5523 37.5523 38 37 38H21C19.3431 38 18 36.6569 18 35V19C18 18.4477 18.4477 18 19 18Z" fill="currentColor"/>
<path fill-rule="evenodd" clip-rule="evenodd" d="M23 24C23.5523 24 24 24.4477 24 25V33C24 33.5523 23.5523 34 23 34C22.4477 34 22 33.5523 22 33V25C22 24.4477 22.4477 24 23 24Z" fill="currentColor"/>
<path fill-rule="evenodd" clip-rule="evenodd" d="M27 30C27.5523 30 28 30.4477 28 31V33C28 33.5523 27.5523 34 27 34C26.4477 34 26 33.5523 26 33V31C26 30.4477 26.4477 30 27 30Z" fill="currentColor"/>
<path fill-rule="evenodd" clip-rule="evenodd" d="M31 20C31.5523 20 32 20.4477 32 21V33C32 33.5523 31.5523 34 31 34C30.4477 34 30 33.5523 30 33V21C30 20.4477 30.4477 20 31 20Z" fill="currentColor"/>
<path fill-rule="evenodd" clip-rule="evenodd" d="M35 26C35.5523 26 36 26.4477 36 27V33C36 33.5523 35.5523 34 35 34C34.4477 34 34 33.5523 34 33V27C34 26.4477 34.4477 26 35 26Z" fill="currentColor"/>
<path fill-rule="evenodd" clip-rule="evenodd" d="M59 18C59.5523 18 60 18.4477 60 19V35C60 35.5523 60.4477 36 61 36H77C77.5523 36 78 36.4477 78 37C78 37.5523 77.5523 38 77 38H61C59.3431 38 58 36.6569 58 35V19C58 18.4477 58.4477 18 59 18Z" fill="currentColor"/>
<path fill-rule="evenodd" clip-rule="evenodd" d="M63 24C63.5523 24 64 24.4477 64 25V33C64 33.5523 63.5523 34 63 34C62.4477 34 62 33.5523 62 33V25C62 24.4477 62.4477 24 63 24Z" fill="currentColor"/>
<path fill-rule="evenodd" clip-rule="evenodd" d="M67 30C67.5523 30 68 30.4477 68 31V33C68 33.5523 67.5523 34 67 34C66.4477 34 66 33.5523 66 33V31C66 30.4477 66.4477 30 67 30Z" fill="currentColor"/>
<path fill-rule="evenodd" clip-rule="evenodd" d="M71 20C71.5523 20 72 20.4477 72 21V33C72 33.5523 71.5523 34 71 34C70.4477 34 70 33.5523 70 33V21C70 20.4477 70.4477 20 71 20Z" fill="currentColor"/>
<path fill-rule="evenodd" clip-rule="evenodd" d="M75 26C75.5523 26 76 26.4477 76 27V33C76 33.5523 75.5523 34 75 34C74.4477 34 74 33.5523 74 33V27C74 26.4477 74.4477 26 75 26Z" fill="currentColor"/>
</svg>
