<svg width="24" height="24" color="#6F767E" viewBox="16 16 24 24" fill="none" xmlns="http://www.w3.org/2000/svg">

<path fill-rule="evenodd" clip-rule="evenodd" d="M38 28C38 33.5228 33.5228 38 28 38C22.4772 38 18 33.5228 18 28C18 22.4772 22.4772 18 28 18C33.5228 18 38 22.4772 38 28ZM32.9056 34.3199C31.551 35.3729 29.8487 36 28 36C23.5817 36 20 32.4183 20 28C20 26.1513 20.6271 24.449 21.6801 23.0944L32.9056 34.3199ZM34.3199 32.9056L23.0944 21.6801C24.449 20.6271 26.1513 20 28 20C32.4183 20 36 23.5817 36 28C36 29.8487 35.3729 31.551 34.3199 32.9056Z" fill="currentColor"/>
<path fill-rule="evenodd" clip-rule="evenodd" d="M78 28C78 33.5228 73.5228 38 68 38C62.4772 38 58 33.5228 58 28C58 22.4772 62.4772 18 68 18C73.5228 18 78 22.4772 78 28ZM72.9056 34.3199C71.551 35.3729 69.8487 36 68 36C63.5817 36 60 32.4183 60 28C60 26.1513 60.6271 24.449 61.6801 23.0944L72.9056 34.3199ZM74.3199 32.9056L63.0944 21.6801C64.449 20.6271 66.1513 20 68 20C72.4183 20 76 23.5817 76 28C76 29.8487 75.3729 31.551 74.3199 32.9056Z" fill="currentColor"/>
</svg>
