<svg width="24" height="24" viewBox="16 16 24 24" fill="none" xmlns="http://www.w3.org/2000/svg">

<path fill-rule="evenodd" clip-rule="evenodd" d="M23 18C21.3431 18 20 19.3431 20 21V35C20 37.0601 22.3519 38.2361 24 37L27.7 34.225C27.8778 34.0917 28.1222 34.0917 28.3 34.225L32 37C33.6481 38.2361 36 37.0601 36 35V21C36 19.3431 34.6569 18 33 18H23ZM25 22C24.4477 22 24 22.4477 24 23C24 23.5523 24.4477 24 25 24H31C31.5523 24 32 23.5523 32 23C32 22.4477 31.5523 22 31 22H25Z" fill="currentColor"/>
<path fill-rule="evenodd" clip-rule="evenodd" d="M66.8 32.4C67.5111 31.8667 68.4889 31.8667 69.2 32.4L72.4 34.8C73.0592 35.2944 74 34.824 74 34V21C74 20.4477 73.5523 20 73 20H63C62.4477 20 62 20.4477 62 21V34C62 34.824 62.9408 35.2944 63.6 34.8L66.8 32.4ZM68 34L71.2 36.4C73.1777 37.8833 76 36.4721 76 34V21C76 19.3431 74.6569 18 73 18H63C61.3431 18 60 19.3431 60 21V34C60 36.4721 62.8223 37.8833 64.8 36.4L68 34Z" fill="currentColor"/>
<path fill-rule="evenodd" clip-rule="evenodd" d="M64 23C64 22.4477 64.4477 22 65 22H71C71.5523 22 72 22.4477 72 23C72 23.5523 71.5523 24 71 24H65C64.4477 24 64 23.5523 64 23Z" fill="currentColor"/>
</svg>
