<svg width="24" height="24" viewBox="16 16 24 24" fill="none" xmlns="http://www.w3.org/2000/svg">

<path d="M18 29C18 28.4477 18.4477 28 19 28H37C37.5523 28 38 28.4477 38 29V35C38 36.6569 36.6569 38 35 38H21C19.3431 38 18 36.6569 18 35V29Z" fill="currentColor"/>
<path d="M23 18C23.5523 18 24 18.4477 24 19V20H32V19C32 18.4477 32.4477 18 33 18C33.5523 18 34 18.4477 34 19V20H35C36.6569 20 38 21.3431 38 23V25C38 25.5523 37.5523 26 37 26H19C18.4477 26 18 25.5523 18 25V23C18 21.3431 19.3431 20 21 20H22V19C22 18.4477 22.4477 18 23 18Z" fill="currentColor"/>
<path fill-rule="evenodd" clip-rule="evenodd" d="M63 18C63.5523 18 64 18.4477 64 19V20H72V19C72 18.4477 72.4477 18 73 18C73.5523 18 74 18.4477 74 19V20H75C76.6569 20 78 21.3431 78 23V35C78 36.6569 76.6569 38 75 38H61C59.3431 38 58 36.6569 58 35V23C58 21.3431 59.3431 20 61 20H62V19C62 18.4477 62.4477 18 63 18ZM72 22V23C72 23.5523 72.4477 24 73 24C73.5523 24 74 23.5523 74 23V22H75C75.5523 22 76 22.4477 76 23V26H60V23C60 22.4477 60.4477 22 61 22H62V23C62 23.5523 62.4477 24 63 24C63.5523 24 64 23.5523 64 23V22H72ZM60 28V35C60 35.5523 60.4477 36 61 36H75C75.5523 36 76 35.5523 76 35V28H60Z" fill="currentColor"/>
</svg>
