<svg width="24" height="24" viewBox="16 16 24 24" fill="none" xmlns="http://www.w3.org/2000/svg">

<path fill-rule="evenodd" clip-rule="evenodd" d="M25.5 37C26.3284 37 27 36.3284 27 35.5C27 34.6716 26.3284 34 25.5 34C24.6716 34 24 34.6716 24 35.5C24 36.3284 24.6716 37 25.5 37Z" fill="currentColor"/>
<path fill-rule="evenodd" clip-rule="evenodd" d="M33.5 37C34.3284 37 35 36.3284 35 35.5C35 34.6716 34.3284 34 33.5 34C32.6716 34 32 34.6716 32 35.5C32 36.3284 32.6716 37 33.5 37Z" fill="currentColor"/>
<path d="M19 19C18.4477 19 18 19.4477 18 20C18 20.5523 18.4477 21 19 21H19.4384C19.8973 21 20.2973 21.3123 20.4086 21.7575L22.6511 30.7276C22.985 32.0631 24.185 33 25.5616 33H33.3957C34.8018 33 36.0192 32.0234 36.3242 30.6508L37.4353 25.6508C37.8517 23.7773 36.426 22 34.5068 22H22.5308L22.3489 21.2724C22.015 19.9369 20.8151 19 19.4384 19H19Z" fill="currentColor"/>
<path fill-rule="evenodd" clip-rule="evenodd" d="M58 20C58 19.4477 58.4477 19 59 19H59.4384C60.8151 19 62.015 19.9369 62.3489 21.2724L62.5308 22H74.5068C76.426 22 77.8517 23.7773 77.4353 25.6508L76.3242 30.6508C76.0192 32.0234 74.8018 33 73.3957 33H65.5616C64.185 33 62.985 32.0631 62.6511 30.7276L60.4086 21.7575C60.2973 21.3123 59.8973 21 59.4384 21H59C58.4477 21 58 20.5523 58 20ZM63.0308 24L64.5914 30.2425C64.7027 30.6877 65.1027 31 65.5616 31H73.3957C73.8644 31 74.2702 30.6745 74.3718 30.2169L75.483 25.2169C75.6217 24.5924 75.1465 24 74.5068 24H63.0308Z" fill="currentColor"/>
<path fill-rule="evenodd" clip-rule="evenodd" d="M65.5 37C66.3284 37 67 36.3284 67 35.5C67 34.6716 66.3284 34 65.5 34C64.6716 34 64 34.6716 64 35.5C64 36.3284 64.6716 37 65.5 37Z" fill="currentColor"/>
<path fill-rule="evenodd" clip-rule="evenodd" d="M73.5 37C74.3284 37 75 36.3284 75 35.5C75 34.6716 74.3284 34 73.5 34C72.6716 34 72 34.6716 72 35.5C72 36.3284 72.6716 37 73.5 37Z" fill="currentColor"/>
</svg>
