<svg width="24" height="24" viewBox="0 0 24 24" fill="none" xmlns="http://www.w3.org/2000/svg">
<rect x="6" y="5" width="12" height="14" rx="6" fill="white"/>
<path fill-rule="evenodd" clip-rule="evenodd" d="M1.99994 12C1.99994 6.47715 6.47709 2 11.9999 2C17.5228 2 21.9999 6.47715 21.9999 12C21.9999 17.5228 17.5228 22 11.9999 22C6.47709 22 1.99994 17.5228 1.99994 12ZM16.6936 9.85438C17.0428 9.49362 17.0334 8.91809 16.6726 8.56891C16.3119 8.21972 15.7363 8.2291 15.3871 8.58986L10.664 13.4696L8.61364 11.3456C8.26494 10.9843 7.68943 10.9742 7.32819 11.3229C6.96695 11.6716 6.95679 12.2471 7.30548 12.6083L10.009 15.4091C10.1802 15.5864 10.416 15.6866 10.6624 15.6868C10.9089 15.6869 11.1449 15.587 11.3163 15.4099L16.6936 9.85438Z" fill="currentColor"/>
</svg>
