<svg width="24" height="24" viewBox="16 16 24 24" fill="none" xmlns="http://www.w3.org/2000/svg">

<path fill-rule="evenodd" clip-rule="evenodd" d="M36.7071 22.2929C37.0976 22.6834 37.0976 23.3166 36.7071 23.7071L28.1213 32.2929C26.9497 33.4645 25.0503 33.4645 23.8787 32.2929L20.2929 28.7071C19.9024 28.3166 19.9024 27.6834 20.2929 27.2929C20.6834 26.9024 21.3166 26.9024 21.7071 27.2929L25.2929 30.8787C25.6834 31.2692 26.3166 31.2692 26.7071 30.8787L35.2929 22.2929C35.6834 21.9024 36.3166 21.9024 36.7071 22.2929Z" fill="currentColor"/>
<path fill-rule="evenodd" clip-rule="evenodd" d="M76.7071 22.2929C77.0976 22.6834 77.0976 23.3166 76.7071 23.7071L68.1213 32.2929C66.9497 33.4645 65.0503 33.4645 63.8787 32.2929L60.2929 28.7071C59.9024 28.3166 59.9024 27.6834 60.2929 27.2929C60.6834 26.9024 61.3166 26.9024 61.7071 27.2929L65.2929 30.8787C65.6834 31.2692 66.3166 31.2692 66.7071 30.8787L75.2929 22.2929C75.6834 21.9024 76.3166 21.9024 76.7071 22.2929Z" fill="currentColor"/>
</svg>
