<svg width="24" height="24" viewBox="16 16 24 24" fill="none" xmlns="http://www.w3.org/2000/svg">

<path d="M34 21H22C21.4477 21 21 21.4477 21 22V34C21 34.5523 21.4477 35 22 35H34C34.5523 35 35 34.5523 35 34V22C35 21.4477 34.5523 21 34 21Z" fill="#F4F4F6"/>
<path fill-rule="evenodd" clip-rule="evenodd" d="M34 21H22C21.4477 21 21 21.4477 21 22V34C21 34.5523 21.4477 35 22 35H34C34.5523 35 35 34.5523 35 34V22C35 21.4477 34.5523 21 34 21ZM22 19C20.3431 19 19 20.3431 19 22V34C19 35.6569 20.3431 37 22 37H34C35.6569 37 37 35.6569 37 34V22C37 20.3431 35.6569 19 34 19H22Z" fill="currentColor"/>
<path fill-rule="evenodd" clip-rule="evenodd" d="M74 21H62C61.4477 21 61 21.4477 61 22V34C61 34.5523 61.4477 35 62 35H74C74.5523 35 75 34.5523 75 34V22C75 21.4477 74.5523 21 74 21ZM62 19C60.3431 19 59 20.3431 59 22V34C59 35.6569 60.3431 37 62 37H74C75.6569 37 77 35.6569 77 34V22C77 20.3431 75.6569 19 74 19H62Z" fill="currentColor"/>
</svg>
