<svg width="24" height="24" viewBox="16 16 24 24" fill="none" xmlns="http://www.w3.org/2000/svg">

<path fill-rule="evenodd" clip-rule="evenodd" d="M27.5429 35.2071C27.1524 34.8166 27.1524 34.1834 27.5429 33.7929L33.3358 28L27.5429 22.2071C27.1524 21.8166 27.1524 21.1834 27.5429 20.7929C27.9334 20.4024 28.5666 20.4024 28.9571 20.7929L34.75 26.5858C35.531 27.3668 35.531 28.6332 34.75 29.4142L28.9571 35.2071C28.5666 35.5976 27.9334 35.5976 27.5429 35.2071Z" fill="currentColor"/>
<path fill-rule="evenodd" clip-rule="evenodd" d="M21.2929 35.2071C20.9024 34.8166 20.9024 34.1834 21.2929 33.7929L27.0858 28L21.2929 22.2071C20.9024 21.8166 20.9024 21.1834 21.2929 20.7929C21.6834 20.4024 22.3166 20.4024 22.7071 20.7929L28.5 26.5858C29.2811 27.3668 29.281 28.6332 28.5 29.4142L22.7071 35.2071C22.3166 35.5976 21.6834 35.5976 21.2929 35.2071Z" fill="currentColor"/>
<path fill-rule="evenodd" clip-rule="evenodd" d="M67.5429 35.2071C67.1524 34.8166 67.1524 34.1834 67.5429 33.7929L73.3358 28L67.5429 22.2071C67.1524 21.8166 67.1524 21.1834 67.5429 20.7929C67.9334 20.4024 68.5666 20.4024 68.9571 20.7929L74.75 26.5858C75.531 27.3668 75.531 28.6332 74.75 29.4142L68.9571 35.2071C68.5666 35.5976 67.9334 35.5976 67.5429 35.2071Z" fill="currentColor"/>
<path fill-rule="evenodd" clip-rule="evenodd" d="M61.2929 35.2071C60.9024 34.8166 60.9024 34.1834 61.2929 33.7929L67.0858 28L61.2929 22.2071C60.9024 21.8166 60.9024 21.1834 61.2929 20.7929C61.6834 20.4024 62.3166 20.4024 62.7071 20.7929L68.5 26.5858C69.2811 27.3668 69.281 28.6332 68.5 29.4142L62.7071 35.2071C62.3166 35.5976 61.6834 35.5976 61.2929 35.2071Z" fill="currentColor"/>
</svg>
