<svg width="24" height="24" viewBox="16 16 24 24" fill="none" xmlns="http://www.w3.org/2000/svg">

<path fill-rule="evenodd" clip-rule="evenodd" d="M31.707 35.2071C32.0975 34.8166 32.0975 34.1834 31.707 33.7929L25.9141 28L31.707 22.2071C32.0975 21.8166 32.0975 21.1834 31.707 20.7929C31.3164 20.4024 30.6833 20.4024 30.2927 20.7929L24.4998 26.5858C23.7188 27.3668 23.7188 28.6332 24.4998 29.4142L30.2927 35.2071C30.6833 35.5976 31.3164 35.5976 31.707 35.2071Z" fill="currentColor"/>
<path fill-rule="evenodd" clip-rule="evenodd" d="M71.707 35.2071C72.0975 34.8166 72.0975 34.1834 71.707 33.7929L65.9141 28L71.707 22.2071C72.0975 21.8166 72.0975 21.1834 71.707 20.7929C71.3164 20.4024 70.6833 20.4024 70.2927 20.7929L64.4998 26.5858C63.7188 27.3668 63.7188 28.6332 64.4998 29.4142L70.2927 35.2071C70.6833 35.5976 71.3164 35.5976 71.707 35.2071Z" fill="currentColor"/>
</svg>
