<svg width="24" height="24" viewBox="16 16 24 24" fill="none" xmlns="http://www.w3.org/2000/svg">

<path fill-rule="evenodd" clip-rule="evenodd" d="M20.7929 28.457C21.1834 28.8475 21.8166 28.8475 22.2071 28.457L28 22.6641L33.7929 28.457C34.1834 28.8475 34.8166 28.8475 35.2071 28.457C35.5976 28.0664 35.5976 27.4333 35.2071 27.0427L29.4142 21.2498C28.6332 20.4688 27.3668 20.4688 26.5858 21.2498L20.7929 27.0427C20.4024 27.4333 20.4024 28.0664 20.7929 28.457Z" fill="currentColor"/>
<path fill-rule="evenodd" clip-rule="evenodd" d="M20.7929 34.707C21.1834 35.0975 21.8166 35.0975 22.2071 34.707L28 28.9141L33.7929 34.707C34.1834 35.0975 34.8166 35.0975 35.2071 34.707C35.5976 34.3164 35.5976 33.6833 35.2071 33.2927L29.4142 27.4998C28.6332 26.7188 27.3668 26.7188 26.5858 27.4998L20.7929 33.2927C20.4024 33.6833 20.4024 34.3164 20.7929 34.707Z" fill="currentColor"/>
<path fill-rule="evenodd" clip-rule="evenodd" d="M60.7929 28.457C61.1834 28.8475 61.8166 28.8475 62.2071 28.457L68 22.6641L73.7929 28.457C74.1834 28.8475 74.8166 28.8475 75.2071 28.457C75.5976 28.0664 75.5976 27.4333 75.2071 27.0427L69.4142 21.2498C68.6332 20.4688 67.3668 20.4688 66.5858 21.2498L60.7929 27.0427C60.4024 27.4333 60.4024 28.0664 60.7929 28.457Z" fill="currentColor"/>
<path fill-rule="evenodd" clip-rule="evenodd" d="M60.7929 34.707C61.1834 35.0975 61.8166 35.0975 62.2071 34.707L68 28.9141L73.7929 34.707C74.1834 35.0975 74.8166 35.0975 75.2071 34.707C75.5976 34.3164 75.5976 33.6833 75.2071 33.2927L69.4142 27.4998C68.6332 26.7188 67.3668 26.7188 66.5858 27.4998L60.7929 33.2927C60.4024 33.6833 60.4024 34.3164 60.7929 34.707Z" fill="currentColor"/>
</svg>
