<svg width="24" height="24" viewBox="16 16 24 24" fill="none" xmlns="http://www.w3.org/2000/svg">

<path fill-rule="evenodd" clip-rule="evenodd" d="M28 38C33.5228 38 38 33.5228 38 28C38 22.4772 33.5228 18 28 18C22.4772 18 18 22.4772 18 28C18 33.5228 22.4772 38 28 38ZM24.2929 31.7071C23.9024 31.3166 23.9024 30.6834 24.2929 30.2929L26.5858 28L24.293 25.7071C23.9025 25.3166 23.9025 24.6834 24.293 24.2929C24.6835 23.9024 25.3167 23.9024 25.7072 24.2929L28 26.5858L30.2929 24.2929C30.6834 23.9024 31.3166 23.9024 31.7071 24.2929C32.0976 24.6834 32.0976 25.3166 31.7071 25.7071L29.4142 28L31.7072 30.2929C32.0977 30.6835 32.0977 31.3166 31.7072 31.7071C31.3167 32.0977 30.6835 32.0977 30.293 31.7071L28 29.4142L25.7071 31.7071C25.3166 32.0976 24.6834 32.0976 24.2929 31.7071Z" fill="currentColor"/>
<path d="M65.7071 24.2929C65.3166 23.9023 64.6834 23.9023 64.2929 24.2929C63.9024 24.6834 63.9024 25.3165 64.2929 25.7071L66.5858 28L64.2929 30.2929C63.9024 30.6834 63.9024 31.3166 64.2929 31.7071C64.6834 32.0976 65.3166 32.0976 65.7071 31.7071L68 29.4142L70.2929 31.7071C70.6834 32.0976 71.3166 32.0976 71.7071 31.7071C72.0976 31.3166 72.0976 30.6834 71.7071 30.2929L69.4142 28L71.7071 25.7071C72.0977 25.3166 72.0977 24.6834 71.7071 24.2929C71.3166 23.9024 70.6834 23.9024 70.2929 24.2929L68 26.5858L65.7071 24.2929Z" fill="currentColor"/>
<path fill-rule="evenodd" clip-rule="evenodd" d="M68 36C72.4183 36 76 32.4183 76 28C76 23.5817 72.4183 20 68 20C63.5817 20 60 23.5817 60 28C60 32.4183 63.5817 36 68 36ZM68 38C73.5228 38 78 33.5228 78 28C78 22.4772 73.5228 18 68 18C62.4772 18 58 22.4772 58 28C58 33.5228 62.4772 38 68 38Z" fill="currentColor"/>
</svg>
