<svg width="24" height="24" color="#6F767E" viewBox="16 16 24 24" fill="none" xmlns="http://www.w3.org/2000/svg">

<path fill-rule="evenodd" clip-rule="evenodd" d="M32 35C32 33.3431 33.3431 32 35 32H37C37.5523 32 38 32.4477 38 33C38 33.5523 37.5523 34 37 34H35C34.4477 34 34 34.4477 34 35V37C34 37.5523 33.5523 38 33 38C32.4477 38 32 37.5523 32 37V35Z" fill="currentColor"/>
<path fill-rule="evenodd" clip-rule="evenodd" d="M32 21C32 22.6569 33.3431 24 35 24H37C37.5523 24 38 23.5523 38 23C38 22.4477 37.5523 22 37 22H35C34.4477 22 34 21.5523 34 21V19C34 18.4477 33.5523 18 33 18C32.4477 18 32 18.4477 32 19V21Z" fill="currentColor"/>
<path fill-rule="evenodd" clip-rule="evenodd" d="M24 21C24 22.6569 22.6569 24 21 24H19C18.4477 24 18 23.5523 18 23C18 22.4477 18.4477 22 19 22H21C21.5523 22 22 21.5523 22 21V19C22 18.4477 22.4477 18 23 18C23.5523 18 24 18.4477 24 19V21Z" fill="currentColor"/>
<path fill-rule="evenodd" clip-rule="evenodd" d="M24 35C24 33.3431 22.6569 32 21 32H19C18.4477 32 18 32.4477 18 33C18 33.5523 18.4477 34 19 34H21C21.5523 34 22 34.4477 22 35V37C22 37.5523 22.4477 38 23 38C23.5523 38 24 37.5523 24 37V35Z" fill="currentColor"/>
<path fill-rule="evenodd" clip-rule="evenodd" d="M72 35C72 33.3431 73.3431 32 75 32H77C77.5523 32 78 32.4477 78 33C78 33.5523 77.5523 34 77 34H75C74.4477 34 74 34.4477 74 35V37C74 37.5523 73.5523 38 73 38C72.4477 38 72 37.5523 72 37V35Z" fill="currentColor"/>
<path fill-rule="evenodd" clip-rule="evenodd" d="M72 21C72 22.6569 73.3431 24 75 24H77C77.5523 24 78 23.5523 78 23C78 22.4477 77.5523 22 77 22H75C74.4477 22 74 21.5523 74 21V19C74 18.4477 73.5523 18 73 18C72.4477 18 72 18.4477 72 19V21Z" fill="currentColor"/>
<path fill-rule="evenodd" clip-rule="evenodd" d="M64 21C64 22.6569 62.6569 24 61 24H59C58.4477 24 58 23.5523 58 23C58 22.4477 58.4477 22 59 22H61C61.5523 22 62 21.5523 62 21V19C62 18.4477 62.4477 18 63 18C63.5523 18 64 18.4477 64 19V21Z" fill="currentColor"/>
<path fill-rule="evenodd" clip-rule="evenodd" d="M64 35C64 33.3431 62.6569 32 61 32H59C58.4477 32 58 32.4477 58 33C58 33.5523 58.4477 34 59 34H61C61.5523 34 62 34.4477 62 35V37C62 37.5523 62.4477 38 63 38C63.5523 38 64 37.5523 64 37V35Z" fill="currentColor"/>
</svg>
