<svg width="24" height="24" color="#6F767E" viewBox="16 16 24 24" fill="none" xmlns="http://www.w3.org/2000/svg">

<path d="M28 25.75C28 25.5511 28.0862 25.3603 28.2396 25.2197C28.3931 25.079 28.6012 25 28.8182 25C29.0352 25 29.2433 25.079 29.3967 25.2197C29.5502 25.3603 29.6364 25.5511 29.6364 25.75C29.6364 25.9489 29.5502 26.1397 29.3967 26.2803C29.2433 26.421 29.0352 26.5 28.8182 26.5C28.6012 26.5 28.3931 26.421 28.2396 26.2803C28.0862 26.1397 28 25.9489 28 25.75ZM37 22.75V33.25C36.9987 34.2442 36.5673 35.1973 35.8004 35.9003C35.0335 36.6033 33.9937 36.9988 32.9091 37H24.7273C23.9322 36.999 23.1546 36.7857 22.4897 36.3861C21.8248 35.9865 21.3013 35.418 20.9833 34.75H19.8182C19.6012 34.75 19.3931 34.671 19.2396 34.5303C19.0862 34.3897 19 34.1989 19 34C19 33.8011 19.0862 33.6103 19.2396 33.4697C19.3931 33.329 19.6012 33.25 19.8182 33.25H20.6364V31.75H19.8182C19.6012 31.75 19.3931 31.671 19.2396 31.5303C19.0862 31.3897 19 31.1989 19 31C19 30.8011 19.0862 30.6103 19.2396 30.4697C19.3931 30.329 19.6012 30.25 19.8182 30.25H20.6364V28.75H19.8182C19.6012 28.75 19.3931 28.671 19.2396 28.5303C19.0862 28.3897 19 28.1989 19 28C19 27.8011 19.0862 27.6103 19.2396 27.4697C19.3931 27.329 19.6012 27.25 19.8182 27.25H20.6364V25.75H19.8182C19.6012 25.75 19.3931 25.671 19.2396 25.5303C19.0862 25.3897 19 25.1989 19 25C19 24.8011 19.0862 24.6103 19.2396 24.4697C19.3931 24.329 19.6012 24.25 19.8182 24.25H20.6364V22.75H19.8182C19.6012 22.75 19.3931 22.671 19.2396 22.5303C19.0862 22.3897 19 22.1989 19 22C19 21.8011 19.0862 21.6103 19.2396 21.4697C19.3931 21.329 19.6012 21.25 19.8182 21.25H20.9833C21.3013 20.582 21.8248 20.0135 22.4897 19.6139C23.1546 19.2143 23.9322 19.001 24.7273 19H32.9091C33.9937 19.0012 35.0335 19.3967 35.8004 20.0997C36.5673 20.8027 36.9987 21.7558 37 22.75ZM26.3636 25.75C26.3636 26.3467 26.6222 26.919 27.0826 27.341C27.5429 27.7629 28.1672 28 28.8182 28C29.4692 28 30.0935 27.7629 30.5538 27.341C31.0141 26.919 31.2727 26.3467 31.2727 25.75C31.2727 25.1533 31.0141 24.581 30.5538 24.159C30.0935 23.7371 29.4692 23.5 28.8182 23.5C28.1672 23.5 27.5429 23.7371 27.0826 24.159C26.6222 24.581 26.3636 25.1533 26.3636 25.75ZM32.9091 32.5C32.7365 27.544 24.8983 27.5455 24.7273 32.5C24.7273 32.6989 24.8135 32.8897 24.9669 33.0303C25.1204 33.171 25.3285 33.25 25.5455 33.25C25.7624 33.25 25.9706 33.171 26.124 33.0303C26.2774 32.8897 26.3636 32.6989 26.3636 32.5C26.3636 31.9033 26.6222 31.331 27.0826 30.909C27.5429 30.4871 28.1672 30.25 28.8182 30.25C29.4692 30.25 30.0935 30.4871 30.5538 30.909C31.0141 31.331 31.2727 31.9033 31.2727 32.5C31.2727 32.6989 31.3589 32.8897 31.5124 33.0303C31.6658 33.171 31.8739 33.25 32.0909 33.25C32.3079 33.25 32.516 33.171 32.6695 33.0303C32.8229 32.8897 32.9091 32.6989 32.9091 32.5Z" fill="currentColor"/>
<path d="M72.9091 19H64.7273C63.9322 19.001 63.1546 19.2143 62.4897 19.6139C61.8248 20.0135 61.3013 20.582 60.9833 21.25H59.8182C59.6012 21.25 59.3931 21.329 59.2396 21.4697C59.0862 21.6103 59 21.8011 59 22C59 22.1989 59.0862 22.3897 59.2396 22.5303C59.3931 22.671 59.6012 22.75 59.8182 22.75H60.6364V24.25H59.8182C59.6012 24.25 59.3931 24.329 59.2396 24.4697C59.0862 24.6103 59 24.8011 59 25C59 25.1989 59.0862 25.3897 59.2396 25.5303C59.3931 25.671 59.6012 25.75 59.8182 25.75H60.6364V27.25H59.8182C59.6012 27.25 59.3931 27.329 59.2396 27.4697C59.0862 27.6103 59 27.8011 59 28C59 28.1989 59.0862 28.3897 59.2396 28.5303C59.3931 28.671 59.6012 28.75 59.8182 28.75H60.6364V30.25H59.8182C59.6012 30.25 59.3931 30.329 59.2396 30.4697C59.0862 30.6103 59 30.8011 59 31C59 31.1989 59.0862 31.3897 59.2396 31.5303C59.3931 31.671 59.6012 31.75 59.8182 31.75H60.6364V33.25H59.8182C59.6012 33.25 59.3931 33.329 59.2396 33.4697C59.0862 33.6103 59 33.8011 59 34C59 34.1989 59.0862 34.3897 59.2396 34.5303C59.3931 34.671 59.6012 34.75 59.8182 34.75H60.9833C61.3013 35.418 61.8248 35.9865 62.4897 36.3861C63.1546 36.7857 63.9322 36.999 64.7273 37H72.9091C73.9937 36.9988 75.0335 36.6033 75.8004 35.9003C76.5673 35.1973 76.9987 34.2442 77 33.25V22.75C76.9987 21.7558 76.5673 20.8027 75.8004 20.0997C75.0335 19.3967 73.9937 19.0012 72.9091 19ZM75.3636 33.25C75.3636 33.8467 75.105 34.419 74.6447 34.841C74.1844 35.2629 73.5601 35.5 72.9091 35.5H64.7273C64.0763 35.5 63.452 35.2629 62.9916 34.841C62.5313 34.419 62.2727 33.8467 62.2727 33.25V22.75C62.2727 22.1533 62.5313 21.581 62.9916 21.159C63.452 20.7371 64.0763 20.5 64.7273 20.5H72.9091C73.5601 20.5 74.1844 20.7371 74.6447 21.159C75.105 21.581 75.3636 22.1533 75.3636 22.75V33.25ZM68.8182 28C69.4692 28 70.0935 27.7629 70.5538 27.341C71.0141 26.919 71.2727 26.3467 71.2727 25.75C71.2727 25.1533 71.0141 24.581 70.5538 24.159C70.0935 23.7371 69.4692 23.5 68.8182 23.5C68.1672 23.5 67.5429 23.7371 67.0826 24.159C66.6222 24.581 66.3636 25.1533 66.3636 25.75C66.3636 26.3467 66.6222 26.919 67.0826 27.341C67.5429 27.7629 68.1672 28 68.8182 28ZM72.9091 32.5C72.9091 32.6989 72.8229 32.8897 72.6695 33.0303C72.516 33.171 72.3079 33.25 72.0909 33.25C71.8739 33.25 71.6658 33.171 71.5124 33.0303C71.3589 32.8897 71.2727 32.6989 71.2727 32.5C71.2727 31.9033 71.0141 31.331 70.5538 30.909C70.0935 30.4871 69.4692 30.25 68.8182 30.25C68.1672 30.25 67.5429 30.4871 67.0826 30.909C66.6222 31.331 66.3636 31.9033 66.3636 32.5C66.3636 32.6989 66.2774 32.8897 66.124 33.0303C65.9706 33.171 65.7624 33.25 65.5455 33.25C65.3285 33.25 65.1204 33.171 64.9669 33.0303C64.8135 32.8897 64.7273 32.6989 64.7273 32.5C64.8999 27.544 72.7381 27.5455 72.9091 32.5Z" fill="currentColor"/>
</svg>
