<svg width="24" height="24" viewBox="16 16 24 24" fill="none" xmlns="http://www.w3.org/2000/svg">

<path fill-rule="evenodd" clip-rule="evenodd" d="M23 21C23 19.3431 24.3431 18 26 18H31.2574C32.053 18 32.8161 18.3161 33.3787 18.8787L36.1213 21.6213C36.6839 22.1839 37 22.947 37 23.7426V31C37 32.6569 35.6569 34 34 34H33V35C33 36.6569 31.6569 38 30 38H22C20.3431 38 19 36.6569 19 35V25C19 23.3431 20.3431 22 22 22H23V21ZM23 31V24H22C21.4477 24 21 24.4477 21 25V35C21 35.5523 21.4477 36 22 36H30C30.5523 36 31 35.5523 31 35V34H26C24.3431 34 23 32.6569 23 31ZM31 20.2071V22C31 23.1046 31.8954 24 33 24H34.7929C35.2383 24 35.4614 23.4614 35.1464 23.1465L31.8536 19.8536C31.5386 19.5386 31 19.7617 31 20.2071Z" fill="currentColor"/>
<path d="M63 22H62C60.3431 22 59 23.3431 59 25V35C59 36.6569 60.3431 38 62 38H70C71.6569 38 73 36.6569 73 35V34H71V35C71 35.5523 70.5523 36 70 36H62C61.4477 36 61 35.5523 61 35V25C61 24.4477 61.4477 24 62 24H63V22Z" fill="currentColor"/>
<path fill-rule="evenodd" clip-rule="evenodd" d="M76.9902 23C76.9967 23.0804 77 23.1614 77 23.2426V31C77 32.6569 75.6569 34 74 34H66C64.3431 34 63 32.6569 63 31V21C63 19.3431 64.3431 18 66 18H71.7574C71.8386 18 71.9196 18.0033 72 18.0098V18L72.0107 18.0107C72.7136 18.0703 73.3761 18.3761 73.8787 18.8787L76.1213 21.1213C76.6239 21.6239 76.9298 22.2864 76.9893 22.9893L77 23H76.9902ZM74 32H66C65.4477 32 65 31.5523 65 31V21C65 20.4477 65.4477 20 66 20H71.7574C71.8399 20 71.9213 20.0102 72 20.0299V21C72 22.1046 72.8954 23 74 23H74.9701C74.9898 23.0787 75 23.1601 75 23.2426V31C75 31.5523 74.5523 32 74 32Z" fill="currentColor"/>
</svg>
