<svg width="24" height="24" color="#6F767E" viewBox="16 16 24 24" fill="none" xmlns="http://www.w3.org/2000/svg">

<path fill-rule="evenodd" clip-rule="evenodd" d="M28 18C28.5523 18 29 18.4477 29 19V20.0619C32.6187 20.5131 35.4869 23.3813 35.9381 27H37C37.5523 27 38 27.4477 38 28C38 28.5523 37.5523 29 37 29H35.9381C35.4869 32.6187 32.6187 35.4869 29 35.9381V37C29 37.5523 28.5523 38 28 38C27.4477 38 27 37.5523 27 37V35.9381C23.3813 35.4869 20.5131 32.6187 20.0619 29H19C18.4477 29 18 28.5523 18 28C18 27.4477 18.4477 27 19 27H20.0619C20.5131 23.3813 23.3813 20.5131 27 20.0619V19C27 18.4477 27.4477 18 28 18ZM28 34C31.3137 34 34 31.3137 34 28C34 24.6863 31.3137 22 28 22C24.6863 22 22 24.6863 22 28C22 31.3137 24.6863 34 28 34Z" fill="currentColor"/>
<path d="M31 28C31 29.6569 29.6569 31 28 31C26.3431 31 25 29.6569 25 28C25 26.3431 26.3431 25 28 25C29.6569 25 31 26.3431 31 28Z" fill="currentColor"/>
<path fill-rule="evenodd" clip-rule="evenodd" d="M68 29C68.5523 29 69 28.5523 69 28C69 27.4477 68.5523 27 68 27C67.4477 27 67 27.4477 67 28C67 28.5523 67.4477 29 68 29ZM68 31C69.6569 31 71 29.6569 71 28C71 26.3431 69.6569 25 68 25C66.3431 25 65 26.3431 65 28C65 29.6569 66.3431 31 68 31Z" fill="currentColor"/>
<path fill-rule="evenodd" clip-rule="evenodd" d="M68 18C68.5523 18 69 18.4477 69 19V20.0619C72.6187 20.5131 75.4869 23.3813 75.9381 27H77C77.5523 27 78 27.4477 78 28C78 28.5523 77.5523 29 77 29H75.9381C75.4869 32.6187 72.6187 35.4869 69 35.9381V37C69 37.5523 68.5523 38 68 38C67.4477 38 67 37.5523 67 37V35.9381C63.3813 35.4869 60.5131 32.6187 60.0619 29H59C58.4477 29 58 28.5523 58 28C58 27.4477 58.4477 27 59 27H60.0619C60.5131 23.3813 63.3813 20.5131 67 20.0619V19C67 18.4477 67.4477 18 68 18ZM68 34C71.3137 34 74 31.3137 74 28C74 24.6863 71.3137 22 68 22C64.6863 22 62 24.6863 62 28C62 31.3137 64.6863 34 68 34Z" fill="currentColor"/>
</svg>
