<svg width="24" height="24" color="#6F767E" viewBox="16 16 24 24" fill="none" xmlns="http://www.w3.org/2000/svg">

<path d="M18 28.5C18 29.6046 18.8954 30.5 20 30.5H21C21.5523 30.5 22 30.0523 22 29.5V20.5C22 19.9477 21.5523 19.5 21 19.5H20C18.8954 19.5 18 20.3954 18 21.5V28.5Z" fill="currentColor"/>
<path d="M38.3113 27.9748C38.6582 29.2468 37.701 30.5005 36.3826 30.5011L31.1401 30.5032C30.8149 30.5033 30.5764 30.8089 30.6553 31.1244L31.3707 33.9862C31.7384 35.457 31.0352 36.9858 29.6792 37.6638C28.8687 38.0691 27.9034 37.537 27.8132 36.6353L27.5954 34.4576C27.5334 33.8369 27.2794 33.2511 26.8689 32.7815L24.4943 30.0654C24.1756 29.7009 24 29.2332 24 28.749V21.5C24 20.3954 24.8954 19.5 26 19.5H33.7086C35.0615 19.5 36.2469 20.4055 36.6029 21.7106L38.3113 27.9748Z" fill="currentColor"/>
<path fill-rule="evenodd" clip-rule="evenodd" d="M62.8 30L65.3426 33.1783C65.7682 33.7102 66 34.3711 66 35.0523V36.5097C66 37.7348 67.2002 38.5999 68.3625 38.2125C70.4572 37.5143 71.7326 35.3959 71.3696 33.2179L71 31L75.1591 30.9982C77.1104 30.9974 78.5416 29.1634 78.0682 27.2704L76.5682 21.2722C76.2343 19.9368 75.0344 19 73.6578 19H64C63.9968 19 63.9936 19 63.9903 19H61C59.3431 19 58 20.3432 58 22V27C58 28.6569 59.3431 30 61 30H62.8ZM69.0272 31.3288C68.9306 30.749 69.0939 30.1561 69.4737 29.7076C69.8535 29.259 70.4114 29.0003 70.9991 29L75.1582 28.9982C75.8087 28.9979 76.2857 28.3866 76.1279 27.7556L74.628 21.7574C74.5166 21.3123 74.1167 21 73.6578 21H64V28.2984L66.9043 31.9289C67.6136 32.8154 68 33.917 68 35.0523V36.2074C68.9985 35.7398 69.582 34.6572 69.3969 33.5467L69.0272 31.3288ZM62 28V21H61C60.4477 21 60 21.4477 60 22V27C60 27.5523 60.4477 28 61 28H62Z" fill="currentColor"/>
</svg>
