<svg width="24" height="24" viewBox="16 16 24 24" fill="none" xmlns="http://www.w3.org/2000/svg">
<path d="M19.9857 37.1911L25.289 36.1305C25.4826 36.0918 25.6604 35.9966 25.8 35.857L32.4498 29.2072C32.8403 28.8166 32.8403 28.1835 32.4498 27.7929L28.2072 23.5503C27.8167 23.1598 27.1835 23.1598 26.793 23.5503L20.1432 30.2002C20.0036 30.3398 19.9084 30.5176 19.8697 30.7111L18.809 36.0144C18.6691 36.7142 19.286 37.3311 19.9857 37.1911Z" fill="currentColor"/>
<path d="M36.1925 21.2218L34.7783 19.8076C33.6068 18.6361 31.7073 18.6361 30.5357 19.8076L29.5504 20.7929C29.1599 21.1834 29.1599 21.8166 29.5504 22.2071L33.793 26.4498C34.1836 26.8403 34.8167 26.8403 35.2073 26.4498L36.1925 25.4645C37.3641 24.2929 37.3641 22.3934 36.1925 21.2218Z" fill="currentColor"/>
</svg>
