<svg width="20" height="20" viewBox="0 0 20 20" fill="none" color="#ADB1BB" xmlns="http://www.w3.org/2000/svg">
<path d="M3.32144 17.6594L7.74086 16.7755C7.90219 16.7433 8.05035 16.664 8.16669 16.5476L13.7082 11.0061C14.0336 10.6806 14.0336 10.153 13.7082 9.82758L10.1726 6.29204C9.84721 5.96661 9.31957 5.96661 8.99413 6.29205L3.45264 11.8336C3.33631 11.9499 3.25701 12.0981 3.22475 12.2594L2.34086 16.6788C2.22425 17.2619 2.73834 17.776 3.32144 17.6594Z" fill="currentColor"/>
<path d="M16.8271 4.35166L15.6486 3.17315C14.6723 2.19684 13.0894 2.19684 12.1131 3.17315L11.292 3.99422C10.9666 4.31966 10.9666 4.8473 11.292 5.17273L14.8275 8.70827C15.153 9.0337 15.6806 9.0337 16.006 8.70827L16.8271 7.8872C17.8034 6.91089 17.8034 5.32797 16.8271 4.35166Z" fill="currentColor"/>
</svg>
