<svg width="24" height="24" viewBox="16 16 24 24" fill="none" xmlns="http://www.w3.org/2000/svg">

<path fill-rule="evenodd" clip-rule="evenodd" d="M19 21C19 19.3431 20.3431 18 22 18H31.2574C32.053 18 32.8161 18.3161 33.3787 18.8787L36.1213 21.6213C36.6839 22.1839 37 22.947 37 23.7426V35C37 36.6569 35.6569 38 34 38H22C20.3431 38 19 36.6569 19 35V21ZM31 22V20.2071C31 19.7617 31.5386 19.5386 31.8536 19.8536L35.1464 23.1465C35.4614 23.4614 35.2383 24 34.7929 24H33C31.8954 24 31 23.1046 31 22ZM28 25C28.5523 25 29 25.4477 29 26V28H31C31.5523 28 32 28.4477 32 29C32 29.5523 31.5523 30 31 30H29L29 32C29 32.5523 28.5523 33 28 33C27.4477 33 27 32.5523 27 32L27 30H25C24.4477 30 24 29.5523 24 29C24 28.4477 24.4477 28 25 28H27V26C27 25.4477 27.4477 25 28 25Z" fill="currentColor"/>
<path fill-rule="evenodd" clip-rule="evenodd" d="M77 35C77 36.6569 75.6569 38 74 38H62C60.3431 38 59 36.6569 59 35V21C59 19.3431 60.3431 18 62 18H72L72.0107 18.0107C72.7136 18.0703 73.3761 18.3761 73.8787 18.8787L76.1213 21.1213C76.6239 21.6239 76.9297 22.2864 76.9893 22.9893L77 23V35ZM74 36H62C61.4477 36 61 35.5523 61 35V21C61 20.4477 61.4477 20 62 20H71V22C71 23.1046 71.8954 24 73 24H75V35C75 35.5523 74.5523 36 74 36Z" fill="currentColor"/>
<path d="M69 26C69 25.4477 68.5523 25 68 25C67.4477 25 67 25.4477 67 26V28H65C64.4477 28 64 28.4477 64 29C64 29.5523 64.4477 30 65 30H67L67 32C67 32.5523 67.4477 33 68 33C68.5523 33 69 32.5523 69 32L69 30H71C71.5523 30 72 29.5523 72 29C72 28.4477 71.5523 28 71 28H69V26Z" fill="currentColor"/>
</svg>
