<svg width="24" height="24" color="#6F767E" viewBox="16 16 24 24" fill="none" xmlns="http://www.w3.org/2000/svg">

<path fill-rule="evenodd" clip-rule="evenodd" d="M22 18C20.3431 18 19 19.3431 19 21V35C19 36.6569 20.3431 38 22 38H34C35.6569 38 37 36.6569 37 35V23.7426C37 22.947 36.6839 22.1839 36.1213 21.6213L33.3787 18.8787C32.8161 18.3161 32.053 18 31.2574 18H22ZM31 20.2071V22C31 23.1046 31.8954 24 33 24H34.7929C35.2383 24 35.4614 23.4614 35.1464 23.1464L31.8536 19.8535C31.5386 19.5386 31 19.7617 31 20.2071Z" fill="currentColor"/>
<path fill-rule="evenodd" clip-rule="evenodd" d="M77 35C77 36.6569 75.6569 38 74 38H62C60.3431 38 59 36.6569 59 35V21C59 19.3431 60.3431 18 62 18H72L72.0107 18.0107C72.7136 18.0703 73.3761 18.3761 73.8787 18.8787L76.1213 21.1213C76.6239 21.6239 76.9297 22.2864 76.9893 22.9893L77 23V35ZM74 36H62C61.4477 36 61 35.5523 61 35V21C61 20.4477 61.4477 20 62 20H71V22C71 23.1046 71.8954 24 73 24H75V35C75 35.5523 74.5523 36 74 36Z" fill="currentColor"/>
</svg>
