<svg width="24" height="24" color="#6F767E" viewBox="16 16 24 24" fill="none" xmlns="http://www.w3.org/2000/svg">

<path d="M36 18H20C18.8954 18 18 18.8954 18 20V21.9479C18 22.6065 18.3242 23.2229 18.8669 23.596L26 28.5V36.3415C26 37.0945 26.8008 37.5774 27.4668 37.2259L29.4668 36.1703C29.7947 35.9972 30 35.6568 30 35.2859V28.5L37.1331 23.596C37.6758 23.2229 38 22.6065 38 21.9479V20C38 18.8954 37.1046 18 36 18Z" fill="currentColor"/>
<path fill-rule="evenodd" clip-rule="evenodd" d="M66.2356 26.9274C66.7182 27.3065 67 27.8863 67 28.5V35.1761L69 34.4724V28.5C69 27.8863 69.2818 27.3065 69.7644 26.9274L75.6178 22.3282C75.8591 22.1386 76 21.8488 76 21.5419V20H60V21.5419C60 21.8488 60.1409 22.1386 60.3822 22.3282L66.2356 26.9274ZM76.8535 23.9008L71 28.5V35.1806C71 35.605 70.7322 35.9831 70.3319 36.124L66.3319 37.5314C65.6815 37.7602 65 37.2776 65 36.5881V28.5L59.1465 23.9008C58.4227 23.3321 58 22.4625 58 21.5419V20C58 18.8954 58.8954 18 60 18H76C77.1046 18 78 18.8954 78 20V21.5419C78 22.4625 77.5773 23.3321 76.8535 23.9008Z" fill="currentColor"/>
</svg>
