<svg width="24" height="24" viewBox="16 16 24 24" fill="none" xmlns="http://www.w3.org/2000/svg">

<path d="M28 38.0001C32.2526 38.0001 36 35.0001 36 31.0001C36 27.0001 33 25.0001 32 24.0001C30.5939 22.594 30.1521 20.7462 30.0254 19.4747C29.9552 18.7708 29.2759 18.2716 28.6864 18.6626C27.5335 19.4271 25.9038 20.9876 25 24.0001C24.3575 26.1419 25 28.0001 25 28.0001C25 28.0001 24 27.5001 23.5 26.0001C23.3353 25.506 23.1163 24.9034 22.8968 24.3174C22.5807 23.474 21.4407 23.4815 21.1629 24.3382C20.615 26.0283 20 28.3032 20 30.0001C20 35.0001 23.7474 38.0001 28 38.0001Z" fill="currentColor"/>
<path fill-rule="evenodd" clip-rule="evenodd" d="M65 28.0001L64.1056 29.789C64.8327 30.1526 65.7076 30.0398 66.3188 29.5037C66.9254 28.9716 67.1525 28.1276 66.8961 27.3637L66.895 27.3604C66.8941 27.3573 66.8927 27.3529 66.8911 27.3473C66.869 27.2731 66.7913 26.9881 66.7471 26.5852C66.6872 26.0389 66.6917 25.3214 66.9157 24.5748C67.3102 23.2597 67.8572 22.306 68.4049 21.6187C68.7587 22.8509 69.4053 24.2339 70.5858 25.4143C70.8113 25.6398 71.0573 25.8638 71.3107 26.0945C72.5658 27.237 74 28.5426 74 31.0001C74 33.6056 71.4622 36.0001 68 36.0001C64.7261 36.0001 62 33.7737 62 30.0001C62 29.426 62.0937 28.733 62.2435 27.9963C62.4946 28.3949 62.7654 28.719 63.0233 28.9768C63.2736 29.2272 63.5087 29.4122 63.6975 29.5429C63.8277 29.6331 63.9622 29.717 64.1038 29.7881C64.1038 29.7881 64.1056 29.789 65 28.0001ZM64.9616 24.1332C64.8198 24.6449 64.7499 25.1384 64.7252 25.5917C64.6492 26.9856 65 28.0001 65 28.0001C65 28.0001 64 27.5001 63.5 26.0001C63.3353 25.506 63.1163 24.9034 62.8968 24.3174C62.8905 24.3008 62.884 24.2845 62.8772 24.2686C62.5362 23.4746 61.4352 23.4983 61.1629 24.3382C60.615 26.0283 60 28.3032 60 30.0001C60 35.0001 63.7474 38.0001 68 38.0001C72.2526 38.0001 76 35.0001 76 31.0001C76 27.5716 73.7959 25.6124 72.5364 24.4928C72.3265 24.3062 72.1429 24.143 72 24.0001C70.5939 22.594 70.1521 20.7462 70.0254 19.4747C69.9552 18.7708 69.2759 18.2716 68.6864 18.6626C66.8011 19.9129 65.5575 21.9825 64.9616 24.1332Z" fill="currentColor"/>
</svg>
