<svg width="24" height="24" color="#6F767E" viewBox="16 16 24 24" fill="none" xmlns="http://www.w3.org/2000/svg">

<path d="M31.0037 20.6974C31.4512 18.1778 28.2731 16.6928 26.6276 18.6526L19.5892 27.0355C18.2235 28.6621 19.3799 31.143 21.5038 31.143H25.1387C25.4498 31.143 25.6854 31.4242 25.631 31.7305L24.9964 35.3029C24.5488 37.8225 27.727 39.3075 29.3725 37.3477L36.4109 28.9649C37.7766 27.3383 36.6202 24.8573 34.4963 24.8573H30.8614C30.5503 24.8573 30.3147 24.5762 30.3691 24.2699L31.0037 20.6974Z" fill="currentColor"/>
<path fill-rule="evenodd" clip-rule="evenodd" d="M66.6261 18.5285C68.8389 16.1264 72.7534 18.4893 71.659 21.5664L70.4886 24.8572H74.1525C76.7664 24.8572 78.13 27.9674 76.359 29.8898L69.3742 37.4715C67.1613 39.8736 63.2468 37.5107 64.3413 34.4335L65.5117 31.1429H61.8477C59.2339 31.1429 57.8703 28.0326 59.6413 26.1102L66.6261 18.5285ZM69.7746 20.8962C70.1395 19.8705 68.8346 19.0829 68.097 19.8836L61.1123 27.4653C60.5219 28.1061 60.9764 29.1429 61.8477 29.1429H66.9287C67.2537 29.1429 67.5584 29.3008 67.7458 29.5663C67.9331 29.8318 67.9798 30.1718 67.8709 30.478L66.2256 35.1038C65.8608 36.1295 67.1656 36.9171 67.9033 36.1164L74.888 28.5347C75.4784 27.8939 75.0238 26.8572 74.1525 26.8572H69.0716C68.7466 26.8572 68.4419 26.6993 68.2545 26.4338C68.0672 26.1682 68.0205 25.8282 68.1294 25.5221L69.7746 20.8962Z" fill="currentColor"/>
</svg>
