<svg width="24" height="24" color="#6F767E" viewBox="16 16 24 24" fill="none" xmlns="http://www.w3.org/2000/svg">

<path fill-rule="evenodd" clip-rule="evenodd" d="M38 34C38 35.6569 36.6569 37 35 37H21C19.3431 37 18 35.6569 18 34V22C18 20.3431 19.3431 19 21 19H23.7574C24.553 19 25.3161 19.3161 25.8787 19.8787L27 21H35C36.6569 21 38 22.3431 38 24V34ZM28 25C28.5523 25 29 25.4477 29 26V28H31C31.5523 28 32 28.4477 32 29C32 29.5523 31.5523 30 31 30H29L29 32C29 32.5523 28.5523 33 28 33C27.4477 33 27 32.5523 27 32L27 30H25C24.4477 30 24 29.5523 24 29C24 28.4477 24.4477 28 25 28H27V26C27 25.4477 27.4477 25 28 25Z" fill="currentColor"/>
<path d="M69 26C69 25.4477 68.5523 25 68 25C67.4477 25 67 25.4477 67 26V28H65C64.4477 28 64 28.4477 64 29C64 29.5523 64.4477 30 65 30H67L67 32C67 32.5523 67.4477 33 68 33C68.5523 33 69 32.5523 69 32L69 30H71C71.5523 30 72 29.5523 72 29C72 28.4477 71.5523 28 71 28H69V26Z" fill="currentColor"/>
<path fill-rule="evenodd" clip-rule="evenodd" d="M67 23C66.4696 23 65.9609 22.7893 65.5858 22.4142L64.4645 21.2929C64.2769 21.1054 64.0226 21 63.7574 21H61C60.4477 21 60 21.4477 60 22V34C60 34.5523 60.4477 35 61 35H75C75.5523 35 76 34.5523 76 34V24C76 23.4477 75.5523 23 75 23H67ZM67 21H75C76.6569 21 78 22.3431 78 24V34C78 35.6569 76.6569 37 75 37H61C59.3431 37 58 35.6569 58 34V22C58 20.3431 59.3431 19 61 19H63.7574C64.553 19 65.3161 19.3161 65.8787 19.8787L67 21Z" fill="currentColor"/>
</svg>
