<svg width="24" height="24" viewBox="16 16 24 24" fill="none" xmlns="http://www.w3.org/2000/svg">

<path d="M21 37H35C36.6569 37 38 35.6569 38 34V24C38 22.3431 36.6569 21 35 21H27.4142C27.149 21 26.8946 20.8946 26.7071 20.7071L25.8787 19.8787C25.3161 19.3161 24.553 19 23.7574 19H21C19.3431 19 18 20.3431 18 22V34C18 35.6569 19.3431 37 21 37Z" fill="currentColor"/>
<path fill-rule="evenodd" clip-rule="evenodd" d="M67 23C66.4696 23 65.9609 22.7893 65.5858 22.4142L64.4645 21.2929C64.2769 21.1054 64.0226 21 63.7574 21H61C60.4477 21 60 21.4477 60 22V34C60 34.5523 60.4477 35 61 35H75C75.5523 35 76 34.5523 76 34V24C76 23.4477 75.5523 23 75 23H67ZM67 21H75C76.6569 21 78 22.3431 78 24V34C78 35.6569 76.6569 37 75 37H61C59.3431 37 58 35.6569 58 34V22C58 20.3431 59.3431 19 61 19H63.7574C64.553 19 65.3161 19.3161 65.8787 19.8787L67 21Z" fill="currentColor"/>
</svg>
