<svg width="24" height="24" viewBox="16 16 24 24" fill="none" xmlns="http://www.w3.org/2000/svg">

<path d="M34.5858 32H32C31.4477 32 31 32.4477 31 33C31 33.5523 31.4477 34 32 34H37C37.5523 34 38 33.5523 38 33V28C38 27.4477 37.5523 27 37 27C36.4477 27 36 27.4477 36 28V30.5858L30.4142 25C29.6332 24.219 28.3668 24.219 27.5858 25L25 27.5858L19.7071 22.2929C19.3166 21.9024 18.6834 21.9024 18.2929 22.2929C17.9024 22.6834 17.9024 23.3166 18.2929 23.7071L23.5858 29C24.3668 29.781 25.6332 29.7811 26.4142 29L29 26.4142L34.5858 32Z" fill="currentColor"/>
<path d="M74.5858 32H72C71.4477 32 71 32.4477 71 33C71 33.5523 71.4477 34 72 34H77C77.5523 34 78 33.5523 78 33V28C78 27.4477 77.5523 27 77 27C76.4477 27 76 27.4477 76 28V30.5858L70.4142 25C69.6332 24.219 68.3668 24.219 67.5858 25L65 27.5858L59.7071 22.2929C59.3166 21.9024 58.6834 21.9024 58.2929 22.2929C57.9024 22.6834 57.9024 23.3166 58.2929 23.7071L63.5858 29C64.3668 29.781 65.6332 29.7811 66.4142 29L69 26.4142L74.5858 32Z" fill="currentColor"/>
</svg>
