<svg width="24" height="24" viewBox="16 16 24 24" fill="none" xmlns="http://www.w3.org/2000/svg">

<path fill-rule="evenodd" clip-rule="evenodd" d="M25.4889 21.0539C25.376 20.527 24.624 20.5269 24.5111 21.0539L23.3166 26.6284C23.0202 28.0116 21.7978 28.9998 20.3832 28.9998H19C18.4477 28.9998 18 28.5521 18 27.9998C18 27.4475 18.4477 26.9998 19 26.9998H20.3832C20.8547 26.9998 21.2622 26.6704 21.361 26.2093L22.5555 20.6349C23.1201 18 26.8799 18 27.4445 20.6349L30.5111 34.9456C30.624 35.4726 31.376 35.4726 31.4889 34.9456L32.6834 29.3712C32.9798 27.988 34.2022 26.9998 35.6168 26.9998H37C37.5523 26.9998 38 27.4475 38 27.9998C38 28.5521 37.5523 28.9998 37 28.9998H35.6168C35.1453 28.9998 34.7378 29.3292 34.639 29.7902L33.4445 35.3647C32.8799 37.9996 29.1201 37.9996 28.5555 35.3647L25.4889 21.0539Z" fill="currentColor"/>
<path fill-rule="evenodd" clip-rule="evenodd" d="M65.408 21C65.0394 21 64.7181 21.2509 64.6286 21.6085L63.3489 26.7276C63.015 28.0631 61.8151 29 60.4384 29H59C58.4477 29 58 28.5523 58 28C58 27.4477 58.4477 27 59 27H60.4384C60.8973 27 61.2973 26.6877 61.4086 26.2425L62.6884 21.1234C63.0004 19.8755 64.1217 19 65.408 19C66.8218 19 68.0144 20.0528 68.1897 21.4556L69.7948 34.2963C69.8451 34.6983 70.1868 35 70.592 35C70.9606 35 71.2819 34.7491 71.3714 34.3915L72.6511 29.2724C72.985 27.9369 74.185 27 75.5616 27H77C77.5523 27 78 27.4477 78 28C78 28.5523 77.5523 29 77 29H75.5616C75.1027 29 74.7027 29.3123 74.5914 29.7575L73.3116 34.8766C72.9996 36.1245 71.8783 37 70.592 37C69.1782 37 67.9856 35.9472 67.8103 34.5444L66.2052 21.7037C66.1549 21.3017 65.8132 21 65.408 21Z" fill="currentColor"/>
</svg>
