<svg width="24" height="24" viewBox="16 16 24 24" fill="none" xmlns="http://www.w3.org/2000/svg">

<path d="M17 33V36C17 36.5523 17.4477 37 18 37H32C32.5523 37 33 36.5523 33 36V33C33 30.7909 31.2091 29 29 29H21C18.7909 29 17 30.7909 17 33Z" fill="currentColor"/>
<path d="M34.984 36.3118C34.9485 36.655 35.1913 37 35.5363 37H38C38.5523 37 39 36.5523 39 36V33C39 30.7909 37.2091 29 35 29H34.0315C33.8154 29 33.6968 29.2597 33.8254 29.4334C34.5635 30.4304 35 31.6642 35 33V36C35 36.1053 34.9946 36.2093 34.984 36.3118Z" fill="currentColor"/>
<path d="M29 23C29 25.2091 27.2091 27 25 27C22.7909 27 21 25.2091 21 23C21 20.7909 22.7909 19 25 19C27.2091 19 29 20.7909 29 23Z" fill="currentColor"/>
<path d="M30.3508 26.9476C30.01 26.892 29.8938 26.4893 30.0781 26.1973C30.6621 25.2717 31 24.1753 31 23C31 21.8247 30.6621 20.7283 30.0781 19.8027C29.8938 19.5107 30.01 19.108 30.3508 19.0524C30.5621 19.0179 30.7789 19 31 19C33.2091 19 35 20.7909 35 23C35 25.2091 33.2091 27 31 27C30.7789 27 30.5621 26.9821 30.3508 26.9476Z" fill="currentColor"/>
<path d="M70.4997 26.9691C72.473 26.7232 74 25.0399 74 23C74 20.9601 72.473 19.2768 70.4997 19.0309C71.4334 20.0887 72 21.4782 72 23C72 24.5218 71.4334 25.9113 70.4997 26.9691Z" fill="currentColor"/>
<path d="M76 36C76 36.5523 76.4477 37 77 37C77.5523 37 78 36.5523 78 36V34C78 31.3399 75.9227 29.165 73.3018 29.009C74.3539 29.9407 75.1588 31.1453 75.6056 32.512C75.8565 32.9505 76 33.4585 76 34V36Z" fill="currentColor"/>
<path fill-rule="evenodd" clip-rule="evenodd" d="M63 31C61.3431 31 60 32.3431 60 34V36C60 36.5523 59.5523 37 59 37C58.4477 37 58 36.5523 58 36V34C58 31.2386 60.2386 29 63 29H69C71.7614 29 74 31.2386 74 34V36C74 36.5523 73.5523 37 73 37C72.4477 37 72 36.5523 72 36V34C72 32.3431 70.6569 31 69 31H63Z" fill="currentColor"/>
<path fill-rule="evenodd" clip-rule="evenodd" d="M66 21C64.8954 21 64 21.8954 64 23C64 24.1046 64.8954 25 66 25C67.1046 25 68 24.1046 68 23C68 21.8954 67.1046 21 66 21ZM62 23C62 20.7909 63.7909 19 66 19C68.2091 19 70 20.7909 70 23C70 25.2091 68.2091 27 66 27C63.7909 27 62 25.2091 62 23Z" fill="currentColor"/>
</svg>
