<svg width="24" height="24" color="#6F767E" viewBox="16 16 24 24" fill="none" xmlns="http://www.w3.org/2000/svg">

<path fill-rule="evenodd" clip-rule="evenodd" d="M26.2983 19.0458C26.8254 19.2105 27.1192 19.7714 26.9545 20.2985L26.1102 23.0002H32.0148L33.0455 19.702C33.2103 19.1748 33.7712 18.8811 34.2983 19.0458C34.8254 19.2105 35.1192 19.7714 34.9545 20.2985L34.1102 23.0002H36C36.5523 23.0002 37 23.448 37 24.0002C37 24.5525 36.5523 25.0002 36 25.0002H33.4852L31.6102 31.0002H34C34.5523 31.0002 35 31.448 35 32.0002C35 32.5525 34.5523 33.0002 34 33.0002H30.9852L29.9545 36.2985C29.7898 36.8257 29.2289 37.1195 28.7017 36.9547C28.1746 36.79 27.8808 36.2291 28.0455 35.702L28.8898 33.0002H22.9852L21.9545 36.2985C21.7898 36.8257 21.2289 37.1195 20.7017 36.9547C20.1746 36.79 19.8808 36.2291 20.0455 35.702L20.8898 33.0002H19C18.4477 33.0002 18 32.5525 18 32.0002C18 31.448 18.4477 31.0002 19 31.0002H21.5148L23.3898 25.0002H21C20.4477 25.0002 20 24.5525 20 24.0002C20 23.448 20.4477 23.0002 21 23.0002H24.0148L25.0455 19.702C25.2103 19.1748 25.7712 18.8811 26.2983 19.0458ZM29.5148 31.0002L31.3898 25.0002H25.4852L23.6102 31.0002H29.5148Z" fill="currentColor"/>
<path fill-rule="evenodd" clip-rule="evenodd" d="M66.7983 19.0458C67.3254 19.2105 67.6192 19.7714 67.4545 20.2985L66.6102 23.0002H72.5148L73.5455 19.702C73.7103 19.1748 74.2712 18.8811 74.7983 19.0458C75.3254 19.2105 75.6192 19.7714 75.4545 20.2985L74.6102 23.0002H76.5C77.0523 23.0002 77.5 23.448 77.5 24.0002C77.5 24.5525 77.0523 25.0002 76.5 25.0002H73.9852L72.1102 31.0002H74.5C75.0523 31.0002 75.5 31.448 75.5 32.0002C75.5 32.5525 75.0523 33.0002 74.5 33.0002H71.4852L70.4545 36.2985C70.2898 36.8257 69.7289 37.1195 69.2017 36.9547C68.6746 36.79 68.3808 36.2291 68.5455 35.702L69.3898 33.0002H63.4852L62.4545 36.2985C62.2898 36.8257 61.7289 37.1195 61.2017 36.9547C60.6746 36.79 60.3808 36.2291 60.5455 35.702L61.3898 33.0002H59.5C58.9477 33.0002 58.5 32.5525 58.5 32.0002C58.5 31.448 58.9477 31.0002 59.5 31.0002H62.0148L63.8898 25.0002H61.5C60.9477 25.0002 60.5 24.5525 60.5 24.0002C60.5 23.448 60.9477 23.0002 61.5 23.0002H64.5148L65.5455 19.702C65.7103 19.1748 66.2712 18.8811 66.7983 19.0458ZM70.0148 31.0002L71.8898 25.0002H65.9852L64.1102 31.0002H70.0148Z" fill="currentColor"/>
</svg>
