<svg width="24" height="24" color="#6F767E" viewBox="16 16 24 24" fill="none" xmlns="http://www.w3.org/2000/svg">

<path d="M27.8003 21.2137C25.5584 18.9288 21.9155 18.9288 19.6736 21.2137C17.4421 23.4879 17.4421 27.1676 19.6736 29.4419L26.5724 36.4729C27.3564 37.2719 28.6436 37.2719 29.4276 36.4729L36.3264 29.4419C38.5579 27.1676 38.5579 23.4879 36.3264 21.2137C34.0845 18.9288 30.4416 18.9288 28.1997 21.2137C28.09 21.3254 27.91 21.3254 27.8003 21.2137Z" fill="currentColor"/>
<path fill-rule="evenodd" clip-rule="evenodd" d="M66.3727 22.6144C64.9148 21.1285 62.5591 21.1285 61.1012 22.6144C59.6329 24.1108 59.6329 26.5447 61.1012 28.0411L67.2862 34.3447C67.6782 34.7442 68.3218 34.7442 68.7138 34.3447L74.8988 28.0411C76.3671 26.5447 76.3671 24.1108 74.8988 22.6144C73.4409 21.1285 71.0852 21.1285 69.6273 22.6144L68.7138 23.5454C68.5257 23.7371 68.2685 23.845 68 23.845C67.7315 23.845 67.4743 23.7371 67.2862 23.5454L66.3727 22.6144ZM67.8003 21.2137L68 21.4172L68.1997 21.2137C70.4416 18.9288 74.0845 18.9288 76.3264 21.2137C78.5579 23.4879 78.5579 27.1676 76.3264 29.4419L70.1414 35.7454C68.9654 36.944 67.0346 36.944 65.8586 35.7454L59.6736 29.4419C57.4421 27.1676 57.4421 23.4879 59.6736 21.2137C61.9155 18.9288 65.5584 18.9288 67.8003 21.2137Z" fill="currentColor"/>
</svg>
