<svg width="24" height="24" viewBox="0 0 24 24" fill="none" xmlns="http://www.w3.org/2000/svg">
<path d="M11.6382 2.27635C11.875 2.21306 12.1243 2.21306 12.3611 2.27635C12.6419 2.35138 12.8747 2.53318 12.9973 2.62893L13.0323 2.65613L19.8655 7.88141C20.2523 8.17664 20.5785 8.4256 20.8213 8.7499C21.0346 9.03485 21.1936 9.35664 21.2904 9.69917C21.4005 10.089 21.4002 10.4993 21.3997 10.9859L21.3996 17.3349C21.3997 17.8647 21.3997 18.3159 21.3694 18.6863C21.3376 19.0755 21.268 19.4541 21.0836 19.816C20.8055 20.3617 20.3619 20.8053 19.8162 21.0834C19.4543 21.2678 19.0757 21.3374 18.6865 21.3692C18.3161 21.3995 17.865 21.3995 17.3351 21.3994H12.9V13.9995C12.9 13.5024 12.497 13.0995 12 13.0995C11.5029 13.0995 11.1 13.5024 11.1 13.9995V21.3994H6.6643C6.13445 21.3995 5.68325 21.3995 5.31283 21.3692C4.92367 21.3374 4.54508 21.2678 4.18314 21.0834C3.63748 20.8053 3.19383 20.3617 2.9158 19.816C2.73139 19.4541 2.66176 19.0755 2.62996 18.6863C2.5997 18.3159 2.59971 17.8647 2.59972 17.3348L2.59967 10.9859C2.59922 10.4993 2.59884 10.089 2.70899 9.69917C2.80578 9.35664 2.9648 9.03485 3.1781 8.7499C3.42085 8.42559 3.74703 8.17664 4.13384 7.88141L10.967 2.65613L11.0021 2.62893C11.1247 2.53317 11.3575 2.35138 11.6382 2.27635Z" fill="currentColor"/>
</svg>
