<svg width="24" height="24" viewBox="16 16 24 24" fill="none" xmlns="http://www.w3.org/2000/svg">
<path fill-rule="evenodd" clip-rule="evenodd" d="M18 21C18 19.3431 19.3431 18 21 18H35C36.6569 18 38 19.3431 38 21V35C38 36.6569 36.6569 38 35 38H21C19.3431 38 18 36.6569 18 35V21ZM35.0831 35.9966C35.5656 35.9569 35.5575 35.3462 35.2305 34.9891L26.569 25.5299C25.3418 24.191 23.2157 24.2412 22.0529 25.6365L20.2318 27.8219C20.082 28.0016 20 28.2281 20 28.462V35C20 35.5523 20.4477 36 21 36H35C35.028 36 35.0557 35.9988 35.0831 35.9966ZM33 25C34.1046 25 35 24.1046 35 23C35 21.8954 34.1046 21 33 21C31.8954 21 31 21.8954 31 23C31 24.1046 31.8954 25 33 25Z" fill="currentColor"/>
</svg>
