<svg width="24" height="24" viewBox="16 16 24 24" fill="none" xmlns="http://www.w3.org/2000/svg">

<path fill-rule="evenodd" clip-rule="evenodd" d="M38 28C38 33.5228 33.5228 38 28 38C22.4772 38 18 33.5228 18 28C18 22.4772 22.4772 18 28 18C33.5228 18 38 22.4772 38 28ZM28 27C28.5523 27 29 27.4477 29 28V33.0009C29 33.5532 28.5523 34.0009 28 34.0009C27.4477 34.0009 27 33.5532 27 33.0009V28C27 27.4477 27.4477 27 28 27ZM28 25C28.5523 25 29 24.5523 29 24C29 23.4477 28.5523 23 28 23C27.4477 23 27 23.4477 27 24C27 24.5523 27.4477 25 28 25Z" fill="currentColor"/>
<path fill-rule="evenodd" clip-rule="evenodd" d="M68 36C72.4183 36 76 32.4183 76 28C76 23.5817 72.4183 20 68 20C63.5817 20 60 23.5817 60 28C60 32.4183 63.5817 36 68 36ZM68 38C73.5228 38 78 33.5228 78 28C78 22.4772 73.5228 18 68 18C62.4772 18 58 22.4772 58 28C58 33.5228 62.4772 38 68 38Z" fill="currentColor"/>
<path fill-rule="evenodd" clip-rule="evenodd" d="M68 26C68.5523 26 69 26.4477 69 27V32.0009C69 32.5532 68.5523 33.0009 68 33.0009C67.4477 33.0009 67 32.5532 67 32.0009V27C67 26.4477 67.4477 26 68 26Z" fill="currentColor"/>
<path d="M69 24C69 24.5523 68.5523 25 68 25C67.4477 25 67 24.5523 67 24C67 23.4477 67.4477 23 68 23C68.5523 23 69 23.4477 69 24Z" fill="currentColor"/>
</svg>
