<svg width="24" height="24" color="#6F767E" viewBox="16 16 24 24" fill="none" xmlns="http://www.w3.org/2000/svg">

<path fill-rule="evenodd" clip-rule="evenodd" d="M25 37C25 36.4477 25.4477 36 26 36H30C30.5523 36 31 36.4477 31 37C31 37.5523 30.5523 38 30 38H26C25.4477 38 25 37.5523 25 37Z" fill="currentColor"/>
<path fill-rule="evenodd" clip-rule="evenodd" d="M31.5 31.6403C31.5 31.2834 31.6936 30.958 31.9869 30.7545C33.8078 29.4905 35 27.3845 35 25C35 21.134 31.866 18 28 18C24.134 18 21 21.134 21 25C21 27.3845 22.1922 29.4905 24.0131 30.7544C24.3064 30.958 24.5 31.2833 24.5 31.6403V32C24.5 33.3807 25.6193 34.5 27 34.5H29C30.3807 34.5 31.5 33.3807 31.5 32V31.6403Z" fill="currentColor"/>
<path fill-rule="evenodd" clip-rule="evenodd" d="M65 37C65 36.4477 65.4477 36 66 36H70C70.5523 36 71 36.4477 71 37C71 37.5523 70.5523 38 70 38H66C65.4477 38 65 37.5523 65 37Z" fill="currentColor"/>
<path fill-rule="evenodd" clip-rule="evenodd" d="M70 30.7453C70 30.0915 70.3196 29.479 70.8558 29.1049C72.156 28.198 73 26.6974 73 25C73 22.2386 70.7614 20 68 20C65.2386 20 63 22.2386 63 25C63 26.6974 63.844 28.198 65.1442 29.1049C65.6804 29.479 66 30.0915 66 30.7453V32C66 32.5523 66.4477 33 67 33H69C69.5523 33 70 32.5523 70 32V30.7453ZM64 30.7453C62.1865 29.4804 61 27.3787 61 25C61 21.134 64.134 18 68 18C71.866 18 75 21.134 75 25C75 27.3787 73.8135 29.4804 72 30.7453V32C72 33.6569 70.6569 35 69 35H67C65.3431 35 64 33.6569 64 32V30.7453Z" fill="currentColor"/>
</svg>
