<svg width="24" height="24" viewBox="16 16 24 24" fill="none" xmlns="http://www.w3.org/2000/svg">

<path fill-rule="evenodd" clip-rule="evenodd" d="M19 18C19.5523 18 20 18.4477 20 19V35C20 35.5523 20.4477 36 21 36H37C37.5523 36 38 36.4477 38 37C38 37.5523 37.5523 38 37 38H21C19.3431 38 18 36.6569 18 35V19C18 18.4477 18.4477 18 19 18Z" fill="currentColor"/>
<path fill-rule="evenodd" clip-rule="evenodd" d="M37.7071 24.2929C38.0976 24.6834 38.0976 25.3166 37.7071 25.7071L33.1213 30.2929C31.9497 31.4645 30.0503 31.4645 28.8787 30.2929L26.7071 28.1213C26.3166 27.7308 25.6834 27.7308 25.2929 28.1213L23.2071 30.2071C22.8166 30.5976 22.1834 30.5976 21.7929 30.2071C21.4024 29.8166 21.4024 29.1834 21.7929 28.7929L23.8787 26.7071C25.0503 25.5355 26.9497 25.5355 28.1213 26.7071L30.2929 28.8787C30.6834 29.2692 31.3166 29.2692 31.7071 28.8787L36.2929 24.2929C36.6834 23.9024 37.3166 23.9024 37.7071 24.2929Z" fill="currentColor"/>
<path fill-rule="evenodd" clip-rule="evenodd" d="M59 18C59.5523 18 60 18.4477 60 19V35C60 35.5523 60.4477 36 61 36H77C77.5523 36 78 36.4477 78 37C78 37.5523 77.5523 38 77 38H61C59.3431 38 58 36.6569 58 35V19C58 18.4477 58.4477 18 59 18Z" fill="currentColor"/>
<path fill-rule="evenodd" clip-rule="evenodd" d="M77.7071 24.2929C78.0976 24.6834 78.0976 25.3166 77.7071 25.7071L73.1213 30.2929C71.9497 31.4645 70.0503 31.4645 68.8787 30.2929L66.7071 28.1213C66.3166 27.7308 65.6834 27.7308 65.2929 28.1213L63.2071 30.2071C62.8166 30.5976 62.1834 30.5976 61.7929 30.2071C61.4024 29.8166 61.4024 29.1834 61.7929 28.7929L63.8787 26.7071C65.0503 25.5355 66.9497 25.5355 68.1213 26.7071L70.2929 28.8787C70.6834 29.2692 71.3166 29.2692 71.7071 28.8787L76.2929 24.2929C76.6834 23.9024 77.3166 23.9024 77.7071 24.2929Z" fill="currentColor"/>
</svg>
