<svg width="20" height="20" viewBox="0 0 20 20" fill="none" color="#ADB1BB" xmlns="http://www.w3.org/2000/svg">
<path fill-rule="evenodd" clip-rule="evenodd" d="M1.6665 10.0002C1.6665 7.69898 3.53198 5.8335 5.83317 5.8335H8.33317C8.79341 5.8335 9.1665 6.20659 9.1665 6.66683C9.1665 7.12707 8.79341 7.50016 8.33317 7.50016H5.83317C4.45246 7.50016 3.33317 8.61945 3.33317 10.0002C3.33317 11.3809 4.45246 12.5002 5.83317 12.5002H8.33317C8.79341 12.5002 9.1665 12.8733 9.1665 13.3335C9.1665 13.7937 8.79341 14.1668 8.33317 14.1668H5.83317C3.53198 14.1668 1.6665 12.3013 1.6665 10.0002Z" fill="currentColor"/>
<path fill-rule="evenodd" clip-rule="evenodd" d="M10.8332 6.66683C10.8332 6.20659 11.2063 5.8335 11.6665 5.8335H14.1665C16.4677 5.8335 18.3332 7.69898 18.3332 10.0002C18.3332 12.3013 16.4677 14.1668 14.1665 14.1668H11.6665C11.2063 14.1668 10.8332 13.7937 10.8332 13.3335C10.8332 12.8733 11.2063 12.5002 11.6665 12.5002H14.1665C15.5472 12.5002 16.6665 11.3809 16.6665 10.0002C16.6665 8.61945 15.5472 7.50016 14.1665 7.50016H11.6665C11.2063 7.50016 10.8332 7.12707 10.8332 6.66683Z" fill="currentColor"/>
<path fill-rule="evenodd" clip-rule="evenodd" d="M6.66649 10.0002C6.66649 9.53993 7.03959 9.16683 7.49982 9.16683H12.4998C12.9601 9.16683 13.3332 9.53993 13.3332 10.0002C13.3332 10.4604 12.9601 10.8335 12.4998 10.8335H7.49982C7.03959 10.8335 6.66649 10.4604 6.66649 10.0002Z" fill="currentColor"/>
</svg>
