<svg width="24" height="24" viewBox="16 16 24 24" fill="none" xmlns="http://www.w3.org/2000/svg">
<path fill-rule="evenodd" clip-rule="evenodd" d="M18 28C18 25.2386 20.2386 23 23 23H26C26.5523 23 27 23.4477 27 24C27 24.5523 26.5523 25 26 25H23C21.3431 25 20 26.3431 20 28C20 29.6569 21.3431 31 23 31H26C26.5523 31 27 31.4477 27 32C27 32.5523 26.5523 33 26 33H23C20.2386 33 18 30.7614 18 28Z" fill="currentColor"/>
<path fill-rule="evenodd" clip-rule="evenodd" d="M29 24C29 23.4477 29.4477 23 30 23H33C35.7614 23 38 25.2386 38 28C38 30.7614 35.7614 33 33 33H30C29.4477 33 29 32.5523 29 32C29 31.4477 29.4477 31 30 31H33C34.6569 31 36 29.6569 36 28C36 26.3431 34.6569 25 33 25H30C29.4477 25 29 24.5523 29 24Z" fill="currentColor"/>
<path fill-rule="evenodd" clip-rule="evenodd" d="M24 28C24 27.4477 24.4477 27 25 27H31C31.5523 27 32 27.4477 32 28C32 28.5523 31.5523 29 31 29H25C24.4477 29 24 28.5523 24 28Z" fill="currentColor"/>
</svg>
