<svg width="24" height="24" viewBox="16 16 24 24" fill="none" xmlns="http://www.w3.org/2000/svg">

<path fill-rule="evenodd" clip-rule="evenodd" d="M23 23C23 22.4477 23.4477 22 24 22H36C36.5523 22 37 22.4477 37 23C37 23.5523 36.5523 24 36 24H24C23.4477 24 23 23.5523 23 23Z" fill="currentColor"/>
<path fill-rule="evenodd" clip-rule="evenodd" d="M23 28C23 27.4477 23.4477 27 24 27H36C36.5523 27 37 27.4477 37 28C37 28.5523 36.5523 29 36 29H24C23.4477 29 23 28.5523 23 28Z" fill="currentColor"/>
<path fill-rule="evenodd" clip-rule="evenodd" d="M23 33C23 32.4477 23.4477 32 24 32H36C36.5523 32 37 32.4477 37 33C37 33.5523 36.5523 34 36 34H24C23.4477 34 23 33.5523 23 33Z" fill="currentColor"/>
<path d="M21 23C21 23.5523 20.5523 24 20 24C19.4477 24 19 23.5523 19 23C19 22.4477 19.4477 22 20 22C20.5523 22 21 22.4477 21 23Z" fill="currentColor"/>
<path d="M21 28C21 28.5523 20.5523 29 20 29C19.4477 29 19 28.5523 19 28C19 27.4477 19.4477 27 20 27C20.5523 27 21 27.4477 21 28Z" fill="currentColor"/>
<path d="M21 33C21 33.5523 20.5523 34 20 34C19.4477 34 19 33.5523 19 33C19 32.4477 19.4477 32 20 32C20.5523 32 21 32.4477 21 33Z" fill="currentColor"/>
<path fill-rule="evenodd" clip-rule="evenodd" d="M63 23C63 22.4477 63.4477 22 64 22H76C76.5523 22 77 22.4477 77 23C77 23.5523 76.5523 24 76 24H64C63.4477 24 63 23.5523 63 23Z" fill="currentColor"/>
<path fill-rule="evenodd" clip-rule="evenodd" d="M63 28C63 27.4477 63.4477 27 64 27H76C76.5523 27 77 27.4477 77 28C77 28.5523 76.5523 29 76 29H64C63.4477 29 63 28.5523 63 28Z" fill="currentColor"/>
<path fill-rule="evenodd" clip-rule="evenodd" d="M63 33C63 32.4477 63.4477 32 64 32H76C76.5523 32 77 32.4477 77 33C77 33.5523 76.5523 34 76 34H64C63.4477 34 63 33.5523 63 33Z" fill="currentColor"/>
<path d="M61 23C61 23.5523 60.5523 24 60 24C59.4477 24 59 23.5523 59 23C59 22.4477 59.4477 22 60 22C60.5523 22 61 22.4477 61 23Z" fill="currentColor"/>
<path d="M61 28C61 28.5523 60.5523 29 60 29C59.4477 29 59 28.5523 59 28C59 27.4477 59.4477 27 60 27C60.5523 27 61 27.4477 61 28Z" fill="currentColor"/>
<path d="M61 33C61 33.5523 60.5523 34 60 34C59.4477 34 59 33.5523 59 33C59 32.4477 59.4477 32 60 32C60.5523 32 61 32.4477 61 33Z" fill="currentColor"/>
</svg>
