<svg width="24" height="24" viewBox="16 16 24 24" fill="none" xmlns="http://www.w3.org/2000/svg">
<path fill-rule="evenodd" clip-rule="evenodd" d="M28 18C28.5523 18 29 18.4477 29 19V21C29 21.5523 28.5523 22 28 22C27.4477 22 27 21.5523 27 21V19C27 18.4477 27.4477 18 28 18Z" fill="currentColor"/>
<path fill-rule="evenodd" clip-rule="evenodd" d="M28 34C28.5523 34 29 34.4477 29 35V37C29 37.5523 28.5523 38 28 38C27.4477 38 27 37.5523 27 37V35C27 34.4477 27.4477 34 28 34Z" fill="currentColor"/>
<path fill-rule="evenodd" clip-rule="evenodd" d="M20.9289 20.9289C21.3195 20.5384 21.9526 20.5384 22.3432 20.9289L23.7574 22.3431C24.1479 22.7337 24.1479 23.3668 23.7574 23.7574C23.3668 24.1479 22.7337 24.1479 22.3432 23.7574L20.9289 22.3431C20.5384 21.9526 20.5384 21.3195 20.9289 20.9289Z" fill="currentColor"/>
<path fill-rule="evenodd" clip-rule="evenodd" d="M32.2426 32.2426C32.6332 31.8521 33.2663 31.8521 33.6569 32.2426L35.0711 33.6569C35.4616 34.0474 35.4616 34.6805 35.0711 35.0711C34.6806 35.4616 34.0474 35.4616 33.6569 35.0711L32.2426 33.6569C31.8521 33.2663 31.8521 32.6332 32.2426 32.2426Z" fill="currentColor"/>
<path fill-rule="evenodd" clip-rule="evenodd" d="M18 28C18 27.4477 18.4477 27 19 27H21C21.5523 27 22 27.4477 22 28C22 28.5523 21.5523 29 21 29H19C18.4477 29 18 28.5523 18 28Z" fill="currentColor"/>
<path fill-rule="evenodd" clip-rule="evenodd" d="M34 28C34 27.4477 34.4477 27 35 27H37C37.5523 27 38 27.4477 38 28C38 28.5523 37.5523 29 37 29H35C34.4477 29 34 28.5523 34 28Z" fill="currentColor"/>
<path fill-rule="evenodd" clip-rule="evenodd" d="M20.9289 35.0711C20.5384 34.6805 20.5384 34.0474 20.9289 33.6569L22.3432 32.2426C22.7337 31.8521 23.3668 31.8521 23.7574 32.2426C24.1479 32.6332 24.1479 33.2663 23.7574 33.6569L22.3432 35.0711C21.9526 35.4616 21.3195 35.4616 20.9289 35.0711Z" fill="currentColor"/>
<path fill-rule="evenodd" clip-rule="evenodd" d="M32.2426 23.7574C31.8521 23.3668 31.8521 22.7337 32.2426 22.3431L33.6569 20.9289C34.0474 20.5384 34.6805 20.5384 35.0711 20.9289C35.4616 21.3195 35.4616 21.9526 35.0711 22.3431L33.6569 23.7574C33.2663 24.1479 32.6332 24.1479 32.2426 23.7574Z" fill="currentColor"/>
</svg>
