<svg width="24" height="24" viewBox="16 16 24 24" fill="none" xmlns="http://www.w3.org/2000/svg">

<path fill-rule="evenodd" clip-rule="evenodd" d="M23 23V24C21.3431 24 20 25.3431 20 27V35C20 36.6569 21.3431 38 23 38H33C34.6569 38 36 36.6569 36 35V27C36 25.3431 34.6569 24 33 24V23C33 20.2386 30.7614 18 28 18C25.2386 18 23 20.2386 23 23ZM28 20C26.3431 20 25 21.3431 25 23V24H31V23C31 21.3431 29.6569 20 28 20ZM30 30C30 30.7403 29.5978 31.3866 29 31.7324V33C29 33.5523 28.5523 34 28 34C27.4477 34 27 33.5523 27 33V31.7324C26.4022 31.3866 26 30.7403 26 30C26 28.8954 26.8954 28 28 28C29.1046 28 30 28.8954 30 30Z" fill="currentColor"/>
<path d="M69 31.7324C69.5978 31.3866 70 30.7403 70 30C70 28.8954 69.1046 28 68 28C66.8954 28 66 28.8954 66 30C66 30.7403 66.4022 31.3866 67 31.7324V33C67 33.5523 67.4477 34 68 34C68.5523 34 69 33.5523 69 33V31.7324Z" fill="currentColor"/>
<path fill-rule="evenodd" clip-rule="evenodd" d="M63 24V23C63 20.2386 65.2386 18 68 18C70.7614 18 73 20.2386 73 23V24C74.6569 24 76 25.3431 76 27V35C76 36.6569 74.6569 38 73 38H63C61.3431 38 60 36.6569 60 35V27C60 25.3431 61.3431 24 63 24ZM65 23C65 21.3431 66.3431 20 68 20C69.6569 20 71 21.3431 71 23V24H65V23ZM62 27C62 26.4477 62.4477 26 63 26H73C73.5523 26 74 26.4477 74 27V35C74 35.5523 73.5523 36 73 36H63C62.4477 36 62 35.5523 62 35V27Z" fill="currentColor"/>
</svg>
