<svg width="24" height="24" color="#6F767E" viewBox="16 16 24 24" fill="none" xmlns="http://www.w3.org/2000/svg">

<path d="M34 18C35.6569 18 37 19.3431 37 21V35C37 36.6569 35.6569 38 34 38H28C26.3431 38 25 36.6569 25 35V29H29.0858L27.2929 30.7929C26.9024 31.1834 26.9024 31.8166 27.2929 32.2071C27.6834 32.5976 28.3166 32.5976 28.7071 32.2071L31.5 29.4142C32.2811 28.6332 32.281 27.3668 31.5 26.5858L28.7071 23.7929C28.3166 23.4024 27.6834 23.4024 27.2929 23.7929C26.9024 24.1834 26.9024 24.8166 27.2929 25.2071L29.0858 27H25V21C25 19.3431 26.3431 18 28 18H34Z" fill="currentColor"/>
<path d="M25 27V29H20C19.4477 29 19 28.5523 19 28C19 27.4477 19.4477 27 20 27H25Z" fill="currentColor"/>
<path d="M68.7071 23.7929C68.3166 23.4024 67.6834 23.4024 67.2929 23.7929C66.9024 24.1834 66.9024 24.8166 67.2929 25.2071L69.0858 27H60C59.4477 27 59 27.4477 59 28C59 28.5523 59.4477 29 60 29H69.0858L67.2929 30.7929C66.9024 31.1834 66.9024 31.8166 67.2929 32.2071C67.6834 32.5976 68.3166 32.5976 68.7071 32.2071L71.5 29.4142C72.2811 28.6332 72.281 27.3668 71.5 26.5858L68.7071 23.7929Z" fill="currentColor"/>
<path fill-rule="evenodd" clip-rule="evenodd" d="M77 21C77 19.3431 75.6569 18 74 18H68C66.3431 18 65 19.3431 65 21V22C65 22.5523 65.4477 23 66 23C66.5523 23 67 22.5523 67 22V21C67 20.4477 67.4477 20 68 20H74C74.5523 20 75 20.4477 75 21V35C75 35.5523 74.5523 36 74 36H68C67.4477 36 67 35.5523 67 35V34C67 33.4477 66.5523 33 66 33C65.4477 33 65 33.4477 65 34V35C65 36.6569 66.3431 38 68 38H74C75.6569 38 77 36.6569 77 35V21Z" fill="currentColor"/>
</svg>
