<svg width="24" height="24" color="#6F767E" viewBox="16 16 24 24" fill="none" xmlns="http://www.w3.org/2000/svg">

<path d="M27.9573 18C29.6063 18 30.9431 19.3431 30.9431 21V27H25.9668C25.4171 27 24.9715 27.4477 24.9715 28C24.9715 28.5523 25.4171 29 25.9668 29H30.9431V35C30.9431 36.6569 29.6063 38 27.9573 38H21.9858C20.3368 38 19 36.6569 19 35V21C19 19.3431 20.3368 18 21.9858 18H27.9573Z" fill="currentColor"/>
<path d="M30.9431 29L34.0142 29L32.2298 30.7929C31.8412 31.1834 31.8412 31.8166 32.2298 32.2071C32.6185 32.5976 33.2487 32.5976 33.6373 32.2071L36.417 29.4142C37.1943 28.6332 37.1943 27.3668 36.417 26.5858L33.6373 23.7929C33.2487 23.4024 32.6185 23.4024 32.2298 23.7929C31.8412 24.1834 31.8412 24.8166 32.2298 25.2071L34.0142 27L30.9431 27V29Z" fill="currentColor"/>
<path d="M73.6373 23.7929C73.2487 23.4024 72.6185 23.4024 72.2298 23.7929C71.8412 24.1834 71.8412 24.8166 72.2298 25.2071L74.0142 27H64.9715C64.4219 27 63.9763 27.4477 63.9763 28C63.9763 28.5523 64.4219 29 64.9715 29H74.0142L72.2298 30.7929C71.8412 31.1834 71.8412 31.8166 72.2298 32.2071C72.6185 32.5976 73.2487 32.5976 73.6373 32.2071L76.417 29.4142C77.1943 28.6332 77.1943 27.3668 76.417 26.5858L73.6373 23.7929Z" fill="currentColor"/>
<path fill-rule="evenodd" clip-rule="evenodd" d="M59 21C59 19.3431 60.3368 18 61.9858 18H67.9573C69.6063 18 70.9431 19.3431 70.9431 21V22C70.9431 22.5523 70.4975 23 69.9478 23C69.3982 23 68.9526 22.5523 68.9526 22V21C68.9526 20.4477 68.507 20 67.9573 20H61.9858C61.4361 20 60.9905 20.4477 60.9905 21V35C60.9905 35.5523 61.4361 36 61.9858 36H67.9573C68.507 36 68.9526 35.5523 68.9526 35V34C68.9526 33.4477 69.3982 33 69.9478 33C70.4975 33 70.9431 33.4477 70.9431 34V35C70.9431 36.6569 69.6063 38 67.9573 38H61.9858C60.3368 38 59 36.6569 59 35V21Z" fill="currentColor"/>
</svg>
