<svg width="24" height="24" viewBox="16 16 24 24" fill="none" xmlns="http://www.w3.org/2000/svg">

<path d="M31.0002 31C31.0002 32.6569 29.6571 34 28.0002 34C26.3434 34 25.0002 32.6569 25.0002 31C25.0002 29.3431 26.3434 28 28.0002 28C29.6571 28 31.0002 29.3431 31.0002 31Z" fill="currentColor"/>
<path fill-rule="evenodd" clip-rule="evenodd" d="M23.2434 25.8646L19.0368 19.5547C18.5938 18.8901 19.0702 18 19.8689 18H23.93C24.5987 18 25.2232 18.3342 25.5941 18.8906L28.0004 22.5L30.4066 18.8906C30.7776 18.3342 31.402 18 32.0707 18H36.1318C36.9305 18 37.4069 18.8901 36.9639 19.5547L32.7572 25.8647C34.1368 27.1432 35.0002 28.9708 35.0002 31C35.0002 34.866 31.8662 38 28.0002 38C24.1343 38 21.0002 34.866 21.0002 31C21.0002 28.9707 21.8638 27.1431 23.2434 25.8646ZM28.0002 36C30.7617 36 33.0002 33.7614 33.0002 31C33.0002 28.2386 30.7617 26 28.0002 26C25.2388 26 23.0002 28.2386 23.0002 31C23.0002 33.7614 25.2388 36 28.0002 36Z" fill="currentColor"/>
<path fill-rule="evenodd" clip-rule="evenodd" d="M63.2434 25.8646L59.0368 19.5547C58.5938 18.8901 59.0702 18 59.8689 18H63.93C64.5987 18 65.2232 18.3342 65.5941 18.8906L68.0004 22.5L70.4067 18.8906C70.7776 18.3342 71.402 18 72.0708 18H76.1319C76.9306 18 77.407 18.8901 76.9639 19.5547L72.7573 25.8646C74.1369 27.1432 75.0004 28.9707 75.0004 31C75.0004 34.866 71.8664 38 68.0004 38C64.1344 38 61.0004 34.866 61.0004 31C61.0004 28.9707 61.8639 27.1432 63.2434 25.8646ZM66.6796 24.1244L63.93 20L61.7374 20L64.8892 24.7277C65.4477 24.4501 66.0486 24.2449 66.6796 24.1244ZM71.1116 24.7277L74.2634 20L72.0708 20L69.3211 24.1244C69.9521 24.2449 70.553 24.4501 71.1116 24.7277ZM73.0004 31C73.0004 33.7614 70.7618 36 68.0004 36C65.2389 36 63.0004 33.7614 63.0004 31C63.0004 28.2386 65.2389 26 68.0004 26C70.7618 26 73.0004 28.2386 73.0004 31Z" fill="currentColor"/>
<path fill-rule="evenodd" clip-rule="evenodd" d="M68.0004 32C68.5527 32 69.0004 31.5523 69.0004 31C69.0004 30.4477 68.5527 30 68.0004 30C67.4481 30 67.0004 30.4477 67.0004 31C67.0004 31.5523 67.4481 32 68.0004 32ZM71.0004 31C71.0004 32.6569 69.6572 34 68.0004 34C66.3435 34 65.0004 32.6569 65.0004 31C65.0004 29.3431 66.3435 28 68.0004 28C69.6572 28 71.0004 29.3431 71.0004 31Z" fill="currentColor"/>
</svg>
