<svg width="24" height="24" color="#6F767E" viewBox="16 16 24 24" fill="none" xmlns="http://www.w3.org/2000/svg">

<path fill-rule="evenodd" clip-rule="evenodd" d="M20 32C20 31.4477 20.4477 31 21 31H35C35.5523 31 36 31.4477 36 32C36 32.5523 35.5523 33 35 33H21C20.4477 33 20 32.5523 20 32Z" fill="currentColor"/>
<path fill-rule="evenodd" clip-rule="evenodd" d="M20 24C20 23.4477 20.4477 23 21 23H35C35.5523 23 36 23.4477 36 24C36 24.5523 35.5523 25 35 25H21C20.4477 25 20 24.5523 20 24Z" fill="currentColor"/>
<path fill-rule="evenodd" clip-rule="evenodd" d="M60 32C60 31.4477 60.4477 31 61 31H75C75.5523 31 76 31.4477 76 32C76 32.5523 75.5523 33 75 33H61C60.4477 33 60 32.5523 60 32Z" fill="currentColor"/>
<path fill-rule="evenodd" clip-rule="evenodd" d="M60 24C60 23.4477 60.4477 23 61 23H75C75.5523 23 76 23.4477 76 24C76 24.5523 75.5523 25 75 25H61C60.4477 25 60 24.5523 60 24Z" fill="currentColor"/>
</svg>
