<svg width="24" height="24" viewBox="16 16 24 24" fill="none" xmlns="http://www.w3.org/2000/svg">

<path d="M23 19C23 18.4477 23.4477 18 24 18H30C30.3466 18 30.6684 18.1795 30.8507 18.4743C31.0329 18.7691 31.0494 19.1372 30.8944 19.4472L30.118 21L30.8944 22.5528C31.0494 22.8628 31.0329 23.2309 30.8507 23.5257C30.6684 23.8205 30.3466 24 30 24H25V25.8293C25.2787 25.9508 25.5398 26.1256 25.7678 26.3536L30 30.5858L31.2322 29.3536C32.2085 28.3773 33.7915 28.3773 34.7678 29.3536L37.4142 32C37.7893 32.3751 38 32.8838 38 33.4142V36C38 37.1046 37.1046 38 36 38H20C18.8954 38 18 37.1046 18 36V31.4142C18 30.8838 18.2107 30.3751 18.5858 30L22.2322 26.3536C22.4602 26.1256 22.7213 25.9508 23 25.8293V19Z" fill="currentColor"/>
<path fill-rule="evenodd" clip-rule="evenodd" d="M64 18C63.4477 18 63 18.4477 63 19V25.9992C62.5905 26.1436 62.2062 26.3796 61.8787 26.707L58.5858 29.9999C58.2107 30.375 58 30.8837 58 31.4142V35.9999C58 37.1045 58.8954 37.9999 60 37.9999H76C77.1046 37.9999 78 37.1045 78 35.9999V33.4142C78 32.8837 77.7893 32.375 77.4142 31.9999L75.1213 29.7071C73.9497 28.5355 72.0503 28.5355 70.8787 29.7071L70 30.5857L66.1213 26.707C65.7938 26.3796 65.4095 26.1436 65 25.9992V24H70C70.3466 24 70.6684 23.8205 70.8507 23.5257C71.0329 23.2309 71.0494 22.8628 70.8944 22.5528L70.118 21L70.8944 19.4472C71.0494 19.1372 71.0329 18.7691 70.8507 18.4743C70.6684 18.1795 70.3466 18 70 18H64ZM68.382 22H65V20H68.382L68.1056 20.5528C67.9648 20.8343 67.9648 21.1657 68.1056 21.4472L68.382 22ZM60 31.4142L63.2929 28.1213C63.6834 27.7307 64.3166 27.7307 64.7071 28.1213L69.2929 32.707C69.6834 33.0976 70.3166 33.0976 70.7071 32.707L72.2929 31.1213C72.6834 30.7307 73.3166 30.7307 73.7071 31.1213L76 33.4142V35.9999H60V31.4142Z" fill="currentColor"/>
</svg>
