<svg width="24" height="24" viewBox="16 16 24 24" fill="none" xmlns="http://www.w3.org/2000/svg">

<path d="M34.75 21H24.25C23.0125 21 22 22.0125 22 23.25V31.5H37V23.25C37 22.0125 35.9875 21 34.75 21ZM35.5 30H23.5V23.25C23.5 22.8375 23.8375 22.5 24.25 22.5H34.75C35.1625 22.5 35.5 22.8375 35.5 23.25V30ZM20.5 33H34V34.5H19V26.25C19 25.275 19.63 24.45 20.5 24.135V33ZM29.5 24C28.2625 24 27.25 25.0125 27.25 26.25C27.25 27.4875 28.2625 28.5 29.5 28.5C30.7375 28.5 31.75 27.4875 31.75 26.25C31.75 25.0125 30.7375 24 29.5 24ZM29.5 27C29.0875 27 28.75 26.6625 28.75 26.25C28.75 25.8375 29.0875 25.5 29.5 25.5C29.9125 25.5 30.25 25.8375 30.25 26.25C30.25 26.6625 29.9125 27 29.5 27ZM26.5 24.375C26.5 24.9975 25.9975 25.5 25.375 25.5C24.7525 25.5 24.25 24.9975 24.25 24.375C24.25 23.7525 24.7525 23.25 25.375 23.25C25.9975 23.25 26.5 23.7525 26.5 24.375ZM26.5 28.125C26.5 28.7475 25.9975 29.25 25.375 29.25C24.7525 29.25 24.25 28.7475 24.25 28.125C24.25 27.5025 24.7525 27 25.375 27C25.9975 27 26.5 27.5025 26.5 28.125ZM34.75 24.375C34.75 24.9975 34.2475 25.5 33.625 25.5C33.0025 25.5 32.5 24.9975 32.5 24.375C32.5 23.7525 33.0025 23.25 33.625 23.25C34.2475 23.25 34.75 23.7525 34.75 24.375ZM34.75 28.125C34.75 28.7475 34.2475 29.25 33.625 29.25C33.0025 29.25 32.5 28.7475 32.5 28.125C32.5 27.5025 33.0025 27 33.625 27C34.2475 27 34.75 27.5025 34.75 28.125Z" fill="currentColor"/>
<path d="M74.75 21H64.25C63.0125 21 62 22.0125 62 23.25V31.5H77V23.25C77 22.0125 75.9875 21 74.75 21ZM75.5 30H63.5V23.25C63.5 22.8375 63.8375 22.5 64.25 22.5H74.75C75.1625 22.5 75.5 22.8375 75.5 23.25V30ZM60.5 33H74V34.5H59V26.25C59 25.275 59.63 24.45 60.5 24.135V33ZM69.5 24C68.2625 24 67.25 25.0125 67.25 26.25C67.25 27.4875 68.2625 28.5 69.5 28.5C70.7375 28.5 71.75 27.4875 71.75 26.25C71.75 25.0125 70.7375 24 69.5 24ZM69.5 27C69.0875 27 68.75 26.6625 68.75 26.25C68.75 25.8375 69.0875 25.5 69.5 25.5C69.9125 25.5 70.25 25.8375 70.25 26.25C70.25 26.6625 69.9125 27 69.5 27ZM66.5 24.375C66.5 24.9975 65.9975 25.5 65.375 25.5C64.7525 25.5 64.25 24.9975 64.25 24.375C64.25 23.7525 64.7525 23.25 65.375 23.25C65.9975 23.25 66.5 23.7525 66.5 24.375ZM66.5 28.125C66.5 28.7475 65.9975 29.25 65.375 29.25C64.7525 29.25 64.25 28.7475 64.25 28.125C64.25 27.5025 64.7525 27 65.375 27C65.9975 27 66.5 27.5025 66.5 28.125ZM74.75 24.375C74.75 24.9975 74.2475 25.5 73.625 25.5C73.0025 25.5 72.5 24.9975 72.5 24.375C72.5 23.7525 73.0025 23.25 73.625 23.25C74.2475 23.25 74.75 23.7525 74.75 24.375ZM74.75 28.125C74.75 28.7475 74.2475 29.25 73.625 29.25C73.0025 29.25 72.5 28.7475 72.5 28.125C72.5 27.5025 73.0025 27 73.625 27C74.2475 27 74.75 27.5025 74.75 28.125Z" fill="currentColor"/>
</svg>
