<svg width="24" height="24" color="#6F767E" viewBox="16 16 24 24" fill="none" xmlns="http://www.w3.org/2000/svg">

<path fill-rule="evenodd" clip-rule="evenodd" d="M22 20C21.4477 20 21 20.4477 21 21V35C21 35.5523 21.4477 36 22 36H34C34.5523 36 35 35.5523 35 35V28C35 27.4477 35.4477 27 36 27C36.5523 27 37 27.4477 37 28V35C37 36.6569 35.6569 38 34 38H22C20.3431 38 19 36.6569 19 35V21C19 19.3431 20.3431 18 22 18H28C28.5523 18 29 18.4477 29 19C29 19.5523 28.5523 20 28 20H22Z" fill="currentColor"/>
<path d="M35.4958 19.7678C34.5195 18.7915 32.9366 18.7915 31.9603 19.7678L31.2532 20.4749C31.0579 20.6701 31.0579 20.9867 31.2532 21.182L34.7887 24.7175C34.9839 24.9128 35.3005 24.9128 35.4958 24.7175L36.2029 24.0104C37.1792 23.0341 37.1792 21.4512 36.2029 20.4749L35.4958 19.7678Z" fill="currentColor"/>
<path d="M29.8389 22.5962C29.6436 22.4009 29.3271 22.4009 29.1318 22.5962L24.0642 27.6638C23.9112 27.8168 23.812 28.0153 23.7814 28.2295L23.31 31.5293C23.2157 32.1893 23.7814 32.755 24.4413 32.6607L27.7412 32.1893C27.9554 32.1587 28.1538 32.0594 28.3068 31.9064L33.3744 26.8388C33.5697 26.6436 33.5697 26.327 33.3744 26.1317L29.8389 22.5962Z" fill="currentColor"/>
<path fill-rule="evenodd" clip-rule="evenodd" d="M62 20C61.4477 20 61 20.4477 61 21V35C61 35.5523 61.4477 36 62 36H74C74.5523 36 75 35.5523 75 35V28C75 27.4477 75.4477 27 76 27C76.5523 27 77 27.4477 77 28V35C77 36.6569 75.6569 38 74 38H62C60.3431 38 59 36.6569 59 35V21C59 19.3431 60.3431 18 62 18H68C68.5523 18 69 18.4477 69 19C69 19.5523 68.5523 20 68 20H62Z" fill="currentColor"/>
<path fill-rule="evenodd" clip-rule="evenodd" d="M64.0641 27.6638C63.9111 27.8168 63.8119 28.0153 63.7813 28.2295L63.3099 31.5293C63.2156 32.1893 63.7813 32.755 64.4412 32.6607L67.7411 32.1893C67.9553 32.1587 68.1538 32.0594 68.3068 31.9064L75.8492 24.364C77.0208 23.1924 77.0208 21.2929 75.8492 20.1213C74.6777 18.9497 72.7782 18.9497 71.6066 20.1213L64.0641 27.6638ZM72.3137 25.0711L67.1282 30.2565L65.4783 30.4922L65.714 28.8423L70.8995 23.6569L72.3137 25.0711ZM73.7279 23.6569L72.3137 22.2426L73.0208 21.5355C73.4113 21.145 74.0445 21.145 74.435 21.5355C74.8255 21.9261 74.8255 22.5592 74.435 22.9497L73.7279 23.6569Z" fill="currentColor"/>
</svg>
