<svg width="24" height="24" viewBox="16 16 24 24" fill="none" xmlns="http://www.w3.org/2000/svg">

<path d="M31.357 36.1758C31.7129 35.6278 31.2374 35 30.584 35H25.4159C24.7625 35 24.287 35.6278 24.6429 36.1758C25.356 37.2738 26.5932 38 28 38C29.4067 38 30.6439 37.2738 31.357 36.1758Z" fill="currentColor"/>
<path d="M22.0818 20.6659C20.8192 22.081 20.0542 23.9493 20.0609 25.9957L20.0679 28.1473C20.0697 28.692 19.8492 29.2139 19.4574 29.5924L18.4286 30.586C18.1547 30.8506 18 31.2151 18 31.5959C18 32.3714 18.6286 33 19.4041 33H34.4159L22.0818 20.6659Z" fill="currentColor"/>
<path d="M37.1341 32.8898C37.6428 32.6756 38 32.1724 38 31.5858C38 31.2107 37.851 30.851 37.5858 30.5858L36.5858 29.5858C36.2107 29.2107 36 28.702 36 28.1716L36 25.9696C36 21.5681 32.4319 18 28.0304 18C26.3876 18 24.8611 18.497 23.5929 19.3487L37.1341 32.8898Z" fill="currentColor"/>
<path fill-rule="evenodd" clip-rule="evenodd" d="M18.2929 18.2929C18.6834 17.9024 19.3166 17.9024 19.7071 18.2929L37.7071 36.2929C38.0976 36.6834 38.0976 37.3166 37.7071 37.7071C37.3166 38.0976 36.6834 38.0976 36.2929 37.7071L18.2929 19.7071C17.9024 19.3166 17.9024 18.6834 18.2929 18.2929Z" fill="currentColor"/>
<path fill-rule="evenodd" clip-rule="evenodd" d="M62.0809 20.6651C60.818 22.08 60.0525 23.9482 60.0587 25.9946L60.0681 29.1476C60.0698 29.6922 59.8493 30.2139 59.4576 30.5922L58.4286 31.586C58.1547 31.8506 58 32.2151 58 32.5959C58 33.3714 58.6286 34 59.4041 34H64C64 36.2091 65.7909 38 68 38C70.2091 38 72 36.2091 72 34H75.4158L73.4158 32L60.8785 32C61.6422 31.246 62.0714 30.2161 62.0681 29.1416L62.0587 25.9886C62.0542 24.4968 62.5971 23.1314 63.4982 22.0824L62.0809 20.6651ZM68 36C66.8954 36 66 35.1046 66 34H70C70 35.1046 69.1046 36 68 36Z" fill="currentColor"/>
<path d="M74.0507 29.8065C74.0171 29.5978 74 29.3856 74 29.1716L74 25.9707C74 22.6732 71.3268 20 68.0293 20C66.9414 20 65.9216 20.2909 65.0433 20.7991L63.5923 19.3481C64.8605 18.4968 66.3867 18 68.0293 18C72.4314 18 76 21.5686 76 25.9707L76 29.1716C76 29.702 76.2107 30.2107 76.5858 30.5858L77.5858 31.5858C77.851 31.851 78 32.2107 78 32.5858C78 32.9141 77.8881 33.2162 77.7005 33.4562L74.0507 29.8065Z" fill="currentColor"/>
<path fill-rule="evenodd" clip-rule="evenodd" d="M58.2929 18.2929C58.6834 17.9024 59.3166 17.9024 59.7071 18.2929L77.7071 36.2929C78.0976 36.6834 78.0976 37.3166 77.7071 37.7071C77.3166 38.0976 76.6834 38.0976 76.2929 37.7071L58.2929 19.7071C57.9024 19.3166 57.9024 18.6834 58.2929 18.2929Z" fill="currentColor"/>
</svg>
