<svg width="24" height="24" color="#6F767E" viewBox="16 16 24 24" fill="none" xmlns="http://www.w3.org/2000/svg">

<path d="M31.357 36.1758C31.7129 35.6278 31.2374 35 30.584 35H25.4159C24.7625 35 24.287 35.6278 24.6429 36.1758C25.356 37.2738 26.5932 38 28 38C29.4067 38 30.6439 37.2738 31.357 36.1758Z" fill="currentColor"/>
<path d="M36.5858 33H19.4041C18.6286 33 18 32.3714 18 31.5959C18 31.2151 18.1547 30.8506 18.4286 30.586L19.4574 29.5924C19.8492 29.2139 20.0697 28.692 20.0679 28.1473L20.0609 25.9957C20.0464 21.584 23.6187 18 28.0304 18C32.4319 18 36 21.5681 36 25.9696L36 28.1716C36 28.702 36.2107 29.2107 36.5858 29.5858L37.5858 30.5858C37.851 30.851 38 31.2107 38 31.5858C38 32.3668 37.3668 33 36.5858 33Z" fill="currentColor"/>
<path fill-rule="evenodd" clip-rule="evenodd" d="M58 32.5959C58 32.2151 58.1547 31.8506 58.4286 31.586L59.4576 30.5922C59.8493 30.2139 60.0698 29.6922 60.0681 29.1476L60.0587 25.9946C60.0454 21.5832 63.6179 18 68.0293 18C72.4314 18 76 21.5686 76 25.9707L76 29.1716C76 29.702 76.2107 30.2107 76.5858 30.5858L77.5858 31.5858C77.851 31.851 78 32.2107 78 32.5858C78 33.3668 77.3668 34 76.5858 34H72C72 36.2091 70.2091 38 68 38C65.7909 38 64 36.2091 64 34H59.4041C58.6286 34 58 33.3714 58 32.5959ZM66 34C66 35.1046 66.8954 36 68 36C69.1046 36 70 35.1046 70 34H66ZM74 29.1716C74 30.2324 74.4214 31.2499 75.1716 32L60.8785 32C61.6422 31.246 62.0714 30.2161 62.0681 29.1416L62.0587 25.9886C62.0487 22.6841 64.7248 20 68.0293 20C71.3268 20 74 22.6732 74 25.9707L74 29.1716Z" fill="currentColor"/>
</svg>
