<svg width="24" height="24" viewBox="16 16 24 24" fill="none" xmlns="http://www.w3.org/2000/svg">

<path fill-rule="evenodd" clip-rule="evenodd" d="M19 22C19 20.3431 20.3431 19 22 19H27C27.5523 19 28 19.4477 28 20C28 20.5523 27.5523 21 27 21H22C21.4477 21 21 21.4477 21 22V34C21 34.5523 21.4477 35 22 35H34C34.5523 35 35 34.5523 35 34V29C35 28.4477 35.4477 28 36 28C36.5523 28 37 28.4477 37 29V34C37 35.6569 35.6569 37 34 37H22C20.3431 37 19 35.6569 19 34V22Z" fill="currentColor"/>
<path d="M35 25C35 25.5523 35.4477 26 36 26C36.5523 26 37 25.5523 37 25V21C37 19.8954 36.1046 19 35 19H31C30.4477 19 30 19.4477 30 20C30 20.5523 30.4477 21 31 21L33.5858 21L27.2929 27.2929C26.9024 27.6834 26.9024 28.3166 27.2929 28.7071C27.6834 29.0976 28.3166 29.0976 28.7071 28.7071L35 22.4142V25Z" fill="currentColor"/>
<path d="M75 25C75 25.5523 75.4477 26 76 26C76.5523 26 77 25.5523 77 25V21C77 19.8954 76.1046 19 75 19H71C70.4477 19 70 19.4477 70 20C70 20.5523 70.4477 21 71 21L73.5858 21L67.2929 27.2929C66.9024 27.6834 66.9024 28.3166 67.2929 28.7071C67.6834 29.0976 68.3166 29.0976 68.7071 28.7071L75 22.4142V25Z" fill="currentColor"/>
<path fill-rule="evenodd" clip-rule="evenodd" d="M59 22C59 20.3431 60.3431 19 62 19H67C67.5523 19 68 19.4477 68 20C68 20.5523 67.5523 21 67 21H62C61.4477 21 61 21.4477 61 22V34C61 34.5523 61.4477 35 62 35H74C74.5523 35 75 34.5523 75 34V29C75 28.4477 75.4477 28 76 28C76.5523 28 77 28.4477 77 29V34C77 35.6569 75.6569 37 74 37H62C60.3431 37 59 35.6569 59 34V22Z" fill="currentColor"/>
</svg>
