<svg width="24" height="24" color="#6F767E" viewBox="16 16 24 24" fill="none" xmlns="http://www.w3.org/2000/svg">

<path d="M19 34V36C19 37.1046 19.8954 38 21 38H35C36.1046 38 37 37.1046 37 36V34C37 31.2386 34.7614 29 32 29H24C21.2386 29 19 31.2386 19 34Z" fill="currentColor"/>
<path d="M32.5 22.5C32.5 24.9853 30.4853 27 28 27C25.5147 27 23.5 24.9853 23.5 22.5C23.5 20.0147 25.5147 18 28 18C30.4853 18 32.5 20.0147 32.5 22.5Z" fill="currentColor"/>
<path fill-rule="evenodd" clip-rule="evenodd" d="M68 26C69.6569 26 71 24.6569 71 23C71 21.3431 69.6569 20 68 20C66.3431 20 65 21.3431 65 23C65 24.6569 66.3431 26 68 26ZM68 28C70.7614 28 73 25.7614 73 23C73 20.2386 70.7614 18 68 18C65.2386 18 63 20.2386 63 23C63 25.7614 65.2386 28 68 28Z" fill="currentColor"/>
<path fill-rule="evenodd" clip-rule="evenodd" d="M65 32C62.7909 32 61 33.7909 61 36V37C61 37.5523 60.5523 38 60 38C59.4477 38 59 37.5523 59 37V36C59 32.6863 61.6863 30 65 30H71C74.3137 30 77 32.6863 77 36V37C77 37.5523 76.5523 38 76 38C75.4477 38 75 37.5523 75 37V36C75 33.7909 73.2091 32 71 32H65Z" fill="currentColor"/>
</svg>
