<svg width="24" height="24" viewBox="16 16 24 24" fill="none" xmlns="http://www.w3.org/2000/svg">

<path d="M19.9662 30.7429C21.051 26.6944 25.2123 24.2919 29.2607 25.3767C31.5337 25.9857 33.2576 27.5574 34.1517 29.5497L32.6973 29.1554C32.1643 29.0109 31.615 29.3259 31.4705 29.8589C31.326 30.392 31.641 30.9412 32.174 31.0857L35.3444 31.9452C35.3798 31.957 35.4159 31.9668 35.4527 31.9746L35.8584 32.0845C36.1148 32.1541 36.3884 32.1187 36.6187 31.9861C36.8491 31.8536 37.0172 31.6349 37.0859 31.3782L38.0739 27.6909C38.2169 27.1575 37.9003 26.6091 37.3668 26.4662C36.8334 26.3232 36.285 26.6398 36.1421 27.1733L35.8156 28.3916C34.6485 26.0403 32.5358 24.1837 29.7784 23.4448C24.663 22.0742 19.405 25.1099 18.0343 30.2253C17.8914 30.7587 18.208 31.3071 18.7414 31.45C19.2749 31.593 19.8232 31.2764 19.9662 30.7429Z" fill="currentColor"/>
<path d="M59.9662 30.7429C61.051 26.6944 65.2123 24.2919 69.2607 25.3767C71.5337 25.9857 73.2576 27.5574 74.1517 29.5497L72.6973 29.1554C72.1643 29.0109 71.615 29.3259 71.4705 29.8589C71.326 30.392 71.641 30.9412 72.174 31.0857L75.3444 31.9452C75.3798 31.957 75.4159 31.9668 75.4527 31.9746L75.8584 32.0845C76.1148 32.1541 76.3884 32.1187 76.6187 31.9861C76.8491 31.8536 77.0172 31.6349 77.0859 31.3782L78.0739 27.6909C78.2169 27.1575 77.9003 26.6091 77.3668 26.4662C76.8334 26.3232 76.285 26.6398 76.1421 27.1733L75.8156 28.3916C74.6485 26.0403 72.5358 24.1837 69.7784 23.4448C64.663 22.0742 59.405 25.1099 58.0343 30.2253C57.8914 30.7587 58.208 31.3071 58.7414 31.45C59.2749 31.593 59.8232 31.2764 59.9662 30.7429Z" fill="currentColor"/>
</svg>
