<svg width="24" height="24" color="#6F767E" viewBox="16 16 24 24" fill="none" xmlns="http://www.w3.org/2000/svg">

<path fill-rule="evenodd" clip-rule="evenodd" d="M22.9999 23.1655C23.7498 20.9162 26.1861 18.3857 27.3583 17.2602C27.7197 16.9133 28.2803 16.9133 28.6416 17.2602C29.8139 18.3857 32.2502 20.9161 32.9999 23.1655C33.3826 24.3135 33.3451 25.9691 33.1244 27.668C34.7236 27.7333 36 29.0503 36 30.6655V34.797C36 35.5957 35.1099 36.0721 34.4453 35.629L31.5254 33.6824C30.9898 34.2977 30.1922 34.6655 29.3297 34.6655H26.6622C25.8014 34.6655 25.0051 34.2991 24.4699 33.6856L21.5547 35.629C20.8901 36.0721 20 35.5957 20 34.797V30.6655C20 29.0536 21.2712 27.7386 22.8658 27.6684C22.6476 25.9766 22.6136 24.3244 22.9999 23.1655ZM28 26.6655C29.1046 26.6655 30 25.7701 30 24.6655C30 23.5609 29.1046 22.6655 28 22.6655C26.8954 22.6655 26 23.5609 26 24.6655C26 25.7701 26.8954 26.6655 28 26.6655Z" fill="currentColor"/>
<path fill-rule="evenodd" clip-rule="evenodd" d="M66.834 36H69.166C69.6396 36 70.0524 36.338 70.0127 36.81C69.9502 37.5534 69.5996 38.5924 68.1958 38.9552C68.068 38.9882 67.932 38.9882 67.8042 38.9552C66.4005 38.5924 66.0498 37.5534 65.9873 36.81C65.9476 36.338 66.3604 36 66.834 36Z" fill="currentColor"/>
<path fill-rule="evenodd" clip-rule="evenodd" d="M63 24C63.7499 21.7506 66.1861 19.2202 67.3584 18.0947C67.7197 17.7477 68.2803 17.7477 68.6417 18.0947C69.8139 19.2202 72.2502 21.7506 73 24C73.3625 25.0873 73.3479 26.5806 73.1579 28.1163C73.1625 28.0791 73.167 28.0419 73.1714 28.0048C74.7485 28.0936 76 29.4006 76 31V35.1314C76 35.9301 75.1099 36.4065 74.4453 35.9635L71.5513 34.0341C71.018 34.6401 70.2272 35 69.3741 35H66.6173C65.7446 35 64.9368 34.6233 64.4041 33.9912C64.4172 34.0068 64.4304 34.0222 64.4438 34.0374L61.5547 35.9635C60.8901 36.4065 60 35.9301 60 35.1314V31C60 29.4038 61.2466 28.0987 62.8193 28.0053C62.6449 26.5154 62.6431 25.0705 63 24ZM71.1026 24.6324C71.3348 25.329 71.356 26.5591 71.1364 28.1504C70.9272 29.6653 70.5424 31.2303 70.204 32.4287C70.118 32.7331 69.8161 33 69.3741 33H66.6173C66.1764 33 65.877 32.7348 65.7912 32.4341C65.4514 31.242 65.0655 29.6838 64.8566 28.1711C64.6376 26.5849 64.6591 25.3471 64.8974 24.6325C65.1585 23.8492 65.776 22.8767 66.5784 21.8805C67.0563 21.2871 67.557 20.7373 68 20.2788C68.4431 20.7373 68.9437 21.2871 69.4217 21.8805C70.2241 22.8767 70.8415 23.8491 71.1026 24.6324ZM63.135 29.9756C63.1366 29.9837 63.1383 29.9918 63.1399 30H63C62.4477 30 62 30.4477 62 31V33.2629L63.6441 32.1669C63.4674 31.4968 63.2886 30.7501 63.135 29.9756ZM72.348 32.1667L72.3491 32.1623L74 33.2629V31C74 30.4477 73.5523 30 73 30H72.8498C72.6977 30.7653 72.5216 31.5034 72.348 32.1667Z" fill="currentColor"/>
<path d="M70 26C70 27.1045 69.1046 28 68 28C66.8954 28 66 27.1045 66 26C66 24.8954 66.8954 24 68 24C69.1046 24 70 24.8954 70 26Z" fill="currentColor"/>
</svg>
