<svg width="36" height="36" viewBox="0 0 36 36" fill="none" xmlns="http://www.w3.org/2000/svg">
<path fill-rule="evenodd" clip-rule="evenodd" d="M18 33C26.2843 33 33 26.2843 33 18C33 9.71573 26.2843 3 18 3C9.71573 3 3 9.71573 3 18C3 26.2843 9.71573 33 18 33ZM12.4986 24.6005C12.1669 25.3597 11.2826 25.7062 10.5235 25.3745C9.76435 25.0428 9.41783 24.1586 9.74951 23.3994C11.1369 20.2239 14.3071 18 18 18C21.6929 18 24.863 20.2239 26.2504 23.3994C26.5821 24.1586 26.2356 25.0428 25.4765 25.3745C24.7173 25.7062 23.8331 25.3597 23.5014 24.6005C22.5741 22.4783 20.458 21 18 21C15.5419 21 13.4258 22.4783 12.4986 24.6005ZM13.5 13.5C13.5 14.3284 12.8284 15 12 15C11.1716 15 10.5 14.3284 10.5 13.5C10.5 12.6716 11.1716 12 12 12C12.8284 12 13.5 12.6716 13.5 13.5ZM24 15C24.8284 15 25.5 14.3284 25.5 13.5C25.5 12.6716 24.8284 12 24 12C23.1716 12 22.5 12.6716 22.5 13.5C22.5 14.3284 23.1716 15 24 15Z" fill="#ADB1BB"/>
</svg>
