<svg width="24" height="24" color="#6F767E" viewBox="16 16 24 24" fill="none" xmlns="http://www.w3.org/2000/svg">

<path fill-rule="evenodd" clip-rule="evenodd" d="M20 19C20 18.4477 20.4477 18 21 18H35C35.5523 18 36 18.4477 36 19C36 19.5523 35.5523 20 35 20V20.5778C35 22.1572 34.5325 23.7013 33.6564 25.0154L31.6667 28L33.6564 30.9846C34.5325 32.2987 35 33.8428 35 35.4222V36C35.5523 36 36 36.4477 36 37C36 37.5523 35.5523 38 35 38H21C20.4477 38 20 37.5523 20 37C20 36.4477 20.4477 36 21 36V35.4222C21 33.8428 21.4675 32.2987 22.3436 30.9846L24.3333 28L22.3436 25.0154C21.4675 23.7013 21 22.1572 21 20.5778V20C20.4477 20 20 19.5523 20 19ZM23 36H24.25L25.88 33.392C26.8592 31.8253 29.1408 31.8253 30.12 33.392L31.75 36H33V35.4222C33 34.2377 32.6494 33.0796 31.9923 32.094L29.9296 29H26.0704L24.0077 32.094C23.3506 33.0796 23 34.2377 23 35.4222V36ZM23 20H33V20.5778C33 21.4157 32.8246 22.2403 32.4894 23H23.5106C23.1754 22.2403 23 21.4157 23 20.5778V20Z" fill="currentColor"/>
<path fill-rule="evenodd" clip-rule="evenodd" d="M60 19C60 18.4477 60.4477 18 61 18H75C75.5523 18 76 18.4477 76 19C76 19.5523 75.5523 20 75 20V20.5778C75 22.1572 74.5325 23.7013 73.6564 25.0154L71.6667 28L73.6564 30.9846C74.5325 32.2987 75 33.8428 75 35.4222V36C75.5523 36 76 36.4477 76 37C76 37.5523 75.5523 38 75 38H61C60.4477 38 60 37.5523 60 37C60 36.4477 60.4477 36 61 36V35.4222C61 33.8428 61.4675 32.2987 62.3436 30.9846L64.3333 28L62.3436 25.0154C61.4675 23.7013 61 22.1572 61 20.5778V20C60.4477 20 60 19.5523 60 19ZM63 36H64.25L65.456 34.0704C66.631 32.1904 69.369 32.1904 70.544 34.0704L71.75 36H73V35.4222C73 34.2377 72.6494 33.0796 71.9923 32.094L69.9296 29H66.0704L64.0077 32.094C63.3506 33.0796 63 34.2377 63 35.4222V36ZM69.3915 36L68.848 35.1304C68.4563 34.5037 67.5437 34.5037 67.152 35.1304L66.6085 36H69.3915ZM63 20H73V20.5778C73 21.4157 72.8246 22.2403 72.4894 23H63.5106C63.1754 22.2403 63 21.4157 63 20.5778V20ZM64.737 25L66.0704 27H69.9296L71.263 25H64.737Z" fill="currentColor"/>
</svg>
