<svg width="24" height="24" viewBox="16 16 24 24" fill="none" xmlns="http://www.w3.org/2000/svg">

<path d="M24 19C24 18.4477 23.5523 18 23 18C22.4477 18 22 18.4477 22 19V20H21C19.3431 20 18 21.3431 18 23V35C18 36.6569 19.3431 38 21 38H26.8764C27.3243 38 27.5659 37.4354 27.3051 37.0713C26.4836 35.9242 26 34.5186 26 33C26 29.134 29.134 26 33 26C34.5186 26 35.9242 26.4836 37.0713 27.3051C37.4354 27.5659 38 27.3243 38 26.8764V23C38 21.3431 36.6569 20 35 20H34V19C34 18.4477 33.5523 18 33 18C32.4477 18 32 18.4477 32 19V20H24V19Z" fill="currentColor"/>
<path fill-rule="evenodd" clip-rule="evenodd" d="M38 33C38 30.2386 35.7614 28 33 28C30.2386 28 28 30.2386 28 33C28 35.7614 30.2386 38 33 38C35.7614 38 38 35.7614 38 33ZM34 31C34 30.4477 33.5523 30 33 30C32.4477 30 32 30.4477 32 31V33C32 33.2652 32.1054 33.5196 32.2929 33.7071L33.7929 35.2071C34.1834 35.5976 34.8166 35.5976 35.2071 35.2071C35.5976 34.8166 35.5976 34.1834 35.2071 33.7929L34 32.5858V31Z" fill="currentColor"/>
<path d="M64 19C64 18.4477 63.5523 18 63 18C62.4477 18 62 18.4477 62 19V20H61C59.3431 20 58 21.3431 58 23V35C58 36.6569 59.3431 38 61 38H69.6822C68.9121 37.488 68.2671 36.8028 67.8027 36H61C60.4477 36 60 35.5523 60 35V23C60 22.4477 60.4477 22 61 22H62V23C62 23.5523 62.4477 24 63 24C63.5523 24 64 23.5523 64 23V22H72V23C72 23.5523 72.4477 24 73 24C73.5523 24 74 23.5523 74 23V22H75C75.5523 22 76 22.4477 76 23V27.8027C76.8028 28.2671 77.488 28.9121 78 29.6822V23C78 21.3431 76.6569 20 75 20H74V19C74 18.4477 73.5523 18 73 18C72.4477 18 72 18.4477 72 19V20H64V19Z" fill="currentColor"/>
<path fill-rule="evenodd" clip-rule="evenodd" d="M73 37C75.2091 37 77 35.2091 77 33C77 30.7909 75.2091 29 73 29C70.7909 29 69 30.7909 69 33C69 35.2091 70.7909 37 73 37ZM73 39C76.3137 39 79 36.3137 79 33C79 29.6863 76.3137 27 73 27C69.6863 27 67 29.6863 67 33C67 36.3137 69.6863 39 73 39Z" fill="currentColor"/>
<path fill-rule="evenodd" clip-rule="evenodd" d="M73 30C73.5523 30 74 30.4477 74 31V32.5858L74.7071 33.2929C75.0976 33.6834 75.0976 34.3166 74.7071 34.7071C74.3166 35.0976 73.6834 35.0976 73.2929 34.7071L72.2929 33.7071C72.1054 33.5196 72 33.2652 72 33V31C72 30.4477 72.4477 30 73 30Z" fill="currentColor"/>
</svg>
