<svg width="24" height="24" color="#6F767E" viewBox="16 16 24 24" fill="none" xmlns="http://www.w3.org/2000/svg">

<path fill-rule="evenodd" clip-rule="evenodd" d="M34.0319 32.6177C35.2635 31.078 36 29.125 36 27C36 22.0294 31.9706 18 27 18C22.0294 18 18 22.0294 18 27C18 31.9706 22.0294 36 27 36C29.125 36 31.078 35.2635 32.6177 34.0319L35.2929 36.7071C35.6834 37.0976 36.3166 37.0976 36.7071 36.7071C37.0976 36.3166 37.0976 35.6834 36.7071 35.2929L34.0319 32.6177ZM34 27C34 30.866 30.866 34 27 34C23.134 34 20 30.866 20 27C20 23.134 23.134 20 27 20C30.866 20 34 23.134 34 27Z" fill="currentColor"/>
<path fill-rule="evenodd" clip-rule="evenodd" d="M74 27C74 30.866 70.866 34 67 34C63.134 34 60 30.866 60 27C60 23.134 63.134 20 67 20C70.866 20 74 23.134 74 27ZM74.0319 32.6177C75.2635 31.078 76 29.125 76 27C76 22.0294 71.9706 18 67 18C62.0294 18 58 22.0294 58 27C58 31.9706 62.0294 36 67 36C69.125 36 71.078 35.2635 72.6177 34.0319L75.2929 36.7071C75.6834 37.0976 76.3166 37.0976 76.7071 36.7071C77.0976 36.3166 77.0976 35.6834 76.7071 35.2929L74.0319 32.6177Z" fill="currentColor"/>
</svg>
