<svg width="24" height="24" viewBox="16 16 24 24" fill="none" xmlns="http://www.w3.org/2000/svg">

<path d="M36 22C36 23.6569 34.6569 25 33 25C32.2739 25 31.6081 24.742 31.0891 24.3128L25.9404 27.402C25.9795 27.5953 26 27.7952 26 28C26 28.2048 25.9795 28.4047 25.9404 28.598L31.0891 31.6872C31.6081 31.258 32.2739 31 33 31C34.6569 31 36 32.3431 36 34C36 35.6569 34.6569 37 33 37C31.3431 37 30 35.6569 30 34C30 33.7952 30.0205 33.5952 30.0596 33.4019L24.911 30.3127C24.392 30.742 23.7261 31 23 31C21.3431 31 20 29.6569 20 28C20 26.3431 21.3431 25 23 25C23.7261 25 24.392 25.258 24.911 25.6873L30.0596 22.5981C30.0205 22.4048 30 22.2048 30 22C30 20.3431 31.3431 19 33 19C34.6569 19 36 20.3431 36 22Z" fill="currentColor"/>
<path d="M69.1635 23.1357C69.358 23.7937 69.7172 24.3811 70.1934 24.8501L66.8364 26.8643C66.6419 26.2062 66.2827 25.6188 65.8065 25.1499L69.1635 23.1357Z" fill="currentColor"/>
<path d="M65.8065 30.8501L69.1635 32.8643C69.358 32.2062 69.7172 31.6188 70.1934 31.1499L66.8364 29.1357C66.6419 29.7938 66.2827 30.3812 65.8065 30.8501Z" fill="currentColor"/>
<path fill-rule="evenodd" clip-rule="evenodd" d="M73 24C74.1046 24 75 23.1046 75 22C75 20.8954 74.1046 20 73 20C71.8954 20 71 20.8954 71 22C71 23.1046 71.8954 24 73 24ZM77 22C77 24.2091 75.2091 26 73 26C70.7909 26 69 24.2091 69 22C69 19.7909 70.7909 18 73 18C75.2091 18 77 19.7909 77 22Z" fill="currentColor"/>
<path fill-rule="evenodd" clip-rule="evenodd" d="M73 36C74.1046 36 75 35.1046 75 34C75 32.8954 74.1046 32 73 32C71.8954 32 71 32.8954 71 34C71 35.1046 71.8954 36 73 36ZM77 34C77 36.2091 75.2091 38 73 38C70.7909 38 69 36.2091 69 34C69 31.7909 70.7909 30 73 30C75.2091 30 77 31.7909 77 34Z" fill="currentColor"/>
<path fill-rule="evenodd" clip-rule="evenodd" d="M63 30C64.1046 30 65 29.1046 65 28C65 26.8954 64.1046 26 63 26C61.8954 26 61 26.8954 61 28C61 29.1046 61.8954 30 63 30ZM67 28C67 30.2091 65.2091 32 63 32C60.7909 32 59 30.2091 59 28C59 25.7909 60.7909 24 63 24C65.2091 24 67 25.7909 67 28Z" fill="currentColor"/>
</svg>
