<svg width="24" height="24" viewBox="16 16 24 24" fill="none" xmlns="http://www.w3.org/2000/svg">

<path d="M33.7929 19.7929C34.1834 19.4024 34.8166 19.4024 35.2071 19.7929L37.352 21.9379C37.9378 22.5236 37.9378 23.4734 37.352 24.0592L35.2071 26.2041C34.8166 26.5947 34.1834 26.5947 33.7929 26.2041C33.4024 25.8136 33.4024 25.1805 33.7929 24.7899L34.5866 23.9962H32.2648C31.211 23.9962 30.2345 24.5491 29.6923 25.4527L28.1639 27.9999L29.6923 30.5472C30.2345 31.4508 31.211 32.0037 32.2648 32.0037H34.5867L33.7929 31.2099C33.4024 30.8194 33.4024 30.1862 33.7929 29.7957C34.1834 29.4052 34.8166 29.4052 35.2071 29.7957L37.352 31.9406C37.9378 32.5264 37.9378 33.4762 37.352 34.062L35.2071 36.2069C34.8166 36.5974 34.1834 36.5975 33.7929 36.2069C33.4024 35.8164 33.4024 35.1832 33.7929 34.7927L34.5819 34.0037H32.2648C30.5084 34.0037 28.8809 33.0822 27.9773 31.5762L26.9977 29.9436L26.0227 31.5686C25.1191 33.0747 23.4916 33.9962 21.7352 33.9962H19C18.4477 33.9962 18 33.5484 18 32.9962C18 32.4439 18.4477 31.9962 19 31.9962H21.7352C22.789 31.9962 23.7655 31.4433 24.3077 30.5396L25.8315 27.9999L24.3077 25.4602C23.7655 24.5566 22.789 24.0037 21.7352 24.0037H19C18.4477 24.0037 18 23.556 18 23.0037C18 22.4514 18.4477 22.0037 19 22.0037H21.7352C23.4916 22.0037 25.1191 22.9252 26.0227 24.4312L26.9977 26.0563L27.9773 24.4237C28.8809 22.9176 30.5084 21.9962 32.2648 21.9962H34.5819L33.7929 21.2071C33.4024 20.8166 33.4024 20.1834 33.7929 19.7929Z" fill="currentColor"/>
<path d="M75.2071 19.7929C74.8166 19.4024 74.1834 19.4024 73.7929 19.7929C73.4024 20.1834 73.4024 20.8166 73.7929 21.2071L74.5819 21.9962H71.7081C69.6636 21.9962 67.8251 23.2409 67.0657 25.1392L65.0773 30.1103C64.6217 31.2493 63.5186 31.9962 62.2919 31.9962H59C58.4477 31.9962 58 32.4439 58 32.9962C58 33.5484 58.4477 33.9962 59 33.9962H62.2919C64.3364 33.9962 66.1749 32.7514 66.9343 30.8531L68.9227 25.882C69.3783 24.743 70.4814 23.9962 71.7081 23.9962H74.5866L73.7929 24.7899C73.4024 25.1805 73.4024 25.8136 73.7929 26.2041C74.1834 26.5947 74.8166 26.5947 75.2071 26.2041L77.352 24.0592C77.9378 23.4734 77.9378 22.5236 77.352 21.9379L75.2071 19.7929Z" fill="currentColor"/>
<path d="M68.9227 30.1179C69.3783 31.2569 70.4814 32.0037 71.7081 32.0037H74.5866L73.7929 31.2101C73.4024 30.8195 73.4024 30.1864 73.7929 29.7958C74.1834 29.4053 74.8166 29.4053 75.2071 29.7958L77.352 31.9408C77.9378 32.5265 77.9378 33.4763 77.352 34.0621L75.2071 36.207C74.8166 36.5976 74.1834 36.5976 73.7929 36.2071C73.4024 35.8165 73.4024 35.1834 73.7929 34.7928L74.582 34.0037H71.7081C69.6636 34.0037 67.8251 32.759 67.0657 30.8607L65.0773 25.8896C64.6217 24.7506 63.5186 24.0037 62.2919 24.0037H59C58.4477 24.0037 58 23.556 58 23.0037C58 22.4514 58.4477 22.0037 59 22.0037H62.2919C64.3364 22.0037 66.1749 23.2485 66.9343 25.1468L68.9227 30.1179Z" fill="currentColor"/>
</svg>
