<svg width="24" height="24" viewBox="16 16 24 24" fill="none" xmlns="http://www.w3.org/2000/svg">

<path fill-rule="evenodd" clip-rule="evenodd" d="M20 22C20 21.4477 20.4477 21 21 21H36C36.5523 21 37 21.4477 37 22C37 22.5523 36.5523 23 36 23H21C20.4477 23 20 22.5523 20 22Z" fill="currentColor"/>
<path fill-rule="evenodd" clip-rule="evenodd" d="M20 28C20 27.4477 20.4477 27 21 27H31C31.5523 27 32 27.4477 32 28C32 28.5523 31.5523 29 31 29H21C20.4477 29 20 28.5523 20 28Z" fill="currentColor"/>
<path fill-rule="evenodd" clip-rule="evenodd" d="M20 34C20 33.4477 20.4477 33 21 33H27C27.5523 33 28 33.4477 28 34C28 34.5523 27.5523 35 27 35H21C20.4477 35 20 34.5523 20 34Z" fill="currentColor"/>
<path fill-rule="evenodd" clip-rule="evenodd" d="M60 22C60 21.4477 60.4477 21 61 21H76C76.5523 21 77 21.4477 77 22C77 22.5523 76.5523 23 76 23H61C60.4477 23 60 22.5523 60 22Z" fill="currentColor"/>
<path fill-rule="evenodd" clip-rule="evenodd" d="M60 28C60 27.4477 60.4477 27 61 27H71C71.5523 27 72 27.4477 72 28C72 28.5523 71.5523 29 71 29H61C60.4477 29 60 28.5523 60 28Z" fill="currentColor"/>
<path fill-rule="evenodd" clip-rule="evenodd" d="M60 34C60 33.4477 60.4477 33 61 33H67C67.5523 33 68 33.4477 68 34C68 34.5523 67.5523 35 67 35H61C60.4477 35 60 34.5523 60 34Z" fill="currentColor"/>
</svg>
