<svg width="24" height="24" color="#6F767E" viewBox="16 16 24 24" fill="none" xmlns="http://www.w3.org/2000/svg">

<path d="M30.625 29.125H28.9825C28.6976 29.3758 28.3278 29.5087 27.9484 29.4966C27.569 29.4845 27.2084 29.3284 26.94 29.06C26.6716 28.7916 26.5155 28.431 26.5034 28.0516C26.4913 27.6722 26.6242 27.3024 26.875 27.0175V24.25C26.875 23.9516 26.9935 23.6655 27.2045 23.4545C27.4155 23.2435 27.7016 23.125 28 23.125C28.2984 23.125 28.5845 23.2435 28.7955 23.4545C29.0065 23.6655 29.125 23.9516 29.125 24.25V26.875H30.625C30.9234 26.875 31.2095 26.9935 31.4205 27.2045C31.6315 27.4155 31.75 27.7016 31.75 28C31.75 28.2984 31.6315 28.5845 31.4205 28.7955C31.2095 29.0065 30.9234 29.125 30.625 29.125ZM28 19C27.7016 19 27.4155 19.1185 27.2045 19.3295C26.9935 19.5405 26.875 19.8266 26.875 20.125C26.875 20.4234 26.9935 20.7095 27.2045 20.9205C27.4155 21.1315 27.7016 21.25 28 21.25C29.7896 21.252 31.5053 21.9638 32.7708 23.2292C34.0362 24.4947 34.748 26.2104 34.75 28C34.75 28.2984 34.8685 28.5845 35.0795 28.7955C35.2905 29.0065 35.5766 29.125 35.875 29.125C36.1734 29.125 36.4595 29.0065 36.6705 28.7955C36.8815 28.5845 37 28.2984 37 28C36.9974 25.6138 36.0484 23.3262 34.3611 21.6389C32.6738 19.9516 30.3862 19.0026 28 19ZM21.25 28.375C21.25 28.1525 21.184 27.935 21.0604 27.75C20.9368 27.565 20.7611 27.4208 20.5555 27.3356C20.35 27.2505 20.1238 27.2282 19.9055 27.2716C19.6873 27.315 19.4868 27.4222 19.3295 27.5795C19.1722 27.7368 19.065 27.9373 19.0216 28.1555C18.9782 28.3738 19.0005 28.6 19.0856 28.8055C19.1708 29.0111 19.315 29.1868 19.5 29.3104C19.685 29.434 19.9025 29.5 20.125 29.5C20.4234 29.5 20.7095 29.3815 20.9205 29.1705C21.1315 28.9595 21.25 28.6734 21.25 28.375ZM24.055 20.4205C23.8325 20.4205 23.615 20.4865 23.43 20.6101C23.245 20.7337 23.1008 20.9094 23.0156 21.115C22.9305 21.3205 22.9082 21.5467 22.9516 21.765C22.995 21.9832 23.1022 22.1837 23.2595 22.341C23.4168 22.4983 23.6173 22.6055 23.8355 22.6489C24.0538 22.6923 24.28 22.67 24.4855 22.5849C24.6911 22.4997 24.8668 22.3555 24.9904 22.1705C25.114 21.9855 25.18 21.768 25.18 21.5455C25.18 21.2471 25.0615 20.961 24.8505 20.75C24.6395 20.539 24.3534 20.4205 24.055 20.4205ZM21.1848 23.3125C20.9622 23.3125 20.7447 23.3785 20.5597 23.5021C20.3747 23.6257 20.2305 23.8014 20.1454 24.007C20.0602 24.2125 20.038 24.4387 20.0814 24.657C20.1248 24.8752 20.2319 25.0757 20.3893 25.233C20.5466 25.3903 20.747 25.4975 20.9653 25.5409C21.1835 25.5843 21.4097 25.562 21.6153 25.4769C21.8208 25.3917 21.9965 25.2475 22.1202 25.0625C22.2438 24.8775 22.3098 24.66 22.3098 24.4375C22.3098 24.1391 22.1912 23.853 21.9802 23.642C21.7693 23.431 21.4831 23.3125 21.1848 23.3125ZM24.055 34.0795C23.8325 34.0795 23.615 34.1455 23.43 34.2691C23.245 34.3927 23.1008 34.5684 23.0156 34.774C22.9305 34.9795 22.9082 35.2057 22.9516 35.424C22.995 35.6422 23.1022 35.8427 23.2595 36C23.4168 36.1573 23.6173 36.2645 23.8355 36.3079C24.0538 36.3513 24.28 36.329 24.4855 36.2439C24.6911 36.1587 24.8668 36.0145 24.9904 35.8295C25.114 35.6445 25.18 35.427 25.18 35.2045C25.18 34.9061 25.0615 34.62 24.8505 34.409C24.6395 34.198 24.3534 34.0795 24.055 34.0795ZM21.1848 31.1875C20.9622 31.1875 20.7447 31.2535 20.5597 31.3771C20.3747 31.5007 20.2305 31.6764 20.1454 31.882C20.0602 32.0875 20.038 32.3137 20.0814 32.532C20.1248 32.7502 20.2319 32.9507 20.3893 33.108C20.5466 33.2653 20.747 33.3725 20.9653 33.4159C21.1835 33.4593 21.4097 33.437 21.6153 33.3519C21.8208 33.2667 21.9965 33.1225 22.1202 32.9375C22.2438 32.7525 22.3098 32.535 22.3098 32.3125C22.3098 32.0141 22.1912 31.728 21.9802 31.517C21.7693 31.306 21.4831 31.1875 21.1848 31.1875ZM28 34.75C27.7775 34.75 27.56 34.816 27.375 34.9396C27.19 35.0632 27.0458 35.2389 26.9606 35.4445C26.8755 35.65 26.8532 35.8762 26.8966 36.0945C26.94 36.3127 27.0472 36.5132 27.2045 36.6705C27.3618 36.8278 27.5623 36.935 27.7805 36.9784C27.9988 37.0218 28.225 36.9995 28.4305 36.9144C28.6361 36.8292 28.8118 36.685 28.9354 36.5C29.059 36.315 29.125 36.0975 29.125 35.875C29.125 35.5766 29.0065 35.2905 28.7955 35.0795C28.5845 34.8685 28.2984 34.75 28 34.75ZM34.8295 30.82C34.607 30.82 34.3895 30.886 34.2045 31.0096C34.0195 31.1332 33.8753 31.3089 33.7901 31.5145C33.705 31.72 33.6827 31.9462 33.7261 32.1645C33.7695 32.3827 33.8767 32.5832 34.034 32.7405C34.1913 32.8978 34.3918 33.005 34.61 33.0484C34.8283 33.0918 35.0545 33.0695 35.26 32.9844C35.4656 32.8992 35.6413 32.755 35.7649 32.57C35.8885 32.385 35.9545 32.1675 35.9545 31.945C35.9545 31.6466 35.836 31.3605 35.625 31.1495C35.414 30.9385 35.1279 30.82 34.8295 30.82ZM31.9375 33.6903C31.715 33.6903 31.4975 33.7562 31.3125 33.8798C31.1275 34.0035 30.9833 34.1792 30.8981 34.3847C30.813 34.5903 30.7907 34.8165 30.8341 35.0347C30.8775 35.253 30.9847 35.4534 31.142 35.6107C31.2993 35.7681 31.4998 35.8752 31.718 35.9186C31.9363 35.962 32.1625 35.9398 32.368 35.8546C32.5736 35.7695 32.7493 35.6253 32.8729 35.4403C32.9965 35.2553 33.0625 35.0378 33.0625 34.8153C33.0625 34.5169 32.944 34.2307 32.733 34.0198C32.522 33.8088 32.2359 33.6903 31.9375 33.6903Z" fill="currentColor"/>
<path d="M70.625 29.125H68.9825C68.6976 29.3758 68.3278 29.5087 67.9484 29.4966C67.569 29.4845 67.2084 29.3284 66.94 29.06C66.6716 28.7916 66.5155 28.431 66.5034 28.0516C66.4913 27.6722 66.6242 27.3024 66.875 27.0175V24.25C66.875 23.9516 66.9935 23.6655 67.2045 23.4545C67.4155 23.2435 67.7016 23.125 68 23.125C68.2984 23.125 68.5845 23.2435 68.7955 23.4545C69.0065 23.6655 69.125 23.9516 69.125 24.25V26.875H70.625C70.9234 26.875 71.2095 26.9935 71.4205 27.2045C71.6315 27.4155 71.75 27.7016 71.75 28C71.75 28.2984 71.6315 28.5845 71.4205 28.7955C71.2095 29.0065 70.9234 29.125 70.625 29.125ZM68 19C67.7016 19 67.4155 19.1185 67.2045 19.3295C66.9935 19.5405 66.875 19.8266 66.875 20.125C66.875 20.4234 66.9935 20.7095 67.2045 20.9205C67.4155 21.1315 67.7016 21.25 68 21.25C69.7896 21.252 71.5053 21.9638 72.7708 23.2292C74.0362 24.4947 74.748 26.2104 74.75 28C74.75 28.2984 74.8685 28.5845 75.0795 28.7955C75.2905 29.0065 75.5766 29.125 75.875 29.125C76.1734 29.125 76.4595 29.0065 76.6705 28.7955C76.8815 28.5845 77 28.2984 77 28C76.9974 25.6138 76.0484 23.3262 74.3611 21.6389C72.6738 19.9516 70.3862 19.0026 68 19ZM61.25 28.375C61.25 28.1525 61.184 27.935 61.0604 27.75C60.9368 27.565 60.7611 27.4208 60.5555 27.3356C60.35 27.2505 60.1238 27.2282 59.9055 27.2716C59.6873 27.315 59.4868 27.4222 59.3295 27.5795C59.1722 27.7368 59.065 27.9373 59.0216 28.1555C58.9782 28.3738 59.0005 28.6 59.0856 28.8055C59.1708 29.0111 59.315 29.1868 59.5 29.3104C59.685 29.434 59.9025 29.5 60.125 29.5C60.4234 29.5 60.7095 29.3815 60.9205 29.1705C61.1315 28.9595 61.25 28.6734 61.25 28.375ZM64.055 20.4205C63.8325 20.4205 63.615 20.4865 63.43 20.6101C63.245 20.7337 63.1008 20.9094 63.0156 21.115C62.9305 21.3205 62.9082 21.5467 62.9516 21.765C62.995 21.9832 63.1022 22.1837 63.2595 22.341C63.4168 22.4983 63.6173 22.6055 63.8355 22.6489C64.0538 22.6923 64.28 22.67 64.4855 22.5849C64.6911 22.4997 64.8668 22.3555 64.9904 22.1705C65.114 21.9855 65.18 21.768 65.18 21.5455C65.18 21.2471 65.0615 20.961 64.8505 20.75C64.6395 20.539 64.3534 20.4205 64.055 20.4205ZM61.1848 23.3125C60.9622 23.3125 60.7447 23.3785 60.5597 23.5021C60.3747 23.6257 60.2305 23.8014 60.1454 24.007C60.0602 24.2125 60.038 24.4387 60.0814 24.657C60.1248 24.8752 60.2319 25.0757 60.3893 25.233C60.5466 25.3903 60.747 25.4975 60.9653 25.5409C61.1835 25.5843 61.4097 25.562 61.6153 25.4769C61.8208 25.3917 61.9965 25.2475 62.1202 25.0625C62.2438 24.8775 62.3098 24.66 62.3098 24.4375C62.3098 24.1391 62.1912 23.853 61.9802 23.642C61.7693 23.431 61.4831 23.3125 61.1848 23.3125ZM64.055 34.0795C63.8325 34.0795 63.615 34.1455 63.43 34.2691C63.245 34.3927 63.1008 34.5684 63.0156 34.774C62.9305 34.9795 62.9082 35.2057 62.9516 35.424C62.995 35.6422 63.1022 35.8427 63.2595 36C63.4168 36.1573 63.6173 36.2645 63.8355 36.3079C64.0538 36.3513 64.28 36.329 64.4855 36.2439C64.6911 36.1587 64.8668 36.0145 64.9904 35.8295C65.114 35.6445 65.18 35.427 65.18 35.2045C65.18 34.9061 65.0615 34.62 64.8505 34.409C64.6395 34.198 64.3534 34.0795 64.055 34.0795ZM61.1848 31.1875C60.9622 31.1875 60.7447 31.2535 60.5597 31.3771C60.3747 31.5007 60.2305 31.6764 60.1454 31.882C60.0602 32.0875 60.038 32.3137 60.0814 32.532C60.1248 32.7502 60.2319 32.9507 60.3893 33.108C60.5466 33.2653 60.747 33.3725 60.9653 33.4159C61.1835 33.4593 61.4097 33.437 61.6153 33.3519C61.8208 33.2667 61.9965 33.1225 62.1202 32.9375C62.2438 32.7525 62.3098 32.535 62.3098 32.3125C62.3098 32.0141 62.1912 31.728 61.9802 31.517C61.7693 31.306 61.4831 31.1875 61.1848 31.1875ZM68 34.75C67.7775 34.75 67.56 34.816 67.375 34.9396C67.19 35.0632 67.0458 35.2389 66.9606 35.4445C66.8755 35.65 66.8532 35.8762 66.8966 36.0945C66.94 36.3127 67.0472 36.5132 67.2045 36.6705C67.3618 36.8278 67.5623 36.935 67.7805 36.9784C67.9988 37.0218 68.225 36.9995 68.4305 36.9144C68.6361 36.8292 68.8118 36.685 68.9354 36.5C69.059 36.315 69.125 36.0975 69.125 35.875C69.125 35.5766 69.0065 35.2905 68.7955 35.0795C68.5845 34.8685 68.2984 34.75 68 34.75ZM74.8295 30.82C74.607 30.82 74.3895 30.886 74.2045 31.0096C74.0195 31.1332 73.8753 31.3089 73.7901 31.5145C73.705 31.72 73.6827 31.9462 73.7261 32.1645C73.7695 32.3827 73.8767 32.5832 74.034 32.7405C74.1913 32.8978 74.3918 33.005 74.61 33.0484C74.8283 33.0918 75.0545 33.0695 75.26 32.9844C75.4656 32.8992 75.6413 32.755 75.7649 32.57C75.8885 32.385 75.9545 32.1675 75.9545 31.945C75.9545 31.6466 75.836 31.3605 75.625 31.1495C75.414 30.9385 75.1279 30.82 74.8295 30.82ZM71.9375 33.6903C71.715 33.6903 71.4975 33.7562 71.3125 33.8798C71.1275 34.0035 70.9833 34.1792 70.8981 34.3847C70.813 34.5903 70.7907 34.8165 70.8341 35.0347C70.8775 35.253 70.9847 35.4534 71.142 35.6107C71.2993 35.7681 71.4998 35.8752 71.718 35.9186C71.9363 35.962 72.1625 35.9398 72.368 35.8546C72.5736 35.7695 72.7493 35.6253 72.8729 35.4403C72.9965 35.2553 73.0625 35.0378 73.0625 34.8153C73.0625 34.5169 72.944 34.2307 72.733 34.0198C72.522 33.8088 72.2359 33.6903 71.9375 33.6903Z" fill="currentColor"/>
</svg>
