<svg width="24" height="24" color="#6F767E" viewBox="16 16 24 24" fill="none" xmlns="http://www.w3.org/2000/svg">

<path fill-rule="evenodd" clip-rule="evenodd" d="M35.7822 18.4795C35.6655 17.6639 34.6677 17.3315 34.0851 17.9142L32.7834 19.2162C31.3625 18.4408 29.7327 18.0001 28 18.0001C22.4772 18.0001 18 22.4773 18 28.0001C18 33.523 22.4772 38.0001 28 38.0001C33.5228 38.0001 38 33.523 38 28.0001C38 26.2672 37.5592 24.6373 36.7837 23.2163L38.0857 21.9143C38.6684 21.3316 38.3358 20.3338 37.52 20.2173L35.9999 20.0001L35.7822 18.4795ZM33.2374 24.1769L35.0049 24.4294C35.0586 24.4371 35.1124 24.4403 35.1658 24.4393C35.6997 25.5117 36 26.7208 36 28.0001C36 32.4184 32.4183 36.0001 28 36.0001C23.5817 36.0001 20 32.4184 20 28.0001C20 23.5818 23.5817 20.0001 28 20.0001C29.2793 20.0001 30.4884 20.3004 31.5607 20.8343C31.5597 20.8876 31.5629 20.9414 31.5706 20.995L31.8231 22.7628L31.4765 23.1094C30.4957 22.4109 29.2958 22.0001 28 22.0001C24.6863 22.0001 22 24.6864 22 28.0001C22 31.3138 24.6863 34.0001 28 34.0001C31.3137 34.0001 34 31.3138 34 28.0001C34 26.7043 33.5892 25.5044 32.8907 24.5236L33.2374 24.1769ZM28 24.0001C28.7418 24.0001 29.4365 24.2021 30.032 24.5539L28.518 26.0679C28.3528 26.0237 28.1792 26.0001 28 26.0001C26.8954 26.0001 26 26.8956 26 28.0001C26 29.1047 26.8954 30.0001 28 30.0001C29.1046 30.0001 30 29.1047 30 28.0001C30 27.821 29.9764 27.6473 29.9323 27.4821L31.4462 25.9682C31.7981 26.5637 32 27.2583 32 28.0001C32 30.2093 30.2091 32.0001 28 32.0001C25.7909 32.0001 24 30.2093 24 28.0001C24 25.791 25.7909 24.0001 28 24.0001Z" fill="currentColor"/>
<path fill-rule="evenodd" clip-rule="evenodd" d="M68 32.0001C70.2091 32.0001 72 30.2093 72 28.0001C72 25.791 70.2091 24.0001 68 24.0001C65.7909 24.0001 64 25.791 64 28.0001C64 30.2093 65.7909 32.0001 68 32.0001ZM68 34.0001C71.3137 34.0001 74 31.3138 74 28.0001C74 24.6864 71.3137 22.0001 68 22.0001C64.6863 22.0001 62 24.6864 62 28.0001C62 31.3138 64.6863 34.0001 68 34.0001Z" fill="currentColor"/>
<path fill-rule="evenodd" clip-rule="evenodd" d="M68 30.0001C69.1046 30.0001 70 29.1047 70 28.0001C70 26.8956 69.1046 26.0001 68 26.0001C66.8954 26.0001 66 26.8956 66 28.0001C66 29.1047 66.8954 30.0001 68 30.0001Z" fill="currentColor"/>
<path d="M72.7835 19.2163C71.3626 18.4408 69.7328 18.0001 68 18.0001C62.4772 18.0001 58 22.4773 58 28.0001C58 33.523 62.4772 38.0001 68 38.0001C73.5228 38.0001 78 33.523 78 28.0001C78 26.2673 77.5592 24.6374 76.7837 23.2164L75.8536 24.1466C75.6693 24.3308 75.4222 24.4343 75.1658 24.4393C75.6997 25.5117 76 26.7208 76 28.0001C76 32.4184 72.4183 36.0001 68 36.0001C63.5817 36.0001 60 32.4184 60 28.0001C60 23.5818 63.5817 20.0001 68 20.0001C69.2793 20.0001 70.4885 20.3004 71.5609 20.8343C71.5658 20.578 71.6693 20.3308 71.8535 20.1466L72.7835 19.2163Z" fill="currentColor"/>
<path fill-rule="evenodd" clip-rule="evenodd" d="M74.0852 17.9142C74.6678 17.3315 75.6656 17.6639 75.7824 18.4795L76 20.0001L77.5201 20.2173C78.3359 20.3338 78.6685 21.3316 78.0858 21.9143L75.8536 24.1466C75.631 24.3691 75.3166 24.4739 75.0051 24.4294L73.2364 24.1767C73.2269 24.1871 73.2171 24.1972 73.2071 24.2072L68.7071 28.7072C68.3166 29.0978 67.6834 29.0978 67.2929 28.7072C66.9024 28.3167 66.9024 27.6835 67.2929 27.293L71.7929 22.793C71.8029 22.783 71.8131 22.7732 71.8234 22.7637L71.5707 20.995C71.5262 20.6835 71.631 20.3692 71.8535 20.1466L74.0852 17.9142ZM73.6213 21.2071L74.1269 20.7014C74.3292 21.2424 74.7576 21.6708 75.2985 21.8732L74.7929 22.3788L73.7678 22.2324L73.6213 21.2071Z" fill="currentColor"/>
</svg>
