<svg width="24" height="24" color="#6F767E" viewBox="16 16 24 24" fill="none" xmlns="http://www.w3.org/2000/svg">

<path d="M30 22C30 23.1046 29.1046 24 28 24C26.8954 24 26 23.1046 26 22C26 20.8954 26.8954 20 28 20C29.1046 20 30 20.8954 30 22Z" fill="currentColor"/>
<path d="M30 28C30 29.1046 29.1046 30 28 30C26.8954 30 26 29.1046 26 28C26 26.8954 26.8954 26 28 26C29.1046 26 30 26.8954 30 28Z" fill="currentColor"/>
<path d="M30 34C30 35.1046 29.1046 36 28 36C26.8954 36 26 35.1046 26 34C26 32.8954 26.8954 32 28 32C29.1046 32 30 32.8954 30 34Z" fill="currentColor"/>
<path fill-rule="evenodd" clip-rule="evenodd" d="M68 22C68.5523 22 69 21.5523 69 21C69 20.4477 68.5523 20 68 20C67.4477 20 67 20.4477 67 21C67 21.5523 67.4477 22 68 22ZM68 24C69.6569 24 71 22.6569 71 21C71 19.3431 69.6569 18 68 18C66.3431 18 65 19.3431 65 21C65 22.6569 66.3431 24 68 24Z" fill="currentColor"/>
<path fill-rule="evenodd" clip-rule="evenodd" d="M68 29C68.5523 29 69 28.5523 69 28C69 27.4477 68.5523 27 68 27C67.4477 27 67 27.4477 67 28C67 28.5523 67.4477 29 68 29ZM68 31C69.6569 31 71 29.6569 71 28C71 26.3431 69.6569 25 68 25C66.3431 25 65 26.3431 65 28C65 29.6569 66.3431 31 68 31Z" fill="currentColor"/>
<path fill-rule="evenodd" clip-rule="evenodd" d="M68 36C68.5523 36 69 35.5523 69 35C69 34.4477 68.5523 34 68 34C67.4477 34 67 34.4477 67 35C67 35.5523 67.4477 36 68 36ZM68 38C69.6569 38 71 36.6569 71 35C71 33.3431 69.6569 32 68 32C66.3431 32 65 33.3431 65 35C65 36.6569 66.3431 38 68 38Z" fill="currentColor"/>
</svg>
