<svg width="24" height="24" color="#6F767E" viewBox="16 16 24 24" fill="none" xmlns="http://www.w3.org/2000/svg">

<path d="M18 27.9999C18 26.8953 18.8954 25.9999 20 25.9999H21C21.5523 25.9999 22 26.4476 22 26.9999V35.9999C22 36.5521 21.5523 36.9999 21 36.9999H20C18.8954 36.9999 18 36.1044 18 34.9999V27.9999Z" fill="currentColor"/>
<path d="M38.3113 28.525C38.6582 27.2531 37.701 25.9993 36.3826 25.9988L31.1401 25.9967C30.8149 25.9966 30.5764 25.6909 30.6553 25.3754L31.3707 22.5137C31.7384 21.0429 31.0352 19.5141 29.6792 18.8361C28.8687 18.4308 27.9034 18.9628 27.8132 19.8646L27.5954 22.0423C27.5334 22.6629 27.2794 23.2488 26.8689 23.7183L24.4943 26.4345C24.1756 26.799 24 27.2667 24 27.7509V34.9999C24 36.1044 24.8954 36.9999 26 36.9999H33.7086C35.0615 36.9999 36.2469 36.0944 36.6029 34.7892L38.3113 28.525Z" fill="currentColor"/>
<path fill-rule="evenodd" clip-rule="evenodd" d="M69.0272 25.671C68.9306 26.2508 69.0939 26.8437 69.4737 27.2923C69.8535 27.7408 70.4114 27.9996 70.9991 27.9998L75.1582 28.0016C75.8087 28.0019 76.2857 28.6132 76.1279 29.2442L74.628 35.2424C74.5166 35.6876 74.1167 35.9998 73.6578 35.9998H64V28.7014L66.9043 25.071C67.6136 24.1844 68 23.0829 68 21.9475V20.7924C68.9985 21.26 69.582 22.3426 69.3969 23.4532L69.0272 25.671ZM62.8 26.9998L65.3426 23.8216C65.7682 23.2896 66 22.6287 66 21.9475V20.4901C66 19.265 67.2002 18.3999 68.3625 18.7873C70.4572 19.4856 71.7326 21.604 71.3696 23.782L71 25.9998L75.1591 26.0016C77.1104 26.0025 78.5416 27.8364 78.0682 29.7294L76.5682 35.7276C76.2343 37.063 75.0344 37.9998 73.6578 37.9998H61C59.3431 37.9998 58 36.6567 58 34.9998V29.9998C58 28.343 59.3431 26.9998 61 26.9998H62.8ZM62 28.9998H61C60.4477 28.9998 60 29.4476 60 29.9998V34.9998C60 35.5521 60.4477 35.9998 61 35.9998H62V28.9998Z" fill="currentColor"/>
</svg>
