<svg width="24" height="24" color="#6F767E" viewBox="16 16 24 24" fill="none" xmlns="http://www.w3.org/2000/svg">

<path d="M22.7714 20.4738C22.4832 20.0038 21.8653 19.8529 21.4234 20.1825C21.0333 20.4735 20.663 20.7899 20.3149 21.1299C19.9204 21.5151 19.9732 22.1489 20.3925 22.5068C20.8119 22.8647 21.4385 22.8102 21.8406 22.433C22.0429 22.2433 22.2539 22.063 22.4729 21.8927C22.9081 21.5542 23.0596 20.9438 22.7714 20.4738Z" fill="currentColor"/>
<path d="M33.2286 20.4738C33.5168 20.0038 34.1347 19.8529 34.5766 20.1825C34.9667 20.4735 35.337 20.7899 35.6851 21.1299C36.0796 21.5151 36.0268 22.1489 35.6075 22.5068C35.1881 22.8647 34.5615 22.8102 34.1594 22.433C33.9571 22.2433 33.7461 22.063 33.5271 21.8927C33.0919 21.5542 32.9404 20.9438 33.2286 20.4738Z" fill="currentColor"/>
<path fill-rule="evenodd" clip-rule="evenodd" d="M25 19C25 18.4477 25.4477 18 26 18H30C30.5523 18 31 18.4477 31 19C31 19.5523 30.5523 20 30 20H29V21.0619C32.9463 21.554 36 24.9204 36 29C36 33.4183 32.4183 37 28 37C23.5817 37 20 33.4183 20 29C20 24.9204 23.0537 21.554 27 21.0619V20H26C25.4477 20 25 19.5523 25 19ZM31.7071 25.2929C32.0976 25.6834 32.0976 26.3166 31.7071 26.7071L29.9323 28.482C29.9764 28.6472 30 28.8208 30 29C30 30.1046 29.1046 31 28 31C26.8954 31 26 30.1046 26 29C26 27.8954 26.8954 27 28 27C28.1792 27 28.3528 27.0236 28.518 27.0677L30.2929 25.2929C30.6834 24.9024 31.3166 24.9024 31.7071 25.2929Z" fill="currentColor"/>
<path d="M62.7714 20.4738C62.4832 20.0038 61.8653 19.8529 61.4234 20.1825C61.0333 20.4735 60.663 20.7899 60.3149 21.1299C59.9204 21.5151 59.9732 22.1489 60.3925 22.5068C60.8119 22.8647 61.4385 22.8102 61.8406 22.433C62.0429 22.2433 62.2539 22.063 62.4729 21.8927C62.9081 21.5542 63.0596 20.9438 62.7714 20.4738Z" fill="currentColor"/>
<path d="M73.2286 20.4738C73.5168 20.0038 74.1347 19.8529 74.5766 20.1825C74.9667 20.4735 75.337 20.7899 75.6851 21.1299C76.0796 21.5151 76.0268 22.1489 75.6075 22.5068C75.1881 22.8647 74.5615 22.8102 74.1594 22.433C73.9571 22.2433 73.7461 22.063 73.5271 21.8927C73.0919 21.5542 72.9404 20.9438 73.2286 20.4738Z" fill="currentColor"/>
<path d="M71.2071 27.2071C71.5976 26.8166 71.5976 26.1834 71.2071 25.7929C70.8166 25.4024 70.1834 25.4024 69.7929 25.7929L68.518 27.0677C68.3528 27.0236 68.1792 27 68 27C66.8954 27 66 27.8954 66 29C66 30.1046 66.8954 31 68 31C69.1046 31 70 30.1046 70 29C70 28.8208 69.9764 28.6472 69.9323 28.482L71.2071 27.2071Z" fill="currentColor"/>
<path fill-rule="evenodd" clip-rule="evenodd" d="M66 18C65.4477 18 65 18.4477 65 19C65 19.5523 65.4477 20 66 20H67V21.0619C63.0537 21.554 60 24.9204 60 29C60 33.4183 63.5817 37 68 37C72.4183 37 76 33.4183 76 29C76 24.9204 72.9463 21.554 69 21.0619V20H70C70.5523 20 71 19.5523 71 19C71 18.4477 70.5523 18 70 18H66ZM68 35C71.3137 35 74 32.3137 74 29C74 25.6863 71.3137 23 68 23C64.6863 23 62 25.6863 62 29C62 32.3137 64.6863 35 68 35Z" fill="currentColor"/>
</svg>
