<svg width="20" height="20" viewBox="0 0 20 20" fill="none" xmlns="http://www.w3.org/2000/svg">
<path d="M5.64346 3.72811C5.40328 3.33646 4.88839 3.21072 4.52011 3.4854C4.19507 3.72784 3.88648 3.99157 3.59636 4.27487C3.26766 4.59585 3.31164 5.12405 3.66109 5.42231C4.01054 5.72058 4.53272 5.67514 4.86782 5.36083C5.03642 5.2027 5.21224 5.05243 5.39472 4.91053C5.75739 4.62849 5.88363 4.11976 5.64346 3.72811Z" fill="currentColor"/>
<path d="M14.3578 3.72811C14.598 3.33646 15.1129 3.21072 15.4812 3.4854C15.8062 3.72784 16.1148 3.99157 16.4049 4.27487C16.7336 4.59585 16.6897 5.12405 16.3402 5.42231C15.9908 5.72058 15.4686 5.67514 15.1335 5.36083C14.9649 5.2027 14.7891 5.05243 14.6066 4.91053C14.2439 4.62849 14.1177 4.11976 14.3578 3.72811Z" fill="currentColor"/>
<path fill-rule="evenodd" clip-rule="evenodd" d="M7.50065 2.49996C7.50065 2.03972 7.87375 1.66663 8.33398 1.66663H11.6673C12.1276 1.66663 12.5007 2.03972 12.5007 2.49996C12.5007 2.9602 12.1276 3.33329 11.6673 3.33329H10.834V4.2182C14.1226 4.62829 16.6673 7.43361 16.6673 10.8333C16.6673 14.5152 13.6825 17.5 10.0007 17.5C6.31875 17.5 3.33398 14.5152 3.33398 10.8333C3.33398 7.43361 5.87872 4.62829 9.16732 4.2182V3.33329H8.33398C7.87375 3.33329 7.50065 2.9602 7.50065 2.49996ZM13.0899 7.74404C13.4153 8.06947 13.4153 8.59711 13.0899 8.92255L11.6109 10.4016C11.6477 10.5393 11.6673 10.684 11.6673 10.8333C11.6673 11.7538 10.9211 12.5 10.0007 12.5C9.08018 12.5 8.33398 11.7538 8.33398 10.8333C8.33398 9.91282 9.08018 9.16663 10.0007 9.16663C10.15 9.16663 10.2947 9.18626 10.4324 9.22308L11.9114 7.74404C12.2368 7.4186 12.7645 7.4186 13.0899 7.74404Z" fill="currentColor"/>
</svg>
