<svg width="24" height="24" viewBox="16 16 24 24" fill="none" xmlns="http://www.w3.org/2000/svg">

<path fill-rule="evenodd" clip-rule="evenodd" d="M21 24C20.4477 24 20 24.4477 20 25V35C20 36.6569 21.3431 38 23 38H33C34.6569 38 36 36.6569 36 35V25C36 24.4477 35.5523 24 35 24H21ZM25 27C25.5523 27 26 27.4477 26 28V34C26 34.5523 25.5523 35 25 35C24.4477 35 24 34.5523 24 34V28C24 27.4477 24.4477 27 25 27ZM32 28C32 27.4477 31.5523 27 31 27C30.4477 27 30 27.4477 30 28V34C30 34.5523 30.4477 35 31 35C31.5523 35 32 34.5523 32 34V28Z" fill="currentColor"/>
<path d="M20 22C19.4477 22 19 21.5523 19 21C19 20.4477 19.4477 20 20 20H23.1707C23.5825 18.8348 24.6938 18 26 18H30C31.3062 18 32.4175 18.8348 32.8293 20H36C36.5523 20 37 20.4477 37 21C37 21.5523 36.5523 22 36 22H20Z" fill="currentColor"/>
<path fill-rule="evenodd" clip-rule="evenodd" d="M66 26C66.5523 26 67 26.4477 67 27V32C67 32.5523 66.5523 33 66 33C65.4477 33 65 32.5523 65 32V27C65 26.4477 65.4477 26 66 26Z" fill="currentColor"/>
<path fill-rule="evenodd" clip-rule="evenodd" d="M70 26C70.5523 26 71 26.4477 71 27V32C71 32.5523 70.5523 33 70 33C69.4477 33 69 32.5523 69 32V27C69 26.4477 69.4477 26 70 26Z" fill="currentColor"/>
<path fill-rule="evenodd" clip-rule="evenodd" d="M66 18C64.3431 18 63 19.3431 63 21H59C58.4477 21 58 21.4477 58 22C58 22.5523 58.4477 23 59 23H60V35C60 36.6569 61.3431 38 63 38H73C74.6569 38 76 36.6569 76 35V23H77C77.5523 23 78 22.5523 78 22C78 21.4477 77.5523 21 77 21H73C73 19.3431 71.6569 18 70 18H66ZM71 21C71 20.4477 70.5523 20 70 20H66C65.4477 20 65 20.4477 65 21H71ZM62 23V35C62 35.5523 62.4477 36 63 36H73C73.5523 36 74 35.5523 74 35V23H62Z" fill="currentColor"/>
</svg>
