<svg width="24" height="24" color="#6F767E" viewBox="16 16 24 24" fill="none" xmlns="http://www.w3.org/2000/svg">

<path fill-rule="evenodd" clip-rule="evenodd" d="M20 20C18.3431 20 17 21.3431 17 23V32C17 33.3538 17.8967 34.4981 19.1285 34.8715C19.5019 36.1033 20.6462 37 22 37C23.3062 37 24.4175 36.1652 24.8293 35H31.1707C31.5825 36.1652 32.6938 37 34 37C35.3146 37 36.4318 36.1544 36.8372 34.9775C38.0584 34.8128 39 33.7664 39 32.5V27.6667C39 27.2339 38.8596 26.8129 38.6 26.4667L36.6 23.8C36.2223 23.2964 35.6295 23 35 23H33C33 21.3431 31.6569 20 30 20H20ZM33.5 25C33.2239 25 33 25.2239 33 25.5V28.5C33 28.7761 33.2239 29 33.5 29H36.5C36.7761 29 37 28.7761 37 28.5V27.8333C37 27.7251 36.9649 27.6199 36.9 27.5333L35.15 25.2C35.0556 25.0741 34.9074 25 34.75 25H33.5ZM23 34C23 34.5523 22.5523 35 22 35C21.4477 35 21 34.5523 21 34C21 33.4477 21.4477 33 22 33C22.5523 33 23 33.4477 23 34ZM34 35C34.5523 35 35 34.5523 35 34C35 33.4477 34.5523 33 34 33C33.4477 33 33 33.4477 33 34C33 34.5523 33.4477 35 34 35Z" fill="currentColor"/>
<path fill-rule="evenodd" clip-rule="evenodd" d="M61 34H75C76.6569 34 78 32.6569 78 31V28.7082C78 28.2425 77.8916 27.7831 77.6833 27.3666L75.8292 23.6584C75.321 22.642 74.2822 22 73.1459 22H71.8293C71.4175 20.8348 70.3062 20 69 20H61C59.3431 20 58 21.3431 58 23V31C58 32.6569 59.3431 34 61 34ZM69 22H61C60.4477 22 60 22.4477 60 23V31C60 31.5523 60.4477 32 61 32H70V23C70 22.4477 69.5523 22 69 22ZM72 28V32H75C75.5523 32 76 31.5523 76 31V28.7082C76 28.553 75.9639 28.3998 75.8944 28.261L75.7639 28H72ZM74.7639 26H72V24H73.1459C73.5247 24 73.8709 24.214 74.0403 24.5528L74.7639 26Z" fill="currentColor"/>
<path fill-rule="evenodd" clip-rule="evenodd" d="M63 36C64.1046 36 65 35.1046 65 34C65 32.8954 64.1046 32 63 32C61.8954 32 61 32.8954 61 34C61 35.1046 61.8954 36 63 36Z" fill="currentColor"/>
<path fill-rule="evenodd" clip-rule="evenodd" d="M74 36C75.1046 36 76 35.1046 76 34C76 32.8954 75.1046 32 74 32C72.8954 32 72 32.8954 72 34C72 35.1046 72.8954 36 74 36Z" fill="currentColor"/>
</svg>
