<svg width="24" height="24" viewBox="16 16 24 24" fill="none" xmlns="http://www.w3.org/2000/svg">

<path fill-rule="evenodd" clip-rule="evenodd" d="M28 20C29.3966 20 30.5725 20.9551 30.9056 22.2493C31.0433 22.7841 31.5884 23.1061 32.1233 22.9684C32.6581 22.8308 32.9801 22.2856 32.8425 21.7507C32.2875 19.5944 30.3312 18 28 18C25.2386 18 23 20.2386 23 23L23 24C21.3431 24 20 25.3431 20 27V35C20 36.6569 21.3431 38 23 38H33C34.6569 38 36 36.6569 36 35V27C36 25.3431 34.6569 24 33 24H25V23C25 21.3431 26.3432 20 28 20ZM30 30C30 30.7403 29.5978 31.3866 29 31.7324V33C29 33.5523 28.5523 34 28 34C27.4477 34 27 33.5523 27 33V31.7324C26.4022 31.3866 26 30.7403 26 30C26 28.8954 26.8954 28 28 28C29.1046 28 30 28.8954 30 30Z" fill="currentColor"/>
<path d="M69 31.7324C69.5978 31.3866 70 30.7403 70 30C70 28.8954 69.1046 28 68 28C66.8954 28 66 28.8954 66 30C66 30.7403 66.4022 31.3866 67 31.7324V33C67 33.5523 67.4477 34 68 34C68.5523 34 69 33.5523 69 33V31.7324Z" fill="currentColor"/>
<path fill-rule="evenodd" clip-rule="evenodd" d="M70.9055 22.2493C70.5724 20.9551 69.3965 20 68 20C66.3431 20 65 21.3431 65 23V24H73C74.6569 24 76 25.3431 76 27V35C76 36.6569 74.6569 38 73 38H63C61.3431 38 60 36.6569 60 35V27C60 25.3432 61.3431 24 63 24V23C63 20.2386 65.2386 18 68 18C70.3312 18 72.2874 19.5944 72.8424 21.7507C72.9801 22.2856 72.6581 22.8308 72.1232 22.9684C71.5884 23.1061 71.0432 22.7841 70.9055 22.2493ZM63 26C62.4477 26 62 26.4477 62 27V35C62 35.5523 62.4477 36 63 36H73C73.5523 36 74 35.5523 74 35V27C74 26.4477 73.5523 26 73 26H63Z" fill="currentColor"/>
</svg>
