<svg width="24" height="24" viewBox="16 16 24 24" fill="none" xmlns="http://www.w3.org/2000/svg">

<path d="M20 28C20 23.5817 23.5817 20 28 20C30.5171 20 32.7288 21.1635 34.1822 22.9932L32.5029 22.9883C31.9506 22.9867 31.5016 23.4331 31.5 23.9854C31.4984 24.5376 31.9448 24.9867 32.4971 24.9883L36.4971 25C36.7628 25.0008 37.0179 24.8958 37.2061 24.7081C37.3942 24.5205 37.5 24.2657 37.5 24L37.5 20C37.5 19.4477 37.0523 19 36.5 19C35.9477 19 35.5 19.4477 35.5 20L35.5 21.4495C33.6875 19.3404 31.023 18 28 18C22.4772 18 18 22.4772 18 28C18 33.5228 22.4772 38 28 38C31.9359 38 35.2641 35.7278 36.8955 32.445C37.1413 31.9505 36.9396 31.3503 36.445 31.1045C35.9505 30.8587 35.3503 31.0604 35.1045 31.555C33.7905 34.1991 31.1315 36 28 36C23.5817 36 20 32.4183 20 28Z" fill="currentColor"/>
<path fill-rule="evenodd" clip-rule="evenodd" d="M28 23C28.5523 23 29 23.4477 29 24V27.5858L30.7071 29.2929C31.0976 29.6834 31.0976 30.3166 30.7071 30.7071C30.3166 31.0976 29.6834 31.0976 29.2929 30.7071L27.5858 29C27.2107 28.6249 27 28.1162 27 27.5858V24C27 23.4477 27.4477 23 28 23Z" fill="currentColor"/>
<path d="M60 28C60 23.5817 63.5817 20 68 20C70.5171 20 72.7288 21.1635 74.1822 22.9932L72.5029 22.9883C71.9506 22.9867 71.5016 23.4331 71.5 23.9854C71.4984 24.5376 71.9448 24.9867 72.4971 24.9883L75.9399 24.9984C75.9783 25.0007 76.017 25.0008 76.0557 24.9987L76.4971 25C76.7628 25.0008 77.0179 24.8958 77.2061 24.7081C77.3942 24.5205 77.5 24.2657 77.5 24L77.5 20C77.5 19.4477 77.0523 19 76.5 19C75.9477 19 75.5 19.4477 75.5 20L75.5 21.4495C73.6875 19.3404 71.023 18 68 18C62.4772 18 58 22.4772 58 28C58 33.5228 62.4772 38 68 38C71.9359 38 75.2641 35.7278 76.8955 32.445C77.1413 31.9505 76.9396 31.3503 76.445 31.1045C75.9505 30.8587 75.3503 31.0604 75.1045 31.555C73.7905 34.1991 71.1315 36 68 36C63.5817 36 60 32.4183 60 28Z" fill="currentColor"/>
<path fill-rule="evenodd" clip-rule="evenodd" d="M68 23C68.5523 23 69 23.4477 69 24V27.5858L70.7071 29.2929C71.0976 29.6834 71.0976 30.3166 70.7071 30.7071C70.3166 31.0976 69.6834 31.0976 69.2929 30.7071L67.5858 29C67.2107 28.6249 67 28.1162 67 27.5858V24C67 23.4477 67.4477 23 68 23Z" fill="currentColor"/>
</svg>
