<svg width="24" height="24" color="#6F767E" viewBox="16 16 24 24" fill="none" xmlns="http://www.w3.org/2000/svg">

<path d="M33.2071 25.2905C33.5976 25.681 33.5976 26.3142 33.2071 26.7047C32.8166 27.0952 32.1834 27.0952 31.7929 26.7047L29.002 23.9138V31C29.002 31.5523 28.5542 32 28.002 32C27.4497 32 27.002 31.5523 27.002 31V23.9137L24.209 26.7067C23.8184 27.0972 23.1853 27.0972 22.7948 26.7067C22.4042 26.3161 22.4042 25.683 22.7948 25.2925L27.2948 20.7924C27.4823 20.6049 27.7367 20.4995 28.0019 20.4995C28.2671 20.4995 28.5215 20.6049 28.709 20.7924L33.2071 25.2905Z" fill="currentColor"/>
<path fill-rule="evenodd" clip-rule="evenodd" d="M20 30C20.5523 30 21 30.4477 21 31V33C21 33.5523 21.4477 34 22 34H34C34.5523 34 35 33.5523 35 33V31C35 30.4477 35.4477 30 36 30C36.5523 30 37 30.4477 37 31V33C37 34.6568 35.6569 36 34 36H22C20.3431 36 19 34.6568 19 33V31C19 30.4477 19.4477 30 20 30Z" fill="currentColor"/>
<path d="M73.2071 25.2905C73.5976 25.681 73.5976 26.3142 73.2071 26.7047C72.8166 27.0952 72.1834 27.0952 71.7929 26.7047L69.0019 23.9137V31C69.0019 31.5523 68.5542 32 68.0019 32C67.4496 32 67.0019 31.5523 67.0019 31V23.9137L64.209 26.7067C63.8184 27.0972 63.1853 27.0972 62.7948 26.7067C62.4042 26.3161 62.4042 25.683 62.7948 25.2925L67.2948 20.7924C67.4823 20.6049 67.7367 20.4995 68.0019 20.4995C68.2671 20.4995 68.5215 20.6049 68.709 20.7924L73.2071 25.2905Z" fill="currentColor"/>
<path fill-rule="evenodd" clip-rule="evenodd" d="M60 30C60.5523 30 61 30.4477 61 31V33C61 33.5523 61.4477 34 62 34H74C74.5523 34 75 33.5523 75 33V31C75 30.4477 75.4477 30 76 30C76.5523 30 77 30.4477 77 31V33C77 34.6568 75.6569 36 74 36H62C60.3431 36 59 34.6568 59 33V31C59 30.4477 59.4477 30 60 30Z" fill="currentColor"/>
</svg>
