<svg width="24" height="24" viewBox="16 16 24 24" fill="none" xmlns="http://www.w3.org/2000/svg">

<path fill-rule="evenodd" clip-rule="evenodd" d="M23.2029 20.5146C24.3538 18.4951 27.265 18.4951 28.4158 20.5146L35.2208 32.4556C36.3606 34.4555 34.9163 36.941 32.6144 36.941H19.0044C16.7025 36.941 15.2582 34.4555 16.398 32.4556L23.2029 20.5146ZM25.8093 29.941C26.3616 29.941 26.8093 29.4932 26.8093 28.941V23.941C26.8093 23.3887 26.3616 22.941 25.8093 22.941C25.2571 22.941 24.8093 23.3887 24.8093 23.941V28.941C24.8093 29.4932 25.2571 29.941 25.8093 29.941ZM25.8093 33.941C26.3616 33.941 26.8093 33.4932 26.8093 32.941C26.8093 32.3887 26.3616 31.941 25.8093 31.941C25.2571 31.941 24.8093 32.3887 24.8093 32.941C24.8093 33.4932 25.2571 33.941 25.8093 33.941Z" fill="currentColor"/>
<path fill-rule="evenodd" clip-rule="evenodd" d="M67.9998 31C68.5521 31 68.9998 30.5523 68.9998 30V25C68.9998 24.4478 68.5521 24 67.9998 24C67.4475 24 66.9998 24.4478 66.9998 25V30C66.9998 30.5523 67.4475 31 67.9998 31Z" fill="currentColor"/>
<path fill-rule="evenodd" clip-rule="evenodd" d="M75.6736 33.5049L68.8686 21.564C68.485 20.8908 67.5146 20.8908 67.131 21.564L60.326 33.5049C59.9461 34.1716 60.4275 35 61.1949 35H74.8048C75.5721 35 76.0535 34.1716 75.6736 33.5049ZM70.6063 20.5737C69.4554 18.5542 66.5442 18.5542 65.3934 20.5737L58.5884 32.5147C57.4486 34.5146 58.8929 37 61.1949 37H74.8048C77.1067 37 78.551 34.5146 77.4113 32.5147L70.6063 20.5737Z" fill="currentColor"/>
<path d="M68.9998 33C68.9998 33.5523 68.5521 34 67.9998 34C67.4475 34 66.9998 33.5523 66.9998 33C66.9998 32.4478 67.4475 32 67.9998 32C68.5521 32 68.9998 32.4478 68.9998 33Z" fill="currentColor"/>
</svg>
