<svg viewBox="0 0 24 24" fill="none" xmlns="http://www.w3.org/2000/svg">
<rect x="6.5" y="6" width="11" height="12" rx="5.5" fill="white"/>
<path fill-rule="evenodd" clip-rule="evenodd" d="M9.39335 4.54391C10.5442 2.52443 13.4554 2.52442 14.6063 4.54391L21.4113 16.4849C22.551 18.4848 21.1067 20.9703 18.8048 20.9703H5.19485C2.89293 20.9703 1.44865 18.4848 2.58839 16.4849L9.39335 4.54391ZM11.9998 13.9702C12.5521 13.9702 12.9998 13.5225 12.9998 12.9702V7.97026C12.9998 7.41797 12.5521 6.97026 11.9998 6.97026C11.4475 6.97026 10.9998 7.41797 10.9998 7.97026V12.9702C10.9998 13.5225 11.4475 13.9702 11.9998 13.9702ZM11.9998 17.9703C12.5521 17.9703 12.9998 17.5225 12.9998 16.9703C12.9998 16.418 12.5521 15.9703 11.9998 15.9703C11.4475 15.9703 10.9998 16.418 10.9998 16.9703C10.9998 17.5225 11.4475 17.9703 11.9998 17.9703Z" fill="currentColor"/>
</svg>
