<svg preserveAspectRatio="none" width="100%" height="100%" overflow="visible" style="display: block;" viewBox="0 0 38.5129 20.2848" fill="none" xmlns="http://www.w3.org/2000/svg">
<g id="Group 2147226398">
<path id="Vector" d="M17.9293 5.88477H14.9628C14.794 5.88477 14.6572 6.01965 14.6572 6.18604V15.7391C14.6572 15.9055 14.794 16.0404 14.9628 16.0404H17.9293C18.098 16.0404 18.2348 15.9055 18.2348 15.7391V6.18604C18.2348 6.01965 18.098 5.88477 17.9293 5.88477Z" fill="var(--fill-0, white)"/>
<path id="Vector_2" d="M37.0535 7.67162L34.1745 6.95647C34.0107 6.91579 33.8449 7.0158 33.8041 7.17986L31.4644 16.5989C31.4237 16.7629 31.5234 16.9289 31.6871 16.9696L34.5662 17.6847C34.73 17.7254 34.8958 17.6254 34.9365 17.4613L37.2762 8.04232C37.317 7.87826 37.2173 7.71229 37.0535 7.67162Z" fill="var(--fill-0, white)"/>
<g id="Group">
<g id="Group_2">
<path id="Vector_3" d="M16.4364 1.08214C17.5024 1.08214 18.2803 1.865 18.2803 2.86943C18.2803 3.87385 17.5024 4.62963 16.4364 4.62963C15.3704 4.62963 14.622 3.87631 14.622 2.86943C14.622 1.865 15.3999 1.08214 16.4364 1.08214Z" fill="var(--fill-0, white)"/>
</g>
<path id="Vector_4" d="M12.677 6.24248C13.7307 9.15482 12.2191 12.37 9.30914 13.4286L7.51197 14.0834C7.35441 14.14 7.27563 14.3124 7.33226 14.4699L8.7503 18.3645C8.80692 18.5221 8.72568 18.6944 8.57058 18.751L5.7345 19.7825C5.57694 19.8392 5.40461 19.7579 5.34799 19.6028L0.0180402 4.96233C-0.0385829 4.80477 0.0426588 4.63244 0.197757 4.57582L5.39723 2.68267C8.82415 1.43453 11.3968 2.70483 12.6745 6.24248H12.677ZM7.98711 10.4202C9.42731 9.89583 9.82121 8.98249 9.26729 7.46108C8.6986 5.90028 7.81971 5.47193 6.37705 5.99629L4.7793 6.57729C4.62174 6.63391 4.54296 6.80624 4.59958 6.96379L6.00285 10.819C6.05947 10.9766 6.2318 11.0554 6.38936 10.9987L7.98711 10.4177V10.4202Z" fill="var(--fill-0, white)"/>
<path id="Vector_5" d="M24.1278 11.9636L23.473 16.1881C23.4484 16.353 23.2933 16.4662 23.1283 16.4392L20.2307 15.9887C20.0658 15.964 19.9525 15.8089 19.9796 15.644L22.3676 0.255109C22.3922 0.0901662 22.5473 -0.0230771 22.7123 0.00400301L25.6099 0.454518C25.7748 0.479136 25.8881 0.63423 25.861 0.799172L24.7015 8.26836C24.6547 8.57363 25.0437 8.74349 25.2357 8.50223L29.1845 3.52688C29.251 3.44318 29.3593 3.39886 29.4676 3.4161L32.6287 3.906C32.8576 3.94047 32.9635 4.21127 32.8182 4.39344L27.7197 10.7179C27.6754 10.772 27.6655 10.8459 27.6926 10.9099L31.4741 20.0236C31.5307 20.159 31.4174 20.3067 31.2722 20.2821L27.8576 19.7528C27.7936 19.7429 27.7394 19.7011 27.7123 19.6395L24.4873 11.9168C24.4134 11.742 24.1574 11.774 24.1278 11.9611V11.9636Z" fill="var(--fill-0, white)"/>
<g id="Group_3">
<path id="Vector_6" d="M36.9739 2.66091C38.006 2.92718 38.5654 3.87683 38.3141 4.85084C38.0628 5.82485 37.1236 6.36116 36.0916 6.09488C35.0595 5.82861 34.5225 4.9117 34.7715 3.94035C35.0228 2.96634 35.9696 2.40224 36.9739 2.66091Z" fill="var(--fill-0, white)"/>
</g>
</g>
</g>
</svg>
