<svg preserveAspectRatio="none" width="100%" height="100%" overflow="visible" style="display: block;" viewBox="0 0 63.9284 46.5897" fill="none" xmlns="http://www.w3.org/2000/svg">
<g id="Group 2147226396">
<path id="Vector 1410" d="M60.65 19.9609H3.2802C1.46859 19.9609 0 18.4923 0 16.6807C0 15.039 1.21364 13.6502 2.8405 13.4301L29.0889 9.87961C30.8952 9.63529 32.726 9.63412 34.5326 9.87612L61.0852 13.4331C62.7131 13.6512 63.9284 15.0401 63.9284 16.6825C63.9284 18.4931 62.4606 19.9609 60.65 19.9609Z" fill="var(--fill-0, black)"/>
<path id="Vector" d="M61.8354 18.5244L56.3802 43.7739C56.0247 45.4246 54.689 46.5897 53.1568 46.5897H10.5155C8.98039 46.5897 7.64767 45.4246 7.29208 43.7739L1.83398 18.5244H61.8354Z" fill="var(--fill-0, black)"/>
<path id="Vector 1399 (Stroke)" d="M38.3569 0C40.6638 3.95864e-05 42.7954 1.23081 43.9489 3.22866L49.1527 12.242C49.615 13.0427 49.3407 14.0664 48.5401 14.5287C47.7394 14.991 46.7155 14.7168 46.2532 13.9161L41.0493 4.90278C40.494 3.94086 39.4676 3.34828 38.3569 3.34824H25.6037C24.4929 3.34826 23.4666 3.94086 22.9112 4.90278L17.0168 15.1124C16.5545 15.9131 15.5305 16.1875 14.7298 15.7252C13.9291 15.2629 13.6547 14.239 14.117 13.4383L20.0114 3.22866C21.1649 1.23075 23.2967 1.75219e-05 25.6037 0H38.3569Z" fill="var(--fill-0, black)"/>
</g>
</svg>
