<svg width="14" height="14" viewBox="0 0 14 14" fill="none" xmlns="http://www.w3.org/2000/svg">
<path fill-rule="evenodd" clip-rule="evenodd" d="M1.16675 2.91663C1.16675 1.95013 1.95025 1.16663 2.91675 1.16663H11.0834C12.0499 1.16663 12.8334 1.95013 12.8334 2.91663V11.0833C12.8334 12.0498 12.0499 12.8333 11.0834 12.8333H2.91675C1.95025 12.8333 1.16675 12.0498 1.16675 11.0833V2.91663ZM11.1319 11.6646C11.4134 11.6415 11.4086 11.2853 11.2179 11.077L6.16536 5.55905C5.44944 4.77805 4.20922 4.80733 3.53095 5.62125L2.46862 6.89605C2.38126 7.00088 2.33341 7.13303 2.33341 7.26949V11.0833C2.33341 11.4055 2.59458 11.6666 2.91675 11.6666H11.0834C11.0997 11.6666 11.1159 11.666 11.1319 11.6646ZM9.91675 5.24996C10.5611 5.24996 11.0834 4.72763 11.0834 4.08329C11.0834 3.43896 10.5611 2.91663 9.91675 2.91663C9.27242 2.91663 8.75008 3.43896 8.75008 4.08329C8.75008 4.72763 9.27242 5.24996 9.91675 5.24996Z" fill="#8AD9BB"/>
</svg>
