<svg width="14" height="14" viewBox="0 0 14 14" fill="none" xmlns="http://www.w3.org/2000/svg">
<path fill-rule="evenodd" clip-rule="evenodd" d="M5.86512 1.36763C6.5192 0.810235 7.48121 0.810235 8.13528 1.36763L8.87697 1.9997C8.9704 2.07932 9.08656 2.12743 9.20893 2.1372L10.1803 2.21472C11.037 2.28308 11.7172 2.96332 11.7856 3.81996L11.8631 4.79135C11.8728 4.91372 11.921 5.02988 12.0006 5.12331L12.6326 5.865C13.19 6.51907 13.19 7.48108 12.6326 8.13516L12.0006 8.87685C11.921 8.97028 11.8728 9.08644 11.8631 9.20881L11.7856 10.1802C11.7172 11.0368 11.037 11.7171 10.1803 11.7854L9.20893 11.863C9.08656 11.8727 8.9704 11.9208 8.87697 12.0005L8.13528 12.6325C7.48121 13.1899 6.5192 13.1899 5.86512 12.6325L5.12343 12.0005C5.03 11.9208 4.91384 11.8727 4.79147 11.863L3.82008 11.7854C2.96344 11.7171 2.2832 11.0368 2.21484 10.1802L2.13732 9.20881C2.12756 9.08644 2.07944 8.97028 1.99982 8.87685L1.36776 8.13516C0.810357 7.48108 0.810357 6.51907 1.36776 5.865L1.99982 5.12331C2.07944 5.02988 2.12756 4.91372 2.13732 4.79135L2.21484 3.81996C2.2832 2.96332 2.96344 2.28308 3.82008 2.21472L4.79147 2.1372C4.91384 2.12743 5.03 2.07932 5.12343 1.9997L5.86512 1.36763ZM4.95856 5.8334C5.44181 5.8334 5.83356 5.44165 5.83356 4.9584C5.83356 4.47515 5.44181 4.0834 4.95856 4.0834C4.47531 4.0834 4.08356 4.47515 4.08356 4.9584C4.08356 5.44165 4.47531 5.8334 4.95856 5.8334ZM9.91689 9.04173C9.91689 9.52498 9.52514 9.91673 9.04189 9.91673C8.55864 9.91673 8.16689 9.52498 8.16689 9.04173C8.16689 8.55848 8.55864 8.16673 9.04189 8.16673C9.52514 8.16673 9.91689 8.55848 9.91689 9.04173ZM9.39286 5.04019C9.5991 4.79269 9.56567 4.42486 9.31817 4.21862C9.07068 4.01237 8.70285 4.04581 8.4966 4.29331L4.60771 8.95997C4.40147 9.20747 4.43491 9.5753 4.6824 9.78154C4.9299 9.98779 5.29772 9.95435 5.50397 9.70685L9.39286 5.04019Z" fill="#74ABF9"/>
</svg>
