<svg width="14" height="14" viewBox="0 0 14 14" fill="none" xmlns="http://www.w3.org/2000/svg">
<path d="M1.16675 7.00004C1.16675 6.35571 1.68908 5.83338 2.33341 5.83338H2.91675C3.23891 5.83338 3.50008 6.09454 3.50008 6.41671V11.6667C3.50008 11.9889 3.23891 12.25 2.91675 12.25H2.33341C1.68908 12.25 1.16675 11.7277 1.16675 11.0834V7.00004Z" fill="#FAE488"/>
<path d="M13.015 7.3064C13.2174 6.56442 12.659 5.83307 11.8899 5.83276L8.83182 5.83153C8.64212 5.83145 8.50297 5.65316 8.54898 5.46912L8.96632 3.79976C9.18081 2.9418 8.77063 2.04999 7.97963 1.65449C7.50681 1.41807 6.94371 1.72844 6.89111 2.25445L6.76407 3.5248C6.72787 3.88683 6.57973 4.22858 6.34026 4.50249L4.95508 6.0869C4.7692 6.29953 4.66675 6.57236 4.66675 6.85479V11.0834C4.66675 11.7277 5.18908 12.25 5.83342 12.25H10.3301C11.1193 12.25 11.8108 11.7219 12.0184 10.9605L13.015 7.3064Z" fill="#FAE488"/>
</svg>
