<svg width="14" height="14" viewBox="0 0 14 14" fill="none" xmlns="http://www.w3.org/2000/svg">
<path fill-rule="evenodd" clip-rule="evenodd" d="M2.33325 2.33337C1.36675 2.33337 0.583252 3.11688 0.583252 4.08337V9.33337C0.583252 10.1231 1.10632 10.7906 1.8249 11.0084C2.04269 11.727 2.71022 12.25 3.49992 12.25C4.26188 12.25 4.9101 11.7631 5.15034 11.0834H8.8495C9.08974 11.7631 9.73796 12.25 10.4999 12.25C11.2668 12.25 11.9184 11.7568 12.1549 11.0702C12.8673 10.9742 13.4166 10.3638 13.4166 9.62504V6.8056C13.4166 6.55316 13.3347 6.30754 13.1833 6.1056L12.0166 4.55004C11.7963 4.25627 11.4505 4.08337 11.0833 4.08337H9.91658C9.91658 3.11688 9.13308 2.33337 8.16659 2.33337H2.33325ZM10.2083 5.25004C10.0472 5.25004 9.91658 5.38062 9.91658 5.54171V7.29171C9.91658 7.45279 10.0472 7.58337 10.2083 7.58337H11.9583C12.1193 7.58337 12.2499 7.45279 12.2499 7.29171V6.90282C12.2499 6.83971 12.2294 6.7783 12.1916 6.72782L11.1708 5.36671C11.1157 5.29326 11.0292 5.25004 10.9374 5.25004H10.2083ZM4.08325 10.5C4.08325 10.8222 3.82208 11.0834 3.49992 11.0834C3.17775 11.0834 2.91659 10.8222 2.91659 10.5C2.91659 10.1779 3.17775 9.91671 3.49992 9.91671C3.82208 9.91671 4.08325 10.1779 4.08325 10.5ZM10.4999 11.0834C10.8221 11.0834 11.0833 10.8222 11.0833 10.5C11.0833 10.1779 10.8221 9.91671 10.4999 9.91671C10.1778 9.91671 9.91658 10.1779 9.91658 10.5C9.91658 10.8222 10.1778 11.0834 10.4999 11.0834Z" fill="#FCAD79"/>
</svg>
