<svg width="12" height="12" viewBox="0 0 12 12" fill="none" xmlns="http://www.w3.org/2000/svg">
<path fill-rule="evenodd" clip-rule="evenodd" d="M10.373 0.501319C10.3049 0.0255166 9.72282 -0.168361 9.38299 0.171557L8.62368 0.931074C7.79482 0.478743 6.8441 0.22167 5.83333 0.22167C2.61167 0.22167 0 2.83334 0 6.055C0 9.27666 2.61167 11.8883 5.83333 11.8883C9.05499 11.8883 11.6667 9.27666 11.6667 6.055C11.6667 5.04416 11.4096 4.09337 10.9572 3.26446L11.7167 2.50495C12.0566 2.16504 11.8625 1.58297 11.3867 1.515L10.4999 1.38834L10.373 0.501319ZM8.8885 3.8248L9.91954 3.97209C9.95087 3.97657 9.98225 3.97846 10.0134 3.97785C10.3248 4.60341 10.5 5.30875 10.5 6.055C10.5 8.63233 8.41066 10.7217 5.83333 10.7217C3.256 10.7217 1.16667 8.63233 1.16667 6.055C1.16667 3.47767 3.256 1.38834 5.83333 1.38834C6.57956 1.38834 7.28488 1.56349 7.91043 1.87492C7.90983 1.90604 7.91172 1.93739 7.91619 1.96869L8.0635 2.99988L7.86131 3.20207C7.28917 2.79463 6.58923 2.555 5.83333 2.555C3.90034 2.555 2.33333 4.12201 2.33333 6.055C2.33333 7.988 3.90034 9.555 5.83333 9.555C7.76633 9.555 9.33333 7.988 9.33333 6.055C9.33333 5.2991 9.09371 4.59917 8.68627 4.02702L8.8885 3.8248ZM5.83333 3.72167C6.26606 3.72167 6.67127 3.83946 7.01865 4.04473L6.13553 4.92785C6.03914 4.90208 5.93784 4.88834 5.83333 4.88834C5.189 4.88834 4.66667 5.41067 4.66667 6.055C4.66667 6.69933 5.189 7.22167 5.83333 7.22167C6.47767 7.22167 7 6.69933 7 6.055C7 5.95049 6.98626 5.84919 6.96048 5.75281L7.84361 4.86969C8.04887 5.21707 8.16667 5.62228 8.16667 6.055C8.16667 7.34367 7.122 8.38834 5.83333 8.38834C4.54467 8.38834 3.5 7.34367 3.5 6.055C3.5 4.76634 4.54467 3.72167 5.83333 3.72167Z" fill="#B19DEF"/>
</svg>
