<svg preserveAspectRatio="none" width="100%" height="100%" overflow="visible" style="display: block;" viewBox="0 0 27 26" fill="none" xmlns="http://www.w3.org/2000/svg">
<g id="&#240;&#159;&#165;&#137; &#235;&#143;&#153;&#235;&#169;&#148;&#235;&#139;&#172;" clip-path="url(#clip0_0_4)">
<g id="Vector">
</g>
<g id="Group">
<g id="Group_2">
<path id="Vector_2" d="M11.8405 12.8629H16.7181C16.9672 12.8629 17.1953 12.727 17.306 12.5112L22.4367 2.53695C22.6527 2.11705 22.3354 1.625 21.8488 1.625H16.9712C16.7221 1.625 16.494 1.76085 16.3833 1.97665L11.2526 11.9509C11.0366 12.3708 11.3539 12.8629 11.8405 12.8629Z" fill="var(--fill-0, #FF9000)"/>
<path id="Vector_3" d="M15.1534 12.8629H10.2759C10.0268 12.8629 9.79866 12.727 9.68796 12.5112L4.55729 2.53695C4.34129 2.11705 4.65854 1.625 5.14521 1.625H10.0228C10.2718 1.625 10.5 1.76085 10.6107 1.97665L15.7414 11.9509C15.9574 12.3708 15.6401 12.8629 15.1534 12.8629Z" fill="var(--fill-0, #FFAD00)"/>
<path id="Vector_4" d="M13.498 24.375C18.3898 24.375 22.3553 20.5563 22.3553 15.8457C22.3553 11.1351 18.3898 7.31641 13.498 7.31641C8.6062 7.31641 4.64062 11.1351 4.64062 15.8457C4.64062 20.5563 8.6062 24.375 13.498 24.375Z" fill="var(--fill-0, #9C5522)"/>
<path id="Vector_5" d="M13.4956 22.6695C17.4088 22.6695 20.5811 19.6148 20.5811 15.8465C20.5811 12.0782 17.4088 9.02344 13.4956 9.02344C9.58243 9.02344 6.41016 12.0782 6.41016 15.8465C6.41016 19.6148 9.58243 22.6695 13.4956 22.6695Z" fill="var(--fill-0, #CF712D)"/>
</g>
<path id="Vector_6" d="M13.5939 18.2987C14.3708 18.2987 14.7805 17.8944 14.7913 17.3179C14.8014 16.6607 14.466 16.3169 13.521 16.3169H12.6914V14.9415H13.4892C14.1825 14.9415 14.5713 14.5671 14.5713 14.0211C14.5713 13.4952 14.2243 13.1208 13.5628 13.1208C12.9013 13.1208 12.4707 13.5258 12.4079 14.062H10.5915C10.6961 12.7367 11.9772 11.7461 13.5628 11.7461C15.1484 11.7461 16.335 12.5859 16.335 13.8495C16.335 14.6893 15.8308 15.3763 14.8541 15.5583C15.9253 15.6903 16.5551 16.3877 16.5551 17.3179C16.5551 18.7037 15.3158 19.6741 13.5939 19.6741C11.9867 19.6741 10.6637 18.7544 10.5273 17.3588H12.3444C12.4808 17.925 12.9324 18.2987 13.5939 18.2987Z" fill="var(--fill-0, white)"/>
</g>
</g>
<defs>
<clipPath id="clip0_0_4">
<rect width="27" height="26" fill="white"/>
</clipPath>
</defs>
</svg>
