<svg preserveAspectRatio="none" width="100%" height="100%" overflow="visible" style="display: block;" viewBox="0 0 26 26" fill="none" xmlns="http://www.w3.org/2000/svg">
<g id="&#240;&#159;&#165;&#136; &#236;&#157;&#128;&#235;&#169;&#148;&#235;&#139;&#172;" clip-path="url(#clip0_0_13)">
<g id="Vector">
</g>
<g id="Group">
<g id="Group_2">
<path id="Vector_2" d="M11.4061 12.8629H16.103C16.3429 12.8629 16.5626 12.727 16.6692 12.5112L21.6098 2.53695C21.8178 2.11705 21.5123 1.625 21.0437 1.625H16.3468C16.1069 1.625 15.8872 1.76085 15.7806 1.97665L10.84 11.9509C10.632 12.3708 10.9375 12.8629 11.4061 12.8629Z" fill="var(--fill-0, #1E6EF4)"/>
<path id="Vector_3" d="M14.5944 12.8629H9.89755C9.6577 12.8629 9.438 12.727 9.3314 12.5112L4.39075 2.53695C4.18275 2.11705 4.48825 1.625 4.9569 1.625H9.6538C9.89365 1.625 10.1133 1.76085 10.2199 1.97665L15.1606 11.9509C15.3686 12.3708 15.0631 12.8629 14.5944 12.8629Z" fill="var(--fill-0, #4592FB)"/>
<path id="Vector_4" d="M12.9981 24.375C17.7087 24.375 21.5274 20.5563 21.5274 15.8457C21.5274 11.1351 17.7087 7.31641 12.9981 7.31641C8.28753 7.31641 4.46883 11.1351 4.46883 15.8457C4.46883 20.5563 8.28753 24.375 12.9981 24.375Z" fill="var(--fill-0, #8595AA)"/>
<path id="Vector_5" d="M12.9989 22.6695C16.7672 22.6695 19.822 19.6148 19.822 15.8465C19.822 12.0782 16.7672 9.02344 12.9989 9.02344C9.23064 9.02344 6.17586 12.0782 6.17586 15.8465C6.17586 19.6148 9.23064 22.6695 12.9989 22.6695Z" fill="var(--fill-0, #ABB7C7)"/>
</g>
<path id="Vector_6" d="M12.9938 11.7858C14.8235 11.7858 15.6731 12.8174 15.6731 14.1622C15.6731 15.1931 15.0965 15.8912 14.2977 16.6595L12.7611 18.1259H15.7036V19.4805H10.516V18.4789L13.0341 15.9816C13.8329 15.1925 14.0052 14.809 14.0052 14.2727C14.0052 13.5246 13.5801 13.1495 12.9834 13.1495C12.3769 13.1495 11.9817 13.6149 11.9817 14.2727L10.293 14.2623C10.334 12.8674 11.4559 11.7852 12.9938 11.7852V11.7858Z" fill="var(--fill-0, white)"/>
</g>
</g>
<defs>
<clipPath id="clip0_0_13">
<rect width="26" height="26" fill="white"/>
</clipPath>
</defs>
</svg>
